<?xml version="1.0" encoding="utf-8"?>
<!-- Generator: Adobe Illustrator 21.1.0, SVG Export Plug-In . SVG Version: 6.00 Build 0)  -->
<svg version="1.1" id="Layer_1" xmlns="http://www.w3.org/2000/svg" xmlns:xlink="http://www.w3.org/1999/xlink" x="0px" y="0px"
	 viewBox="0 0 1224 792" style="enable-background:new 0 0 1224 792;" xml:space="preserve">
<style type="text/css">
	.st0{fill:#5E5760;stroke:#FFFFFF;stroke-width:2;stroke-miterlimit:10;}
	.st1{fill:#E2856A;stroke:#FFFFFF;stroke-width:2;stroke-miterlimit:10;}
	.st2{fill:#F0CA7C;stroke:#FFFFFF;stroke-width:2;stroke-miterlimit:10;}
	.st3{fill:#1989B6;stroke:#FFFFFF;stroke-width:2;stroke-miterlimit:10;}
	.st4{fill:#84A982;stroke:#FFFFFF;stroke-width:2;stroke-miterlimit:10;}
	.st5{fill:none;}
	.st6{font-family:'Roboto-Medium';}
	.st7{font-size:16.8px;}
	.st8{font-family:'Roboto-Regular';}
	.st9{fill:#010202;}
	.st10{font-family:'Roboto-Thin';}
	.st11{font-size:57.6px;}
	.st12{fill:#C7164C;}
	.st13{font-family:'Roboto-Light';}
	.st14{font-size:36px;}
	.st15{fill:#676766;}
	.st16{font-size:28.8px;}
</style>
<g>
	<g>
		<path class="st0" d="M928.8,456.3L804.2,240.5c38.5-22.2,80.1-33.4,124.6-33.4V456.3z"/>
	</g>
</g>
<g>
	<g>
		<path class="st1" d="M928.8,456.3L686,512.3c-25.2-109.2,21.2-215.8,118.2-271.9L928.8,456.3z"/>
	</g>
</g>
<path class="st2" d="M273.2,459.3l-49.1-58.5c14.4-12,30.4-17.9,49.1-17.9V459.3z"/>
<path class="st3" d="M273.2,459.3h-76.4c0-23.4,9.4-43.5,27.3-58.5L273.2,459.3z"/>
<path class="st3" d="M928.8,456.3L740.7,619.8c-28.3-32.5-45-65.5-54.7-107.4L928.8,456.3z"/>
<path class="st4" d="M273.2,459.3v-76.4c42.2,0,76.4,34.2,76.4,76.4s-34.2,76.4-76.4,76.4s-76.4-34.2-76.4-76.4l0,0H273.2z"/>
<path class="st4" d="M928.8,456.3V207.1c137.6,0,249.2,111.6,249.2,249.2s-111.6,249.2-249.2,249.2c-75.4,0-138.6-28.8-188.1-85.7
	L928.8,456.3z"/>
<g>
	<g>
	</g>
	<g>
	</g>
	<g>
	</g>
	<g>
	</g>
	<g>
	</g>
</g>
<rect x="897.9" y="715.3" class="st5" width="100.5" height="43"/>
<text transform="matrix(1 0 0 1 897.8701 728.1104)"><tspan x="0" y="0" class="st6 st7">Chrome</tspan><tspan x="0" y="20.2" class="st8 st7">244 minutes</tspan></text>
<rect x="254.5" y="541.3" class="st5" width="165.4" height="86"/>
<text transform="matrix(1 0 0 1 254.4927 554.0918)"><tspan x="0" y="0" class="st6 st7">Chrome</tspan><tspan x="0" y="20.2" class="st8 st7">27 minutes</tspan></text>
<rect x="594.8" y="360.5" class="st5" width="130.8" height="68"/>
<text transform="matrix(1 0 0 1 594.8398 373.3325)"><tspan x="0" y="0" class="st6 st7">Atom</tspan><tspan x="0" y="20.2" class="st8 st7">78 minutes</tspan></text>
<rect x="809.6" y="170.5" class="st5" width="227" height="118"/>
<text transform="matrix(1 0 0 1 809.5547 183.2603)"><tspan x="0" y="0" class="st6 st7">Powerpoint</tspan><tspan x="0" y="20.2" class="st8 st7">31 minutes</tspan></text>
<rect x="624.3" y="557.9" class="st5" width="227" height="118"/>
<text transform="matrix(1 0 0 1 624.3047 570.6709)"><tspan x="0" y="0" class="st6 st7">Skype</tspan><tspan x="0" y="20.2" class="st8 st7">30 minutes</tspan></text>
<rect x="117.1" y="417.6" class="st5" width="227" height="118"/>
<text transform="matrix(1 0 0 1 117.1133 430.4365)"><tspan x="0" y="0" class="st6 st7">Skype</tspan><tspan x="0" y="20.2" class="st8 st7">5 minutes</tspan></text>
<rect x="192.4" y="346.9" class="st5" width="227" height="118"/>
<text transform="matrix(1 0 0 1 192.3882 359.6631)"><tspan x="0" y="0" class="st6 st7">Word</tspan><tspan x="0" y="20.2" class="st8 st7">4 minutes</tspan></text>
<polygon class="st5" points="730.2,129.5 26.4,129.5 26.4,60.1 580.2,60.1 "/>
<text transform="matrix(1 0 0 1 26.4453 103.9365)" class="st9 st10 st11">computer app usage</text>
<rect x="138.2" y="215.5" class="st5" width="276.1" height="43.8"/>
<text transform="matrix(1 0 0 1 138.2095 242.9604)" class="st12 st13 st14">sunday sept 24</text>
<rect x="138.2" y="254.3" class="st5" width="276.1" height="43.8"/>
<text transform="matrix(1 0 0 1 138.2095 276.2188)" class="st15 st6 st16">36 minutes</text>
<rect x="797.6" y="36.4" class="st5" width="277.9" height="47.4"/>
<text transform="matrix(1 0 0 1 797.6035 63.8062)" class="st12 st13 st14">monday sept 18</text>
<rect x="800.3" y="77.4" class="st5" width="277.9" height="47.4"/>
<text transform="matrix(1 0 0 1 800.2646 99.3501)" class="st15 st6 st16">383 minutes</text>
</svg>
