<?xml version="1.0" encoding="utf-8"?>
<!-- Generator: Adobe Illustrator 21.1.0, SVG Export Plug-In . SVG Version: 6.00 Build 0)  -->
<svg version="1.1" id="Layer_1" xmlns="http://www.w3.org/2000/svg" xmlns:xlink="http://www.w3.org/1999/xlink" x="0px" y="0px"
	 viewBox="0 0 1224 792" style="enable-background:new 0 0 1224 792;" xml:space="preserve">
<style type="text/css">
	.st0{fill:none;}
	.st1{fill:#010202;}
	.st2{font-family:'Roboto-Thin';}
	.st3{font-size:48px;}
	.st4{fill:#676766;stroke:#676766;stroke-miterlimit:10;}
	.st5{fill:#C7164C;}
	.st6{font-family:'Roboto-Light';}
	.st7{font-size:30px;}
	.st8{fill:#676766;}
	.st9{font-family:'Roboto-Medium';}
	.st10{font-size:24px;}
	.st11{fill:#FFFFFF;stroke:#1989B6;stroke-miterlimit:10;}
	.st12{fill:#FFFFFF;stroke:#FFFFFF;stroke-miterlimit:10;}
	.st13{font-family:'Roboto-Regular';}
	.st14{font-size:47.52px;}
	.st15{font-size:19.8px;}
	.st16{fill:none;stroke:#84A982;stroke-width:2;stroke-linecap:round;stroke-miterlimit:10;}
	.st17{fill:none;stroke:#6BB42D;stroke-width:2;stroke-linecap:round;stroke-miterlimit:10;}
	.st18{fill:#1989B6;}
	.st19{fill:#1989B6;stroke:#1989B6;stroke-width:0.5;stroke-miterlimit:10;}
	.st20{fill:#5E5760;}
	.st21{font-size:16.8px;}
	.st22{fill:#FFFFFF;stroke:#FFFFFF;stroke-width:2;stroke-miterlimit:10;}
</style>
<rect x="70.4" y="50.1" class="st0" width="433.6" height="57.9"/>
<text transform="matrix(1 0 0 1 70.3871 86.6959)" class="st1 st2 st3">phone illuminations</text>
<g>
	<title>02</title>
	<path class="st4" d="M978.8,116c-7,0-12.7,5.7-12.7,12.7v108.9c0,7,5.7,12.7,12.7,12.7h56.6c7,0,12.7-5.7,12.7-12.7V128.7
		c0-7-5.7-12.7-12.7-12.7H978.8z M971.7,138.6h70.7v70.3h-70.7V138.6z M1035.4,244.7h-56.6c-3.9,0-7.1-3.2-7.1-7.1v-23.1h70.7v23.1
		C1042.5,241.5,1039.3,244.7,1035.4,244.7z M1042.5,128.7v4.2h-70.7v-4.2c0-3.9,3.2-7.1,7.1-7.1h56.6
		C1039.3,121.7,1042.5,124.8,1042.5,128.7z"/>
	<path class="st4" d="M997.3,239h18.9v-18.9h-18.9V239z M1003,225.9h7.5v7.5h-7.5V225.9z"/>
</g>
<rect x="675.4" y="117.8" class="st0" width="281.8" height="40.8"/>
<text transform="matrix(1 0 0 1 675.3715 140.6197)" class="st5 st6 st7">week of sept 18–24</text>
<rect x="678.7" y="153.7" class="st0" width="231.6" height="39.5"/>
<text transform="matrix(1 0 0 1 678.7393 172.0273)" class="st8 st9 st10">457 illuminations</text>
<g>
	<g>
		<g>
			<line class="st11" x1="121.3" y1="759" x2="1070.8" y2="774.5"/>
			<g>
				<g>
					<line class="st11" x1="121.3" y1="759" x2="121.3" y2="742.5"/>
					<line class="st12" x1="134.5" y1="774.5" x2="213.7" y2="758"/>
					<line class="st12" x1="290.6" y1="774.5" x2="369.8" y2="758"/>
					<line class="st12" x1="446.6" y1="774.5" x2="525.8" y2="758"/>
					<line class="st12" x1="602.7" y1="774.5" x2="681.9" y2="758"/>
					<line class="st12" x1="758.7" y1="774.5" x2="837.9" y2="758"/>
					<line class="st12" x1="914.8" y1="774.5" x2="994" y2="758"/>
					<line class="st12" x1="1070.8" y1="774.5" x2="1070.8" y2="758"/>
				</g>
				<g>
				</g>
			</g>
		</g>
		<g>
			<g>
				<text transform="matrix(1 0 0 1 50.6709 778.2178)" class="st0 st13 st14">40</text>
				<text transform="matrix(1 0 0 1 81.8965 613.1973)" class="st0 st13 st15">60</text>
				<text transform="matrix(1 0 0 1 81.8965 448.1768)" class="st0 st13 st15">80</text>
				<text transform="matrix(1 0 0 1 70.7397 283.1533)" class="st0 st13 st15">100</text>
				<text transform="matrix(1 0 0 1 23.918 118.1328)" class="st0 st13 st14">120</text>
			</g>
			<line class="st12" x1="121.3" y1="759" x2="121.3" y2="98.9"/>
			<g>
				<g>
					<line class="st11" x1="121.3" y1="759" x2="148.6" y2="759"/>
					<line class="st12" x1="121.3" y1="594" x2="85" y2="609.5"/>
					<line class="st12" x1="121.3" y1="429" x2="85" y2="444.5"/>
					<line class="st12" x1="121.3" y1="264" x2="85" y2="279.4"/>
					<line class="st12" x1="121.3" y1="98.9" x2="148.6" y2="98.9"/>
				</g>
				<g>
				</g>
			</g>
		</g>
		<g>
			<g>
				<g>
					<line class="st16" x1="291.7" y1="626" x2="135.7" y2="254.7"/>
					<line class="st16" x1="447.8" y1="634.2" x2="291.7" y2="626"/>
					<line class="st16" x1="603.8" y1="411.4" x2="447.8" y2="634.2"/>
					<line class="st16" x1="603.8" y1="411.4" x2="759.9" y2="642.5"/>
					<line class="st17" x1="915.9" y1="716.7" x2="759.9" y2="642.5"/>
					<line class="st17" x1="915.9" y1="716.7" x2="1072" y2="675.5"/>
				</g>
			</g>
		</g>
		<g>
			<g>
				<g>
					<rect x="132.1" y="251.1" class="st18" width="7.1" height="7.1"/>
					<rect x="288.2" y="622.4" class="st19" width="7.1" height="7.1"/>
					<rect x="444.2" y="630.7" class="st19" width="7.1" height="7.1"/>
					<rect x="600.3" y="407.9" class="st19" width="7.1" height="7.1"/>
					<rect x="756.3" y="638.9" class="st19" width="7.1" height="7.1"/>
					<rect x="912.4" y="713.2" class="st18" width="7.1" height="7.1"/>
					<rect x="1068.4" y="671.9" class="st18" width="7.1" height="7.1"/>
				</g>
			</g>
		</g>
	</g>
	<rect x="154.7" y="238.9" class="st0" width="93.3" height="49.8"/>
	<text transform="matrix(1 0 0 1 154.6997 251.7476)"><tspan x="0" y="0" class="st20 st13 st21">Sunday</tspan><tspan x="0" y="20.2" class="st20 st13 st21">Sept 18</tspan></text>
	<rect x="251.7" y="638.4" class="st0" width="93.3" height="48.5"/>
	<text transform="matrix(1 0 0 1 251.7046 651.1816)"><tspan x="0" y="0" class="st20 st13 st21">Monday</tspan><tspan x="0" y="20.2" class="st20 st13 st21">Sept 19</tspan></text>
	<rect x="407.2" y="646.9" class="st0" width="93.3" height="48.7"/>
	<text transform="matrix(1 0 0 1 407.1987 659.7412)"><tspan x="0" y="0" class="st20 st13 st21">Tuesday</tspan><tspan x="0" y="20.2" class="st20 st13 st21">Sept 20</tspan></text>
	<rect x="626.9" y="398.7" class="st0" width="112.8" height="67.5"/>
	<text transform="matrix(1 0 0 1 626.8872 411.5215)"><tspan x="0" y="0" class="st20 st13 st21">Wednesday</tspan><tspan x="0" y="20.2" class="st20 st13 st21">Sept 21</tspan></text>
	<rect x="693.1" y="646.6" class="st0" width="93.3" height="56.6"/>
	<text transform="matrix(1 0 0 1 693.0625 659.3691)"><tspan x="0" y="0" class="st20 st13 st21">Thursday</tspan><tspan x="0" y="20.2" class="st20 st13 st21">Sept 22</tspan></text>
	<rect x="891.4" y="728.5" class="st0" width="93.3" height="36.9"/>
	<text transform="matrix(1 0 0 1 891.3779 741.2871)"><tspan x="0" y="0" class="st20 st13 st21">Friday</tspan><tspan x="0" y="20.2" class="st20 st13 st21">Sept 23</tspan></text>
	<rect x="1090.5" y="666.9" class="st0" width="93.3" height="54.3"/>
	<text transform="matrix(1 0 0 1 1090.5156 679.7129)"><tspan x="0" y="0" class="st20 st13 st21">Saturday</tspan><tspan x="0" y="20.2" class="st20 st13 st21">Sept 24</tspan></text>
	<polygon class="st0" points="106,257.9 224.2,247.1 224.2,223.7 106,234.5 	"/>
	<g>
		<rect x="405.2" y="584.6" class="st0" width="58.7" height="46.1"/>
		<text transform="matrix(1 0 0 1 405.1816 620.8574)" class="st18 st13 st14">57</text>
	</g>
	<g>
		<rect x="568.2" y="364.5" class="st0" width="58.7" height="46.1"/>
		<text transform="matrix(1 0 0 1 568.1655 400.7197)" class="st18 st13 st14">84</text>
	</g>
	<g>
		<rect x="757" y="597.7" class="st0" width="58.7" height="46.1"/>
		<text transform="matrix(1 0 0 1 757.0078 633.8857)" class="st18 st13 st14">56</text>
	</g>
	<g>
		<rect x="897.6" y="663.9" class="st0" width="58.7" height="46.1"/>
		<text transform="matrix(1 0 0 1 897.5938 700.0703)" class="st18 st13 st14">47</text>
	</g>
	<g>
		<rect x="1032.7" y="628.3" class="st0" width="58.7" height="46.1"/>
		<text transform="matrix(1 0 0 1 1032.6865 664.5576)" class="st18 st13 st14">52</text>
	</g>
	<g>
		<rect x="291.6" y="579.9" class="st0" width="58.7" height="46.1"/>
		<text transform="matrix(1 0 0 1 291.6338 616.1484)" class="st18 st13 st14">58</text>
	</g>
	<g>
		<rect x="64.6" y="205.5" class="st0" width="94.9" height="46.1"/>
		<text transform="matrix(1 0 0 1 64.6436 241.6665)" class="st18 st13 st14">103</text>
	</g>
	<line class="st22" x1="119.7" y1="759.1" x2="1069.2" y2="774.6"/>
	<path class="st22" d="M181.8,770.2"/>
	<path class="st22" d="M118.9,764.2"/>
</g>
</svg>
