<?xml version="1.0" encoding="utf-8"?>
<!-- Generator: Adobe Illustrator 21.1.0, SVG Export Plug-In . SVG Version: 6.00 Build 0)  -->
<svg version="1.1" id="Layer_1" xmlns="http://www.w3.org/2000/svg" xmlns:xlink="http://www.w3.org/1999/xlink" x="0px" y="0px"
	 viewBox="0 0 1224 792" style="enable-background:new 0 0 1224 792;" xml:space="preserve">
<style type="text/css">
	.st0{fill:none;}
	.st1{fill:#FFFFFF;stroke:#FFFFFF;stroke-miterlimit:10;}
	.st2{font-family:'MyriadPro-Regular';}
	.st3{font-size:29.8411px;}
	.st4{fill:#E2856A;}
	.st5{fill:#84A982;}
	.st6{fill:#010202;}
	.st7{font-family:'Roboto-Thin';}
	.st8{font-size:56px;}
	.st9{font-family:'Roboto-Medium';}
	.st10{font-size:16.8px;}
	.st11{font-family:'Roboto-Regular';}
	.st12{font-size:43.2px;}
	.st13{fill:#FFFFFF;}
	.st14{font-size:28.8px;}
</style>
<g>
	<g>
		<line class="st0" x1="314.6" y1="751.3" x2="951.2" y2="751.3"/>
		<g>
			<g>
				<line class="st1" x1="314.6" y1="751.3" x2="314.6" y2="735.7"/>
				<line class="st0" x1="441.9" y1="751.3" x2="441.9" y2="735.7"/>
				<line class="st0" x1="569.3" y1="751.3" x2="569.3" y2="735.7"/>
				<line class="st0" x1="696.6" y1="751.3" x2="696.6" y2="735.7"/>
				<line class="st0" x1="823.9" y1="751.3" x2="823.9" y2="735.7"/>
				<line class="st0" x1="951.2" y1="751.3" x2="951.2" y2="735.7"/>
			</g>
			<g>
			</g>
		</g>
	</g>
	<g>
		<g>
			<text transform="matrix(1 0 0 1 289.3608 762.5098)" class="st1 st2 st3">0</text>
			<g>
				<text transform="matrix(1 0 0 1 289.3608 673.1914)" class="st1 st2 st3">5</text>
			</g>
			<g>
				<text transform="matrix(1 0 0 1 274.0527 583.875)" class="st1 st2 st3">10</text>
			</g>
			<g>
				<text transform="matrix(1 0 0 1 274.0527 494.5576)" class="st1 st2 st3">15</text>
			</g>
			<g>
				<text transform="matrix(1 0 0 1 274.0527 405.2412)" class="st1 st2 st3">20</text>
			</g>
			<text transform="matrix(1 0 0 1 274.0527 315.9248)" class="st1 st2 st3">25</text>
			<text transform="matrix(1 0 0 1 274.0527 226.6064)" class="st1 st2 st3">30</text>
			<text transform="matrix(1 0 0 1 274.0527 137.291)" class="st0 st2 st3">35</text>
		</g>
		<line class="st1" x1="314.6" y1="751.3" x2="314.6" y2="126.1"/>
		<g>
			<g>
				<line class="st0" x1="314.6" y1="751.3" x2="330.5" y2="751.3"/>
				<line class="st0" x1="314.6" y1="662" x2="330.5" y2="662"/>
				<line class="st0" x1="314.6" y1="572.7" x2="330.5" y2="572.7"/>
				<line class="st0" x1="314.6" y1="483.4" x2="330.5" y2="483.4"/>
				<line class="st0" x1="314.6" y1="394.1" x2="330.5" y2="394.1"/>
				<line class="st0" x1="314.6" y1="304.7" x2="330.5" y2="304.7"/>
				<line class="st0" x1="314.6" y1="215.4" x2="330.5" y2="215.4"/>
				<line class="st0" x1="314.6" y1="126.1" x2="330.5" y2="126.1"/>
			</g>
			<g>
			</g>
		</g>
	</g>
	<g>
		<g>
			<g>
				<rect x="380.8" y="304.7" class="st4" width="45.8" height="446.6"/>
				<rect x="508.1" y="376.2" class="st4" width="45.8" height="375.1"/>
				<rect x="635.5" y="572.7" class="st4" width="45.8" height="178.6"/>
				<rect x="762.8" y="572.7" class="st4" width="45.8" height="178.6"/>
				<rect x="890.1" y="608.4" class="st4" width="45.8" height="142.9"/>
			</g>
		</g>
		<g>
			<g>
				<rect x="329.9" y="179.7" class="st5" width="45.8" height="571.6"/>
				<rect x="457.2" y="269" class="st5" width="45.8" height="482.3"/>
				<rect x="584.5" y="519.1" class="st5" width="45.8" height="232.2"/>
				<rect x="711.9" y="519.1" class="st5" width="45.8" height="232.2"/>
				<rect x="839.2" y="554.8" class="st5" width="45.8" height="196.5"/>
			</g>
		</g>
	</g>
	<g>
		<g>
		</g>
		<g>
		</g>
	</g>
</g>
<line class="st0" x1="403" y1="274.6" x2="956.8" y2="274.6"/>
<rect x="27" y="34.9" class="st0" width="461.5" height="57.9"/>
<text transform="matrix(1 0 0 1 27.0034 77.5254)" class="st6 st7 st8">phone app usage</text>
<rect x="354.5" y="759" class="st0" width="49.7" height="15.9"/>
<text transform="matrix(1 0 0 1 354.5195 771.8262)" class="st9 st10">Safari</text>
<rect x="480.8" y="759" class="st0" width="49.7" height="15.9"/>
<text transform="matrix(1 0 0 1 480.8472 771.8262)" class="st9 st10">Phone</text>
<rect x="582.4" y="758.7" class="st0" width="105" height="27.7"/>
<text transform="matrix(1 0 0 1 582.3833 771.4697)" class="st9 st10">Home Screen </text>
<rect x="720.6" y="758.2" class="st0" width="86.7" height="31.1"/>
<text transform="matrix(1 0 0 1 720.5586 770.9805)" class="st9 st10">Messages</text>
<rect x="862.5" y="759" class="st0" width="49.7" height="15.9"/>
<text transform="matrix(1 0 0 1 862.4707 771.8262)" class="st9 st10">Skype</text>
<rect x="329.1" y="142.5" class="st0" width="220.8" height="51.4"/>
<text transform="matrix(1 0 0 1 329.124 175.4014)" class="st5 st11 st12">32 minutes</text>
<rect x="380" y="268.9" class="st0" width="59.7" height="51.4"/>
<text transform="matrix(1 0 0 1 379.9775 301.8672)" class="st4 st11 st12">25</text>
<rect x="459.9" y="232.6" class="st0" width="59.7" height="51.4"/>
<text transform="matrix(1 0 0 1 459.9312 265.5186)" class="st5 st11 st12">27</text>
<rect x="509.4" y="338.5" class="st0" width="59.7" height="51.4"/>
<text transform="matrix(1 0 0 1 509.4448 371.3809)" class="st4 st11 st12">21</text>
<rect x="581.5" y="481.1" class="st0" width="59.7" height="51.4"/>
<text transform="matrix(1 0 0 1 581.4697 513.9873)" class="st5 st11 st12">13</text>
<rect x="633.6" y="535.7" class="st0" width="59.7" height="51.4"/>
<text transform="matrix(1 0 0 1 633.5674 568.6475)" class="st4 st11 st12">10</text>
<rect x="709.2" y="481.1" class="st0" width="59.7" height="51.4"/>
<text transform="matrix(1 0 0 1 709.2324 513.9873)" class="st5 st11 st12">13</text>
<rect x="760.7" y="535.7" class="st0" width="59.7" height="51.4"/>
<text transform="matrix(1 0 0 1 760.7119 568.6475)" class="st4 st11 st12">10</text>
<rect x="839.8" y="516" class="st0" width="59.7" height="51.4"/>
<text transform="matrix(1 0 0 1 839.7539 548.9131)" class="st5 st11 st12">11</text>
<rect x="899.4" y="571.8" class="st0" width="59.7" height="51.4"/>
<text transform="matrix(1 0 0 1 899.4199 604.6826)" class="st4 st11 st12">8</text>
<g>
	<rect x="341.4" y="458.5" class="st0" width="47.4" height="277.9"/>
	<text transform="matrix(0 -1 1 0 363.3594 736.4092)" class="st13 st11 st14">friday sept 22</text>
	<rect x="391.2" y="458.5" class="st0" width="47.4" height="277.9"/>
	<text transform="matrix(0 -1 1 0 413.1357 736.4082)" class="st13 st11 st14">tuesday sept 19</text>
</g>
</svg>
