<svg id="Layer_1" data-name="Layer 1" xmlns="http://www.w3.org/2000/svg" viewBox="0 0 373.85 711.43"><defs><style>.cls-1{fill:#84a982;}.cls-2{opacity:0.8;}.cls-3{opacity:0.4;}.cls-4{opacity:0.6;}.cls-5{opacity:0.2;}.cls-6{fill:#5e5760;}.cls-7{fill:#e2856a;}.cls-8{fill:#1989b6;}.cls-9{fill:#c7164c;}.cls-10{fill:#010101;}.cls-11{font-size:48px;font-family:Roboto-Thin, Roboto;}</style></defs><title>media usage title</title><path class="cls-1" d="M161.37,143.56h-25.5a1.16,1.16,0,0,0-1.17,1.17v46.21a1.16,1.16,0,0,0,1.17,1.17h12.75a1.88,1.88,0,1,0,1.88,1.88,1.88,1.88,0,0,0-1.88-1.88h12.75a1.16,1.16,0,0,0,1.17-1.17V144.67A1.15,1.15,0,0,0,161.37,143.56Zm-11.84,50.36a.91.91,0,1,1-.91-.91A.88.88,0,0,1,149.52,193.92Zm12-3a.21.21,0,0,1-.19.19H135.87a.21.21,0,0,1-.19-.19V144.67a.21.21,0,0,1,.19-.19h25.5a.21.21,0,0,1,.19.19v46.28Z" transform="translate(-119.07 -38.04)"/><path class="cls-1" d="M161.76,139H135.48a2.39,2.39,0,0,0-2.39,2.39V195.8a2.46,2.46,0,0,0,2.46,2.46h26.28a2.46,2.46,0,0,0,2.46-2.46V141.43A2.59,2.59,0,0,0,161.76,139Zm1.42,56.76a1.51,1.51,0,0,1-1.49,1.49H135.48A1.51,1.51,0,0,1,134,195.8V141.43a1.51,1.51,0,0,1,1.49-1.49h26.28a1.51,1.51,0,0,1,1.49,1.49V195.8Z" transform="translate(-119.07 -38.04)"/><path class="cls-1" d="M144.28,142.85h8.61a1.17,1.17,0,0,0,0-2.33h-8.61a1.16,1.16,0,0,0-1.17,1.17A1.25,1.25,0,0,0,144.28,142.85Zm0-1.29h8.61a.19.19,0,0,1,0,.39h-8.61a.21.21,0,0,1-.19-.19Q144.18,141.56,144.28,141.56Z" transform="translate(-119.07 -38.04)"/><path class="cls-1" d="M156.9,142.85h.58a1.17,1.17,0,0,0,0-2.33h-.58a1.16,1.16,0,0,0-1.17,1.17A1.25,1.25,0,0,0,156.9,142.85Zm0-1.29h.58a.19.19,0,0,1,0,.39h-.58a.21.21,0,0,1-.19-.19Q156.81,141.56,156.9,141.56Z" transform="translate(-119.07 -38.04)"/><g class="cls-2"><path class="cls-1" d="M240,143.56h-25.5a1.16,1.16,0,0,0-1.17,1.17v46.21a1.16,1.16,0,0,0,1.17,1.17h12.75a1.88,1.88,0,1,0,1.88,1.88,1.88,1.88,0,0,0-1.88-1.88H240a1.16,1.16,0,0,0,1.17-1.17V144.67A1.15,1.15,0,0,0,240,143.56Zm-11.84,50.36a.91.91,0,1,1-.91-.91A.88.88,0,0,1,228.18,193.92Zm12-3a.21.21,0,0,1-.19.19H214.53a.21.21,0,0,1-.19-.19V144.67a.21.21,0,0,1,.19-.19H240a.21.21,0,0,1,.19.19v46.28Z" transform="translate(-119.07 -38.04)"/><path class="cls-1" d="M240.42,139H214.14a2.39,2.39,0,0,0-2.39,2.39V195.8a2.46,2.46,0,0,0,2.46,2.46h26.28a2.46,2.46,0,0,0,2.46-2.46V141.43A2.59,2.59,0,0,0,240.42,139Zm1.42,56.76a1.51,1.51,0,0,1-1.49,1.49H214.14a1.51,1.51,0,0,1-1.49-1.49V141.43a1.51,1.51,0,0,1,1.49-1.49h26.28a1.51,1.51,0,0,1,1.49,1.49V195.8Z" transform="translate(-119.07 -38.04)"/><path class="cls-1" d="M222.94,142.85h8.61a1.17,1.17,0,0,0,0-2.33h-8.61a1.16,1.16,0,0,0-1.17,1.17A1.25,1.25,0,0,0,222.94,142.85Zm0-1.29h8.61a.19.19,0,0,1,0,.39h-8.61a.21.21,0,0,1-.19-.19Q222.84,141.56,222.94,141.56Z" transform="translate(-119.07 -38.04)"/><path class="cls-1" d="M235.56,142.85h.58a1.17,1.17,0,0,0,0-2.33h-.58a1.16,1.16,0,0,0-1.17,1.17A1.25,1.25,0,0,0,235.56,142.85Zm0-1.29h.58a.19.19,0,0,1,0,.39h-.58a.21.21,0,0,1-.19-.19Q235.46,141.56,235.56,141.56Z" transform="translate(-119.07 -38.04)"/></g><g class="cls-3"><path class="cls-1" d="M397.35,143.56h-25.5a1.16,1.16,0,0,0-1.17,1.17v46.21a1.16,1.16,0,0,0,1.17,1.17h12.75a1.88,1.88,0,1,0,1.88,1.88,1.88,1.88,0,0,0-1.88-1.88h12.75a1.16,1.16,0,0,0,1.17-1.17V144.67A1.15,1.15,0,0,0,397.35,143.56ZM385.5,193.92a.91.91,0,1,1-.91-.91A.88.88,0,0,1,385.5,193.92Zm12-3a.21.21,0,0,1-.19.19H371.84a.21.21,0,0,1-.19-.19V144.67a.21.21,0,0,1,.19-.19h25.5a.21.21,0,0,1,.19.19v46.28Z" transform="translate(-119.07 -38.04)"/><path class="cls-1" d="M397.73,139H371.46a2.39,2.39,0,0,0-2.39,2.39V195.8a2.46,2.46,0,0,0,2.46,2.46H397.8a2.46,2.46,0,0,0,2.46-2.46V141.43A2.59,2.59,0,0,0,397.73,139Zm1.42,56.76a1.51,1.51,0,0,1-1.49,1.49H371.46A1.51,1.51,0,0,1,370,195.8V141.43a1.51,1.51,0,0,1,1.49-1.49h26.28a1.51,1.51,0,0,1,1.49,1.49V195.8Z" transform="translate(-119.07 -38.04)"/><path class="cls-1" d="M380.26,142.85h8.61a1.17,1.17,0,0,0,0-2.33h-8.61a1.16,1.16,0,0,0-1.17,1.17A1.25,1.25,0,0,0,380.26,142.85Zm0-1.29h8.61a.19.19,0,0,1,0,.39h-8.61a.21.21,0,0,1-.19-.19Q380.16,141.56,380.26,141.56Z" transform="translate(-119.07 -38.04)"/><path class="cls-1" d="M392.88,142.85h.58a1.17,1.17,0,0,0,0-2.33h-.58a1.16,1.16,0,0,0-1.17,1.17A1.25,1.25,0,0,0,392.88,142.85Zm0-1.29h.58a.19.19,0,0,1,0,.39h-.58a.21.21,0,0,1-.19-.19Q392.78,141.56,392.88,141.56Z" transform="translate(-119.07 -38.04)"/></g><g class="cls-4"><path class="cls-1" d="M318.69,143.56h-25.5a1.16,1.16,0,0,0-1.17,1.17v46.21a1.16,1.16,0,0,0,1.17,1.17h12.75a1.88,1.88,0,1,0,1.88,1.88,1.88,1.88,0,0,0-1.88-1.88h12.75a1.16,1.16,0,0,0,1.17-1.17V144.67A1.15,1.15,0,0,0,318.69,143.56Zm-11.84,50.36a.91.91,0,1,1-.91-.91A.88.88,0,0,1,306.84,193.92Zm12-3a.21.21,0,0,1-.19.19H293.18a.21.21,0,0,1-.19-.19V144.67a.21.21,0,0,1,.19-.19h25.5a.21.21,0,0,1,.19.19v46.28Z" transform="translate(-119.07 -38.04)"/><path class="cls-1" d="M319.07,139H292.8a2.39,2.39,0,0,0-2.39,2.39V195.8a2.46,2.46,0,0,0,2.46,2.46h26.28a2.46,2.46,0,0,0,2.46-2.46V141.43A2.59,2.59,0,0,0,319.07,139Zm1.42,56.76a1.51,1.51,0,0,1-1.49,1.49H292.8a1.51,1.51,0,0,1-1.49-1.49V141.43a1.51,1.51,0,0,1,1.49-1.49h26.28a1.51,1.51,0,0,1,1.49,1.49V195.8Z" transform="translate(-119.07 -38.04)"/><path class="cls-1" d="M301.6,142.85h8.61a1.17,1.17,0,0,0,0-2.33H301.6a1.16,1.16,0,0,0-1.17,1.17A1.25,1.25,0,0,0,301.6,142.85Zm0-1.29h8.61a.19.19,0,0,1,0,.39H301.6a.21.21,0,0,1-.19-.19Q301.5,141.56,301.6,141.56Z" transform="translate(-119.07 -38.04)"/><path class="cls-1" d="M314.22,142.85h.58a1.17,1.17,0,0,0,0-2.33h-.58a1.16,1.16,0,0,0-1.17,1.17A1.25,1.25,0,0,0,314.22,142.85Zm0-1.29h.58a.19.19,0,0,1,0,.39h-.58a.21.21,0,0,1-.19-.19Q314.12,141.56,314.22,141.56Z" transform="translate(-119.07 -38.04)"/></g><g class="cls-5"><path class="cls-1" d="M476,143.56H450.5a1.16,1.16,0,0,0-1.17,1.17v46.21a1.16,1.16,0,0,0,1.17,1.17h12.75a1.88,1.88,0,1,0,1.88,1.88,1.88,1.88,0,0,0-1.88-1.88H476a1.16,1.16,0,0,0,1.17-1.17V144.67A1.15,1.15,0,0,0,476,143.56Zm-11.84,50.36a.91.91,0,1,1-.91-.91A.88.88,0,0,1,464.16,193.92Zm12-3a.21.21,0,0,1-.19.19H450.5a.21.21,0,0,1-.19-.19V144.67a.21.21,0,0,1,.19-.19H476a.21.21,0,0,1,.19.19v46.28Z" transform="translate(-119.07 -38.04)"/><path class="cls-1" d="M476.39,139H450.11a2.39,2.39,0,0,0-2.39,2.39V195.8a2.46,2.46,0,0,0,2.46,2.46h26.28a2.46,2.46,0,0,0,2.46-2.46V141.43A2.59,2.59,0,0,0,476.39,139Zm1.42,56.76a1.51,1.51,0,0,1-1.49,1.49H450.11a1.51,1.51,0,0,1-1.49-1.49V141.43a1.51,1.51,0,0,1,1.49-1.49h26.28a1.51,1.51,0,0,1,1.49,1.49V195.8Z" transform="translate(-119.07 -38.04)"/><path class="cls-1" d="M458.92,142.85h8.61a1.17,1.17,0,0,0,0-2.33h-8.61a1.16,1.16,0,0,0-1.17,1.17A1.25,1.25,0,0,0,458.92,142.85Zm0-1.29h8.61a.19.19,0,0,1,0,.39h-8.61a.21.21,0,0,1-.19-.19Q458.82,141.56,458.92,141.56Z" transform="translate(-119.07 -38.04)"/><path class="cls-1" d="M471.54,142.85h.58a1.17,1.17,0,0,0,0-2.33h-.58a1.16,1.16,0,0,0-1.17,1.17A1.25,1.25,0,0,0,471.54,142.85Zm0-1.29h.58a.19.19,0,0,1,0,.39h-.58a.21.21,0,0,1-.19-.19Q471.44,141.56,471.54,141.56Z" transform="translate(-119.07 -38.04)"/></g><path class="cls-6" d="M172.55,249.4a2.24,2.24,0,0,0-.32-1.17,2.08,2.08,0,0,0-1.81-1h-43.5a2.15,2.15,0,0,0-2.14,2.14v23.75h47.77Zm-1,22.85H125.76V249.4a1.16,1.16,0,0,1,1.17-1.17h43.43a1.07,1.07,0,0,1,1,.58,1.09,1.09,0,0,1,.19.65v22.78Z" transform="translate(-119.07 -38.04)"/><path class="cls-6" d="M178.06,275.81a1.27,1.27,0,0,0-1.1-.58h-2.72V249.34a3.89,3.89,0,0,0-3.88-3.88H127a3.89,3.89,0,0,0-3.88,3.88v26h-2.72a1.13,1.13,0,0,0-1.1.58,1.94,1.94,0,0,0,.06,1.88l.78,1.68a3.2,3.2,0,0,0,2.52,1.81h52a3.25,3.25,0,0,0,2.52-1.81l.78-1.68A1.9,1.9,0,0,0,178.06,275.81Zm-54-26.47a2.9,2.9,0,0,1,2.91-2.91h43.37a2.9,2.9,0,0,1,2.91,2.91v26H124.08Zm28.8,26.86-.65.91h-7.12l-.65-.91Zm24.27,1.1-.78,1.68a2.26,2.26,0,0,1-1.68,1.29h-52A2.26,2.26,0,0,1,121,279l-.78-1.68a1.26,1.26,0,0,1-.13-.91s.06-.13.32-.13H143.3l1.23,1.88h8.16l1.23-1.88h22.91a.38.38,0,0,1,.32.13C177.34,276.52,177.34,276.85,177.15,277.3Z" transform="translate(-119.07 -38.04)"/><path class="cls-6" d="M174.88,278.46H122.46a.51.51,0,0,0-.52.52.48.48,0,0,0,.52.52h52.36a.51.51,0,0,0,.52-.52A.46.46,0,0,0,174.88,278.46Z" transform="translate(-119.07 -38.04)"/><g class="cls-2"><path class="cls-6" d="M251.21,249.4a2.24,2.24,0,0,0-.32-1.17,2.08,2.08,0,0,0-1.81-1h-43.5a2.15,2.15,0,0,0-2.14,2.14v23.75h47.77Zm-1,22.85H204.42V249.4a1.16,1.16,0,0,1,1.17-1.17H249a1.07,1.07,0,0,1,1,.58,1.09,1.09,0,0,1,.19.65v22.78Z" transform="translate(-119.07 -38.04)"/><path class="cls-6" d="M256.71,275.81a1.27,1.27,0,0,0-1.1-.58H252.9V249.34a3.89,3.89,0,0,0-3.88-3.88H205.65a3.89,3.89,0,0,0-3.88,3.88v26H199a1.13,1.13,0,0,0-1.1.58,1.94,1.94,0,0,0,.06,1.88l.78,1.68a3.2,3.2,0,0,0,2.52,1.81h52a3.25,3.25,0,0,0,2.52-1.81l.78-1.68A1.9,1.9,0,0,0,256.71,275.81Zm-54-26.47a2.9,2.9,0,0,1,2.91-2.91H249a2.9,2.9,0,0,1,2.91,2.91v26H202.73Zm28.8,26.86-.65.91h-7.12l-.65-.91Zm24.27,1.1L255,279a2.26,2.26,0,0,1-1.68,1.29h-52a2.26,2.26,0,0,1-1.68-1.29l-.78-1.68a1.26,1.26,0,0,1-.13-.91s.06-.13.32-.13H222l1.23,1.88h8.16l1.23-1.88h22.91a.38.38,0,0,1,.32.13C256,276.52,256,276.85,255.81,277.3Z" transform="translate(-119.07 -38.04)"/><path class="cls-6" d="M253.54,278.46H201.12a.51.51,0,0,0-.52.52.48.48,0,0,0,.52.52h52.36A.51.51,0,0,0,254,279,.46.46,0,0,0,253.54,278.46Z" transform="translate(-119.07 -38.04)"/></g><g class="cls-4"><path class="cls-6" d="M329.87,249.4a2.24,2.24,0,0,0-.32-1.17,2.08,2.08,0,0,0-1.81-1h-43.5a2.15,2.15,0,0,0-2.14,2.14v23.75h47.77Zm-1,22.85H283.08V249.4a1.16,1.16,0,0,1,1.17-1.17h43.43a1.07,1.07,0,0,1,1,.58,1.09,1.09,0,0,1,.19.65v22.78Z" transform="translate(-119.07 -38.04)"/><path class="cls-6" d="M335.37,275.81a1.27,1.27,0,0,0-1.1-.58h-2.72V249.34a3.89,3.89,0,0,0-3.88-3.88H284.31a3.89,3.89,0,0,0-3.88,3.88v26H277.7a1.13,1.13,0,0,0-1.1.58,1.94,1.94,0,0,0,.06,1.88l.78,1.68a3.2,3.2,0,0,0,2.52,1.81h52a3.25,3.25,0,0,0,2.52-1.81l.78-1.68A1.9,1.9,0,0,0,335.37,275.81Zm-54-26.47a2.9,2.9,0,0,1,2.91-2.91h43.37a2.9,2.9,0,0,1,2.91,2.91v26H281.39Zm28.8,26.86-.65.91h-7.12l-.65-.91Zm24.27,1.1-.78,1.68a2.26,2.26,0,0,1-1.68,1.29H280a2.26,2.26,0,0,1-1.68-1.29l-.78-1.68a1.26,1.26,0,0,1-.13-.91s.06-.13.32-.13h22.91l1.23,1.88H310l1.23-1.88h22.91a.38.38,0,0,1,.32.13C334.66,276.52,334.66,276.85,334.47,277.3Z" transform="translate(-119.07 -38.04)"/><path class="cls-6" d="M332.2,278.46H279.78a.51.51,0,0,0-.52.52.48.48,0,0,0,.52.52h52.36a.51.51,0,0,0,.52-.52A.46.46,0,0,0,332.2,278.46Z" transform="translate(-119.07 -38.04)"/></g><g class="cls-3"><path class="cls-6" d="M408.53,249.4a2.24,2.24,0,0,0-.32-1.17,2.08,2.08,0,0,0-1.81-1H362.9a2.15,2.15,0,0,0-2.14,2.14v23.75h47.77Zm-1,22.85H361.74V249.4a1.16,1.16,0,0,1,1.17-1.17h43.43a1.07,1.07,0,0,1,1,.58,1.09,1.09,0,0,1,.19.65v22.78Z" transform="translate(-119.07 -38.04)"/><path class="cls-6" d="M414,275.81a1.27,1.27,0,0,0-1.1-.58h-2.72V249.34a3.89,3.89,0,0,0-3.88-3.88H363a3.89,3.89,0,0,0-3.88,3.88v26h-2.72a1.13,1.13,0,0,0-1.1.58,1.94,1.94,0,0,0,.06,1.88l.78,1.68a3.2,3.2,0,0,0,2.52,1.81h52a3.25,3.25,0,0,0,2.52-1.81l.78-1.68A1.9,1.9,0,0,0,414,275.81Zm-54-26.47a2.9,2.9,0,0,1,2.91-2.91h43.37a2.9,2.9,0,0,1,2.91,2.91v26H360.05Zm28.8,26.86-.65.91h-7.12l-.65-.91Zm24.27,1.1-.78,1.68a2.26,2.26,0,0,1-1.68,1.29h-52a2.26,2.26,0,0,1-1.68-1.29l-.78-1.68a1.26,1.26,0,0,1-.13-.91s.06-.13.32-.13h22.91l1.23,1.88h8.16l1.23-1.88H412.8a.38.38,0,0,1,.32.13C413.32,276.52,413.32,276.85,413.13,277.3Z" transform="translate(-119.07 -38.04)"/><path class="cls-6" d="M410.86,278.46H358.43a.51.51,0,0,0-.52.52.48.48,0,0,0,.52.52H410.8a.51.51,0,0,0,.52-.52A.46.46,0,0,0,410.86,278.46Z" transform="translate(-119.07 -38.04)"/></g><path class="cls-7" d="M145.55,340.2v33.68h1.57V340.2Z" transform="translate(-119.07 -38.04)"/><path class="cls-7" d="M151,339a.78.78,0,0,0-.77.79v20.37a.78.78,0,0,0,1.57,0s0,0,0,0V339.8A.78.78,0,0,0,151,339Z" transform="translate(-119.07 -38.04)"/><path class="cls-7" d="M126,335.5a.78.78,0,0,0-.77.78V370a.78.78,0,0,0,.64.77l20.76,3.92.14,0h3.92l.15,0,20.76-3.92a.78.78,0,0,0,.64-.77V336.28a.78.78,0,0,0-.79-.78h-.14l-20.69,3.9H146.8l-20.68-3.9-.16,0Zm.79,1.73L146.58,341l.14,0h3.92l.15,0,19.83-3.74v32.09l-20,3.78h-3.78l-20-3.78Z" transform="translate(-119.07 -38.04)"/><path class="cls-7" d="M129.87,332.36a.78.78,0,0,0-.77.78v3.52a.78.78,0,0,0,1.57,0s0,0,0,0v-2.36l16.15,6.61a.78.78,0,1,0,.59-1.45l-17.23-7a.78.78,0,0,0-.31-.06Z" transform="translate(-119.07 -38.04)"/><path class="cls-7" d="M134.55,330.8a.78.78,0,0,0-.75.78v3.13a.78.78,0,0,0,1.57,0s0,0,0,0V333l12.51,7.86a.78.78,0,1,0,.87-1.3l0,0L135,330.92a.78.78,0,0,0-.45-.12Z" transform="translate(-119.07 -38.04)"/><path class="cls-7" d="M167.46,332.36a.78.78,0,0,0-.28.06l-17.23,7a.78.78,0,1,0,.59,1.45h0l16.15-6.61v2.36a.78.78,0,0,0,1.57,0s0,0,0,0v-3.52a.78.78,0,0,0-.78-.78h0Z" transform="translate(-119.07 -38.04)"/><path class="cls-7" d="M162.76,330.8a.78.78,0,0,0-.39.12l-13.71,8.62a.78.78,0,1,0,.8,1.35l0,0L162,333v1.71a.78.78,0,0,0,1.57,0s0,0,0,0v-3.13a.78.78,0,0,0-.78-.78h0Z" transform="translate(-119.07 -38.04)"/><path class="cls-7" d="M167.46,342.94l-.12,0-11.25,2.12a.78.78,0,0,0-.64.77v6.27a.78.78,0,0,0,.79.78h.14l11.24-2.12a.78.78,0,0,0,.64-.77v-6.27a.78.78,0,0,0-.78-.78h0Zm-.76,1.73v4.67L157,351.16v-4.67Z" transform="translate(-119.07 -38.04)"/><path class="cls-7" d="M167.47,352.34l-.13,0-5.62,1.06A.78.78,0,1,0,162,355h0l5.62-1.06a.78.78,0,0,0-.16-1.55Z" transform="translate(-119.07 -38.04)"/><path class="cls-7" d="M151,364.86a.78.78,0,0,0-.77.79v7.83a.78.78,0,0,0,1.57,0s0,0,0,0v-7.83a.78.78,0,0,0-.77-.79Z" transform="translate(-119.07 -38.04)"/><path class="cls-7" d="M151.82,362.91a.78.78,0,0,1-.78.78h0a.78.78,0,0,1-.78-.78h0a.78.78,0,0,1,1.57,0Z" transform="translate(-119.07 -38.04)"/><g class="cls-2"><path class="cls-7" d="M224.21,340.2v33.68h1.57V340.2Z" transform="translate(-119.07 -38.04)"/><path class="cls-7" d="M229.68,339a.78.78,0,0,0-.77.79v20.37a.78.78,0,0,0,1.57,0s0,0,0,0V339.8a.78.78,0,0,0-.77-.79Z" transform="translate(-119.07 -38.04)"/><path class="cls-7" d="M204.62,335.5a.78.78,0,0,0-.77.78V370a.78.78,0,0,0,.64.77l20.76,3.92.14,0h3.92l.15,0,20.76-3.92a.78.78,0,0,0,.64-.77V336.28a.78.78,0,0,0-.79-.78h-.14l-20.69,3.9h-3.77l-20.68-3.9-.16,0Zm.79,1.73L225.24,341l.14,0h3.92l.15,0,19.83-3.74v32.09l-20,3.78h-3.78l-20-3.78Z" transform="translate(-119.07 -38.04)"/><path class="cls-7" d="M208.53,332.36a.78.78,0,0,0-.77.78v3.52a.78.78,0,0,0,1.57,0s0,0,0,0v-2.36l16.15,6.61a.78.78,0,1,0,.59-1.45l-17.23-7a.78.78,0,0,0-.31-.06Z" transform="translate(-119.07 -38.04)"/><path class="cls-7" d="M213.21,330.8a.78.78,0,0,0-.75.78v3.13a.78.78,0,0,0,1.57,0s0,0,0,0V333l12.51,7.86a.78.78,0,1,0,.87-1.3l0,0-13.71-8.62a.78.78,0,0,0-.45-.12Z" transform="translate(-119.07 -38.04)"/><path class="cls-7" d="M246.12,332.36a.78.78,0,0,0-.28.06l-17.23,7a.78.78,0,1,0,.59,1.45h0l16.15-6.61v2.36a.78.78,0,0,0,1.57,0s0,0,0,0v-3.52a.78.78,0,0,0-.78-.78h0Z" transform="translate(-119.07 -38.04)"/><path class="cls-7" d="M241.42,330.8a.78.78,0,0,0-.39.12l-13.71,8.62a.78.78,0,1,0,.8,1.35l0,0L240.66,333v1.71a.78.78,0,0,0,1.57,0s0,0,0,0v-3.13a.78.78,0,0,0-.78-.78h0Z" transform="translate(-119.07 -38.04)"/><path class="cls-7" d="M246.12,342.94l-.12,0-11.25,2.12a.78.78,0,0,0-.64.77v6.27a.78.78,0,0,0,.79.78H235l11.24-2.12a.78.78,0,0,0,.64-.77v-6.27a.78.78,0,0,0-.78-.78h0Zm-.76,1.73v4.67l-9.68,1.83v-4.67Z" transform="translate(-119.07 -38.04)"/><path class="cls-7" d="M246.13,352.34l-.13,0-5.62,1.06a.78.78,0,1,0,.27,1.55h0l5.62-1.06a.78.78,0,0,0-.16-1.55Z" transform="translate(-119.07 -38.04)"/><path class="cls-7" d="M229.68,364.86a.78.78,0,0,0-.77.79v7.83a.78.78,0,0,0,1.57,0s0,0,0,0v-7.83a.78.78,0,0,0-.77-.79Z" transform="translate(-119.07 -38.04)"/><path class="cls-7" d="M230.47,362.91a.78.78,0,0,1-.78.78h0a.78.78,0,0,1-.78-.78h0a.78.78,0,0,1,1.57,0Z" transform="translate(-119.07 -38.04)"/></g><g class="cls-4"><path class="cls-7" d="M302.87,340.2v33.68h1.57V340.2Z" transform="translate(-119.07 -38.04)"/><path class="cls-7" d="M308.34,339a.78.78,0,0,0-.77.79v20.37a.78.78,0,0,0,1.57,0s0,0,0,0V339.8a.78.78,0,0,0-.77-.79Z" transform="translate(-119.07 -38.04)"/><path class="cls-7" d="M283.27,335.5a.78.78,0,0,0-.77.78V370a.78.78,0,0,0,.64.77l20.76,3.92.14,0H308l.15,0,20.76-3.92a.78.78,0,0,0,.64-.77V336.28a.78.78,0,0,0-.79-.78h-.14l-20.69,3.9h-3.77l-20.68-3.9-.16,0Zm.79,1.73L303.9,341l.14,0H308l.15,0,19.83-3.74v32.09l-20,3.78h-3.78l-20-3.78Z" transform="translate(-119.07 -38.04)"/><path class="cls-7" d="M287.19,332.36a.78.78,0,0,0-.77.78v3.52a.78.78,0,0,0,1.57,0s0,0,0,0v-2.36l16.15,6.61a.78.78,0,1,0,.59-1.45l-17.23-7a.78.78,0,0,0-.31-.06Z" transform="translate(-119.07 -38.04)"/><path class="cls-7" d="M291.87,330.8a.78.78,0,0,0-.75.78v3.13a.78.78,0,0,0,1.57,0s0,0,0,0V333l12.51,7.86a.78.78,0,1,0,.87-1.3l0,0-13.71-8.62a.78.78,0,0,0-.45-.12Z" transform="translate(-119.07 -38.04)"/><path class="cls-7" d="M324.78,332.36a.78.78,0,0,0-.28.06l-17.23,7a.78.78,0,1,0,.59,1.45h0L324,334.31v2.36a.78.78,0,0,0,1.57,0s0,0,0,0v-3.52a.78.78,0,0,0-.78-.78h0Z" transform="translate(-119.07 -38.04)"/><path class="cls-7" d="M320.08,330.8a.78.78,0,0,0-.39.12L306,339.53a.78.78,0,1,0,.8,1.35l0,0L319.32,333v1.71a.78.78,0,0,0,1.57,0s0,0,0,0v-3.13a.78.78,0,0,0-.78-.78h0Z" transform="translate(-119.07 -38.04)"/><path class="cls-7" d="M324.78,342.94l-.12,0-11.25,2.12a.78.78,0,0,0-.64.77v6.27a.78.78,0,0,0,.79.78h.14l11.24-2.12a.78.78,0,0,0,.64-.77v-6.27a.78.78,0,0,0-.78-.78h0Zm-.76,1.73v4.67l-9.68,1.83v-4.67Z" transform="translate(-119.07 -38.04)"/><path class="cls-7" d="M324.79,352.34l-.13,0L319,353.41a.78.78,0,1,0,.27,1.55h0l5.62-1.06a.78.78,0,0,0-.16-1.55Z" transform="translate(-119.07 -38.04)"/><path class="cls-7" d="M308.34,364.86a.78.78,0,0,0-.77.79v7.83a.78.78,0,0,0,1.57,0s0,0,0,0v-7.83a.78.78,0,0,0-.77-.79Z" transform="translate(-119.07 -38.04)"/><path class="cls-7" d="M309.13,362.91a.78.78,0,0,1-.78.78h0a.78.78,0,0,1-.78-.78h0a.78.78,0,0,1,1.57,0Z" transform="translate(-119.07 -38.04)"/></g><g class="cls-3"><path class="cls-7" d="M381.53,340.2v33.68h1.57V340.2Z" transform="translate(-119.07 -38.04)"/><path class="cls-7" d="M387,339a.78.78,0,0,0-.77.79v20.37a.78.78,0,0,0,1.57,0s0,0,0,0V339.8A.78.78,0,0,0,387,339Z" transform="translate(-119.07 -38.04)"/><path class="cls-7" d="M361.93,335.5a.78.78,0,0,0-.77.78V370a.78.78,0,0,0,.64.77l20.76,3.92.14,0h3.92l.15,0,20.76-3.92a.78.78,0,0,0,.64-.77V336.28a.78.78,0,0,0-.79-.78h-.14l-20.69,3.9h-3.77l-20.68-3.9-.16,0Zm.79,1.73L382.56,341l.14,0h3.92l.15,0,19.83-3.74v32.09l-20,3.78h-3.78l-20-3.78Z" transform="translate(-119.07 -38.04)"/><path class="cls-7" d="M365.85,332.36a.78.78,0,0,0-.77.78v3.52a.78.78,0,0,0,1.57,0s0,0,0,0v-2.36l16.15,6.61a.78.78,0,1,0,.59-1.45l-17.23-7a.78.78,0,0,0-.31-.06Z" transform="translate(-119.07 -38.04)"/><path class="cls-7" d="M370.53,330.8a.78.78,0,0,0-.75.78v3.13a.78.78,0,0,0,1.57,0s0,0,0,0V333l12.51,7.86a.78.78,0,1,0,.87-1.3l0,0L371,330.92a.78.78,0,0,0-.45-.12Z" transform="translate(-119.07 -38.04)"/><path class="cls-7" d="M403.44,332.36a.78.78,0,0,0-.28.06l-17.23,7a.78.78,0,1,0,.59,1.45h0l16.15-6.61v2.36a.78.78,0,0,0,1.57,0s0,0,0,0v-3.52a.78.78,0,0,0-.78-.78h0Z" transform="translate(-119.07 -38.04)"/><path class="cls-7" d="M398.74,330.8a.78.78,0,0,0-.39.12l-13.71,8.62a.78.78,0,1,0,.8,1.35l0,0L398,333v1.71a.78.78,0,0,0,1.57,0s0,0,0,0v-3.13a.78.78,0,0,0-.78-.78h0Z" transform="translate(-119.07 -38.04)"/><path class="cls-7" d="M403.44,342.94l-.12,0-11.25,2.12a.78.78,0,0,0-.64.77v6.27a.78.78,0,0,0,.79.78h.14l11.24-2.12a.78.78,0,0,0,.64-.77v-6.27a.78.78,0,0,0-.78-.78h0Zm-.76,1.73v4.67L393,351.16v-4.67Z" transform="translate(-119.07 -38.04)"/><path class="cls-7" d="M403.45,352.34l-.13,0-5.62,1.06A.78.78,0,1,0,398,355h0l5.62-1.06a.78.78,0,0,0-.16-1.55Z" transform="translate(-119.07 -38.04)"/><path class="cls-7" d="M387,364.86a.78.78,0,0,0-.77.79v7.83a.78.78,0,0,0,1.57,0s0,0,0,0v-7.83a.78.78,0,0,0-.77-.79Z" transform="translate(-119.07 -38.04)"/><path class="cls-7" d="M387.79,362.91a.78.78,0,0,1-.78.78h0a.78.78,0,0,1-.78-.78h0a.78.78,0,0,1,1.57,0Z" transform="translate(-119.07 -38.04)"/></g><g class="cls-5"><path class="cls-6" d="M487.19,249.4a2.24,2.24,0,0,0-.32-1.17,2.08,2.08,0,0,0-1.81-1h-43.5a2.15,2.15,0,0,0-2.14,2.14v23.75h47.77Zm-1,22.85H440.39V249.4a1.16,1.16,0,0,1,1.17-1.17H485a1.07,1.07,0,0,1,1,.58,1.09,1.09,0,0,1,.19.65v22.78Z" transform="translate(-119.07 -38.04)"/><path class="cls-6" d="M492.69,275.81a1.27,1.27,0,0,0-1.1-.58h-2.72V249.34a3.89,3.89,0,0,0-3.88-3.88H441.62a3.89,3.89,0,0,0-3.88,3.88v26H435a1.13,1.13,0,0,0-1.1.58,1.94,1.94,0,0,0,.06,1.88l.78,1.68a3.2,3.2,0,0,0,2.52,1.81h52a3.25,3.25,0,0,0,2.52-1.81l.78-1.68A1.9,1.9,0,0,0,492.69,275.81Zm-54-26.47a2.9,2.9,0,0,1,2.91-2.91H485a2.9,2.9,0,0,1,2.91,2.91v26H438.71Zm28.8,26.86-.65.91h-7.12l-.65-.91Zm24.27,1.1L491,279a2.26,2.26,0,0,1-1.68,1.29h-52A2.26,2.26,0,0,1,435.6,279l-.78-1.68a1.26,1.26,0,0,1-.13-.91s.06-.13.32-.13h22.91l1.23,1.88h8.16l1.23-1.88h22.91a.38.38,0,0,1,.32.13C492,276.52,492,276.85,491.79,277.3Z" transform="translate(-119.07 -38.04)"/><path class="cls-6" d="M489.52,278.46H437.09a.51.51,0,0,0-.52.52.48.48,0,0,0,.52.52h52.36A.51.51,0,0,0,490,279,.46.46,0,0,0,489.52,278.46Z" transform="translate(-119.07 -38.04)"/></g><g class="cls-5"><path class="cls-7" d="M460.18,340.2v33.68h1.57V340.2Z" transform="translate(-119.07 -38.04)"/><path class="cls-7" d="M465.66,339a.78.78,0,0,0-.77.79v20.37a.78.78,0,0,0,1.57,0s0,0,0,0V339.8a.78.78,0,0,0-.77-.79Z" transform="translate(-119.07 -38.04)"/><path class="cls-7" d="M440.59,335.5a.78.78,0,0,0-.77.78V370a.78.78,0,0,0,.64.77l20.76,3.92.14,0h3.92l.15,0,20.76-3.92a.78.78,0,0,0,.64-.77V336.28a.78.78,0,0,0-.79-.78h-.14l-20.69,3.9h-3.77l-20.68-3.9-.16,0Zm.79,1.73L461.22,341l.14,0h3.92l.15,0,19.83-3.74v32.09l-20,3.78h-3.78l-20-3.78Z" transform="translate(-119.07 -38.04)"/><path class="cls-7" d="M444.51,332.36a.78.78,0,0,0-.77.78v3.52a.78.78,0,0,0,1.57,0s0,0,0,0v-2.36l16.15,6.61a.78.78,0,1,0,.59-1.45l-17.23-7a.78.78,0,0,0-.31-.06Z" transform="translate(-119.07 -38.04)"/><path class="cls-7" d="M449.19,330.8a.78.78,0,0,0-.75.78v3.13a.78.78,0,0,0,1.57,0s0,0,0,0V333l12.51,7.86a.78.78,0,1,0,.87-1.3l0,0-13.71-8.62a.78.78,0,0,0-.45-.12Z" transform="translate(-119.07 -38.04)"/><path class="cls-7" d="M482.1,332.36a.78.78,0,0,0-.28.06l-17.23,7a.78.78,0,1,0,.59,1.45h0l16.15-6.61v2.36a.78.78,0,0,0,1.57,0s0,0,0,0v-3.52a.78.78,0,0,0-.78-.78h0Z" transform="translate(-119.07 -38.04)"/><path class="cls-7" d="M477.4,330.8a.78.78,0,0,0-.39.12l-13.71,8.62a.78.78,0,1,0,.8,1.35l0,0L476.63,333v1.71a.78.78,0,0,0,1.57,0s0,0,0,0v-3.13a.78.78,0,0,0-.78-.78h0Z" transform="translate(-119.07 -38.04)"/><path class="cls-7" d="M482.1,342.94l-.12,0-11.25,2.12a.78.78,0,0,0-.64.77v6.27a.78.78,0,0,0,.79.78H471l11.24-2.12a.78.78,0,0,0,.64-.77v-6.27a.78.78,0,0,0-.78-.78h0Zm-.76,1.73v4.67l-9.68,1.83v-4.67Z" transform="translate(-119.07 -38.04)"/><path class="cls-7" d="M482.1,352.34l-.13,0-5.62,1.06a.78.78,0,1,0,.27,1.55h0l5.62-1.06a.78.78,0,0,0-.16-1.55Z" transform="translate(-119.07 -38.04)"/><path class="cls-7" d="M465.66,364.86a.78.78,0,0,0-.77.79v7.83a.78.78,0,0,0,1.57,0s0,0,0,0v-7.83a.78.78,0,0,0-.77-.79Z" transform="translate(-119.07 -38.04)"/><path class="cls-7" d="M466.45,362.91a.78.78,0,0,1-.78.78h0a.78.78,0,0,1-.78-.78h0a.78.78,0,0,1,1.57,0Z" transform="translate(-119.07 -38.04)"/></g><path class="cls-8" d="M161.37,409h-25.5a1.16,1.16,0,0,0-1.17,1.17v46.21a1.16,1.16,0,0,0,1.17,1.17h12.75a1.88,1.88,0,1,0,1.88,1.88,1.88,1.88,0,0,0-1.88-1.88h12.75a1.16,1.16,0,0,0,1.17-1.17V410.1A1.15,1.15,0,0,0,161.37,409Zm-11.84,50.36a.91.91,0,1,1-.91-.91A.88.88,0,0,1,149.52,459.36Zm12-3a.21.21,0,0,1-.19.19H135.87a.21.21,0,0,1-.19-.19V410.1a.21.21,0,0,1,.19-.19h25.5a.21.21,0,0,1,.19.19v46.28Z" transform="translate(-119.07 -38.04)"/><path class="cls-8" d="M161.76,404.47H135.48a2.39,2.39,0,0,0-2.39,2.39v54.37a2.46,2.46,0,0,0,2.46,2.46h26.28a2.46,2.46,0,0,0,2.46-2.46V406.86A2.59,2.59,0,0,0,161.76,404.47Zm1.42,56.76a1.51,1.51,0,0,1-1.49,1.49H135.48a1.51,1.51,0,0,1-1.49-1.49V406.86a1.51,1.51,0,0,1,1.49-1.49h26.28a1.51,1.51,0,0,1,1.49,1.49v54.37Z" transform="translate(-119.07 -38.04)"/><path class="cls-8" d="M144.28,408.29h8.61a1.17,1.17,0,0,0,0-2.33h-8.61a1.16,1.16,0,0,0-1.17,1.17A1.25,1.25,0,0,0,144.28,408.29Zm0-1.29h8.61a.19.19,0,0,1,0,.39h-8.61a.21.21,0,0,1-.19-.19Q144.18,407,144.28,407Z" transform="translate(-119.07 -38.04)"/><path class="cls-8" d="M156.9,408.29h.58a1.17,1.17,0,0,0,0-2.33h-.58a1.16,1.16,0,0,0-1.17,1.17A1.25,1.25,0,0,0,156.9,408.29Zm0-1.29h.58a.19.19,0,0,1,0,.39h-.58a.21.21,0,0,1-.19-.19Q156.81,407,156.9,407Z" transform="translate(-119.07 -38.04)"/><g class="cls-2"><path class="cls-8" d="M240,409h-25.5a1.16,1.16,0,0,0-1.17,1.17v46.21a1.16,1.16,0,0,0,1.17,1.17h12.75a1.88,1.88,0,1,0,1.88,1.88,1.88,1.88,0,0,0-1.88-1.88H240a1.16,1.16,0,0,0,1.17-1.17V410.1A1.15,1.15,0,0,0,240,409Zm-11.84,50.36a.91.91,0,1,1-.91-.91A.88.88,0,0,1,228.18,459.36Zm12-3a.21.21,0,0,1-.19.19H214.53a.21.21,0,0,1-.19-.19V410.1a.21.21,0,0,1,.19-.19H240a.21.21,0,0,1,.19.19v46.28Z" transform="translate(-119.07 -38.04)"/><path class="cls-8" d="M240.42,404.47H214.14a2.39,2.39,0,0,0-2.39,2.39v54.37a2.46,2.46,0,0,0,2.46,2.46h26.28a2.46,2.46,0,0,0,2.46-2.46V406.86A2.59,2.59,0,0,0,240.42,404.47Zm1.42,56.76a1.51,1.51,0,0,1-1.49,1.49H214.14a1.51,1.51,0,0,1-1.49-1.49V406.86a1.51,1.51,0,0,1,1.49-1.49h26.28a1.51,1.51,0,0,1,1.49,1.49v54.37Z" transform="translate(-119.07 -38.04)"/><path class="cls-8" d="M222.94,408.29h8.61a1.17,1.17,0,0,0,0-2.33h-8.61a1.16,1.16,0,0,0-1.17,1.17A1.25,1.25,0,0,0,222.94,408.29Zm0-1.29h8.61a.19.19,0,0,1,0,.39h-8.61a.21.21,0,0,1-.19-.19Q222.84,407,222.94,407Z" transform="translate(-119.07 -38.04)"/><path class="cls-8" d="M235.56,408.29h.58a1.17,1.17,0,0,0,0-2.33h-.58a1.16,1.16,0,0,0-1.17,1.17A1.25,1.25,0,0,0,235.56,408.29Zm0-1.29h.58a.19.19,0,0,1,0,.39h-.58a.21.21,0,0,1-.19-.19Q235.46,407,235.56,407Z" transform="translate(-119.07 -38.04)"/></g><g class="cls-3"><path class="cls-8" d="M397.35,409h-25.5a1.16,1.16,0,0,0-1.17,1.17v46.21a1.16,1.16,0,0,0,1.17,1.17h12.75a1.88,1.88,0,1,0,1.88,1.88,1.88,1.88,0,0,0-1.88-1.88h12.75a1.16,1.16,0,0,0,1.17-1.17V410.1A1.15,1.15,0,0,0,397.35,409ZM385.5,459.36a.91.91,0,1,1-.91-.91A.88.88,0,0,1,385.5,459.36Zm12-3a.21.21,0,0,1-.19.19H371.84a.21.21,0,0,1-.19-.19V410.1a.21.21,0,0,1,.19-.19h25.5a.21.21,0,0,1,.19.19v46.28Z" transform="translate(-119.07 -38.04)"/><path class="cls-8" d="M397.73,404.47H371.46a2.39,2.39,0,0,0-2.39,2.39v54.37a2.46,2.46,0,0,0,2.46,2.46H397.8a2.46,2.46,0,0,0,2.46-2.46V406.86A2.59,2.59,0,0,0,397.73,404.47Zm1.42,56.76a1.51,1.51,0,0,1-1.49,1.49H371.46a1.51,1.51,0,0,1-1.49-1.49V406.86a1.51,1.51,0,0,1,1.49-1.49h26.28a1.51,1.51,0,0,1,1.49,1.49v54.37Z" transform="translate(-119.07 -38.04)"/><path class="cls-8" d="M380.26,408.29h8.61a1.17,1.17,0,0,0,0-2.33h-8.61a1.16,1.16,0,0,0-1.17,1.17A1.25,1.25,0,0,0,380.26,408.29Zm0-1.29h8.61a.19.19,0,0,1,0,.39h-8.61a.21.21,0,0,1-.19-.19Q380.16,407,380.26,407Z" transform="translate(-119.07 -38.04)"/><path class="cls-8" d="M392.88,408.29h.58a1.17,1.17,0,0,0,0-2.33h-.58a1.16,1.16,0,0,0-1.17,1.17A1.25,1.25,0,0,0,392.88,408.29Zm0-1.29h.58a.19.19,0,0,1,0,.39h-.58a.21.21,0,0,1-.19-.19Q392.78,407,392.88,407Z" transform="translate(-119.07 -38.04)"/></g><g class="cls-4"><path class="cls-8" d="M318.69,409h-25.5a1.16,1.16,0,0,0-1.17,1.17v46.21a1.16,1.16,0,0,0,1.17,1.17h12.75a1.88,1.88,0,1,0,1.88,1.88,1.88,1.88,0,0,0-1.88-1.88h12.75a1.16,1.16,0,0,0,1.17-1.17V410.1A1.15,1.15,0,0,0,318.69,409Zm-11.84,50.36a.91.91,0,1,1-.91-.91A.88.88,0,0,1,306.84,459.36Zm12-3a.21.21,0,0,1-.19.19H293.18a.21.21,0,0,1-.19-.19V410.1a.21.21,0,0,1,.19-.19h25.5a.21.21,0,0,1,.19.19v46.28Z" transform="translate(-119.07 -38.04)"/><path class="cls-8" d="M319.07,404.47H292.8a2.39,2.39,0,0,0-2.39,2.39v54.37a2.46,2.46,0,0,0,2.46,2.46h26.28a2.46,2.46,0,0,0,2.46-2.46V406.86A2.59,2.59,0,0,0,319.07,404.47Zm1.42,56.76a1.51,1.51,0,0,1-1.49,1.49H292.8a1.51,1.51,0,0,1-1.49-1.49V406.86a1.51,1.51,0,0,1,1.49-1.49h26.28a1.51,1.51,0,0,1,1.49,1.49v54.37Z" transform="translate(-119.07 -38.04)"/><path class="cls-8" d="M301.6,408.29h8.61a1.17,1.17,0,0,0,0-2.33H301.6a1.16,1.16,0,0,0-1.17,1.17A1.25,1.25,0,0,0,301.6,408.29Zm0-1.29h8.61a.19.19,0,0,1,0,.39H301.6a.21.21,0,0,1-.19-.19Q301.5,407,301.6,407Z" transform="translate(-119.07 -38.04)"/><path class="cls-8" d="M314.22,408.29h.58a1.17,1.17,0,0,0,0-2.33h-.58a1.16,1.16,0,0,0-1.17,1.17A1.25,1.25,0,0,0,314.22,408.29Zm0-1.29h.58a.19.19,0,0,1,0,.39h-.58a.21.21,0,0,1-.19-.19Q314.12,407,314.22,407Z" transform="translate(-119.07 -38.04)"/></g><g class="cls-5"><path class="cls-8" d="M476,409H450.5a1.16,1.16,0,0,0-1.17,1.17v46.21a1.16,1.16,0,0,0,1.17,1.17h12.75a1.88,1.88,0,1,0,1.88,1.88,1.88,1.88,0,0,0-1.88-1.88H476a1.16,1.16,0,0,0,1.17-1.17V410.1A1.15,1.15,0,0,0,476,409Zm-11.84,50.36a.91.91,0,1,1-.91-.91A.88.88,0,0,1,464.16,459.36Zm12-3a.21.21,0,0,1-.19.19H450.5a.21.21,0,0,1-.19-.19V410.1a.21.21,0,0,1,.19-.19H476a.21.21,0,0,1,.19.19v46.28Z" transform="translate(-119.07 -38.04)"/><path class="cls-8" d="M476.39,404.47H450.11a2.39,2.39,0,0,0-2.39,2.39v54.37a2.46,2.46,0,0,0,2.46,2.46h26.28a2.46,2.46,0,0,0,2.46-2.46V406.86A2.59,2.59,0,0,0,476.39,404.47Zm1.42,56.76a1.51,1.51,0,0,1-1.49,1.49H450.11a1.51,1.51,0,0,1-1.49-1.49V406.86a1.51,1.51,0,0,1,1.49-1.49h26.28a1.51,1.51,0,0,1,1.49,1.49v54.37Z" transform="translate(-119.07 -38.04)"/><path class="cls-8" d="M458.92,408.29h8.61a1.17,1.17,0,0,0,0-2.33h-8.61a1.16,1.16,0,0,0-1.17,1.17A1.25,1.25,0,0,0,458.92,408.29Zm0-1.29h8.61a.19.19,0,0,1,0,.39h-8.61a.21.21,0,0,1-.19-.19Q458.82,407,458.92,407Z" transform="translate(-119.07 -38.04)"/><path class="cls-8" d="M471.54,408.29h.58a1.17,1.17,0,0,0,0-2.33h-.58a1.16,1.16,0,0,0-1.17,1.17A1.25,1.25,0,0,0,471.54,408.29Zm0-1.29h.58a.19.19,0,0,1,0,.39h-.58a.21.21,0,0,1-.19-.19Q471.44,407,471.54,407Z" transform="translate(-119.07 -38.04)"/></g><path class="cls-9" d="M172.55,514.84a2.24,2.24,0,0,0-.32-1.17,2.08,2.08,0,0,0-1.81-1h-43.5a2.15,2.15,0,0,0-2.14,2.14v23.75h47.77Zm-1,22.85H125.76V514.84a1.16,1.16,0,0,1,1.17-1.17h43.43a1.07,1.07,0,0,1,1,.58,1.09,1.09,0,0,1,.19.65v22.78Z" transform="translate(-119.07 -38.04)"/><path class="cls-9" d="M178.06,541.25a1.27,1.27,0,0,0-1.1-.58h-2.72V514.77a3.89,3.89,0,0,0-3.88-3.88H127a3.89,3.89,0,0,0-3.88,3.88v26h-2.72a1.13,1.13,0,0,0-1.1.58,1.94,1.94,0,0,0,.06,1.88l.78,1.68a3.2,3.2,0,0,0,2.52,1.81h52a3.25,3.25,0,0,0,2.52-1.81l.78-1.68A1.9,1.9,0,0,0,178.06,541.25Zm-54-26.47a2.9,2.9,0,0,1,2.91-2.91h43.37a2.9,2.9,0,0,1,2.91,2.91v26H124.08Zm28.8,26.86-.65.91h-7.12l-.65-.91Zm24.27,1.1-.78,1.68a2.26,2.26,0,0,1-1.68,1.29h-52a2.26,2.26,0,0,1-1.68-1.29l-.78-1.68a1.26,1.26,0,0,1-.13-.91s.06-.13.32-.13H143.3l1.23,1.88h8.16l1.23-1.88h22.91a.38.38,0,0,1,.32.13C177.34,542,177.34,542.28,177.15,542.73Z" transform="translate(-119.07 -38.04)"/><path class="cls-9" d="M174.88,543.9H122.46a.51.51,0,0,0-.52.52.48.48,0,0,0,.52.52h52.36a.51.51,0,0,0,.52-.52A.46.46,0,0,0,174.88,543.9Z" transform="translate(-119.07 -38.04)"/><g class="cls-2"><path class="cls-9" d="M251.21,514.84a2.24,2.24,0,0,0-.32-1.17,2.08,2.08,0,0,0-1.81-1h-43.5a2.15,2.15,0,0,0-2.14,2.14v23.75h47.77Zm-1,22.85H204.42V514.84a1.16,1.16,0,0,1,1.17-1.17H249a1.07,1.07,0,0,1,1,.58,1.09,1.09,0,0,1,.19.65v22.78Z" transform="translate(-119.07 -38.04)"/><path class="cls-9" d="M256.71,541.25a1.27,1.27,0,0,0-1.1-.58H252.9V514.77a3.89,3.89,0,0,0-3.88-3.88H205.65a3.89,3.89,0,0,0-3.88,3.88v26H199a1.13,1.13,0,0,0-1.1.58,1.94,1.94,0,0,0,.06,1.88l.78,1.68a3.2,3.2,0,0,0,2.52,1.81h52a3.25,3.25,0,0,0,2.52-1.81l.78-1.68A1.9,1.9,0,0,0,256.71,541.25Zm-54-26.47a2.9,2.9,0,0,1,2.91-2.91H249a2.9,2.9,0,0,1,2.91,2.91v26H202.73Zm28.8,26.86-.65.91h-7.12l-.65-.91Zm24.27,1.1-.78,1.68a2.26,2.26,0,0,1-1.68,1.29h-52a2.26,2.26,0,0,1-1.68-1.29l-.78-1.68a1.26,1.26,0,0,1-.13-.91s.06-.13.32-.13H222l1.23,1.88h8.16l1.23-1.88h22.91a.38.38,0,0,1,.32.13C256,542,256,542.28,255.81,542.73Z" transform="translate(-119.07 -38.04)"/><path class="cls-9" d="M253.54,543.9H201.12a.51.51,0,0,0-.52.52.48.48,0,0,0,.52.52h52.36a.51.51,0,0,0,.52-.52A.46.46,0,0,0,253.54,543.9Z" transform="translate(-119.07 -38.04)"/></g><g class="cls-4"><path class="cls-9" d="M329.87,514.84a2.24,2.24,0,0,0-.32-1.17,2.08,2.08,0,0,0-1.81-1h-43.5a2.15,2.15,0,0,0-2.14,2.14v23.75h47.77Zm-1,22.85H283.08V514.84a1.16,1.16,0,0,1,1.17-1.17h43.43a1.07,1.07,0,0,1,1,.58,1.09,1.09,0,0,1,.19.65v22.78Z" transform="translate(-119.07 -38.04)"/><path class="cls-9" d="M335.37,541.25a1.27,1.27,0,0,0-1.1-.58h-2.72V514.77a3.89,3.89,0,0,0-3.88-3.88H284.31a3.89,3.89,0,0,0-3.88,3.88v26H277.7a1.13,1.13,0,0,0-1.1.58,1.94,1.94,0,0,0,.06,1.88l.78,1.68a3.2,3.2,0,0,0,2.52,1.81h52a3.25,3.25,0,0,0,2.52-1.81l.78-1.68A1.9,1.9,0,0,0,335.37,541.25Zm-54-26.47a2.9,2.9,0,0,1,2.91-2.91h43.37a2.9,2.9,0,0,1,2.91,2.91v26H281.39Zm28.8,26.86-.65.91h-7.12l-.65-.91Zm24.27,1.1-.78,1.68a2.26,2.26,0,0,1-1.68,1.29H280a2.26,2.26,0,0,1-1.68-1.29l-.78-1.68a1.26,1.26,0,0,1-.13-.91s.06-.13.32-.13h22.91l1.23,1.88H310l1.23-1.88h22.91a.38.38,0,0,1,.32.13C334.66,542,334.66,542.28,334.47,542.73Z" transform="translate(-119.07 -38.04)"/><path class="cls-9" d="M332.2,543.9H279.78a.51.51,0,0,0-.52.52.48.48,0,0,0,.52.52h52.36a.51.51,0,0,0,.52-.52A.46.46,0,0,0,332.2,543.9Z" transform="translate(-119.07 -38.04)"/></g><g class="cls-3"><path class="cls-9" d="M408.53,514.84a2.24,2.24,0,0,0-.32-1.17,2.08,2.08,0,0,0-1.81-1H362.9a2.15,2.15,0,0,0-2.14,2.14v23.75h47.77Zm-1,22.85H361.74V514.84a1.16,1.16,0,0,1,1.17-1.17h43.43a1.07,1.07,0,0,1,1,.58,1.09,1.09,0,0,1,.19.65v22.78Z" transform="translate(-119.07 -38.04)"/><path class="cls-9" d="M414,541.25a1.27,1.27,0,0,0-1.1-.58h-2.72V514.77a3.89,3.89,0,0,0-3.88-3.88H363a3.89,3.89,0,0,0-3.88,3.88v26h-2.72a1.13,1.13,0,0,0-1.1.58,1.94,1.94,0,0,0,.06,1.88l.78,1.68a3.2,3.2,0,0,0,2.52,1.81h52a3.25,3.25,0,0,0,2.52-1.81l.78-1.68A1.9,1.9,0,0,0,414,541.25Zm-54-26.47a2.9,2.9,0,0,1,2.91-2.91h43.37a2.9,2.9,0,0,1,2.91,2.91v26H360.05Zm28.8,26.86-.65.91h-7.12l-.65-.91Zm24.27,1.1-.78,1.68a2.26,2.26,0,0,1-1.68,1.29h-52a2.26,2.26,0,0,1-1.68-1.29l-.78-1.68a1.26,1.26,0,0,1-.13-.91s.06-.13.32-.13h22.91l1.23,1.88h8.16l1.23-1.88H412.8a.38.38,0,0,1,.32.13C413.32,542,413.32,542.28,413.13,542.73Z" transform="translate(-119.07 -38.04)"/><path class="cls-9" d="M410.86,543.9H358.43a.51.51,0,0,0-.52.52.48.48,0,0,0,.52.52H410.8a.51.51,0,0,0,.52-.52A.46.46,0,0,0,410.86,543.9Z" transform="translate(-119.07 -38.04)"/></g><path class="cls-10" d="M145.55,609.63v33.68h1.57V609.63Z" transform="translate(-119.07 -38.04)"/><path class="cls-10" d="M151,608.45a.78.78,0,0,0-.77.79V629.6a.78.78,0,0,0,1.57,0s0,0,0,0V609.24a.78.78,0,0,0-.77-.79Z" transform="translate(-119.07 -38.04)"/><path class="cls-10" d="M126,604.93a.78.78,0,0,0-.77.78v33.68a.78.78,0,0,0,.64.77l20.76,3.92.14,0h3.92l.15,0,20.76-3.92a.78.78,0,0,0,.64-.77V605.71a.78.78,0,0,0-.79-.78h-.14l-20.69,3.9H146.8l-20.68-3.9-.16,0Zm.79,1.73,19.83,3.74.14,0h3.92l.15,0,19.83-3.74v32.09l-20,3.78h-3.78l-20-3.78Z" transform="translate(-119.07 -38.04)"/><path class="cls-10" d="M129.87,601.8a.78.78,0,0,0-.77.78v3.52a.78.78,0,0,0,1.57,0s0,0,0,0v-2.36l16.15,6.61a.78.78,0,1,0,.59-1.45l-17.23-7a.78.78,0,0,0-.31-.06Z" transform="translate(-119.07 -38.04)"/><path class="cls-10" d="M134.55,600.23a.78.78,0,0,0-.75.78v3.13a.78.78,0,0,0,1.57,0s0,0,0,0v-1.72l12.51,7.86a.78.78,0,1,0,.87-1.3l0,0L135,600.35a.78.78,0,0,0-.45-.12Z" transform="translate(-119.07 -38.04)"/><path class="cls-10" d="M167.46,601.8a.78.78,0,0,0-.28.06l-17.23,7a.78.78,0,1,0,.59,1.45h0l16.15-6.61v2.36a.78.78,0,0,0,1.57,0s0,0,0,0v-3.52a.78.78,0,0,0-.78-.78h0Z" transform="translate(-119.07 -38.04)"/><path class="cls-10" d="M162.76,600.23a.78.78,0,0,0-.39.12L148.66,609a.78.78,0,1,0,.8,1.35l0,0L162,602.43v1.71a.78.78,0,0,0,1.57,0s0,0,0,0V601a.78.78,0,0,0-.78-.78h0Z" transform="translate(-119.07 -38.04)"/><path class="cls-10" d="M167.46,612.37l-.12,0-11.25,2.12a.78.78,0,0,0-.64.77v6.27a.78.78,0,0,0,.79.78h.14l11.24-2.12a.78.78,0,0,0,.64-.77v-6.27a.78.78,0,0,0-.78-.78h0Zm-.76,1.73v4.67L157,620.6v-4.67Z" transform="translate(-119.07 -38.04)"/><path class="cls-10" d="M167.47,621.77l-.13,0-5.62,1.06a.78.78,0,1,0,.27,1.55h0l5.62-1.06a.78.78,0,0,0-.16-1.55Z" transform="translate(-119.07 -38.04)"/><path class="cls-10" d="M151,634.29a.78.78,0,0,0-.77.79v7.83a.78.78,0,0,0,1.57,0s0,0,0,0v-7.83a.78.78,0,0,0-.77-.79Z" transform="translate(-119.07 -38.04)"/><path class="cls-10" d="M151.82,632.35a.78.78,0,0,1-.78.78h0a.78.78,0,0,1-.78-.78h0a.78.78,0,0,1,1.57,0Z" transform="translate(-119.07 -38.04)"/><g class="cls-2"><path class="cls-10" d="M224.21,609.63v33.68h1.57V609.63Z" transform="translate(-119.07 -38.04)"/><path class="cls-10" d="M229.68,608.45a.78.78,0,0,0-.77.79V629.6a.78.78,0,0,0,1.57,0s0,0,0,0V609.24a.78.78,0,0,0-.77-.79Z" transform="translate(-119.07 -38.04)"/><path class="cls-10" d="M204.62,604.93a.78.78,0,0,0-.77.78v33.68a.78.78,0,0,0,.64.77l20.76,3.92.14,0h3.92l.15,0,20.76-3.92a.78.78,0,0,0,.64-.77V605.71a.78.78,0,0,0-.79-.78h-.14l-20.69,3.9h-3.77l-20.68-3.9-.16,0Zm.79,1.73,19.83,3.74.14,0h3.92l.15,0,19.83-3.74v32.09l-20,3.78h-3.78l-20-3.78Z" transform="translate(-119.07 -38.04)"/><path class="cls-10" d="M208.53,601.8a.78.78,0,0,0-.77.78v3.52a.78.78,0,0,0,1.57,0s0,0,0,0v-2.36l16.15,6.61a.78.78,0,1,0,.59-1.45l-17.23-7a.78.78,0,0,0-.31-.06Z" transform="translate(-119.07 -38.04)"/><path class="cls-10" d="M213.21,600.23a.78.78,0,0,0-.75.78v3.13a.78.78,0,0,0,1.57,0s0,0,0,0v-1.72l12.51,7.86a.78.78,0,1,0,.87-1.3l0,0-13.71-8.62a.78.78,0,0,0-.45-.12Z" transform="translate(-119.07 -38.04)"/><path class="cls-10" d="M246.12,601.8a.78.78,0,0,0-.28.06l-17.23,7a.78.78,0,1,0,.59,1.45h0l16.15-6.61v2.36a.78.78,0,0,0,1.57,0s0,0,0,0v-3.52a.78.78,0,0,0-.78-.78h0Z" transform="translate(-119.07 -38.04)"/><path class="cls-10" d="M241.42,600.23a.78.78,0,0,0-.39.12L227.32,609a.78.78,0,1,0,.8,1.35l0,0,12.51-7.86v1.71a.78.78,0,0,0,1.57,0s0,0,0,0V601a.78.78,0,0,0-.78-.78h0Z" transform="translate(-119.07 -38.04)"/><path class="cls-10" d="M246.12,612.37l-.12,0-11.25,2.12a.78.78,0,0,0-.64.77v6.27a.78.78,0,0,0,.79.78H235l11.24-2.12a.78.78,0,0,0,.64-.77v-6.27a.78.78,0,0,0-.78-.78h0Zm-.76,1.73v4.67l-9.68,1.83v-4.67Z" transform="translate(-119.07 -38.04)"/><path class="cls-10" d="M246.13,621.77l-.13,0-5.62,1.06a.78.78,0,1,0,.27,1.55h0l5.62-1.06a.78.78,0,0,0-.16-1.55Z" transform="translate(-119.07 -38.04)"/><path class="cls-10" d="M229.68,634.29a.78.78,0,0,0-.77.79v7.83a.78.78,0,0,0,1.57,0s0,0,0,0v-7.83a.78.78,0,0,0-.77-.79Z" transform="translate(-119.07 -38.04)"/><path class="cls-10" d="M230.47,632.35a.78.78,0,0,1-.78.78h0a.78.78,0,0,1-.78-.78h0a.78.78,0,0,1,1.57,0Z" transform="translate(-119.07 -38.04)"/></g><g class="cls-4"><path class="cls-10" d="M302.87,609.63v33.68h1.57V609.63Z" transform="translate(-119.07 -38.04)"/><path class="cls-10" d="M308.34,608.45a.78.78,0,0,0-.77.79V629.6a.78.78,0,0,0,1.57,0s0,0,0,0V609.24a.78.78,0,0,0-.77-.79Z" transform="translate(-119.07 -38.04)"/><path class="cls-10" d="M283.27,604.93a.78.78,0,0,0-.77.78v33.68a.78.78,0,0,0,.64.77l20.76,3.92.14,0H308l.15,0,20.76-3.92a.78.78,0,0,0,.64-.77V605.71a.78.78,0,0,0-.79-.78h-.14l-20.69,3.9h-3.77l-20.68-3.9-.16,0Zm.79,1.73,19.83,3.74.14,0H308l.15,0,19.83-3.74v32.09l-20,3.78h-3.78l-20-3.78Z" transform="translate(-119.07 -38.04)"/><path class="cls-10" d="M287.19,601.8a.78.78,0,0,0-.77.78v3.52a.78.78,0,0,0,1.57,0s0,0,0,0v-2.36l16.15,6.61a.78.78,0,1,0,.59-1.45l-17.23-7a.78.78,0,0,0-.31-.06Z" transform="translate(-119.07 -38.04)"/><path class="cls-10" d="M291.87,600.23a.78.78,0,0,0-.75.78v3.13a.78.78,0,0,0,1.57,0s0,0,0,0v-1.72l12.51,7.86a.78.78,0,1,0,.87-1.3l0,0-13.71-8.62a.78.78,0,0,0-.45-.12Z" transform="translate(-119.07 -38.04)"/><path class="cls-10" d="M324.78,601.8a.78.78,0,0,0-.28.06l-17.23,7a.78.78,0,1,0,.59,1.45h0L324,603.75v2.36a.78.78,0,0,0,1.57,0s0,0,0,0v-3.52a.78.78,0,0,0-.78-.78h0Z" transform="translate(-119.07 -38.04)"/><path class="cls-10" d="M320.08,600.23a.78.78,0,0,0-.39.12L306,609a.78.78,0,1,0,.8,1.35l0,0,12.51-7.86v1.71a.78.78,0,0,0,1.57,0s0,0,0,0V601a.78.78,0,0,0-.78-.78h0Z" transform="translate(-119.07 -38.04)"/><path class="cls-10" d="M324.78,612.37l-.12,0-11.25,2.12a.78.78,0,0,0-.64.77v6.27a.78.78,0,0,0,.79.78h.14l11.24-2.12a.78.78,0,0,0,.64-.77v-6.27a.78.78,0,0,0-.78-.78h0ZM324,614.1v4.67l-9.68,1.83v-4.67Z" transform="translate(-119.07 -38.04)"/><path class="cls-10" d="M324.79,621.77l-.13,0L319,622.85a.78.78,0,1,0,.27,1.55h0l5.62-1.06a.78.78,0,0,0-.16-1.55Z" transform="translate(-119.07 -38.04)"/><path class="cls-10" d="M308.34,634.29a.78.78,0,0,0-.77.79v7.83a.78.78,0,0,0,1.57,0s0,0,0,0v-7.83a.78.78,0,0,0-.77-.79Z" transform="translate(-119.07 -38.04)"/><path class="cls-10" d="M309.13,632.35a.78.78,0,0,1-.78.78h0a.78.78,0,0,1-.78-.78h0a.78.78,0,0,1,1.57,0Z" transform="translate(-119.07 -38.04)"/></g><g class="cls-3"><path class="cls-10" d="M381.53,609.63v33.68h1.57V609.63Z" transform="translate(-119.07 -38.04)"/><path class="cls-10" d="M387,608.45a.78.78,0,0,0-.77.79V629.6a.78.78,0,0,0,1.57,0s0,0,0,0V609.24a.78.78,0,0,0-.77-.79Z" transform="translate(-119.07 -38.04)"/><path class="cls-10" d="M361.93,604.93a.78.78,0,0,0-.77.78v33.68a.78.78,0,0,0,.64.77l20.76,3.92.14,0h3.92l.15,0,20.76-3.92a.78.78,0,0,0,.64-.77V605.71a.78.78,0,0,0-.79-.78h-.14l-20.69,3.9h-3.77l-20.68-3.9-.16,0Zm.79,1.73,19.83,3.74.14,0h3.92l.15,0,19.83-3.74v32.09l-20,3.78h-3.78l-20-3.78Z" transform="translate(-119.07 -38.04)"/><path class="cls-10" d="M365.85,601.8a.78.78,0,0,0-.77.78v3.52a.78.78,0,0,0,1.57,0s0,0,0,0v-2.36l16.15,6.61a.78.78,0,1,0,.59-1.45l-17.23-7a.78.78,0,0,0-.31-.06Z" transform="translate(-119.07 -38.04)"/><path class="cls-10" d="M370.53,600.23a.78.78,0,0,0-.75.78v3.13a.78.78,0,0,0,1.57,0s0,0,0,0v-1.72l12.51,7.86a.78.78,0,1,0,.87-1.3l0,0L371,600.35a.78.78,0,0,0-.45-.12Z" transform="translate(-119.07 -38.04)"/><path class="cls-10" d="M403.44,601.8a.78.78,0,0,0-.28.06l-17.23,7a.78.78,0,1,0,.59,1.45h0l16.15-6.61v2.36a.78.78,0,0,0,1.57,0s0,0,0,0v-3.52a.78.78,0,0,0-.78-.78h0Z" transform="translate(-119.07 -38.04)"/><path class="cls-10" d="M398.74,600.23a.78.78,0,0,0-.39.12L384.63,609a.78.78,0,1,0,.8,1.35l0,0L398,602.43v1.71a.78.78,0,0,0,1.57,0s0,0,0,0V601a.78.78,0,0,0-.78-.78h0Z" transform="translate(-119.07 -38.04)"/><path class="cls-10" d="M403.44,612.37l-.12,0-11.25,2.12a.78.78,0,0,0-.64.77v6.27a.78.78,0,0,0,.79.78h.14l11.24-2.12a.78.78,0,0,0,.64-.77v-6.27a.78.78,0,0,0-.78-.78h0Zm-.76,1.73v4.67L393,620.6v-4.67Z" transform="translate(-119.07 -38.04)"/><path class="cls-10" d="M403.45,621.77l-.13,0-5.62,1.06a.78.78,0,1,0,.27,1.55h0l5.62-1.06a.78.78,0,0,0-.16-1.55Z" transform="translate(-119.07 -38.04)"/><path class="cls-10" d="M387,634.29a.78.78,0,0,0-.77.79v7.83a.78.78,0,0,0,1.57,0s0,0,0,0v-7.83a.78.78,0,0,0-.77-.79Z" transform="translate(-119.07 -38.04)"/><path class="cls-10" d="M387.79,632.35a.78.78,0,0,1-.78.78h0a.78.78,0,0,1-.78-.78h0a.78.78,0,0,1,1.57,0Z" transform="translate(-119.07 -38.04)"/></g><g class="cls-5"><path class="cls-9" d="M487.19,514.84a2.24,2.24,0,0,0-.32-1.17,2.08,2.08,0,0,0-1.81-1h-43.5a2.15,2.15,0,0,0-2.14,2.14v23.75h47.77Zm-1,22.85H440.39V514.84a1.16,1.16,0,0,1,1.17-1.17H485a1.07,1.07,0,0,1,1,.58,1.09,1.09,0,0,1,.19.65v22.78Z" transform="translate(-119.07 -38.04)"/><path class="cls-9" d="M492.69,541.25a1.27,1.27,0,0,0-1.1-.58h-2.72V514.77a3.89,3.89,0,0,0-3.88-3.88H441.62a3.89,3.89,0,0,0-3.88,3.88v26H435a1.13,1.13,0,0,0-1.1.58,1.94,1.94,0,0,0,.06,1.88l.78,1.68a3.2,3.2,0,0,0,2.52,1.81h52a3.25,3.25,0,0,0,2.52-1.81l.78-1.68A1.9,1.9,0,0,0,492.69,541.25Zm-54-26.47a2.9,2.9,0,0,1,2.91-2.91H485a2.9,2.9,0,0,1,2.91,2.91v26H438.71Zm28.8,26.86-.65.91h-7.12l-.65-.91Zm24.27,1.1-.78,1.68a2.26,2.26,0,0,1-1.68,1.29h-52a2.26,2.26,0,0,1-1.68-1.29l-.78-1.68a1.26,1.26,0,0,1-.13-.91s.06-.13.32-.13h22.91l1.23,1.88h8.16l1.23-1.88h22.91a.38.38,0,0,1,.32.13C492,542,492,542.28,491.79,542.73Z" transform="translate(-119.07 -38.04)"/><path class="cls-9" d="M489.52,543.9H437.09a.51.51,0,0,0-.52.52.48.48,0,0,0,.52.52h52.36a.51.51,0,0,0,.52-.52A.46.46,0,0,0,489.52,543.9Z" transform="translate(-119.07 -38.04)"/></g><g class="cls-5"><path class="cls-10" d="M460.18,609.63v33.68h1.57V609.63Z" transform="translate(-119.07 -38.04)"/><path class="cls-10" d="M465.66,608.45a.78.78,0,0,0-.77.79V629.6a.78.78,0,0,0,1.57,0s0,0,0,0V609.24a.78.78,0,0,0-.77-.79Z" transform="translate(-119.07 -38.04)"/><path class="cls-10" d="M440.59,604.93a.78.78,0,0,0-.77.78v33.68a.78.78,0,0,0,.64.77l20.76,3.92.14,0h3.92l.15,0,20.76-3.92a.78.78,0,0,0,.64-.77V605.71a.78.78,0,0,0-.79-.78h-.14l-20.69,3.9h-3.77l-20.68-3.9-.16,0Zm.79,1.73,19.83,3.74.14,0h3.92l.15,0,19.83-3.74v32.09l-20,3.78h-3.78l-20-3.78Z" transform="translate(-119.07 -38.04)"/><path class="cls-10" d="M444.51,601.8a.78.78,0,0,0-.77.78v3.52a.78.78,0,0,0,1.57,0s0,0,0,0v-2.36l16.15,6.61a.78.78,0,1,0,.59-1.45l-17.23-7a.78.78,0,0,0-.31-.06Z" transform="translate(-119.07 -38.04)"/><path class="cls-10" d="M449.19,600.23a.78.78,0,0,0-.75.78v3.13a.78.78,0,0,0,1.57,0s0,0,0,0v-1.72l12.51,7.86a.78.78,0,1,0,.87-1.3l0,0-13.71-8.62a.78.78,0,0,0-.45-.12Z" transform="translate(-119.07 -38.04)"/><path class="cls-10" d="M482.1,601.8a.78.78,0,0,0-.28.06l-17.23,7a.78.78,0,1,0,.59,1.45h0l16.15-6.61v2.36a.78.78,0,0,0,1.57,0s0,0,0,0v-3.52a.78.78,0,0,0-.78-.78h0Z" transform="translate(-119.07 -38.04)"/><path class="cls-10" d="M477.4,600.23a.78.78,0,0,0-.39.12L463.29,609a.78.78,0,1,0,.8,1.35l0,0,12.51-7.86v1.71a.78.78,0,0,0,1.57,0s0,0,0,0V601a.78.78,0,0,0-.78-.78h0Z" transform="translate(-119.07 -38.04)"/><path class="cls-10" d="M482.1,612.37l-.12,0-11.25,2.12a.78.78,0,0,0-.64.77v6.27a.78.78,0,0,0,.79.78H471l11.24-2.12a.78.78,0,0,0,.64-.77v-6.27a.78.78,0,0,0-.78-.78h0Zm-.76,1.73v4.67l-9.68,1.83v-4.67Z" transform="translate(-119.07 -38.04)"/><path class="cls-10" d="M482.1,621.77l-.13,0-5.62,1.06a.78.78,0,1,0,.27,1.55h0l5.62-1.06a.78.78,0,0,0-.16-1.55Z" transform="translate(-119.07 -38.04)"/><path class="cls-10" d="M465.66,634.29a.78.78,0,0,0-.77.79v7.83a.78.78,0,0,0,1.57,0s0,0,0,0v-7.83a.78.78,0,0,0-.77-.79Z" transform="translate(-119.07 -38.04)"/><path class="cls-10" d="M466.45,632.35a.78.78,0,0,1-.78.78h0a.78.78,0,0,1-.78-.78h0a.78.78,0,0,1,1.57,0Z" transform="translate(-119.07 -38.04)"/></g><text class="cls-11" transform="translate(39.1 41.06)">media usage</text><text class="cls-11" transform="translate(47.61 690.12)">dan spector</text></svg>