<svg version="1.1" viewBox="0.0 0.0 960.0 540.0" fill="none" stroke="none" stroke-linecap="square" stroke-miterlimit="10" xmlns:xlink="http://www.w3.org/1999/xlink" xmlns="http://www.w3.org/2000/svg"><clipPath id="g3a1d405597_0_292.0"><path d="m0 0l960.0 0l0 540.0l-960.0 0l0 -540.0z" clip-rule="nonzero"/></clipPath><g clip-path="url(#g3a1d405597_0_292.0)"><path fill="#c0791b" d="m0 0l960.0 0l0 540.0l-960.0 0z" fill-rule="evenodd"/><path fill="#ffffff" fill-opacity="0.0902" d="m128.25023 72.64238l0 0l0 0c-4.41053 0 -8.640419 -1.7520752 -11.759132 -4.870796c-3.1187134 -3.1187134 -4.8707886 -7.3485985 -4.8707886 -11.759125l0 -55.653545c0 -1.5309453E-4 1.2207031E-4 -2.771914E-4 2.746582E-4 -2.771914E-4l33.25956 2.771914E-4l0 0c1.5258789E-4 0 2.746582E-4 1.2406707E-4 2.746582E-4 2.771616E-4l-2.746582E-4 55.653267l0 0c0 9.184448 -7.445465 16.629921 -16.629913 16.629921z" fill-rule="evenodd"/><path fill="#ffffff" fill-opacity="0.0902" d="m128.25023 36.105614l0 0l0 0c-4.41053 0 -8.640419 -1.7520752 -11.759132 -4.8707905c-3.1187134 -3.1187153 -4.8707886 -7.3486004 -4.8707886 -11.7591305l0 -19.118109c0 -1.5306473E-4 1.2207031E-4 -2.771616E-4 2.746582E-4 -2.771616E-4l33.25956 2.771616E-4l0 0c1.5258789E-4 0 2.746582E-4 1.2409687E-4 2.746582E-4 2.771616E-4l-2.746582E-4 19.117832l0 0c0 9.184452 -7.445465 16.629921 -16.629913 16.629921z" fill-rule="evenodd"/><path fill="#ffffff" fill-opacity="0.0902" d="m80.14446 72.64238l0 0l0 0c-4.41053 0 -8.640419 -1.7520752 -11.759132 -4.870796c-3.1187134 -3.1187134 -4.8707924 -7.3485985 -4.8707924 -11.759125l0 -55.653545c0 -1.5309453E-4 1.2588501E-4 -2.771914E-4 2.784729E-4 -2.771914E-4l33.259567 2.771914E-4l0 0c1.5258789E-4 0 2.746582E-4 1.2406707E-4 2.746582E-4 2.771616E-4l-2.746582E-4 55.653267l0 0c0 9.184448 -7.4454727 16.629921 -16.629921 16.629921z" fill-rule="evenodd"/><path fill="#ffffff" fill-opacity="0.0902" d="m80.14446 109.17896l0 0l0 0c-4.41053 0 -8.640419 -1.7520828 -11.759132 -4.870796c-3.1187134 -3.1187134 -4.8707924 -7.3486023 -4.8707924 -11.759125l0 -92.18898c0 -1.5306473E-4 1.2588501E-4 -2.771616E-4 2.784729E-4 -2.771616E-4l33.259567 2.771616E-4l0 0c1.5258789E-4 0 2.746582E-4 1.2409687E-4 2.746582E-4 2.771616E-4l-2.746582E-4 92.188705l0 0c0 9.184448 -7.4454727 16.629921 -16.629921 16.629921z" fill-rule="evenodd"/><path fill="#ffffff" fill-opacity="0.0902" d="m80.14446 36.105614l0 0l0 0c-4.41053 0 -8.640419 -1.7520752 -11.759132 -4.8707905c-3.1187134 -3.1187153 -4.8707924 -7.3486004 -4.8707924 -11.7591305l0 -19.118109c0 -1.5306473E-4 1.2588501E-4 -2.771616E-4 2.784729E-4 -2.771616E-4l33.259567 2.771616E-4l0 0c1.5258789E-4 0 2.746582E-4 1.2409687E-4 2.746582E-4 2.771616E-4l-2.746582E-4 19.117832l0 0c0 9.184452 -7.4454727 16.629921 -16.629921 16.629921z" fill-rule="evenodd"/><path fill="#ffffff" fill-opacity="0.0902" d="m32.038692 72.64238l0 0l0 0c-4.410528 0 -8.640413 -1.7520752 -11.759129 -4.870796c-3.1187153 -3.1187134 -4.8707914 -7.3485985 -4.8707914 -11.759125l0 -55.653545c0 -1.5309453E-4 1.2397766E-4 -2.771914E-4 2.7656555E-4 -2.771914E-4l33.259563 2.771914E-4l0 0c1.5258789E-4 0 2.784729E-4 1.2406707E-4 2.784729E-4 2.771616E-4l-2.784729E-4 55.653267l0 0c0 9.184448 -7.445469 16.629921 -16.629921 16.629921z" fill-rule="evenodd"/><path fill="#ffffff" fill-opacity="0.0902" d="m32.038692 145.7156l0 0l0 0c-4.410528 0 -8.640413 -1.7520752 -11.759129 -4.8707886c-3.1187153 -3.1187286 -4.8707914 -7.3486023 -4.8707914 -11.75914l0 -128.72441c0 -1.5306473E-4 1.2397766E-4 -2.771616E-4 2.7656555E-4 -2.771616E-4l33.259563 2.771616E-4l0 0c1.5258789E-4 0 2.784729E-4 1.2409687E-4 2.784729E-4 2.771616E-4l-2.784729E-4 128.72414l0 0c0 9.184448 -7.445469 16.629929 -16.629921 16.629929z" fill-rule="evenodd"/><path fill="#ffffff" fill-opacity="0.0902" d="m32.038692 109.17896l0 0l0 0c-4.410528 0 -8.640413 -1.7520828 -11.759129 -4.870796c-3.1187153 -3.1187134 -4.8707914 -7.3486023 -4.8707914 -11.759125l0 -92.18898c0 -1.5306473E-4 1.2397766E-4 -2.771616E-4 2.7656555E-4 -2.771616E-4l33.259563 2.771616E-4l0 0c1.5258789E-4 0 2.784729E-4 1.2409687E-4 2.784729E-4 2.771616E-4l-2.784729E-4 92.188705l0 0c0 9.184448 -7.445469 16.629921 -16.629921 16.629921z" fill-rule="evenodd"/><path fill="#ffffff" fill-opacity="0.0902" d="m32.038692 36.105614l0 0l0 0c-4.410528 0 -8.640413 -1.7520752 -11.759129 -4.8707905c-3.1187153 -3.1187153 -4.8707914 -7.3486004 -4.8707914 -11.7591305l0 -19.118109c0 -1.5306473E-4 1.2397766E-4 -2.771616E-4 2.7656555E-4 -2.771616E-4l33.259563 2.771616E-4l0 0c1.5258789E-4 0 2.784729E-4 1.2409687E-4 2.784729E-4 2.771616E-4l-2.784729E-4 19.117832l0 0c0 9.184452 -7.445469 16.629921 -16.629921 16.629921z" fill-rule="evenodd"/><path fill="#ffffff" fill-opacity="0.0902" d="m732.79095 446.58353l0 0l0 0c5.701111 0 11.168701 2.2647705 15.200012 6.296051c4.03125 4.031311 6.2960205 9.498901 6.2960205 15.200012l0 71.921265c0 1.8310547E-4 -1.8310547E-4 3.6621094E-4 -3.6621094E-4 3.6621094E-4l-42.99176 -3.6621094E-4l0 0c-1.8310547E-4 0 -3.6621094E-4 -1.8310547E-4 -3.6621094E-4 -3.6621094E-4l3.6621094E-4 -71.9209l0 0c0 -11.871948 9.6241455 -21.496063 21.496094 -21.496063z" fill-rule="evenodd"/><path fill="#ffffff" fill-opacity="0.0902" d="m732.79095 493.79614l0 0l0 0c5.701111 0 11.168701 2.26474 15.200012 6.296051c4.03125 4.0312805 6.2960205 9.498901 6.2960205 15.199982l0 24.70868c0 1.8310547E-4 -1.8310547E-4 3.6621094E-4 -3.6621094E-4 3.6621094E-4l-42.99176 -3.6621094E-4l0 0c-1.8310547E-4 0 -3.6621094E-4 -1.8310547E-4 -3.6621094E-4 -3.6621094E-4l3.6621094E-4 -24.708313l0 0c0 -11.871918 9.6241455 -21.496033 21.496094 -21.496033z" fill-rule="evenodd"/><path fill="#ffffff" fill-opacity="0.0902" d="m794.9658 446.58353l0 0l0 0c5.701111 0 11.168701 2.2647705 15.200012 6.296051c4.03125 4.031311 6.2960205 9.498901 6.2960205 15.200012l0 71.921265c0 1.8310547E-4 -1.8310547E-4 3.6621094E-4 -3.6621094E-4 3.6621094E-4l-42.99176 -3.6621094E-4l0 0c-1.8310547E-4 0 -3.6621094E-4 -1.8310547E-4 -3.6621094E-4 -3.6621094E-4l3.6621094E-4 -71.9209l0 0c0 -11.871948 9.6241455 -21.496063 21.496094 -21.496063z" fill-rule="evenodd"/><path fill="#ffffff" fill-opacity="0.0902" d="m794.9658 399.37094l0 0l0 0c5.701111 0 11.168701 2.2647705 15.200012 6.296051c4.03125 4.0312805 6.2960205 9.498901 6.2960205 15.200012l0 119.13385c0 1.8310547E-4 -1.8310547E-4 3.6621094E-4 -3.6621094E-4 3.6621094E-4l-42.99176 -3.6621094E-4l0 0c-1.8310547E-4 0 -3.6621094E-4 -1.8310547E-4 -3.6621094E-4 -3.6621094E-4l3.6621094E-4 -119.133484l0 0c0 -11.871948 9.6241455 -21.496063 21.496094 -21.496063z" fill-rule="evenodd"/><path fill="#ffffff" fill-opacity="0.0902" d="m794.9658 493.79614l0 0l0 0c5.701111 0 11.168701 2.26474 15.200012 6.296051c4.03125 4.0312805 6.2960205 9.498901 6.2960205 15.199982l0 24.70868c0 1.8310547E-4 -1.8310547E-4 3.6621094E-4 -3.6621094E-4 3.6621094E-4l-42.99176 -3.6621094E-4l0 0c-1.8310547E-4 0 -3.6621094E-4 -1.8310547E-4 -3.6621094E-4 -3.6621094E-4l3.6621094E-4 -24.708313l0 0c0 -11.871918 9.6241455 -21.496033 21.496094 -21.496033z" fill-rule="evenodd"/><path fill="#ffffff" fill-opacity="0.0902" d="m857.14075 446.58353l0 0l0 0c5.701111 0 11.168701 2.2647705 15.200012 6.296051c4.031311 4.031311 6.2960815 9.498901 6.2960815 15.200012l0 71.921265c0 1.8310547E-4 -1.8310547E-4 3.6621094E-4 -3.6621094E-4 3.6621094E-4l-42.99176 -3.6621094E-4l0 0c-2.4414062E-4 0 -3.6621094E-4 -1.8310547E-4 -3.6621094E-4 -3.6621094E-4l3.6621094E-4 -71.9209l0 0c0 -11.871948 9.624084 -21.496063 21.496033 -21.496063z" fill-rule="evenodd"/><path fill="#ffffff" fill-opacity="0.0902" d="m857.14075 352.12683l0 0l0 0c5.701111 0 11.168701 2.2647705 15.200012 6.296051c4.031311 4.031311 6.2960815 9.498901 6.2960815 15.200012l0 166.37796c0 1.8310547E-4 -1.8310547E-4 3.6621094E-4 -3.6621094E-4 3.6621094E-4l-42.99176 -3.6621094E-4l0 0c-2.4414062E-4 0 -3.6621094E-4 -1.8310547E-4 -3.6621094E-4 -3.6621094E-4l3.6621094E-4 -166.3776l0 0c0 -11.871948 9.624084 -21.496063 21.496033 -21.496063z" fill-rule="evenodd"/><path fill="#ffffff" fill-opacity="0.0902" d="m857.14075 399.37094l0 0l0 0c5.701111 0 11.168701 2.2647705 15.200012 6.296051c4.031311 4.0312805 6.2960815 9.498901 6.2960815 15.200012l0 119.13385c0 1.8310547E-4 -1.8310547E-4 3.6621094E-4 -3.6621094E-4 3.6621094E-4l-42.99176 -3.6621094E-4l0 0c-2.4414062E-4 0 -3.6621094E-4 -1.8310547E-4 -3.6621094E-4 -3.6621094E-4l3.6621094E-4 -119.133484l0 0c0 -11.871948 9.624084 -21.496063 21.496033 -21.496063z" fill-rule="evenodd"/><path fill="#ffffff" fill-opacity="0.0902" d="m857.14075 493.79614l0 0l0 0c5.701111 0 11.168701 2.26474 15.200012 6.296051c4.031311 4.0312805 6.2960815 9.498901 6.2960815 15.199982l0 24.70868c0 1.8310547E-4 -1.8310547E-4 3.6621094E-4 -3.6621094E-4 3.6621094E-4l-42.99176 -3.6621094E-4l0 0c-2.4414062E-4 0 -3.6621094E-4 -1.8310547E-4 -3.6621094E-4 -3.6621094E-4l3.6621094E-4 -24.708313l0 0c0 -11.871918 9.624084 -21.496033 21.496033 -21.496033z" fill-rule="evenodd"/><path fill="#ffffff" fill-opacity="0.0902" d="m919.3156 446.58353l0 0l0 0c5.701111 0 11.168701 2.2647705 15.200012 6.296051c4.031311 4.031311 6.2960815 9.498901 6.2960815 15.200012l0 71.921265c0 1.8310547E-4 -1.8310547E-4 3.6621094E-4 -3.6621094E-4 3.6621094E-4l-42.99176 -3.6621094E-4l0 0c-2.4414062E-4 0 -3.6621094E-4 -1.8310547E-4 -3.6621094E-4 -3.6621094E-4l3.6621094E-4 -71.9209l0 0c0 -11.871948 9.624084 -21.496063 21.496033 -21.496063z" fill-rule="evenodd"/><path fill="#ffffff" fill-opacity="0.0902" d="m919.3156 352.12683l0 0l0 0c5.701111 0 11.168701 2.2647705 15.200012 6.296051c4.031311 4.031311 6.2960815 9.498901 6.2960815 15.200012l0 166.37796c0 1.8310547E-4 -1.8310547E-4 3.6621094E-4 -3.6621094E-4 3.6621094E-4l-42.99176 -3.6621094E-4l0 0c-2.4414062E-4 0 -3.6621094E-4 -1.8310547E-4 -3.6621094E-4 -3.6621094E-4l3.6621094E-4 -166.3776l0 0c0 -11.871948 9.624084 -21.496063 21.496033 -21.496063z" fill-rule="evenodd"/><path fill="#ffffff" fill-opacity="0.0902" d="m919.3156 399.37094l0 0l0 0c5.701111 0 11.168701 2.2647705 15.200012 6.296051c4.031311 4.0312805 6.2960815 9.498901 6.2960815 15.200012l0 119.13385c0 1.8310547E-4 -1.8310547E-4 3.6621094E-4 -3.6621094E-4 3.6621094E-4l-42.99176 -3.6621094E-4l0 0c-2.4414062E-4 0 -3.6621094E-4 -1.8310547E-4 -3.6621094E-4 -3.6621094E-4l3.6621094E-4 -119.133484l0 0c0 -11.871948 9.624084 -21.496063 21.496033 -21.496063z" fill-rule="evenodd"/><path fill="#ffffff" fill-opacity="0.0902" d="m919.3156 304.88278l0 0l0 0c5.701111 0 11.168701 2.26474 15.200012 6.296051c4.031311 4.0312805 6.2960815 9.498901 6.2960815 15.200012l0 213.62201c0 2.4414062E-4 -1.8310547E-4 3.6621094E-4 -3.6621094E-4 3.6621094E-4l-42.99176 -3.6621094E-4l0 0c-2.4414062E-4 0 -3.6621094E-4 -1.2207031E-4 -3.6621094E-4 -3.0517578E-4l3.6621094E-4 -213.6217l0 0c0 -11.871948 9.624084 -21.496063 21.496033 -21.496063z" fill-rule="evenodd"/><path fill="#ffffff" fill-opacity="0.0902" d="m919.3156 493.79614l0 0l0 0c5.701111 0 11.168701 2.26474 15.200012 6.296051c4.031311 4.0312805 6.2960815 9.498901 6.2960815 15.199982l0 24.70868c0 1.8310547E-4 -1.8310547E-4 3.6621094E-4 -3.6621094E-4 3.6621094E-4l-42.99176 -3.6621094E-4l0 0c-2.4414062E-4 0 -3.6621094E-4 -1.8310547E-4 -3.6621094E-4 -3.6621094E-4l3.6621094E-4 -24.708313l0 0c0 -11.871918 9.624084 -21.496033 21.496033 -21.496033z" fill-rule="evenodd"/><path fill="#000000" fill-opacity="0.0" d="m86.509186 169.43045l614.9922 0l0 196.62991l-614.9922 0z" fill-rule="evenodd"/><path fill="#ffffff" d="m108.321686 285.21603q-4.5625 0 -9.359375 -2.5l0 -6.625q2.6875 1.578125 4.71875 2.421875q2.046875 0.84375 4.3125 0.84375q2.78125 0 4.34375 -1.03125q1.5625 -1.03125 1.5625 -2.90625q0 -4.21875 -6.046875 -4.21875l-4.765625 0l0 -5.859375l4.859375 0q2.25 0 3.375 -0.9375q1.125 -0.9375 1.125 -2.421875q0 -1.875 -1.46875 -2.734375q-1.453125 -0.875 -3.8125 -0.875q-1.71875 0 -3.46875 0.4375q-1.75 0.4375 -4.109375 1.53125l0 -5.90625q1.875 -0.953125 4.03125 -1.5q2.15625 -0.5625 4.328125 -0.5625q4.796875 0 8.078125 2.21875q3.296875 2.203125 3.296875 6.515625q0 1.6875 -0.796875 3.078125q-0.796875 1.390625 -1.921875 2.234375q-1.125 0.84375 -2.03125 1.03125q1.4375 0.4375 2.84375 1.546875q1.421875 1.09375 2.359375 2.84375q0.9375 1.75 0.9375 3.953125q0 4.765625 -3.53125 7.09375q-3.53125 2.328125 -8.859375 2.328125zm18.575684 -7.15625l6.96875 0l0 6.765625l-6.96875 0l0 -6.765625zm26.45018 -25.25l12.859375 0q8.078125 0 11.953125 4.015625q3.890625 4.0 3.890625 12.015625q0 7.96875 -3.890625 11.984375q-3.875 4.0 -11.953125 4.0l-12.859375 0l0 -32.015625zm11.953125 26.015625q4.375 0 6.578125 -2.4375q2.203125 -2.453125 2.203125 -7.546875q0 -5.1875 -2.203125 -7.609375q-2.203125 -2.421875 -6.578125 -2.421875l-4.171875 0l0 20.015625l4.171875 0zm33.362442 6.71875q-5.328125 0 -8.375 -2.484375q-3.046875 -2.5 -3.046875 -7.5l0 -15.015625l7.140625 0l0 14.4375q0 2.3125 1.03125 3.4375q1.046875 1.125 3.296875 1.125q2.25 0 3.28125 -1.125q1.03125 -1.125 1.03125 -3.4375l0 -14.4375l6.734375 0l0 15.015625q0 5.046875 -2.90625 7.515625q-2.90625 2.46875 -8.1875 2.46875zm17.426178 -22.46875q0.71875 -0.625 2.515625 -1.390625q1.796875 -0.765625 4.03125 -1.3125q2.234375 -0.5625 4.296875 -0.5625q3.984375 0 5.515625 1.203125l0 5.234375q-1.921875 -0.4375 -5.515625 -0.4375q-2.25 0 -3.703125 0.25l0 18.765625l-7.140625 0l0 -21.75zm31.153412 -3.265625q3.984375 0 7.234375 1.859375q3.265625 1.84375 3.265625 6.640625l-0.046875 11.46875q-0.046875 3.03125 -3.03125 4.40625q-2.96875 1.359375 -8.671875 1.359375q-10.65625 0 -10.65625 -8.296875q0 -3.515625 2.171875 -5.484375q2.1875 -1.96875 6.515625 -1.96875q1.78125 0 3.546875 0.46875q1.78125 0.453125 3.078125 1.171875l0 -1.53125q0 -4.1875 -5.375 -4.1875q-2.0625 0 -4.25 0.75q-2.1875 0.75 -3.484375 1.796875l0 -6.328125q1.296875 -0.875 3.953125 -1.5q2.671875 -0.625 5.75 -0.625zm-1.015625 20.703125q2.5 0 3.453125 -0.328125q0.96875 -0.34375 0.96875 -1.359375l0 -3.75q-1.6875 -0.5625 -3.703125 -0.5625q-2.34375 0 -3.4375 0.703125q-1.078125 0.6875 -1.078125 2.171875q0 1.390625 1.125 2.265625q1.140625 0.859375 2.671875 0.859375zm27.799805 5.265625q-4.1875 0 -6.28125 -1.953125q-2.078125 -1.96875 -2.078125 -5.671875l0 -12.140625l-3.546875 0l0 -5.46875l3.546875 0l0 -6.671875l7.484375 0l0 6.671875l5.328125 0l0 5.46875l-5.328125 0l0 11.234375q0 1.234375 0.53125 1.84375q0.53125 0.59375 1.78125 0.59375q0.765625 0 1.578125 -0.25q0.8125 -0.265625 1.4375 -0.75l0 6.09375q-1.8125 1.0 -4.453125 1.0zm9.886536 -34.078125l7.390625 0l0 5.53125l-7.390625 0l0 -5.53125zm0.140625 9.171875l7.15625 0l0.046875 23.953125l-7.203125 0l0 -23.953125zm24.524902 24.671875q-6.140625 0 -9.21875 -3.265625q-3.0625 -3.265625 -3.0625 -9.6875q0 -6.71875 3.046875 -9.796875q3.046875 -3.078125 9.234375 -3.078125q6.1875 0 9.3125 3.15625q3.125 3.140625 3.125 9.71875q0 6.328125 -3.21875 9.640625q-3.21875 3.3125 -9.21875 3.3125zm0 -5.703125q2.640625 0 3.984375 -1.84375q1.34375 -1.859375 1.34375 -5.40625q0 -3.890625 -1.328125 -5.546875q-1.3125 -1.65625 -4.0 -1.65625q-2.78125 0 -4.015625 1.65625q-1.21875 1.65625 -1.21875 5.546875q0 3.6875 1.265625 5.46875q1.28125 1.78125 3.96875 1.78125zm17.382568 -17.234375q1.875 -1.015625 5.703125 -1.875q3.84375 -0.859375 6.875 -0.859375q5.125 0 7.71875 2.015625q2.59375 2.015625 2.59375 6.625l0 16.3125l-7.15625 0l0 -14.875q0 -4.1875 -4.703125 -4.1875q-1.046875 0 -2.15625 0.25q-1.109375 0.234375 -1.734375 0.578125l0 18.234375l-7.140625 0l0 -22.21875zm53.417603 22.9375q-6.140625 0 -9.21875 -3.265625q-3.0625 -3.265625 -3.0625 -9.6875q0 -6.71875 3.046875 -9.796875q3.046875 -3.078125 9.234375 -3.078125q6.1875 0 9.3125 3.15625q3.125 3.140625 3.125 9.71875q0 6.328125 -3.21875 9.640625q-3.21875 3.3125 -9.21875 3.3125zm0 -5.703125q2.640625 0 3.984375 -1.84375q1.34375 -1.859375 1.34375 -5.40625q0 -3.890625 -1.328125 -5.546875q-1.3125 -1.65625 -4.0 -1.65625q-2.78125 0 -4.015625 1.65625q-1.21875 1.65625 -1.21875 5.546875q0 3.6875 1.265625 5.46875q1.28125 1.78125 3.96875 1.78125zm19.195068 -13.828125l-3.546875 0l0 -5.46875l3.609375 0l0 -0.578125q0.046875 -5.484375 2.515625 -7.609375q2.46875 -2.140625 6.734375 -2.140625q0.78125 0 1.6875 0.15625q0.90625 0.140625 1.484375 0.328125l0 6.28125q-0.53125 -0.53125 -1.0625 -0.78125q-0.515625 -0.265625 -1.328125 -0.265625q-1.34375 0 -2.125 0.71875q-0.765625 0.71875 -0.765625 2.4375l0 1.453125l5.28125 0l0 5.46875l-5.328125 0l0 18.8125l-7.15625 0l0 -18.8125zm30.58197 -13.203125l21.9375 0l0 6.0l-14.15625 0l0 6.953125l12.28125 0l0 6.046875l-12.28125 0l0 7.015625l14.15625 0l0 6.0l-21.9375 0l0 -32.015625zm28.229675 9.796875q1.875 -1.015625 5.703125 -1.875q3.84375 -0.859375 6.875 -0.859375q5.125 0 7.71875 2.015625q2.59375 2.015625 2.59375 6.625l0 16.3125l-7.15625 0l0 -14.875q0 -4.1875 -4.703125 -4.1875q-1.046875 0 -2.15625 0.25q-1.109375 0.234375 -1.734375 0.578125l0 18.234375l-7.140625 0l0 -22.21875zm40.607056 22.84375q-3.5625 0 -6.4375 -1.390625q-2.875 -1.390625 -4.578125 -4.203125q-1.703125 -2.8125 -1.703125 -6.84375q0 -6.46875 3.453125 -9.796875q3.453125 -3.34375 9.21875 -3.34375q2.015625 0 4.078125 0.40625q2.0625 0.40625 3.640625 1.125l0 6.140625q-1.96875 -0.859375 -3.5 -1.3125q-1.53125 -0.46875 -3.078125 -0.46875q-3.15625 0 -4.9375 1.5625q-1.78125 1.5625 -1.78125 4.875q0 3.703125 1.65625 5.484375q1.65625 1.765625 5.40625 1.765625q2.828125 0 6.28125 -1.921875l0 6.09375q-1.71875 0.921875 -3.578125 1.375q-1.84375 0.453125 -4.140625 0.453125zm23.6586 0.09375q-6.140625 0 -9.21875 -3.265625q-3.0625305 -3.265625 -3.0625305 -9.6875q0 -6.71875 3.0469055 -9.796875q3.046875 -3.078125 9.234375 -3.078125q6.1875 0 9.3125 3.15625q3.125 3.140625 3.125 9.71875q0 6.328125 -3.21875 9.640625q-3.21875 3.3125 -9.21875 3.3125zm0 -5.703125q2.640625 0 3.984375 -1.84375q1.34375 -1.859375 1.34375 -5.40625q0 -3.890625 -1.328125 -5.546875q-1.3125 -1.65625 -4.0 -1.65625q-2.78125 0 -4.015625 1.65625q-1.21875 1.65625 -1.21875 5.546875q0 3.6875 1.265625 5.46875q1.28125 1.78125 3.96875 1.78125zm28.804443 5.703125q-5.328125 0 -8.375 -2.484375q-3.046875 -2.5 -3.046875 -7.5l0 -15.015625l7.140625 0l0 14.4375q0 2.3125 1.03125 3.4375q1.046875 1.125 3.296875 1.125q2.25 0 3.28125 -1.125q1.03125 -1.125 1.03125 -3.4375l0 -14.4375l6.734375 0l0 15.015625q0 5.046875 -2.90625 7.515625q-2.90625 2.46875 -8.1875 2.46875zm17.426147 -22.9375q1.875 -1.015625 5.703125 -1.875q3.84375 -0.859375 6.875 -0.859375q5.125 0 7.71875 2.015625q2.59375 2.015625 2.59375 6.625l0 16.3125l-7.15625 0l0 -14.875q0 -4.1875 -4.703125 -4.1875q-1.046875 0 -2.15625 0.25q-1.109375 0.234375 -1.734375 0.578125l0 18.234375l-7.140625 0l0 -22.21875zm39.169617 23.171875q-4.1875 0 -6.28125 -1.953125q-2.078125 -1.96875 -2.078125 -5.671875l0 -12.140625l-3.546936 0l0 -5.46875l3.546936 0l0 -6.671875l7.484375 0l0 6.671875l5.328125 0l0 5.46875l-5.328125 0l0 11.234375q0 1.234375 0.53125 1.84375q0.53125 0.59375 1.78125 0.59375q0.765625 0 1.578125 -0.25q0.8125 -0.265625 1.4375 -0.75l0 6.09375q-1.8125 1.0 -4.453125 1.0zm20.636475 -26.0625q11.375 0 11.234375 14.84375l-16.03125 0q0.90625 5.03125 6.765625 5.03125q1.765625 0 3.46875 -0.5q1.71875 -0.5 3.625 -1.328125l0 6.15625q-3.921875 1.625 -8.828125 1.625q-3.6875 0 -6.484375 -1.5q-2.78125 -1.515625 -4.3125 -4.34375q-1.53125 -2.84375 -1.53125 -6.6875q0 -6.328125 3.140625 -9.8125q3.140625 -3.484375 8.953125 -3.484375zm-0.296875 5.484375q-3.828125 0 -4.546875 4.796875l8.96875 0q-0.328125 -2.59375 -1.375 -3.6875q-1.03125 -1.109375 -3.046875 -1.109375zm16.52295 -2.125q0.71875 -0.625 2.515625 -1.390625q1.796875 -0.765625 4.03125 -1.3125q2.234375 -0.5625 4.296875 -0.5625q3.984375 0 5.515625 1.203125l0 5.234375q-1.921875 -0.4375 -5.515625 -0.4375q-2.25 0 -3.703125 0.25l0 18.765625l-7.140625 0l0 -21.75z" fill-rule="nonzero"/></g></svg>