<svg version="1.1" viewBox="0.0 0.0 960.0 540.0" fill="none" stroke="none" stroke-linecap="square" stroke-miterlimit="10" xmlns:xlink="http://www.w3.org/1999/xlink" xmlns="http://www.w3.org/2000/svg"><clipPath id="g3d12587afc_2_7.0"><path d="m0 0l960.0 0l0 540.0l-960.0 0l0 -540.0z" clip-rule="nonzero"/></clipPath><g clip-path="url(#g3d12587afc_2_7.0)"><path fill="#c0791b" d="m0 0l960.0 0l0 540.0l-960.0 0z" fill-rule="evenodd"/><path fill="#ffffff" fill-opacity="0.0902" d="m894.3754 133.42087l0 0c-15.91626 22.02182 -46.671143 26.97136 -68.69293 11.055115l0 0c-10.575256 -7.6432343 -17.681091 -19.174438 -19.754333 -32.05686c-2.0732422 -12.882416 1.0559692 -26.060799 8.699219 -36.636047l0 0c15.91626 -22.021809 46.67108 -26.971355 68.69293 -11.055115l0 0c22.02179 15.916237 26.971313 46.671104 11.055115 68.69291z" fill-rule="evenodd"/><path fill="#ffffff" fill-opacity="0.0902" d="m805.31384 105.62816l0 0c-0.5031128 -24.116867 16.553223 -45.041424 40.276306 -49.410645c23.723145 -4.3692207 47.11499 9.105759 55.236877 31.819435c8.121948 22.713676 -1.4219971 47.965767 -22.536743 59.62957l-23.78888 -43.064545z" fill-rule="evenodd"/><path fill="#ffffff" fill-opacity="0.0902" d="m915.1407 148.43637l0 0c-24.204895 33.493683 -70.98584 41.023758 -104.48822 16.818893l0 0c-16.088379 -11.623581 -26.90039 -29.160522 -30.057495 -48.752907c-3.1571655 -19.592384 1.5993042 -39.6353 13.222839 -55.71953l0 0c24.204895 -33.49368 70.98584 -41.023758 104.48822 -16.818897l0 0c33.50238 24.204853 41.03949 70.97876 16.834656 104.47244z" fill-rule="evenodd"/><path fill="#ffffff" fill-opacity="0.0902" d="m887.1523 214.03633l0 0c9.671509 -13.376587 28.355713 -16.380157 41.7323 -6.708664l0 0c6.423706 4.6444244 10.739258 11.650421 11.9973755 19.476746c1.2581177 7.826309 -0.6442871 15.831879 -5.2886963 22.255539l0 0c-9.671509 13.376602 -28.355713 16.380173 -41.7323 6.708664l0 0c-13.376587 -9.671509 -16.380127 -28.355682 -6.708679 -41.732285z" fill-rule="evenodd"/><path fill="#ffffff" fill-opacity="0.0902" d="m894.6582 219.42905l0 0c6.6708984 -9.236633 19.566528 -11.316574 28.803162 -4.6456604l0 0c4.435608 3.203476 7.416931 8.037781 8.288147 13.439423c0.87127686 5.401642 -0.43896484 10.928131 -3.642456 15.363724l0 0c-6.6708984 9.236633 -19.566528 11.316574 -28.803162 4.6456757l0 0c-9.236633 -6.6709137 -11.316589 -19.566513 -4.645691 -28.803162z" fill-rule="evenodd"/><path fill="#ffffff" fill-opacity="0.0902" d="m897.8927 247.11624l0 0c-5.1034546 -4.4107666 -7.7282715 -11.037888 -7.0290527 -17.746933c0.69921875 -6.7090454 4.6341553 -12.652527 10.537415 -15.916168l9.981567 18.054657z" fill-rule="evenodd"/><path fill="#ffffff" fill-opacity="0.0902" d="m732.9936 29.2028l0 0c6.6708984 -9.236637 19.566528 -11.316574 28.803162 -4.64567l0 0c4.435608 3.2034817 7.416931 8.0377865 8.288147 13.4394245c0.8712158 5.401638 -0.43902588 10.928135 -3.642456 15.363728l0 0c-6.6708984 9.236633 -19.566528 11.316574 -28.803162 4.645668l0 0c-9.236633 -6.670906 -11.316589 -19.566513 -4.645691 -28.80315z" fill-rule="evenodd"/><path fill="#ffffff" fill-opacity="0.0902" d="m736.2281 56.889996l0 0c-5.1034546 -4.4107666 -7.7282715 -11.037895 -7.0290527 -17.74694c0.69921875 -6.7090454 4.6341553 -12.652519 10.537415 -15.916164l9.981567 18.05465z" fill-rule="evenodd"/><path fill="#000000" fill-opacity="0.0" d="m86.509186 80.16798l614.9922 0l0 375.14963l-614.9922 0z" fill-rule="evenodd"/><path fill="#ffffff" d="m98.915436 165.80716l7.78125 0l0 32.015625l-7.78125 0l0 -32.015625zm62.933807 7.734375l-8.0625 24.28125l-6.484375 0l-4.171875 -13.625l-3.984375 13.625l-6.484375 0l-8.109375 -24.28125l7.671875 0l4.28125 15.453125l4.03125 -15.453125l5.28125 0l4.171875 15.828125l4.3125 -15.828125l7.546875 0zm4.3679504 -8.84375l7.390625 0l0 5.53125l-7.390625 0l0 -5.53125zm0.140625 9.171875l7.15625 0l0.046875 23.953125l-7.203125 0l0 -23.953125zm13.587402 23.953125l0 -33.453125l7.09375 0l0 33.453125l-7.09375 0zm13.440033 0l0 -33.453125l7.09375 0l0 33.453125l-7.09375 0zm52.125565 -24.28125l-10.125 24.28125l-7.15625 0l-10.125 -24.28125l7.71875 0l6.4375 16.40625l5.71875 -16.40625l7.53125 0zm4.3705597 -8.84375l7.390625 0l0 5.53125l-7.390625 0l0 -5.53125zm0.140625 9.171875l7.15625 0l0.046875 23.953125l-7.203125 0l0 -23.953125zm20.790527 24.671875q-2.3125 0 -4.046875 -0.453125q-1.71875 -0.453125 -3.828125 -1.328125l0 -6.28125q3.890625 2.921875 8.15625 2.921875q1.625 0 2.375 -0.546875q0.75 -0.546875 0.75 -1.515625q0 -1.09375 -1.203125 -1.625q-1.203125 -0.53125 -3.84375 -1.15625q-2.78125 -0.578125 -4.578125 -2.296875q-1.796875 -1.734375 -1.796875 -5.046875q0 -2.828125 1.4375 -4.65625q1.4375 -1.828125 3.609375 -2.65625q2.1875 -0.84375 4.546875 -0.84375q2.875 0 4.671875 0.5q1.8125 0.5 3.53125 1.5625l0 5.609375q-2.4375 -1.34375 -3.78125 -1.90625q-1.34375 -0.578125 -3.125 -0.578125q-1.78125 0 -2.640625 0.546875q-0.859375 0.546875 -0.859375 1.5625q0 1.203125 0.953125 1.75q0.953125 0.546875 3.078125 1.125q2.390625 0.625 3.78125 1.234375q1.390625 0.59375 2.5 2.0625q1.109375 1.453125 1.109375 4.09375q-0.09375 4.125 -3.125 6.03125q-3.015625 1.890625 -7.671875 1.890625zm27.354797 0q-5.328125 0 -8.375 -2.484375q-3.046875 -2.5 -3.046875 -7.5l0 -15.015625l7.140625 0l0 14.4375q0 2.3125 1.03125 3.4375q1.046875 1.125 3.296875 1.125q2.25 0 3.28125 -1.125q1.03125 -1.125 1.03125 -3.4375l0 -14.4375l6.734375 0l0 15.015625q0 5.046875 -2.90625 7.515625q-2.90625 2.46875 -8.1875 2.46875zm28.035553 -25.734375q3.984375 0 7.234375 1.859375q3.265625 1.84375 3.265625 6.640625l-0.046875 11.46875q-0.046875 3.03125 -3.03125 4.40625q-2.96875 1.359375 -8.671875 1.359375q-10.65625 0 -10.65625 -8.296875q0 -3.515625 2.171875 -5.484375q2.1875 -1.96875 6.515625 -1.96875q1.78125 0 3.546875 0.46875q1.78125 0.453125 3.078125 1.171875l0 -1.53125q0 -4.1875 -5.375 -4.1875q-2.0625 0 -4.25 0.75q-2.1875 0.75 -3.484375 1.796875l0 -6.328125q1.296875 -0.875 3.953125 -1.5q2.671875 -0.625 5.75 -0.625zm-1.015625 20.703125q2.5 0 3.453125 -0.328125q0.96875 -0.34375 0.96875 -1.359375l0 -3.75q-1.6875 -0.5625 -3.703125 -0.5625q-2.34375 0 -3.4375 0.703125q-1.078125 0.6875 -1.078125 2.171875q0 1.390625 1.125 2.265625q1.140625 0.859375 2.671875 0.859375zm17.862305 4.3125l0 -33.453125l7.09375 0l0 33.453125l-7.09375 0zm13.440033 -33.125l7.390625 0l0 5.53125l-7.390625 0l0 -5.53125zm0.140625 9.171875l7.15625 0l0.046875 23.953125l-7.203125 0l0 -23.953125zm31.868652 5.234375l-10.609375 13.0l10.609375 0l0 5.71875l-19.296875 0l0 -5.65625l11.765625 -13.25l-11.46875 0l0 -5.375l19.0 0l0 5.5625zm16.084778 -6.390625q11.375 0 11.234375 14.84375l-16.03125 0q0.90625 5.03125 6.765625 5.03125q1.765625 0 3.46875 -0.5q1.71875 -0.5 3.625 -1.328125l0 6.15625q-3.921875 1.625 -8.828125 1.625q-3.6875 0 -6.484375 -1.5q-2.78125 -1.515625 -4.3125 -4.34375q-1.53125 -2.84375 -1.53125 -6.6875q0 -6.328125 3.140625 -9.8125q3.140625 -3.484375 8.953125 -3.484375zm-0.296875 5.484375q-3.828125 0 -4.546875 4.796875l8.96875 0q-0.328125 -2.59375 -1.375 -3.6875q-1.03125 -1.109375 -3.046875 -1.109375zm57.41162 -5.328125q5.09375 0 7.53125 2.0q2.453125 1.984375 2.453125 6.640625l0 16.3125l-7.15625 0l0 -14.875q0 -4.1875 -4.703125 -4.1875q-1.96875 0 -3.3125 0.921875q0.109375 1.15625 0.109375 1.828125l0 16.3125l-7.15625 0l0 -14.875q0 -4.1875 -4.703125 -4.1875q-1.921875 0 -3.5625 0.828125l0 18.234375l-7.140625 0l0 -22.21875q1.875 -1.015625 5.703125 -1.875q3.84375 -0.859375 6.875 -0.859375q4.84375 0 7.140625 1.71875q1.875 -0.8125 3.953125 -1.265625q2.09375 -0.453125 3.96875 -0.453125zm40.46808 0.671875l-9.546875 24.671875q-3.515625 9.015625 -9.3125 9.015625q-2.5 0 -4.328125 -0.859375l0 -5.8125q1.4375 0.53125 2.828125 0.53125q1.453125 0 2.4375 -0.828125q0.984375 -0.8125 1.546875 -2.671875l-9.734375 -24.046875l8.15625 0l5.140625 15.921875l5.125 -15.921875l7.6875 0z" fill-rule="nonzero"/><path fill="#ffffff" d="m98.68106 222.69778l7.390625 0l0 5.53125l-7.390625 0l0 -5.53125zm0.140625 9.171875l7.15625 0l0.046875 23.953125l-7.203125 0l0 -23.953125zm13.587402 1.734375q1.875 -1.015625 5.703125 -1.875q3.84375 -0.859375 6.875 -0.859375q5.125 0 7.71875 2.015625q2.59375 2.015625 2.59375 6.625l0 16.3125l-7.15625 0l0 -14.875q0 -4.1875 -4.703125 -4.1875q-1.046875 0 -2.15625 0.25q-1.109375 0.234375 -1.734375 0.578125l0 18.234375l-7.140625 0l0 -22.21875zm40.84143 -2.734375q10.90625 0 10.90625 6.765625l0 27.546875l-7.015625 0l0 -10.078125q-2.203125 1.4375 -5.765625 1.4375q-5.328125 0 -8.203125 -3.21875q-2.875 -3.21875 -2.875 -9.15625q0 -7.15625 3.40625 -10.21875q3.40625 -3.078125 9.546875 -3.078125zm-5.859375 12.859375q0 3.640625 1.5625 5.34375q1.5625 1.703125 4.203125 1.703125q2.296875 0 3.984375 -1.0l0 -10.75q0 -1.0625 -1.15625 -1.640625q-1.140625 -0.578125 -2.828125 -0.578125q-3.03125 0 -4.40625 1.8125q-1.359375 1.796875 -1.359375 5.109375zm34.519928 12.8125q-5.328125 0 -8.375 -2.484375q-3.046875 -2.5 -3.046875 -7.5l0 -15.015625l7.140625 0l0 14.4375q0 2.3125 1.03125 3.4375q1.046875 1.125 3.296875 1.125q2.25 0 3.28125 -1.125q1.03125 -1.125 1.03125 -3.4375l0 -14.4375l6.734375 0l0 15.015625q0 5.046875 -2.90625 7.515625q-2.90625 2.46875 -8.1875 2.46875zm17.426178 -33.84375l7.390625 0l0 5.53125l-7.390625 0l0 -5.53125zm0.140625 9.171875l7.15625 0l0.046875 23.953125l-7.203125 0l0 -23.953125zm13.587402 2.203125q0.71875 -0.625 2.515625 -1.390625q1.796875 -0.765625 4.03125 -1.3125q2.234375 -0.5625 4.296875 -0.5625q3.984375 0 5.515625 1.203125l0 5.234375q-1.921875 -0.4375 -5.515625 -0.4375q-2.25 0 -3.703125 0.25l0 18.765625l-7.140625 0l0 -21.75zm20.544037 -11.375l7.390625 0l0 5.53125l-7.390625 0l0 -5.53125zm0.140625 9.171875l7.15625 0l0.046875 23.953125l-7.203125 0l0 -23.953125zm24.337402 -1.15625q11.375 0 11.234375 14.84375l-16.03125 0q0.90625 5.03125 6.765625 5.03125q1.765625 0 3.46875 -0.5q1.71875 -0.5 3.625 -1.328125l0 6.15625q-3.921875 1.625 -8.828125 1.625q-3.6875 0 -6.484375 -1.5q-2.78125 -1.515625 -4.3125 -4.34375q-1.53125 -2.84375 -1.53125 -6.6875q0 -6.328125 3.140625 -9.8125q3.140625 -3.484375 8.953125 -3.484375zm-0.296875 5.484375q-3.828125 0 -4.546875 4.796875l8.96875 0q-0.328125 -2.59375 -1.375 -3.6875q-1.03125 -1.109375 -3.046875 -1.109375zm23.726074 20.34375q-2.3125 0 -4.046875 -0.453125q-1.71875 -0.453125 -3.828125 -1.328125l0 -6.28125q3.890625 2.921875 8.15625 2.921875q1.625 0 2.375 -0.546875q0.75 -0.546875 0.75 -1.515625q0 -1.09375 -1.203125 -1.625q-1.203125 -0.53125 -3.84375 -1.15625q-2.78125 -0.578125 -4.578125 -2.296875q-1.796875 -1.734375 -1.796875 -5.046875q0 -2.828125 1.4375 -4.65625q1.4375 -1.828125 3.609375 -2.65625q2.1875 -0.84375 4.546875 -0.84375q2.875 0 4.671875 0.5q1.8125 0.5 3.53125 1.5625l0 5.609375q-2.4375 -1.34375 -3.78125 -1.90625q-1.34375 -0.578125 -3.125 -0.578125q-1.78125 0 -2.640625 0.546875q-0.859375 0.546875 -0.859375 1.5625q0 1.203125 0.953125 1.75q0.953125 0.546875 3.078125 1.125q2.390625 0.625 3.78125 1.234375q1.390625 0.59375 2.5 2.0625q1.109375 1.453125 1.109375 4.09375q-0.09375 4.125 -3.125 6.03125q-3.015625 1.890625 -7.671875 1.890625zm64.50906 -25.0l-8.0625 24.28125l-6.484375 0l-4.171875 -13.625l-3.984375 13.625l-6.484375 0l-8.109375 -24.28125l7.671875 0l4.28125 15.453125l4.03125 -15.453125l5.28125 0l4.171875 15.828125l4.3125 -15.828125l7.546875 0zm4.3679504 -8.84375l7.390625 0l0 5.53125l-7.390625 0l0 -5.53125zm0.140625 9.171875l7.15625 0l0.046875 23.953125l-7.203125 0l0 -23.953125zm23.524902 24.90625q-4.1875 0 -6.28125 -1.953125q-2.078125 -1.96875 -2.078125 -5.671875l0 -12.140625l-3.546875 0l0 -5.46875l3.546875 0l0 -6.671875l7.484375 0l0 6.671875l5.328125 0l0 5.46875l-5.328125 0l0 11.234375q0 1.234375 0.53125 1.84375q0.53125 0.59375 1.78125 0.59375q0.765625 0 1.578125 -0.25q0.8125 -0.265625 1.4375 -0.75l0 6.09375q-1.8125 1.0 -4.453125 1.0zm23.949036 -25.90625q4.21875 0 6.5625 2.109375q2.359375 2.109375 2.359375 6.90625l0 15.9375l-7.140625 0l0 -14.453125q0 -4.609375 -4.609375 -4.609375q-1.109375 0 -2.265625 0.34375q-1.15625 0.328125 -1.765625 0.8125l-0.109375 17.90625l-7.09375 0l0 -33.890625l7.203125 0l0 10.703125q3.3125 -1.765625 6.859375 -1.765625zm56.154205 0q5.09375 0 7.53125 2.0q2.453125 1.984375 2.453125 6.640625l0 16.3125l-7.15625 0l0 -14.875q0 -4.1875 -4.703125 -4.1875q-1.96875 0 -3.3125 0.921875q0.109375 1.15625 0.109375 1.828125l0 16.3125l-7.15625 0l0 -14.875q0 -4.1875 -4.703125 -4.1875q-1.921875 0 -3.5625 0.828125l0 18.234375l-7.140625 0l0 -22.21875q1.875 -1.015625 5.703125 -1.875q3.84375 -0.859375 6.875 -0.859375q4.84375 0 7.140625 1.71875q1.875 -0.8125 3.953125 -1.265625q2.09375 -0.453125 3.96875 -0.453125zm26.936829 -0.0625q3.984375 0 7.234375 1.859375q3.265625 1.84375 3.265625 6.640625l-0.046875 11.46875q-0.046875 3.03125 -3.03125 4.40625q-2.96875 1.359375 -8.671875 1.359375q-10.65625 0 -10.65625 -8.296875q0 -3.515625 2.171875 -5.484375q2.1875 -1.96875 6.515625 -1.96875q1.78125 0 3.546875 0.46875q1.78125 0.453125 3.078125 1.171875l0 -1.53125q0 -4.1875 -5.375 -4.1875q-2.0625 0 -4.25 0.75q-2.1875 0.75 -3.484375 1.796875l0 -6.328125q1.296875 -0.875 3.953125 -1.5q2.671875 -0.625 5.75 -0.625zm-1.015625 20.703125q2.5 0 3.453125 -0.328125q0.96875 -0.34375 0.96875 -1.359375l0 -3.75q-1.6875 -0.5625 -3.703125 -0.5625q-2.34375 0 -3.4375 0.703125q-1.078125 0.6875 -1.078125 2.171875q0 1.390625 1.125 2.265625q1.140625 0.859375 2.671875 0.859375zm29.424805 -20.796875q5.8594055 0 9.0781555 3.046875q3.21875 3.046875 3.21875 10.15625q0 5.71875 -2.890625 9.171875q-2.875 3.453125 -7.8750305 3.453125q-3.640625 0 -6.09375 -1.296875l0 9.265625l-7.0 0l0 -27.84375q0 -2.921875 3.234375 -4.40625q3.234375 -1.5 8.328125 -1.546875zm-0.578125 20.0625q2.9375 0 4.3281555 -1.625q1.390625 -1.625 1.390625 -5.46875q0 -3.453125 -1.234375 -5.203125q-1.21875 -1.765625 -4.1875305 -1.765625q-4.28125 0 -4.28125 1.640625l0 11.421875q0.875 0.53125 1.921875 0.765625q1.0625 0.234375 2.0625 0.234375zm25.066803 5.765625q-2.3125 0 -4.046875 -0.453125q-1.71875 -0.453125 -3.828125 -1.328125l0 -6.28125q3.890625 2.921875 8.15625 2.921875q1.625 0 2.375 -0.546875q0.75 -0.546875 0.75 -1.515625q0 -1.09375 -1.203125 -1.625q-1.203125 -0.53125 -3.84375 -1.15625q-2.78125 -0.578125 -4.578125 -2.296875q-1.796875 -1.734375 -1.796875 -5.046875q0 -2.828125 1.4375 -4.65625q1.4375 -1.828125 3.609375 -2.65625q2.1875 -0.84375 4.546875 -0.84375q2.875 0 4.671875 0.5q1.8125 0.5 3.53125 1.5625l0 5.609375q-2.4375 -1.34375 -3.78125 -1.90625q-1.34375 -0.578125 -3.125 -0.578125q-1.78125 0 -2.640625 0.546875q-0.859375 0.546875 -0.859375 1.5625q0 1.203125 0.953125 1.75q0.953125 0.546875 3.078125 1.125q2.390625 0.625 3.78125 1.234375q1.390625 0.59375 2.5 2.0625q1.109375 1.453125 1.109375 4.09375q-0.09375 4.125 -3.125 6.03125q-3.015625 1.890625 -7.671875 1.890625zm40.11847 0q-6.140625 0 -9.21875 -3.265625q-3.0625 -3.265625 -3.0625 -9.6875q0 -6.71875 3.046875 -9.796875q3.046875 -3.078125 9.234375 -3.078125q6.1875 0 9.3125 3.15625q3.125 3.140625 3.125 9.71875q0 6.328125 -3.21875 9.640625q-3.21875 3.3125 -9.21875 3.3125zm0 -5.703125q2.640625 0 3.984375 -1.84375q1.34375 -1.859375 1.34375 -5.40625q0 -3.890625 -1.328125 -5.546875q-1.3125 -1.65625 -4.0 -1.65625q-2.78125 0 -4.015625 1.65625q-1.21875 1.65625 -1.21875 5.546875q0 3.6875 1.265625 5.46875q1.28125 1.78125 3.96875 1.78125zm19.195068 -13.828125l-3.546875 0l0 -5.46875l3.609375 0l0 -0.578125q0.046875 -5.484375 2.515625 -7.609375q2.46875 -2.140625 6.734375 -2.140625q0.78125 0 1.6875 0.15625q0.90625 0.140625 1.484375 0.328125l0 6.28125q-0.53125 -0.53125 -1.0625 -0.78125q-0.515625 -0.265625 -1.328125 -0.265625q-1.34375 0 -2.125 0.71875q-0.765625 0.71875 -0.765625 2.4375l0 1.453125l5.28125 0l0 5.46875l-5.328125 0l0 18.8125l-7.15625 0l0 -18.8125z" fill-rule="nonzero"/><path fill="#ffffff" d="m113.071686 314.44778q-15.734375 0 -15.734375 -16.609375q0 -16.75 15.734375 -16.75q4.859375 0 10.1875 2.34375l0 6.78125q-4.609375 -3.078125 -9.125 -3.078125q-4.421875 0 -6.609375 2.46875q-2.171875 2.46875 -2.171875 8.234375q0 5.765625 2.21875 8.171875q2.234375 2.390625 6.890625 2.390625q1.921875 0 4.171875 -0.71875q2.265625 -0.71875 4.625 -2.265625l0 6.78125q-1.96875 1.0 -4.8125 1.625q-2.828125 0.625 -5.375 0.625zm26.786942 0.09375q-6.140625 0 -9.21875 -3.265625q-3.0625 -3.265625 -3.0625 -9.6875q0 -6.71875 3.046875 -9.796875q3.046875 -3.078125 9.234375 -3.078125q6.1875 0 9.3125 3.15625q3.125 3.140625 3.125 9.71875q0 6.328125 -3.21875 9.640625q-3.21875 3.3125 -9.21875 3.3125zm0 -5.703125q2.640625 0 3.984375 -1.84375q1.34375 -1.859375 1.34375 -5.40625q0 -3.890625 -1.328125 -5.546875q-1.3125 -1.65625 -4.0 -1.65625q-2.78125 0 -4.015625 1.65625q-1.21875 1.65625 -1.21875 5.546875q0 3.6875 1.265625 5.46875q1.28125 1.78125 3.96875 1.78125zm17.382553 4.984375l0 -33.453125l7.09375 0l0 33.453125l-7.09375 0zm24.377533 0.71875q-6.140625 0 -9.21875 -3.265625q-3.0625 -3.265625 -3.0625 -9.6875q0 -6.71875 3.046875 -9.796875q3.046875 -3.078125 9.234375 -3.078125q6.1875 0 9.3125 3.15625q3.125 3.140625 3.125 9.71875q0 6.328125 -3.21875 9.640625q-3.21875 3.3125 -9.21875 3.3125zm0 -5.703125q2.640625 0 3.984375 -1.84375q1.34375 -1.859375 1.34375 -5.40625q0 -3.890625 -1.328125 -5.546875q-1.3125 -1.65625 -4.0 -1.65625q-2.78125 0 -4.015625 1.65625q-1.21875 1.65625 -1.21875 5.546875q0 3.6875 1.265625 5.46875q1.28125 1.78125 3.96875 1.78125zm17.382553 -16.765625q0.71875 -0.625 2.515625 -1.390625q1.796875 -0.765625 4.03125 -1.3125q2.234375 -0.5625 4.296875 -0.5625q3.984375 0 5.515625 1.203125l0 5.234375q-1.921875 -0.4375 -5.515625 -0.4375q-2.25 0 -3.703125 0.25l0 18.765625l-7.140625 0l0 -21.75zm31.153412 -3.265625q3.984375 0 7.234375 1.859375q3.265625 1.84375 3.265625 6.640625l-0.046875 11.46875q-0.046875 3.03125 -3.03125 4.40625q-2.96875 1.359375 -8.671875 1.359375q-10.65625 0 -10.65625 -8.296875q0 -3.515625 2.171875 -5.484375q2.1875 -1.96875 6.515625 -1.96875q1.78125 0 3.546875 0.46875q1.78125 0.453125 3.078125 1.171875l0 -1.53125q0 -4.1875 -5.375 -4.1875q-2.0625 0 -4.25 0.75q-2.1875 0.75 -3.484375 1.796875l0 -6.328125q1.296875 -0.875 3.953125 -1.5q2.671875 -0.625 5.75 -0.625zm-1.015625 20.703125q2.5 0 3.453125 -0.328125q0.96875 -0.34375 0.96875 -1.359375l0 -3.75q-1.6875 -0.5625 -3.703125 -0.5625q-2.34375 0 -3.4375 0.703125q-1.078125 0.6875 -1.078125 2.171875q0 1.390625 1.125 2.265625q1.140625 0.859375 2.671875 0.859375zm40.752945 -29.953125l0 27.921875q0 2.265625 -1.59375 3.859375q-1.578125 1.578125 -4.171875 2.390625q-2.578125 0.8125 -5.515625 0.8125q-6.1875153 0 -9.57814 -2.921875q-3.375 -2.9375 -3.375 -10.140625q0 -6.046875 2.953125 -9.375q2.953125 -3.34375 8.656265 -3.34375q3.40625 0 5.515625 1.25l0 -10.453125l7.109375 0zm-7.109375 15.984375q-1.90625 -1.015625 -3.734375 -1.015625q-3.2187653 0 -4.7031403 1.640625q-1.484375 1.625 -1.484375 5.515625q0 3.359375 1.390625 5.109375q1.390625 1.75 4.6562653 1.75q1.765625 0 2.8125 -0.46875q1.0625 -0.484375 1.0625 -1.359375l0 -11.171875zm24.388306 19.0q-6.140625 0 -9.21875 -3.265625q-3.0625 -3.265625 -3.0625 -9.6875q0 -6.71875 3.046875 -9.796875q3.046875 -3.078125 9.234375 -3.078125q6.1875 0 9.3125 3.15625q3.125 3.140625 3.125 9.71875q0 6.328125 -3.21875 9.640625q-3.21875 3.3125 -9.21875 3.3125zm0 -5.703125q2.640625 0 3.984375 -1.84375q1.34375 -1.859375 1.34375 -5.40625q0 -3.890625 -1.328125 -5.546875q-1.3125 -1.65625 -4.0 -1.65625q-2.78125 0 -4.015625 1.65625q-1.21875 1.65625 -1.21875 5.546875q0 3.6875 1.265625 5.46875q1.28125 1.78125 3.96875 1.78125zm21.320038 0.953125l5.84375 0l-4.40625 9.40625l-5.0 0l3.5625 -9.40625zm60.18982 -27.984375l0 32.015625l-7.78125 0l0 -21.640625l-9.40625 12.515625l-9.171875 -12.46875l0 21.59375l-7.4375 0l0 -32.015625l7.921875 0l8.96875 12.484375l9.171875 -12.484375l7.734375 0zm17.186188 7.0q3.984375 0 7.234375 1.859375q3.265625 1.84375 3.265625 6.640625l-0.046875 11.46875q-0.046875 3.03125 -3.03125 4.40625q-2.96875 1.359375 -8.671875 1.359375q-10.65625 0 -10.65625 -8.296875q0 -3.515625 2.171875 -5.484375q2.1875 -1.96875 6.515625 -1.96875q1.78125 0 3.546875 0.46875q1.78125 0.453125 3.078125 1.171875l0 -1.53125q0 -4.1875 -5.375 -4.1875q-2.0625 0 -4.25 0.75q-2.1875 0.75 -3.484375 1.796875l0 -6.328125q1.296875 -0.875 3.953125 -1.5q2.671875 -0.625 5.75 -0.625zm-1.015625 20.703125q2.5 0 3.453125 -0.328125q0.96875 -0.34375 0.96875 -1.359375l0 -3.75q-1.6875 -0.5625 -3.703125 -0.5625q-2.34375 0 -3.4375 0.703125q-1.078125 0.6875 -1.078125 2.171875q0 1.390625 1.125 2.265625q1.140625 0.859375 2.671875 0.859375zm25.06543 5.03125q-2.3125 0 -4.046875 -0.453125q-1.71875 -0.453125 -3.828125 -1.328125l0 -6.28125q3.890625 2.921875 8.15625 2.921875q1.625 0 2.375 -0.546875q0.75 -0.546875 0.75 -1.515625q0 -1.09375 -1.203125 -1.625q-1.203125 -0.53125 -3.84375 -1.15625q-2.78125 -0.578125 -4.578125 -2.296875q-1.796875 -1.734375 -1.796875 -5.046875q0 -2.828125 1.4375 -4.65625q1.4375 -1.828125 3.609375 -2.65625q2.1875 -0.84375 4.546875 -0.84375q2.875 0 4.671875 0.5q1.8125 0.5 3.53125 1.5625l0 5.609375q-2.4375 -1.34375 -3.78125 -1.90625q-1.34375 -0.578125 -3.125 -0.578125q-1.78125 0 -2.640625 0.546875q-0.859375 0.546875 -0.859375 1.5625q0 1.203125 0.953125 1.75q0.953125 0.546875 3.078125 1.125q2.390625 0.625 3.78125 1.234375q1.390625 0.59375 2.5 2.0625q1.109375 1.453125 1.109375 4.09375q-0.09375 4.125 -3.125 6.03125q-3.015625 1.890625 -7.671875 1.890625zm23.136047 0q-2.3125 0 -4.046875 -0.453125q-1.71875 -0.453125 -3.828125 -1.328125l0 -6.28125q3.890625 2.921875 8.15625 2.921875q1.625 0 2.375 -0.546875q0.75 -0.546875 0.75 -1.515625q0 -1.09375 -1.203125 -1.625q-1.203125 -0.53125 -3.84375 -1.15625q-2.78125 -0.578125 -4.578125 -2.296875q-1.796875 -1.734375 -1.796875 -5.046875q0 -2.828125 1.4375 -4.65625q1.4375 -1.828125 3.609375 -2.65625q2.1875 -0.84375 4.546875 -0.84375q2.875 0 4.671875 0.5q1.8125 0.5 3.53125 1.5625l0 5.609375q-2.4375 -1.34375 -3.78125 -1.90625q-1.34375 -0.578125 -3.125 -0.578125q-1.78125 0 -2.640625 0.546875q-0.859375 0.546875 -0.859375 1.5625q0 1.203125 0.953125 1.75q0.953125 0.546875 3.078125 1.125q2.390625 0.625 3.78125 1.234375q1.390625 0.59375 2.5 2.0625q1.109375 1.453125 1.109375 4.09375q-0.09375 4.125 -3.125 6.03125q-3.015625 1.890625 -7.671875 1.890625zm26.542297 -25.734375q3.984375 0 7.234375 1.859375q3.265625 1.84375 3.265625 6.640625l-0.046875 11.46875q-0.046875 3.03125 -3.03125 4.40625q-2.96875 1.359375 -8.671875 1.359375q-10.65625 0 -10.65625 -8.296875q0 -3.515625 2.171875 -5.484375q2.1875 -1.96875 6.515625 -1.96875q1.78125 0 3.546875 0.46875q1.78125 0.453125 3.078125 1.171875l0 -1.53125q0 -4.1875 -5.375 -4.1875q-2.0625 0 -4.25 0.75q-2.1875 0.75 -3.484375 1.796875l0 -6.328125q1.296875 -0.875 3.953125 -1.5q2.671875 -0.625 5.75 -0.625zm-1.015625 20.703125q2.5 0 3.453125 -0.328125q0.96875 -0.34375 0.96875 -1.359375l0 -3.75q-1.6875 -0.5625 -3.703125 -0.5625q-2.34375 0 -3.4375 0.703125q-1.078125 0.6875 -1.078125 2.171875q0 1.390625 1.125 2.265625q1.140625 0.859375 2.671875 0.859375zm29.237305 4.9375q-3.5625 0 -6.4375 -1.390625q-2.875 -1.390625 -4.578125 -4.203125q-1.703125 -2.8125 -1.703125 -6.84375q0 -6.46875 3.453125 -9.796875q3.453125 -3.34375 9.21875 -3.34375q2.015625 0 4.078125 0.40625q2.0625 0.40625 3.640625 1.125l0 6.140625q-1.96875 -0.859375 -3.5 -1.3125q-1.53125 -0.46875 -3.078125 -0.46875q-3.15625 0 -4.9375 1.5625q-1.78125 1.5625 -1.78125 4.875q0 3.703125 1.65625 5.484375q1.65625 1.765625 5.40625 1.765625q2.828125 0 6.28125 -1.921875l0 6.09375q-1.71875 0.921875 -3.578125 1.375q-1.84375 0.453125 -4.140625 0.453125zm26.7836 -25.578125q4.21875 0 6.5625 2.109375q2.359375 2.109375 2.359375 6.90625l0 15.9375l-7.140625 0l0 -14.453125q0 -4.609375 -4.6094055 -4.609375q-1.109375 0 -2.265625 0.34375q-1.15625 0.328125 -1.765625 0.8125l-0.109375 17.90625l-7.09375 0l0 -33.890625l7.203125 0l0 10.703125q3.3125 -1.765625 6.8594055 -1.765625zm26.687439 25.671875q-5.328125 0 -8.375 -2.484375q-3.046875 -2.5 -3.046875 -7.5l0 -15.015625l7.140625 0l0 14.4375q0 2.3125 1.03125 3.4375q1.046875 1.125 3.296875 1.125q2.25 0 3.28125 -1.125q1.03125 -1.125 1.03125 -3.4375l0 -14.4375l6.734375 0l0 15.015625q0 5.046875 -2.90625 7.515625q-2.90625 2.46875 -8.1875 2.46875zm24.629272 0q-2.3125 0 -4.046875 -0.453125q-1.71875 -0.453125 -3.828125 -1.328125l0 -6.28125q3.890625 2.921875 8.15625 2.921875q1.625 0 2.375 -0.546875q0.75 -0.546875 0.75 -1.515625q0 -1.09375 -1.203125 -1.625q-1.203125 -0.53125 -3.84375 -1.15625q-2.78125 -0.578125 -4.578125 -2.296875q-1.796875 -1.734375 -1.796875 -5.046875q0 -2.828125 1.4375 -4.65625q1.4375 -1.828125 3.609375 -2.65625q2.1875 -0.84375 4.546875 -0.84375q2.875 0 4.671875 0.5q1.8125 0.5 3.53125 1.5625l0 5.609375q-2.4375 -1.34375 -3.78125 -1.90625q-1.34375 -0.578125 -3.125 -0.578125q-1.78125 0 -2.640625 0.546875q-0.859375 0.546875 -0.859375 1.5625q0 1.203125 0.953125 1.75q0.953125 0.546875 3.078125 1.125q2.390625 0.625 3.78125 1.234375q1.390625 0.59375 2.5 2.0625q1.109375 1.453125 1.109375 4.09375q-0.09375 4.125 -3.125 6.03125q-3.015625 1.890625 -7.671875 1.890625zm26.682922 -25.828125q11.375 0 11.234375 14.84375l-16.03125 0q0.90625 5.03125 6.765625 5.03125q1.765625 0 3.46875 -0.5q1.71875 -0.5 3.625 -1.328125l0 6.15625q-3.921875 1.625 -8.828125 1.625q-3.6875 0 -6.484375 -1.5q-2.78125 -1.515625 -4.3125 -4.34375q-1.53125 -2.84375 -1.53125 -6.6875q0 -6.328125 3.140625 -9.8125q3.140625 -3.484375 8.953125 -3.484375zm-0.296875 5.484375q-3.828125 0 -4.546875 4.796875l8.96875 0q-0.328125 -2.59375 -1.375 -3.6875q-1.03125 -1.109375 -3.046875 -1.109375zm26.46045 20.578125q-4.1875 0 -6.28125 -1.953125q-2.078125 -1.96875 -2.078125 -5.671875l0 -12.140625l-3.546875 0l0 -5.46875l3.546875 0l0 -6.671875l7.484375 0l0 6.671875l5.328125 0l0 5.46875l-5.328125 0l0 11.234375q0 1.234375 0.53125 1.84375q0.53125 0.59375 1.78125 0.59375q0.765625 0 1.578125 -0.25q0.8125 -0.265625 1.4375 -0.75l0 6.09375q-1.8125 1.0 -4.453125 1.0zm19.824036 0q-4.1875 0 -6.28125 -1.953125q-2.078125 -1.96875 -2.078125 -5.671875l0 -12.140625l-3.546875 0l0 -5.46875l3.546875 0l0 -6.671875l7.484375 0l0 6.671875l5.328125 0l0 5.46875l-5.328125 0l0 11.234375q0 1.234375 0.53125 1.84375q0.53125 0.59375 1.78125 0.59375q0.765625 0 1.578125 -0.25q0.8125 -0.265625 1.4375 -0.75l0 6.09375q-1.8125 1.0 -4.453125 1.0zm17.08966 -0.234375q-2.3125 0 -4.046875 -0.453125q-1.71875 -0.453125 -3.828125 -1.328125l0 -6.28125q3.890625 2.921875 8.15625 2.921875q1.625 0 2.375 -0.546875q0.75 -0.546875 0.75 -1.515625q0 -1.09375 -1.203125 -1.625q-1.203125 -0.53125 -3.84375 -1.15625q-2.78125 -0.578125 -4.578125 -2.296875q-1.796875 -1.734375 -1.796875 -5.046875q0 -2.828125 1.4375 -4.65625q1.4375 -1.828125 3.609375 -2.65625q2.1875 -0.84375 4.546875 -0.84375q2.875 0 4.671875 0.5q1.8125 0.5 3.53125 1.5625l0 5.609375q-2.4375 -1.34375 -3.78125 -1.90625q-1.34375 -0.578125 -3.125 -0.578125q-1.78125 0 -2.640625 0.546875q-0.859375 0.546875 -0.859375 1.5625q0 1.203125 0.953125 1.75q0.953125 0.546875 3.078125 1.125q2.390625 0.625 3.78125 1.234375q1.390625 0.59375 2.5 2.0625q1.109375 1.453125 1.109375 4.09375q-0.09375 4.125 -3.125 6.03125q-3.015625 1.890625 -7.671875 1.890625zm19.870422 -4.75l5.84375 0l-4.40625 9.40625l-5.0 0l3.5625 -9.40625z" fill-rule="nonzero"/><path fill="#ffffff" d="m109.290436 346.80713q3.984375 0 7.234375 1.859375q3.265625 1.84375 3.265625 6.640625l-0.046875 11.46875q-0.046875 3.03125 -3.03125 4.40625q-2.96875 1.359375 -8.671875 1.359375q-10.65625 0 -10.65625 -8.296875q0 -3.515625 2.171875 -5.484375q2.1875 -1.96875 6.515625 -1.96875q1.78125 0 3.546875 0.46875q1.78125 0.453125 3.078125 1.171875l0 -1.53125q0 -4.1875 -5.375 -4.1875q-2.0625 0 -4.25 0.75q-2.1875 0.75 -3.484375 1.796875l0 -6.328125q1.296875 -0.875 3.953125 -1.5q2.671875 -0.625 5.75 -0.625zm-1.015625 20.703125q2.5 0 3.453125 -0.328125q0.96875 -0.34375 0.96875 -1.359375l0 -3.75q-1.6875 -0.5625 -3.703125 -0.5625q-2.34375 0 -3.4375 0.703125q-1.078125 0.6875 -1.078125 2.171875q0 1.390625 1.125 2.265625q1.140625 0.859375 2.671875 0.859375zm17.862305 -17.90625q1.875 -1.015625 5.703125 -1.875q3.84375 -0.859375 6.875 -0.859375q5.125 0 7.71875 2.015625q2.59375 2.015625 2.59375 6.625l0 16.3125l-7.15625 0l0 -14.875q0 -4.1875 -4.703125 -4.1875q-1.046875 0 -2.15625 0.25q-1.109375 0.234375 -1.734375 0.578125l0 18.234375l-7.140625 0l0 -22.21875zm52.12268 -12.046875l0 27.921875q0 2.265625 -1.59375 3.859375q-1.578125 1.578125 -4.171875 2.390625q-2.578125 0.8125 -5.515625 0.8125q-6.1875 0 -9.578125 -2.921875q-3.375 -2.9375 -3.375 -10.140625q0 -6.046875 2.953125 -9.375q2.953125 -3.34375 8.65625 -3.34375q3.40625 0 5.515625 1.25l0 -10.453125l7.109375 0zm-7.109375 15.984375q-1.90625 -1.015625 -3.734375 -1.015625q-3.21875 0 -4.703125 1.640625q-1.484375 1.625 -1.484375 5.515625q0 3.359375 1.390625 5.109375q1.390625 1.75 4.65625 1.75q1.765625 0 2.8125 -0.46875q1.0625 -0.484375 1.0625 -1.359375l0 -11.171875zm36.636337 19.234375q-4.1875 0 -6.28125 -1.953125q-2.078125 -1.96875 -2.078125 -5.671875l0 -12.140625l-3.546875 0l0 -5.46875l3.546875 0l0 -6.671875l7.484375 0l0 6.671875l5.328125 0l0 5.46875l-5.328125 0l0 11.234375q0 1.234375 0.53125 1.84375q0.53125 0.59375 1.78125 0.59375q0.765625 0 1.578125 -0.25q0.8125 -0.265625 1.4375 -0.75l0 6.09375q-1.8125 1.0 -4.453125 1.0zm23.949036 -25.90625q4.21875 0 6.5625 2.109375q2.359375 2.109375 2.359375 6.90625l0 15.9375l-7.140625 0l0 -14.453125q0 -4.609375 -4.609375 -4.609375q-1.109375 0 -2.265625 0.34375q-1.15625 0.328125 -1.765625 0.8125l-0.109375 17.90625l-7.09375 0l0 -33.890625l7.203125 0l0 10.703125q3.3125 -1.765625 6.859375 -1.765625zm26.01558 -0.15625q11.375 0 11.234375 14.84375l-16.031265 0q0.90625 5.03125 6.7656403 5.03125q1.765625 0 3.46875 -0.5q1.71875 -0.5 3.625 -1.328125l0 6.15625q-3.921875 1.625 -8.828125 1.625q-3.6875153 0 -6.4843903 -1.5q-2.78125 -1.515625 -4.3125 -4.34375q-1.53125 -2.84375 -1.53125 -6.6875q0 -6.328125 3.140625 -9.8125q3.140625 -3.484375 8.95314 -3.484375zm-0.296875 5.484375q-3.8281403 0 -4.5468903 4.796875l8.968765 0q-0.328125 -2.59375 -1.375 -3.6875q-1.03125 -1.109375 -3.046875 -1.109375zm40.708466 20.34375q-6.140625 0 -9.21875 -3.265625q-3.0625 -3.265625 -3.0625 -9.6875q0 -6.71875 3.046875 -9.796875q3.046875 -3.078125 9.234375 -3.078125q6.1875 0 9.3125 3.15625q3.125 3.140625 3.125 9.71875q0 6.328125 -3.21875 9.640625q-3.21875 3.3125 -9.21875 3.3125zm0 -5.703125q2.640625 0 3.984375 -1.84375q1.34375 -1.859375 1.34375 -5.40625q0 -3.890625 -1.328125 -5.546875q-1.3125 -1.65625 -4.0 -1.65625q-2.78125 0 -4.015625 1.65625q-1.21875 1.65625 -1.21875 5.546875q0 3.6875 1.265625 5.46875q1.28125 1.78125 3.96875 1.78125zm42.820038 -19.296875l-10.125 24.28125l-7.15625 0l-10.125 -24.28125l7.71875 0l6.4375 16.40625l5.71875 -16.40625l7.53125 0zm15.120544 -0.828125q11.375 0 11.234375 14.84375l-16.03125 0q0.90625 5.03125 6.765625 5.03125q1.765625 0 3.46875 -0.5q1.71875 -0.5 3.625 -1.328125l0 6.15625q-3.921875 1.625 -8.828125 1.625q-3.6875 0 -6.484375 -1.5q-2.78125 -1.515625 -4.3125 -4.34375q-1.53125 -2.84375 -1.53125 -6.6875q0 -6.328125 3.140625 -9.8125q3.140625 -3.484375 8.953125 -3.484375zm-0.296875 5.484375q-3.828125 0 -4.546875 4.796875l8.96875 0q-0.328125 -2.59375 -1.375 -3.6875q-1.03125 -1.109375 -3.046875 -1.109375zm16.52295 -2.125q0.71875 -0.625 2.515625 -1.390625q1.796875 -0.765625 4.03125 -1.3125q2.234375 -0.5625 4.296875 -0.5625q3.984375 0 5.515625 1.203125l0 5.234375q-1.921875 -0.4375 -5.515625 -0.4375q-2.25 0 -3.703125 0.25l0 18.765625l-7.140625 0l0 -21.75zm31.153412 -3.265625q3.984375 0 7.234375 1.859375q3.265625 1.84375 3.265625 6.640625l-0.046875 11.46875q-0.046875 3.03125 -3.03125 4.40625q-2.96875 1.359375 -8.671875 1.359375q-10.65625 0 -10.65625 -8.296875q0 -3.515625 2.171875 -5.484375q2.1875 -1.96875 6.515625 -1.96875q1.78125 0 3.546875 0.46875q1.78125 0.453125 3.078125 1.171875l0 -1.53125q0 -4.1875 -5.375 -4.1875q-2.0625 0 -4.25 0.75q-2.1875 0.75 -3.484375 1.796875l0 -6.328125q1.296875 -0.875 3.953125 -1.5q2.671875 -0.625 5.75 -0.625zm-1.015625 20.703125q2.5 0 3.453125 -0.328125q0.96875 -0.34375 0.96875 -1.359375l0 -3.75q-1.6875 -0.5625 -3.703125 -0.5625q-2.34375 0 -3.4375 0.703125q-1.078125 0.6875 -1.078125 2.171875q0 1.390625 1.125 2.265625q1.140625 0.859375 2.671875 0.859375zm17.862305 4.3125l0 -33.453125l7.09375 0l0 33.453125l-7.09375 0zm13.440033 0l0 -33.453125l7.09375 0l0 33.453125l-7.09375 0zm41.6568 1.015625q-7.4375 0 -11.09375 -3.171875q-3.640625 -3.171875 -3.640625 -9.796875l0 -20.0625l8.109375 0l0 19.734375q0 3.6875 1.484375 5.46875q1.5 1.765625 4.765625 1.765625q3.015625 0 4.640625 -1.8125q1.640625 -1.828125 1.640625 -5.421875l0 -19.734375l7.390625 0l0 20.0625q0 6.484375 -3.578125 9.734375q-3.578125 3.234375 -9.71875 3.234375zm19.535583 -7.78125l6.96875 0l0 6.765625l-6.96875 0l0 -6.765625zm23.952179 7.4375q-3.640625 0 -6.328125 -0.515625q-2.6875305 -0.5 -5.0000305 -1.6875l0 -7.390625q2.15625 1.71875 4.9219055 2.65625q2.765625 0.9375 5.40625 0.9375q4.5 0 4.5 -3.40625q0 -1.484375 -1.4375 -2.328125q-1.4375 -0.84375 -4.65625 -1.890625q-1.484375 -0.484375 -1.8125 -0.625q-3.4687805 -1.15625 -5.4687805 -3.125q-1.984375 -1.96875 -1.984375 -5.859375q0 -2.734375 1.34375 -5.0625q1.34375 -2.328125 4.1250305 -3.71875q2.796875 -1.390625 6.875 -1.390625q2.828125 0 4.859375 0.5q2.046875 0.5 4.359375 1.609375l0 7.4375q-2.015625 -1.53125 -4.328125 -2.53125q-2.296875 -1.015625 -4.65625 -1.015625q-2.109375 0 -3.390625 0.84375q-1.265625 0.828125 -1.265625 2.421875q0 1.25 0.765625 2.046875q0.78125 0.78125 1.90625 1.21875q1.125 0.421875 3.625 1.1875q2.96875 0.875 4.890625 1.9375q1.921875 1.046875 3.0625 2.828125q1.15625 1.765625 1.15625 4.546875q0 2.9375 -1.34375 5.296875q-1.34375 2.34375 -3.953125 3.71875q-2.609375 1.359375 -6.171875 1.359375zm16.36792 -7.4375l6.96875 0l0 6.765625l-6.96875 0l0 -6.765625z" fill-rule="nonzero"/></g></svg>