<svg version="1.1" viewBox="0.0 0.0 960.0 540.0" fill="none" stroke="none" stroke-linecap="square" stroke-miterlimit="10" xmlns:xlink="http://www.w3.org/1999/xlink" xmlns="http://www.w3.org/2000/svg"><clipPath id="g3d12587afc_2_1.0"><path d="m0 0l960.0 0l0 540.0l-960.0 0l0 -540.0z" clip-rule="nonzero"/></clipPath><g clip-path="url(#g3d12587afc_2_1.0)"><path fill="#c0791b" d="m0 0l960.0 0l0 540.0l-960.0 0z" fill-rule="evenodd"/><path fill="#ffffff" fill-opacity="0.0902" d="m128.25023 72.64238l0 0l0 0c-4.41053 0 -8.640419 -1.7520752 -11.759132 -4.870796c-3.1187134 -3.1187134 -4.8707886 -7.3485985 -4.8707886 -11.759125l0 -55.653545c0 -1.5309453E-4 1.2207031E-4 -2.771914E-4 2.746582E-4 -2.771914E-4l33.25956 2.771914E-4l0 0c1.5258789E-4 0 2.746582E-4 1.2406707E-4 2.746582E-4 2.771616E-4l-2.746582E-4 55.653267l0 0c0 9.184448 -7.445465 16.629921 -16.629913 16.629921z" fill-rule="evenodd"/><path fill="#ffffff" fill-opacity="0.0902" d="m128.25023 36.105614l0 0l0 0c-4.41053 0 -8.640419 -1.7520752 -11.759132 -4.8707905c-3.1187134 -3.1187153 -4.8707886 -7.3486004 -4.8707886 -11.7591305l0 -19.118109c0 -1.5306473E-4 1.2207031E-4 -2.771616E-4 2.746582E-4 -2.771616E-4l33.25956 2.771616E-4l0 0c1.5258789E-4 0 2.746582E-4 1.2409687E-4 2.746582E-4 2.771616E-4l-2.746582E-4 19.117832l0 0c0 9.184452 -7.445465 16.629921 -16.629913 16.629921z" fill-rule="evenodd"/><path fill="#ffffff" fill-opacity="0.0902" d="m80.14446 72.64238l0 0l0 0c-4.41053 0 -8.640419 -1.7520752 -11.759132 -4.870796c-3.1187134 -3.1187134 -4.8707924 -7.3485985 -4.8707924 -11.759125l0 -55.653545c0 -1.5309453E-4 1.2588501E-4 -2.771914E-4 2.784729E-4 -2.771914E-4l33.259567 2.771914E-4l0 0c1.5258789E-4 0 2.746582E-4 1.2406707E-4 2.746582E-4 2.771616E-4l-2.746582E-4 55.653267l0 0c0 9.184448 -7.4454727 16.629921 -16.629921 16.629921z" fill-rule="evenodd"/><path fill="#ffffff" fill-opacity="0.0902" d="m80.14446 109.17896l0 0l0 0c-4.41053 0 -8.640419 -1.7520828 -11.759132 -4.870796c-3.1187134 -3.1187134 -4.8707924 -7.3486023 -4.8707924 -11.759125l0 -92.18898c0 -1.5306473E-4 1.2588501E-4 -2.771616E-4 2.784729E-4 -2.771616E-4l33.259567 2.771616E-4l0 0c1.5258789E-4 0 2.746582E-4 1.2409687E-4 2.746582E-4 2.771616E-4l-2.746582E-4 92.188705l0 0c0 9.184448 -7.4454727 16.629921 -16.629921 16.629921z" fill-rule="evenodd"/><path fill="#ffffff" fill-opacity="0.0902" d="m80.14446 36.105614l0 0l0 0c-4.41053 0 -8.640419 -1.7520752 -11.759132 -4.8707905c-3.1187134 -3.1187153 -4.8707924 -7.3486004 -4.8707924 -11.7591305l0 -19.118109c0 -1.5306473E-4 1.2588501E-4 -2.771616E-4 2.784729E-4 -2.771616E-4l33.259567 2.771616E-4l0 0c1.5258789E-4 0 2.746582E-4 1.2409687E-4 2.746582E-4 2.771616E-4l-2.746582E-4 19.117832l0 0c0 9.184452 -7.4454727 16.629921 -16.629921 16.629921z" fill-rule="evenodd"/><path fill="#ffffff" fill-opacity="0.0902" d="m32.038692 72.64238l0 0l0 0c-4.410528 0 -8.640413 -1.7520752 -11.759129 -4.870796c-3.1187153 -3.1187134 -4.8707914 -7.3485985 -4.8707914 -11.759125l0 -55.653545c0 -1.5309453E-4 1.2397766E-4 -2.771914E-4 2.7656555E-4 -2.771914E-4l33.259563 2.771914E-4l0 0c1.5258789E-4 0 2.784729E-4 1.2406707E-4 2.784729E-4 2.771616E-4l-2.784729E-4 55.653267l0 0c0 9.184448 -7.445469 16.629921 -16.629921 16.629921z" fill-rule="evenodd"/><path fill="#ffffff" fill-opacity="0.0902" d="m32.038692 145.7156l0 0l0 0c-4.410528 0 -8.640413 -1.7520752 -11.759129 -4.8707886c-3.1187153 -3.1187286 -4.8707914 -7.3486023 -4.8707914 -11.75914l0 -128.72441c0 -1.5306473E-4 1.2397766E-4 -2.771616E-4 2.7656555E-4 -2.771616E-4l33.259563 2.771616E-4l0 0c1.5258789E-4 0 2.784729E-4 1.2409687E-4 2.784729E-4 2.771616E-4l-2.784729E-4 128.72414l0 0c0 9.184448 -7.445469 16.629929 -16.629921 16.629929z" fill-rule="evenodd"/><path fill="#ffffff" fill-opacity="0.0902" d="m32.038692 109.17896l0 0l0 0c-4.410528 0 -8.640413 -1.7520828 -11.759129 -4.870796c-3.1187153 -3.1187134 -4.8707914 -7.3486023 -4.8707914 -11.759125l0 -92.18898c0 -1.5306473E-4 1.2397766E-4 -2.771616E-4 2.7656555E-4 -2.771616E-4l33.259563 2.771616E-4l0 0c1.5258789E-4 0 2.784729E-4 1.2409687E-4 2.784729E-4 2.771616E-4l-2.784729E-4 92.188705l0 0c0 9.184448 -7.445469 16.629921 -16.629921 16.629921z" fill-rule="evenodd"/><path fill="#ffffff" fill-opacity="0.0902" d="m32.038692 36.105614l0 0l0 0c-4.410528 0 -8.640413 -1.7520752 -11.759129 -4.8707905c-3.1187153 -3.1187153 -4.8707914 -7.3486004 -4.8707914 -11.7591305l0 -19.118109c0 -1.5306473E-4 1.2397766E-4 -2.771616E-4 2.7656555E-4 -2.771616E-4l33.259563 2.771616E-4l0 0c1.5258789E-4 0 2.784729E-4 1.2409687E-4 2.784729E-4 2.771616E-4l-2.784729E-4 19.117832l0 0c0 9.184452 -7.445469 16.629921 -16.629921 16.629921z" fill-rule="evenodd"/><path fill="#ffffff" fill-opacity="0.0902" d="m732.79095 446.58353l0 0l0 0c5.701111 0 11.168701 2.2647705 15.200012 6.296051c4.03125 4.031311 6.2960205 9.498901 6.2960205 15.200012l0 71.921265c0 1.8310547E-4 -1.8310547E-4 3.6621094E-4 -3.6621094E-4 3.6621094E-4l-42.99176 -3.6621094E-4l0 0c-1.8310547E-4 0 -3.6621094E-4 -1.8310547E-4 -3.6621094E-4 -3.6621094E-4l3.6621094E-4 -71.9209l0 0c0 -11.871948 9.6241455 -21.496063 21.496094 -21.496063z" fill-rule="evenodd"/><path fill="#ffffff" fill-opacity="0.0902" d="m732.79095 493.79614l0 0l0 0c5.701111 0 11.168701 2.26474 15.200012 6.296051c4.03125 4.0312805 6.2960205 9.498901 6.2960205 15.199982l0 24.70868c0 1.8310547E-4 -1.8310547E-4 3.6621094E-4 -3.6621094E-4 3.6621094E-4l-42.99176 -3.6621094E-4l0 0c-1.8310547E-4 0 -3.6621094E-4 -1.8310547E-4 -3.6621094E-4 -3.6621094E-4l3.6621094E-4 -24.708313l0 0c0 -11.871918 9.6241455 -21.496033 21.496094 -21.496033z" fill-rule="evenodd"/><path fill="#ffffff" fill-opacity="0.0902" d="m794.9658 446.58353l0 0l0 0c5.701111 0 11.168701 2.2647705 15.200012 6.296051c4.03125 4.031311 6.2960205 9.498901 6.2960205 15.200012l0 71.921265c0 1.8310547E-4 -1.8310547E-4 3.6621094E-4 -3.6621094E-4 3.6621094E-4l-42.99176 -3.6621094E-4l0 0c-1.8310547E-4 0 -3.6621094E-4 -1.8310547E-4 -3.6621094E-4 -3.6621094E-4l3.6621094E-4 -71.9209l0 0c0 -11.871948 9.6241455 -21.496063 21.496094 -21.496063z" fill-rule="evenodd"/><path fill="#ffffff" fill-opacity="0.0902" d="m794.9658 399.37094l0 0l0 0c5.701111 0 11.168701 2.2647705 15.200012 6.296051c4.03125 4.0312805 6.2960205 9.498901 6.2960205 15.200012l0 119.13385c0 1.8310547E-4 -1.8310547E-4 3.6621094E-4 -3.6621094E-4 3.6621094E-4l-42.99176 -3.6621094E-4l0 0c-1.8310547E-4 0 -3.6621094E-4 -1.8310547E-4 -3.6621094E-4 -3.6621094E-4l3.6621094E-4 -119.133484l0 0c0 -11.871948 9.6241455 -21.496063 21.496094 -21.496063z" fill-rule="evenodd"/><path fill="#ffffff" fill-opacity="0.0902" d="m794.9658 493.79614l0 0l0 0c5.701111 0 11.168701 2.26474 15.200012 6.296051c4.03125 4.0312805 6.2960205 9.498901 6.2960205 15.199982l0 24.70868c0 1.8310547E-4 -1.8310547E-4 3.6621094E-4 -3.6621094E-4 3.6621094E-4l-42.99176 -3.6621094E-4l0 0c-1.8310547E-4 0 -3.6621094E-4 -1.8310547E-4 -3.6621094E-4 -3.6621094E-4l3.6621094E-4 -24.708313l0 0c0 -11.871918 9.6241455 -21.496033 21.496094 -21.496033z" fill-rule="evenodd"/><path fill="#ffffff" fill-opacity="0.0902" d="m857.14075 446.58353l0 0l0 0c5.701111 0 11.168701 2.2647705 15.200012 6.296051c4.031311 4.031311 6.2960815 9.498901 6.2960815 15.200012l0 71.921265c0 1.8310547E-4 -1.8310547E-4 3.6621094E-4 -3.6621094E-4 3.6621094E-4l-42.99176 -3.6621094E-4l0 0c-2.4414062E-4 0 -3.6621094E-4 -1.8310547E-4 -3.6621094E-4 -3.6621094E-4l3.6621094E-4 -71.9209l0 0c0 -11.871948 9.624084 -21.496063 21.496033 -21.496063z" fill-rule="evenodd"/><path fill="#ffffff" fill-opacity="0.0902" d="m857.14075 352.12683l0 0l0 0c5.701111 0 11.168701 2.2647705 15.200012 6.296051c4.031311 4.031311 6.2960815 9.498901 6.2960815 15.200012l0 166.37796c0 1.8310547E-4 -1.8310547E-4 3.6621094E-4 -3.6621094E-4 3.6621094E-4l-42.99176 -3.6621094E-4l0 0c-2.4414062E-4 0 -3.6621094E-4 -1.8310547E-4 -3.6621094E-4 -3.6621094E-4l3.6621094E-4 -166.3776l0 0c0 -11.871948 9.624084 -21.496063 21.496033 -21.496063z" fill-rule="evenodd"/><path fill="#ffffff" fill-opacity="0.0902" d="m857.14075 399.37094l0 0l0 0c5.701111 0 11.168701 2.2647705 15.200012 6.296051c4.031311 4.0312805 6.2960815 9.498901 6.2960815 15.200012l0 119.13385c0 1.8310547E-4 -1.8310547E-4 3.6621094E-4 -3.6621094E-4 3.6621094E-4l-42.99176 -3.6621094E-4l0 0c-2.4414062E-4 0 -3.6621094E-4 -1.8310547E-4 -3.6621094E-4 -3.6621094E-4l3.6621094E-4 -119.133484l0 0c0 -11.871948 9.624084 -21.496063 21.496033 -21.496063z" fill-rule="evenodd"/><path fill="#ffffff" fill-opacity="0.0902" d="m857.14075 493.79614l0 0l0 0c5.701111 0 11.168701 2.26474 15.200012 6.296051c4.031311 4.0312805 6.2960815 9.498901 6.2960815 15.199982l0 24.70868c0 1.8310547E-4 -1.8310547E-4 3.6621094E-4 -3.6621094E-4 3.6621094E-4l-42.99176 -3.6621094E-4l0 0c-2.4414062E-4 0 -3.6621094E-4 -1.8310547E-4 -3.6621094E-4 -3.6621094E-4l3.6621094E-4 -24.708313l0 0c0 -11.871918 9.624084 -21.496033 21.496033 -21.496033z" fill-rule="evenodd"/><path fill="#ffffff" fill-opacity="0.0902" d="m919.3156 446.58353l0 0l0 0c5.701111 0 11.168701 2.2647705 15.200012 6.296051c4.031311 4.031311 6.2960815 9.498901 6.2960815 15.200012l0 71.921265c0 1.8310547E-4 -1.8310547E-4 3.6621094E-4 -3.6621094E-4 3.6621094E-4l-42.99176 -3.6621094E-4l0 0c-2.4414062E-4 0 -3.6621094E-4 -1.8310547E-4 -3.6621094E-4 -3.6621094E-4l3.6621094E-4 -71.9209l0 0c0 -11.871948 9.624084 -21.496063 21.496033 -21.496063z" fill-rule="evenodd"/><path fill="#ffffff" fill-opacity="0.0902" d="m919.3156 352.12683l0 0l0 0c5.701111 0 11.168701 2.2647705 15.200012 6.296051c4.031311 4.031311 6.2960815 9.498901 6.2960815 15.200012l0 166.37796c0 1.8310547E-4 -1.8310547E-4 3.6621094E-4 -3.6621094E-4 3.6621094E-4l-42.99176 -3.6621094E-4l0 0c-2.4414062E-4 0 -3.6621094E-4 -1.8310547E-4 -3.6621094E-4 -3.6621094E-4l3.6621094E-4 -166.3776l0 0c0 -11.871948 9.624084 -21.496063 21.496033 -21.496063z" fill-rule="evenodd"/><path fill="#ffffff" fill-opacity="0.0902" d="m919.3156 399.37094l0 0l0 0c5.701111 0 11.168701 2.2647705 15.200012 6.296051c4.031311 4.0312805 6.2960815 9.498901 6.2960815 15.200012l0 119.13385c0 1.8310547E-4 -1.8310547E-4 3.6621094E-4 -3.6621094E-4 3.6621094E-4l-42.99176 -3.6621094E-4l0 0c-2.4414062E-4 0 -3.6621094E-4 -1.8310547E-4 -3.6621094E-4 -3.6621094E-4l3.6621094E-4 -119.133484l0 0c0 -11.871948 9.624084 -21.496063 21.496033 -21.496063z" fill-rule="evenodd"/><path fill="#ffffff" fill-opacity="0.0902" d="m919.3156 304.88278l0 0l0 0c5.701111 0 11.168701 2.26474 15.200012 6.296051c4.031311 4.0312805 6.2960815 9.498901 6.2960815 15.200012l0 213.62201c0 2.4414062E-4 -1.8310547E-4 3.6621094E-4 -3.6621094E-4 3.6621094E-4l-42.99176 -3.6621094E-4l0 0c-2.4414062E-4 0 -3.6621094E-4 -1.2207031E-4 -3.6621094E-4 -3.0517578E-4l3.6621094E-4 -213.6217l0 0c0 -11.871948 9.624084 -21.496063 21.496033 -21.496063z" fill-rule="evenodd"/><path fill="#ffffff" fill-opacity="0.0902" d="m919.3156 493.79614l0 0l0 0c5.701111 0 11.168701 2.26474 15.200012 6.296051c4.031311 4.0312805 6.2960815 9.498901 6.2960815 15.199982l0 24.70868c0 1.8310547E-4 -1.8310547E-4 3.6621094E-4 -3.6621094E-4 3.6621094E-4l-42.99176 -3.6621094E-4l0 0c-2.4414062E-4 0 -3.6621094E-4 -1.8310547E-4 -3.6621094E-4 -3.6621094E-4l3.6621094E-4 -24.708313l0 0c0 -11.871918 9.624084 -21.496033 21.496033 -21.496033z" fill-rule="evenodd"/><path fill="#000000" fill-opacity="0.0" d="m122.5538 169.43045l818.2992 0l0 196.62991l-818.2992 0z" fill-rule="evenodd"/><path fill="#ffffff" d="m138.11339 130.10603l-4.125 2.34375l0 -4.6093826l4.734375 -2.71875l4.578125 0l0 21.343758l-5.1875 0l0 -16.359375zm10.915024 11.84375l4.640625 0l0 4.515625l-4.640625 0l0 -4.515625z" fill-rule="nonzero"/><path fill="#ffffff" d="m181.81943 125.12165l14.625 0l0 4.0000076l-9.4375 0l0 4.640625l8.1875 0l0 4.03125l-8.1875 0l0 4.671875l9.4375 0l0 4.0l-14.625 0l0 -21.343758zm18.819794 6.5312576q1.25 -0.671875 3.8125 -1.25q2.5625 -0.578125 4.578125 -0.578125q3.421875 0 5.140625 1.34375q1.734375 1.34375 1.734375 4.421875l0 10.875l-4.765625 0l0 -9.921875q0 -2.78125 -3.140625 -2.78125q-0.703125 0 -1.4375 0.15625q-0.734375 0.15625 -1.15625 0.390625l0 12.15625l-4.765625 0l0 -14.8125zm27.081787 15.234375q-2.375 0 -4.296875 -0.921875q-1.921875 -0.9375 -3.0625 -2.8125q-1.125 -1.875 -1.125 -4.5625q0 -4.3125 2.296875 -6.53125q2.3125 -2.234375 6.140625 -2.234375q1.359375 0 2.734375 0.28125q1.375 0.265625 2.421875 0.75l0 4.09375q-1.3125 -0.578125 -2.34375 -0.875q-1.015625 -0.3125 -2.03125 -0.3125q-2.125 0 -3.3125 1.046875q-1.171875 1.03125 -1.171875 3.234375q0 2.46875 1.09375 3.65625q1.109375 1.1875 3.609375 1.1875q1.890625 0 4.1875 -1.28125l0 4.0625q-1.140625 0.609375 -2.375 0.90625q-1.234375 0.3125 -2.765625 0.3125zm15.767151 0.0625q-4.09375 0 -6.140625 -2.171875q-2.046875 -2.1875 -2.046875 -6.46875q0 -4.484375 2.03125 -6.53125q2.03125 -2.046875 6.15625 -2.046875q4.125 0 6.203125 2.09375q2.09375 2.09375 2.09375 6.484375q0 4.21875 -2.15625 6.4375q-2.140625 2.203125 -6.140625 2.203125zm0 -3.8125q1.765625 0 2.65625 -1.234375q0.890625 -1.234375 0.890625 -3.59375q0 -2.59375 -0.875 -3.6875q-0.875 -1.109375 -2.671875 -1.109375q-1.859375 0 -2.671875 1.109375q-0.8125 1.09375 -0.8125 3.6875q0 2.453125 0.84375 3.640625q0.84375 1.1875 2.640625 1.1875zm19.20816 3.8125q-3.5625 0 -5.59375 -1.65625q-2.03125 -1.671875 -2.03125 -5.0l0 -10.015625l4.765625 0l0 9.625q0 1.53125 0.6875 2.296875q0.6875 0.75 2.203125 0.75q1.5 0 2.1875 -0.75q0.6875 -0.765625 0.6875 -2.296875l0 -9.625l4.484375 0l0 10.015625q0 3.359375 -1.9375 5.015625q-1.9375 1.640625 -5.453125 1.640625zm11.607056 -15.296875q1.25 -0.671875 3.8125 -1.25q2.5625 -0.578125 4.578125 -0.578125q3.421875 0 5.140625 1.34375q1.734375 1.34375 1.734375 4.421875l0 10.875l-4.765625 0l0 -9.921875q0 -2.78125 -3.140625 -2.78125q-0.703125 0 -1.4375 0.15625q-0.734375 0.15625 -1.15625 0.390625l0 12.15625l-4.765625 0l0 -14.8125zm26.113037 15.453125q-2.78125 0 -4.171875 -1.3125q-1.390625 -1.3125 -1.390625 -3.78125l0 -8.09375l-2.375 0l0 -3.640625l2.375 0l0 -4.4531326l4.984375 0l0 4.4531326l3.5625 0l0 3.640625l-3.5625 0l0 7.484375q0 0.84375 0.34375 1.25q0.359375 0.390625 1.203125 0.390625q0.5 0 1.046875 -0.171875q0.546875 -0.1875 0.96875 -0.5l0 4.0625q-1.21875 0.671875 -2.984375 0.671875zm13.762909 -17.375q7.578125 0 7.484375 9.890625l-10.6875 0q0.609375 3.359375 4.515625 3.359375q1.1875 0 2.3125 -0.328125q1.140625 -0.34375 2.421875 -0.890625l0 4.09375q-2.625 1.09375 -5.890625 1.09375q-2.46875 0 -4.328125 -1.0q-1.84375 -1.015625 -2.875 -2.90625q-1.015625 -1.890625 -1.015625 -4.453125q0 -4.21875 2.09375 -6.53125q2.09375 -2.328125 5.96875 -2.328125zm-0.1875 3.640625q-2.5625 0 -3.046875 3.203125l5.984375 0q-0.21875 -1.71875 -0.90625 -2.453125q-0.6875 -0.75 -2.03125 -0.75zm10.999664 -1.40625q0.484375 -0.40625 1.671875 -0.921875q1.203125 -0.515625 2.6875 -0.875q1.5 -0.375 2.875 -0.375q2.65625 0 3.6875 0.796875l0 3.484375q-1.28125 -0.28125 -3.6875 -0.28125q-1.5 0 -2.46875 0.15625l0 12.515625l-4.765625 0l0 -14.5zm18.49289 14.984375q-1.53125 0 -2.6875 -0.3125q-1.140625 -0.296875 -2.5625 -0.875l0 -4.1875q2.59375 1.953125 5.453125 1.953125q1.078125 0 1.578125 -0.375q0.5 -0.375 0.5 -1.0q0 -0.75 -0.8125 -1.09375q-0.796875 -0.359375 -2.546875 -0.765625q-1.859375 -0.390625 -3.0625 -1.53125q-1.203125 -1.15625 -1.203125 -3.375q0 -1.875 0.953125 -3.09375q0.96875 -1.21875 2.421875 -1.78125q1.46875 -0.5625 3.03125 -0.5625q1.921875 0 3.109375 0.34375q1.203125 0.328125 2.359375 1.03125l0 3.75q-1.625 -0.890625 -2.53125 -1.28125q-0.890625 -0.390625 -2.078125 -0.390625q-1.1875 0 -1.765625 0.375q-0.5625 0.375 -0.5625 1.046875q0 0.796875 0.640625 1.171875q0.640625 0.359375 2.046875 0.734375q1.59375 0.421875 2.515625 0.828125q0.9375 0.390625 1.671875 1.375q0.734375 0.96875 0.734375 2.734375q-0.0625 2.75 -2.078125 4.015625q-2.015625 1.265625 -5.125 1.265625zm26.756042 0q-4.09375 0 -6.140625 -2.171875q-2.046875 -2.1875 -2.046875 -6.46875q0 -4.484375 2.03125 -6.53125q2.03125 -2.046875 6.15625 -2.046875q4.125 0 6.203125 2.09375q2.09375 2.09375 2.09375 6.484375q0 4.21875 -2.15625 6.4375q-2.140625 2.203125 -6.140625 2.203125zm0 -3.8125q1.765625 0 2.65625 -1.234375q0.890625 -1.234375 0.890625 -3.59375q0 -2.59375 -0.875 -3.6875q-0.875 -1.109375 -2.671875 -1.109375q-1.859375 0 -2.671875 1.109375q-0.8125 1.09375 -0.8125 3.6875q0 2.453125 0.84375 3.640625q0.84375 1.1875 2.640625 1.1875zm28.55191 -12.859375l-6.765625 16.1875l-4.765625 0l-6.75 -16.1875l5.15625 0l4.28125 10.9375l3.8125 -10.9375l5.03125 0zm10.075165 -0.546875q7.578125 0 7.484375 9.890625l-10.6875 0q0.609375 3.359375 4.515625 3.359375q1.1875 0 2.3125 -0.328125q1.140625 -0.34375 2.421875 -0.890625l0 4.09375q-2.625 1.09375 -5.890625 1.09375q-2.46875 0 -4.328125 -1.0q-1.84375 -1.015625 -2.875 -2.90625q-1.015625 -1.890625 -1.015625 -4.453125q0 -4.21875 2.09375 -6.53125q2.09375 -2.328125 5.96875 -2.328125zm-0.1875 3.640625q-2.5625 0 -3.046875 3.203125l5.984375 0q-0.21875 -1.71875 -0.90625 -2.453125q-0.6875 -0.75 -2.03125 -0.75zm10.999664 -1.40625q0.484375 -0.40625 1.671875 -0.921875q1.203125 -0.515625 2.6875 -0.875q1.5 -0.375 2.875 -0.375q2.65625 0 3.6875 0.796875l0 3.484375q-1.28125 -0.28125 -3.6875 -0.28125q-1.5 0 -2.46875 0.15625l0 12.515625l-4.765625 0l0 -14.5zm27.16867 -2.84375l-5.984375 0l0 -4.0000076l17.25 0l0 4.0000076l-6.078125 0l0 17.34375l-5.1875 0l0 -17.34375zm14.143402 -4.7343826l4.9375 0l0 3.6718826l-4.9375 0l0 -3.6718826zm0.09375 6.1093826l4.765625 0l0.046875 15.96875l-4.8125 0l0 -15.96875zm27.495789 -0.671875q3.390625 0 5.015625 1.328125q1.640625 1.328125 1.640625 4.4375l0 10.875l-4.765625 0l0 -9.921875q0 -2.78125 -3.140625 -2.78125q-1.3125 0 -2.203125 0.609375q0.0625 0.765625 0.0625 1.21875l0 10.875l-4.765625 0l0 -9.921875q0 -2.78125 -3.140625 -2.78125q-1.28125 0 -2.375 0.546875l0 12.15625l-4.765625 0l0 -14.8125q1.25 -0.671875 3.8125 -1.25q2.5625 -0.578125 4.578125 -0.578125q3.234375 0 4.765625 1.15625q1.25 -0.546875 2.640625 -0.84375q1.390625 -0.3125 2.640625 -0.3125zm18.046448 -0.09375q7.5781555 0 7.4844055 9.890625l-10.6875305 0q0.609375 3.359375 4.515625 3.359375q1.1875 0 2.3125 -0.328125q1.140625 -0.34375 2.4219055 -0.890625l0 4.09375q-2.6250305 1.09375 -5.8906555 1.09375q-2.46875 0 -4.328125 -1.0q-1.84375 -1.015625 -2.875 -2.90625q-1.015625 -1.890625 -1.015625 -4.453125q0 -4.21875 2.09375 -6.53125q2.09375 -2.328125 5.96875 -2.328125zm-0.1875 3.640625q-2.5625 0 -3.046875 3.203125l5.984375 0q-0.21875 -1.71875 -0.90625 -2.453125q-0.6875 -0.75 -2.03125 -0.75zm24.12857 16.703125q-1.921875 -2.171875 -3.34375 -5.71875q-1.40625 -3.546875 -1.40625 -7.6875q0 -4.09375 1.40625 -7.640625q1.421875 -3.5468826 3.34375 -5.7343826l3.96875 0q-1.28125 2.46875 -2.34375 5.9062576q-1.0625 3.4375 -1.0625 7.46875q0 4.0625 1.0625 7.515625q1.0625 3.4375 2.34375 5.890625l-3.96875 0zm18.874878 -12.765625l0 9.15625l-5.1875 0l0 -9.25l-8.09375 -12.093758l6.375 0l4.828125 8.093758l4.375 -8.093758l5.15625 0l-7.453125 12.187508zm17.472168 -7.578125q7.578125 0 7.484375 9.890625l-10.6875 0q0.609375 3.359375 4.515625 3.359375q1.1875 0 2.3125 -0.328125q1.140625 -0.34375 2.421875 -0.890625l0 4.09375q-2.625 1.09375 -5.890625 1.09375q-2.46875 0 -4.328125 -1.0q-1.84375 -1.015625 -2.875 -2.90625q-1.015625 -1.890625 -1.015625 -4.453125q0 -4.21875 2.09375 -6.53125q2.09375 -2.328125 5.96875 -2.328125zm-0.1875 3.640625q-2.5625 0 -3.046875 3.203125l5.984375 0q-0.21875 -1.71875 -0.90625 -2.453125q-0.6875 -0.75 -2.03125 -0.75zm18.077759 -3.578125q2.65625 0 4.828125 1.234375q2.171875 1.234375 2.171875 4.421875l-0.03125 7.65625q-0.03125 2.015625 -2.015625 2.9375q-1.984375 0.90625 -5.78125 0.90625q-7.109375 0 -7.109375 -5.546875q0 -2.328125 1.453125 -3.640625q1.453125 -1.3125 4.34375 -1.3125q1.171875 0 2.359375 0.3125q1.1875 0.296875 2.046875 0.78125l0 -1.03125q0 -2.78125 -3.578125 -2.78125q-1.375 0 -2.84375 0.5q-1.453125 0.484375 -2.3125 1.1875l0 -4.21875q0.859375 -0.578125 2.640625 -0.984375q1.78125 -0.421875 3.828125 -0.421875zm-0.671875 13.796875q1.65625 0 2.296875 -0.21875q0.640625 -0.234375 0.640625 -0.90625l0 -2.5q-1.109375 -0.375 -2.46875 -0.375q-1.5625 0 -2.28125 0.46875q-0.71875 0.453125 -0.71875 1.453125q0 0.921875 0.75 1.5q0.75 0.578125 1.78125 0.578125zm11.897827 -11.625q0.484375 -0.40625 1.671875 -0.921875q1.203125 -0.515625 2.6875 -0.875q1.5 -0.375 2.875 -0.375q2.65625 0 3.6875 0.796875l0 3.484375q-1.28125 -0.28125 -3.6875 -0.28125q-1.5 0 -2.46875 0.15625l0 12.515625l-4.765625 0l0 -14.5zm18.49292 14.984375q-1.53125 0 -2.6875 -0.3125q-1.140625 -0.296875 -2.5625 -0.875l0 -4.1875q2.59375 1.953125 5.453125 1.953125q1.078125 0 1.578125 -0.375q0.5 -0.375 0.5 -1.0q0 -0.75 -0.8125 -1.09375q-0.796875 -0.359375 -2.546875 -0.765625q-1.859375 -0.390625 -3.0625 -1.53125q-1.203125 -1.15625 -1.203125 -3.375q0 -1.875 0.953125 -3.09375q0.96875 -1.21875 2.421875 -1.78125q1.46875 -0.5625 3.03125 -0.5625q1.921875 0 3.109375 0.34375q1.203125 0.328125 2.359375 1.03125l0 3.75q-1.625 -0.890625 -2.53125 -1.28125q-0.890625 -0.390625 -2.078125 -0.390625q-1.1875 0 -1.765625 0.375q-0.5625 0.375 -0.5625 1.046875q0 0.796875 0.640625 1.171875q0.640625 0.359375 2.046875 0.734375q1.59375 0.421875 2.515625 0.828125q0.9375 0.390625 1.671875 1.375q0.734375 0.96875 0.734375 2.734375q-0.0625 2.75 -2.078125 4.015625q-2.015625 1.265625 -5.125 1.265625zm9.470886 3.125q1.3125 -2.484375 2.375 -5.90625q1.0625 -3.4375 1.0625 -7.46875q0 -4.0625 -1.0625 -7.484375q-1.0625 -3.4218826 -2.375 -5.9218826l4.0 0q1.890625 2.1875 3.296875 5.7343826q1.40625 3.546875 1.40625 7.671875q0 4.109375 -1.40625 7.65625q-1.40625 3.546875 -3.296875 5.71875l-4.0 0z" fill-rule="nonzero"/><path fill="#ffffff" d="m144.86925 217.73103l0 4.734375l-14.953125 0l0 -3.640625q1.984375 -1.15625 4.171875 -3.0625q2.203125 -1.90625 3.6875 -4.0q1.484375 -2.09375 1.484375 -3.765625q0 -1.625 -1.0 -2.4375q-0.984375 -0.828125 -2.671875 -0.828125q-1.40625 0 -2.671875 0.609375q-1.265625 0.609375 -2.796875 1.765625l0 -4.421875q3.21875 -1.984375 7.03125 -1.984375q3.515625 0 5.40625 1.71875q1.890625 1.703125 1.890625 4.84375q0 2.109375 -1.1875 4.0q-1.171875 1.890625 -2.84375 3.34375q-1.65625 1.453125 -3.96875 3.125l8.421875 0zm4.1591644 0.21875l4.640625 0l0 4.515625l-4.640625 0l0 -4.515625z" fill-rule="nonzero"/><path fill="#ffffff" d="m188.9913 222.91853q-2.421875 0 -4.21875 -0.34375q-1.796875 -0.328125 -3.328125 -1.140625l0 -4.921875q1.4375 1.15625 3.28125 1.78125q1.84375 0.625 3.59375 0.625q3.015625 0 3.015625 -2.28125q0 -0.984375 -0.96875 -1.546875q-0.953125 -0.5625 -3.09375 -1.265625q-1.0 -0.3125 -1.21875 -0.421875q-2.3125 -0.765625 -3.640625 -2.078125q-1.328125 -1.3125 -1.328125 -3.90625q0 -1.8125 0.890625 -3.359375q0.90625 -1.5625 2.765625 -2.484375q1.859375 -0.9375 4.578125 -0.9375q1.875 0 3.234375 0.34375q1.375 0.328125 2.90625 1.0625l0 4.96875q-1.34375 -1.03125 -2.890625 -1.703125q-1.53125 -0.671875 -3.09375 -0.671875q-1.40625 0 -2.265625 0.5625q-0.84375 0.5625 -0.84375 1.625q0 0.828125 0.515625 1.359375q0.515625 0.515625 1.265625 0.8125q0.75 0.28125 2.421875 0.796875q1.96875 0.578125 3.25 1.28125q1.28125 0.703125 2.046875 1.890625q0.78125 1.1875 0.78125 3.03125q0 1.953125 -0.90625 3.53125q-0.890625 1.5625 -2.640625 2.484375q-1.734375 0.90625 -4.109375 0.90625zm20.51091 -17.09375q2.8125 0 4.375 1.40625q1.578125 1.40625 1.578125 4.609375l0 10.625l-4.765625 0l0 -9.625q0 -3.078125 -3.078125 -3.078125q-0.734375 0 -1.5 0.234375q-0.765625 0.21875 -1.1875 0.53125l-0.0625 11.9375l-4.734375 0l0 -22.59375l4.796875 0l0 7.140625q2.21875 -1.1875 4.578125 -1.1875zm17.255157 -0.03125q2.65625 0 4.828125 1.234375q2.171875 1.234375 2.171875 4.421875l-0.03125 7.65625q-0.03125 2.015625 -2.015625 2.9375q-1.984375 0.90625 -5.78125 0.90625q-7.109375 0 -7.109375 -5.546875q0 -2.328125 1.453125 -3.640625q1.453125 -1.3125 4.34375 -1.3125q1.171875 0 2.359375 0.3125q1.1875 0.296875 2.046875 0.78125l0 -1.03125q0 -2.78125 -3.578125 -2.78125q-1.375 0 -2.84375 0.5q-1.453125 0.484375 -2.3125 1.1875l0 -4.21875q0.859375 -0.578125 2.640625 -0.984375q1.78125 -0.421875 3.828125 -0.421875zm-0.671875 13.796875q1.65625 0 2.296875 -0.21875q0.640625 -0.234375 0.640625 -0.90625l0 -2.5q-1.109375 -0.375 -2.46875 -0.375q-1.5625 0 -2.28125 0.46875q-0.71875 0.453125 -0.71875 1.453125q0 0.921875 0.75 1.5q0.75 0.578125 1.78125 0.578125zm19.616531 -13.859375q3.90625 0 6.046875 2.03125q2.140625 2.03125 2.140625 6.765625q0 3.8125 -1.921875 6.125q-1.921875 2.296875 -5.25 2.296875q-2.421875 0 -4.0625 -0.875l0 6.1875l-4.671875 0l0 -18.5625q0 -1.953125 2.15625 -2.9375q2.171875 -1.0 5.5625 -1.03125zm-0.390625 13.375q1.953125 0 2.875 -1.078125q0.9375 -1.09375 0.9375 -3.65625q0 -2.3125 -0.828125 -3.46875q-0.8125 -1.171875 -2.796875 -1.171875q-2.84375 0 -2.84375 1.09375l0 7.609375q0.578125 0.34375 1.28125 0.515625q0.703125 0.15625 1.375 0.15625zm19.075806 -13.375q7.578125 0 7.484375 9.890625l-10.6875 0q0.609375 3.359375 4.515625 3.359375q1.1875 0 2.3125 -0.328125q1.140625 -0.34375 2.421875 -0.890625l0 4.09375q-2.625 1.09375 -5.890625 1.09375q-2.46875 0 -4.328125 -1.0q-1.84375 -1.015625 -2.875 -2.90625q-1.015625 -1.890625 -1.015625 -4.453125q0 -4.21875 2.09375 -6.53125q2.09375 -2.328125 5.96875 -2.328125zm-0.1875 3.640625q-2.5625 0 -3.046875 3.203125l5.984375 0q-0.21875 -1.71875 -0.90625 -2.453125q-0.6875 -0.75 -2.03125 -0.75zm29.019165 -11.09375l3.421875 0l-11.78125 27.328125l-3.390625 0l11.75 -27.328125zm20.509552 24.828125q-2.78125 0 -4.171875 -1.3125q-1.390625 -1.3125 -1.390625 -3.78125l0 -8.09375l-2.375 0l0 -3.640625l2.375 0l0 -4.453125l4.984375 0l0 4.453125l3.5625 0l0 3.640625l-3.5625 0l0 7.484375q0 0.84375 0.34375 1.25q0.359375 0.390625 1.203125 0.390625q0.5 0 1.046875 -0.171875q0.546875 -0.1875 0.96875 -0.5l0 4.0625q-1.21875 0.671875 -2.984375 0.671875zm22.684784 -16.828125l-6.359375 16.4375q-2.34375 6.015625 -6.21875 6.015625q-1.65625 0 -2.875 -0.5625l0 -3.875q0.96875 0.34375 1.890625 0.34375q0.953125 0 1.609375 -0.546875q0.65625 -0.53125 1.046875 -1.78125l-6.5 -16.03125l5.4375 0l3.421875 10.625l3.4375 -10.625l5.109375 0zm10.601044 -0.546875q3.90625 0 6.046875 2.03125q2.140625 2.03125 2.140625 6.765625q0 3.8125 -1.921875 6.125q-1.921875 2.296875 -5.25 2.296875q-2.421875 0 -4.0625 -0.875l0 6.1875l-4.671875 0l0 -18.5625q0 -1.953125 2.15625 -2.9375q2.171875 -1.0 5.5625 -1.03125zm-0.390625 13.375q1.953125 0 2.875 -1.078125q0.9375 -1.09375 0.9375 -3.65625q0 -2.3125 -0.828125 -3.46875q-0.8125 -1.171875 -2.796875 -1.171875q-2.84375 0 -2.84375 1.09375l0 7.609375q0.578125 0.34375 1.28125 0.515625q0.703125 0.15625 1.375 0.15625zm19.075806 -13.375q7.578125 0 7.484375 9.890625l-10.6875 0q0.609375 3.359375 4.515625 3.359375q1.1875 0 2.3125 -0.328125q1.140625 -0.34375 2.421875 -0.890625l0 4.09375q-2.625 1.09375 -5.890625 1.09375q-2.46875 0 -4.328125 -1.0q-1.84375 -1.015625 -2.875 -2.90625q-1.015625 -1.890625 -1.015625 -4.453125q0 -4.21875 2.09375 -6.53125q2.09375 -2.328125 5.96875 -2.328125zm-0.1875 3.640625q-2.5625 0 -3.046875 3.203125l5.984375 0q-0.21875 -1.71875 -0.90625 -2.453125q-0.6875 -0.75 -2.03125 -0.75z" fill-rule="nonzero"/><path fill="#ffffff" d="m136.64462 298.7154q-3.046875 0 -6.25 -1.65625l0 -4.421875q1.796875 1.0625 3.15625 1.625q1.359375 0.5625 2.859375 0.5625q1.859375 0 2.890625 -0.6875q1.046875 -0.703125 1.046875 -1.9375q0 -2.828125 -4.03125 -2.828125l-3.15625 0l0 -3.890625l3.21875 0q1.515625 0 2.265625 -0.625q0.75 -0.625 0.75 -1.625q0 -1.25 -0.984375 -1.8125q-0.96875 -0.578125 -2.53125 -0.578125q-1.15625 0 -2.328125 0.28125q-1.171875 0.28125 -2.734375 1.03125l0 -3.9375q1.25 -0.640625 2.6875 -1.0q1.4375 -0.375 2.875 -0.375q3.203125 0 5.390625 1.46875q2.203125 1.46875 2.203125 4.34375q0 1.125 -0.53125 2.0625q-0.53125 0.921875 -1.28125 1.484375q-0.75 0.546875 -1.359375 0.6875q0.953125 0.28125 1.890625 1.015625q0.953125 0.734375 1.578125 1.90625q0.625 1.171875 0.625 2.640625q0 3.171875 -2.359375 4.71875q-2.34375 1.546875 -5.890625 1.546875zm12.383789 -4.765625l4.640625 0l0 4.515625l-4.640625 0l0 -4.515625z" fill-rule="nonzero"/><path fill="#ffffff" d="m181.81943 277.12164l8.578125 0q5.375 0 7.96875 2.671875q2.59375 2.671875 2.59375 8.015625q0 5.3125 -2.59375 7.984375q-2.59375 2.671875 -7.96875 2.671875l-8.578125 0l0 -21.34375zm7.96875 17.34375q2.921875 0 4.390625 -1.625q1.46875 -1.640625 1.46875 -5.03125q0 -3.453125 -1.46875 -5.0625q-1.46875 -1.625 -4.390625 -1.625l-2.78125 0l0 13.34375l2.78125 0zm22.252045 4.484375q-3.5625 0 -5.59375 -1.65625q-2.03125 -1.671875 -2.03125 -5.0l0 -10.015625l4.765625 0l0 9.625q0 1.53125 0.6875 2.296875q0.6875 0.75 2.203125 0.75q1.5 0 2.1875 -0.75q0.6875 -0.765625 0.6875 -2.296875l0 -9.625l4.484375 0l0 10.015625q0 3.359375 -1.9375 5.015625q-1.9375 1.640625 -5.453125 1.640625zm11.60704 -14.984375q0.484375 -0.40625 1.671875 -0.921875q1.203125 -0.515625 2.6875 -0.875q1.5 -0.375 2.875 -0.375q2.65625 0 3.6875 0.796875l0 3.484375q-1.28125 -0.28125 -3.6875 -0.28125q-1.5 0 -2.46875 0.15625l0 12.515625l-4.765625 0l0 -14.5zm20.774155 -2.171875q2.65625 0 4.828125 1.234375q2.171875 1.234375 2.171875 4.421875l-0.03125 7.65625q-0.03125 2.015625 -2.015625 2.9375q-1.984375 0.90625 -5.78125 0.90625q-7.109375 0 -7.109375 -5.546875q0 -2.328125 1.453125 -3.640625q1.453125 -1.3125 4.34375 -1.3125q1.171875 0 2.359375 0.3125q1.1875 0.296875 2.046875 0.78125l0 -1.03125q0 -2.78125 -3.578125 -2.78125q-1.375 0 -2.84375 0.5q-1.453125 0.484375 -2.3125 1.1875l0 -4.21875q0.859375 -0.578125 2.640625 -0.984375q1.78125 -0.421875 3.828125 -0.421875zm-0.671875 13.796875q1.65625 0 2.296875 -0.21875q0.640625 -0.234375 0.640625 -0.90625l0 -2.5q-1.109375 -0.375 -2.46875 -0.375q-1.5625 0 -2.28125 0.46875q-0.71875 0.453125 -0.71875 1.453125q0 0.921875 0.75 1.5q0.75 0.578125 1.78125 0.578125zm18.522797 3.515625q-2.78125 0 -4.171875 -1.3125q-1.390625 -1.3125 -1.390625 -3.78125l0 -8.09375l-2.3750153 0l0 -3.640625l2.3750153 0l0 -4.453125l4.984375 0l0 4.453125l3.5625 0l0 3.640625l-3.5625 0l0 7.484375q0 0.84375 0.34375 1.25q0.359375 0.390625 1.203125 0.390625q0.5 0 1.046875 -0.171875q0.546875 -0.1875 0.96875 -0.5l0 4.0625q-1.21875 0.671875 -2.984375 0.671875zm6.591034 -22.71875l4.9375 0l0 3.671875l-4.9375 0l0 -3.671875zm0.09375 6.109375l4.765625 0l0.046875 15.96875l-4.8125 0l0 -15.96875zm16.355133 16.453125q-4.09375 0 -6.140625 -2.171875q-2.046875 -2.1875 -2.046875 -6.46875q0 -4.484375 2.03125 -6.53125q2.03125 -2.046875 6.15625 -2.046875q4.125 0 6.203125 2.09375q2.09375 2.09375 2.09375 6.484375q0 4.21875 -2.15625 6.4375q-2.140625 2.203125 -6.140625 2.203125zm0 -3.8125q1.765625 0 2.65625 -1.234375q0.890625 -1.234375 0.890625 -3.59375q0 -2.59375 -0.875 -3.6875q-0.875 -1.109375 -2.671875 -1.109375q-1.859375 0 -2.671875 1.109375q-0.8125 1.09375 -0.8125 3.6875q0 2.453125 0.84375 3.640625q0.84375 1.1875 2.640625 1.1875zm11.58316 -11.484375q1.25 -0.671875 3.8125 -1.25q2.5625 -0.578125 4.578125 -0.578125q3.421875 0 5.140625 1.34375q1.734375 1.34375 1.734375 4.421875l0 10.875l-4.765625 0l0 -9.921875q0 -2.78125 -3.140625 -2.78125q-0.703125 0 -1.4375 0.15625q-0.734375 0.15625 -1.15625 0.390625l0 12.15625l-4.765625 0l0 -14.8125zm35.616943 15.296875q-4.09375 0 -6.140625 -2.171875q-2.046875 -2.1875 -2.046875 -6.46875q0 -4.484375 2.03125 -6.53125q2.03125 -2.046875 6.15625 -2.046875q4.125 0 6.203125 2.09375q2.09375 2.09375 2.09375 6.484375q0 4.21875 -2.15625 6.4375q-2.140625 2.203125 -6.140625 2.203125zm0 -3.8125q1.765625 0 2.65625 -1.234375q0.890625 -1.234375 0.890625 -3.59375q0 -2.59375 -0.875 -3.6875q-0.875 -1.109375 -2.671875 -1.109375q-1.859375 0 -2.671875 1.109375q-0.8125 1.09375 -0.8125 3.6875q0 2.453125 0.84375 3.640625q0.84375 1.1875 2.640625 1.1875zm12.80191 -9.21875l-2.375 0l0 -3.640625l2.40625 0l0 -0.390625q0.03125 -3.640625 1.671875 -5.0625q1.65625 -1.4375 4.5 -1.4375q0.515625 0 1.125 0.109375q0.609375 0.09375 0.984375 0.21875l0 4.1875q-0.34375 -0.34375 -0.703125 -0.515625q-0.34375 -0.1875 -0.890625 -0.1875q-0.890625 0 -1.40625 0.484375q-0.515625 0.484375 -0.515625 1.625l0 0.96875l3.515625 0l0 3.640625l-3.546875 0l0 12.546875l-4.765625 0l0 -12.546875zm27.393158 -4.1875q7.578125 0 7.484375 9.890625l-10.6875 0q0.609375 3.359375 4.515625 3.359375q1.1875 0 2.3125 -0.328125q1.140625 -0.34375 2.421875 -0.890625l0 4.09375q-2.625 1.09375 -5.890625 1.09375q-2.46875 0 -4.328125 -1.0q-1.84375 -1.015625 -2.875 -2.90625q-1.015625 -1.890625 -1.015625 -4.453125q0 -4.21875 2.09375 -6.53125q2.09375 -2.328125 5.96875 -2.328125zm-0.1875 3.640625q-2.5625 0 -3.046875 3.203125l5.984375 0q-0.21875 -1.71875 -0.90625 -2.453125q-0.6875 -0.75 -2.03125 -0.75zm10.999664 -1.71875q1.25 -0.671875 3.8125 -1.25q2.5625 -0.578125 4.578125 -0.578125q3.421875 0 5.140625 1.34375q1.734375 1.34375 1.734375 4.421875l0 10.875l-4.765625 0l0 -9.921875q0 -2.78125 -3.140625 -2.78125q-0.703125 0 -1.4375 0.15625q-0.734375 0.15625 -1.15625 0.390625l0 12.15625l-4.765625 0l0 -14.8125zm27.081787 15.234375q-2.375 0 -4.296875 -0.921875q-1.921875 -0.9375 -3.0625 -2.8125q-1.125 -1.875 -1.125 -4.5625q0 -4.3125 2.296875 -6.53125q2.3125 -2.234375 6.140625 -2.234375q1.359375 0 2.734375 0.28125q1.375 0.265625 2.421875 0.75l0 4.09375q-1.3125 -0.578125 -2.34375 -0.875q-1.015625 -0.3125 -2.03125 -0.3125q-2.125 0 -3.3125 1.046875q-1.171875 1.03125 -1.171875 3.234375q0 2.46875 1.09375 3.65625q1.109375 1.1875 3.609375 1.1875q1.890625 0 4.1875 -1.28125l0 4.0625q-1.140625 0.609375 -2.375 0.90625q-1.234375 0.3125 -2.765625 0.3125zm15.767151 0.0625q-4.09375 0 -6.140625 -2.171875q-2.046875 -2.1875 -2.046875 -6.46875q0 -4.484375 2.03125 -6.53125q2.03125 -2.046875 6.15625 -2.046875q4.125 0 6.203125 2.09375q2.09375 2.09375 2.09375 6.484375q0 4.21875 -2.15625 6.4375q-2.140625 2.203125 -6.140625 2.203125zm0 -3.8125q1.765625 0 2.65625 -1.234375q0.890625 -1.234375 0.890625 -3.59375q0 -2.59375 -0.875 -3.6875q-0.875 -1.109375 -2.671875 -1.109375q-1.859375 0 -2.671875 1.109375q-0.8125 1.09375 -0.8125 3.6875q0 2.453125 0.84375 3.640625q0.84375 1.1875 2.640625 1.1875zm19.20816 3.8125q-3.5625 0 -5.59375 -1.65625q-2.03125 -1.671875 -2.03125 -5.0l0 -10.015625l4.765625 0l0 9.625q0 1.53125 0.6875 2.296875q0.6875 0.75 2.203125 0.75q1.5 0 2.1875 -0.75q0.6875 -0.765625 0.6875 -2.296875l0 -9.625l4.484375 0l0 10.015625q0 3.359375 -1.9375 5.015625q-1.9375 1.640625 -5.453125 1.640625zm11.607056 -15.296875q1.25 -0.671875 3.8125 -1.25q2.5625 -0.578125 4.578125 -0.578125q3.421875 0 5.140625 1.34375q1.734375 1.34375 1.734375 4.421875l0 10.875l-4.765625 0l0 -9.921875q0 -2.78125 -3.140625 -2.78125q-0.703125 0 -1.4375 0.15625q-0.734375 0.15625 -1.15625 0.390625l0 12.15625l-4.765625 0l0 -14.8125zm26.113037 15.453125q-2.78125 0 -4.171875 -1.3125q-1.390625 -1.3125 -1.390625 -3.78125l0 -8.09375l-2.375 0l0 -3.640625l2.375 0l0 -4.453125l4.984375 0l0 4.453125l3.5625 0l0 3.640625l-3.5625 0l0 7.484375q0 0.84375 0.34375 1.25q0.359375 0.390625 1.203125 0.390625q0.5 0 1.046875 -0.171875q0.546875 -0.1875 0.96875 -0.5l0 4.0625q-1.21875 0.671875 -2.984375 0.671875zm13.762909 -17.375q7.578125 0 7.484375 9.890625l-10.6875 0q0.609375 3.359375 4.515625 3.359375q1.1875 0 2.3125 -0.328125q1.140625 -0.34375 2.421875 -0.890625l0 4.09375q-2.625 1.09375 -5.890625 1.09375q-2.46875 0 -4.328125 -1.0q-1.84375 -1.015625 -2.875 -2.90625q-1.015625 -1.890625 -1.015625 -4.453125q0 -4.21875 2.09375 -6.53125q2.09375 -2.328125 5.96875 -2.328125zm-0.1875 3.640625q-2.5625 0 -3.046875 3.203125l5.984375 0q-0.21875 -1.71875 -0.90625 -2.453125q-0.6875 -0.75 -2.03125 -0.75zm10.999664 -1.40625q0.484375 -0.40625 1.671875 -0.921875q1.203125 -0.515625 2.6875305 -0.875q1.5 -0.375 2.875 -0.375q2.65625 0 3.6875 0.796875l0 3.484375q-1.28125 -0.28125 -3.6875 -0.28125q-1.5 0 -2.46875 0.15625l0 12.515625l-4.7656555 0l0 -14.5zm26.824982 18.109375q-1.921875 -2.171875 -3.34375 -5.71875q-1.40625 -3.546875 -1.40625 -7.6875q0 -4.09375 1.40625 -7.640625q1.421875 -3.546875 3.34375 -5.734375l3.96875 0q-1.28125 2.46875 -2.34375 5.90625q-1.0625 3.4375 -1.0625 7.46875q0 4.0625 1.0625 7.515625q1.0625 3.4375 2.34375 5.890625l-3.96875 0zm16.406128 -20.25q2.8125 0 4.375 1.40625q1.578125 1.40625 1.578125 4.609375l0 10.625l-4.765625 0l0 -9.625q0 -3.078125 -3.078125 -3.078125q-0.734375 0 -1.5 0.234375q-0.765625 0.21875 -1.1875 0.53125l-0.0625 11.9375l-4.734375 0l0 -22.59375l4.796875 0l0 7.140625q2.21875 -1.1875 4.578125 -1.1875zm17.473877 17.125q-4.09375 0 -6.140625 -2.171875q-2.046875 -2.1875 -2.046875 -6.46875q0 -4.484375 2.03125 -6.53125q2.03125 -2.046875 6.15625 -2.046875q4.125 0 6.203125 2.09375q2.09375 2.09375 2.09375 6.484375q0 4.21875 -2.15625 6.4375q-2.140625 2.203125 -6.140625 2.203125zm0 -3.8125q1.765625 0 2.65625 -1.234375q0.890625 -1.234375 0.890625 -3.59375q0 -2.59375 -0.875 -3.6875q-0.875 -1.109375 -2.671875 -1.109375q-1.859375 0 -2.671875 1.109375q-0.8125 1.09375 -0.8125 3.6875q0 2.453125 0.84375 3.640625q0.84375 1.1875 2.640625 1.1875zm35.130066 -12.859375l-5.375 16.1875l-4.3125 0l-2.78125 -9.09375l-2.65625 9.09375l-4.328125 0l-5.40625 -16.1875l5.125 0l2.84375 10.296875l2.6875 -10.296875l3.515625 0l2.796875 10.5625l2.875 -10.5625l5.015625 0zm11.749207 16.1875l0 -22.296875l4.734375 0l0 22.296875l-4.734375 0zm16.256897 0.484375q-4.09375 0 -6.140625 -2.171875q-2.046875 -2.1875 -2.046875 -6.46875q0 -4.484375 2.03125 -6.53125q2.03125 -2.046875 6.15625 -2.046875q4.125 0 6.203125 2.09375q2.09375 2.09375 2.09375 6.484375q0 4.21875 -2.15625 6.4375q-2.140625 2.203125 -6.140625 2.203125zm0 -3.8125q1.765625 0 2.65625 -1.234375q0.890625 -1.234375 0.890625 -3.59375q0 -2.59375 -0.875 -3.6875q-0.875 -1.109375 -2.671875 -1.109375q-1.859375 0 -2.671875 1.109375q-0.8125 1.09375 -0.8125 3.6875q0 2.453125 0.84375 3.640625q0.84375 1.1875 2.640625 1.1875zm11.58313 -11.484375q1.25 -0.671875 3.8125 -1.25q2.5625 -0.578125 4.578125 -0.578125q3.421875 0 5.140625 1.34375q1.734375 1.34375 1.734375 4.421875l0 10.875l-4.765625 0l0 -9.921875q0 -2.78125 -3.140625 -2.78125q-0.703125 0 -1.4375 0.15625q-0.734375 0.15625 -1.15625 0.390625l0 12.15625l-4.765625 0l0 -14.8125zm27.644287 -1.828125q3.140625 0 4.984375 1.140625q1.84375 1.125 1.84375 3.21875l0 12.46875q0 3.359375 -2.15625 5.15625q-2.140625 1.796875 -6.109375 1.796875q-2.046875 0 -3.578125 -0.296875q-1.53125 -0.28125 -2.40625 -0.765625l0 -4.1875q0.9375 0.453125 2.59375 0.859375q1.671875 0.421875 3.203125 0.421875q2.078125 0 2.921875 -0.84375q0.859375 -0.828125 0.859375 -2.328125l0 -0.921875q-1.640625 1.40625 -4.109375 1.40625q-3.390625 -0.171875 -5.25 -2.171875q-1.84375 -2.0 -1.84375 -5.890625q0 -5.0625 2.3125 -7.0625q2.328125 -2.0 6.734375 -2.0zm-4.3125 8.765625q0 2.21875 0.96875 3.515625q0.984375 1.28125 2.609375 1.28125q1.609375 0 2.890625 -0.734375l0 -7.421875q0 -1.625 -2.5625 -1.625q-3.90625 0 -3.90625 4.984375zm47.51123 -8.3125l-5.375 16.1875l-4.3125 0l-2.78125 -9.09375l-2.65625 9.09375l-4.328125 0l-5.40625 -16.1875l5.125 0l2.84375 10.296875l2.6875 -10.296875l3.515625 0l2.796875 10.5625l2.875 -10.5625l5.015625 0zm9.9953 -0.484375q2.65625 0 4.828125 1.234375q2.171875 1.234375 2.171875 4.421875l-0.03125 7.65625q-0.03125 2.015625 -2.015625 2.9375q-1.984375 0.90625 -5.78125 0.90625q-7.109375 0 -7.109375 -5.546875q0 -2.328125 1.453125 -3.640625q1.453125 -1.3125 4.34375 -1.3125q1.171875 0 2.359375 0.3125q1.1875 0.296875 2.046875 0.78125l0 -1.03125q0 -2.78125 -3.578125 -2.78125q-1.375 0 -2.84375 0.5q-1.453125 0.484375 -2.3125 1.1875l0 -4.21875q0.859375 -0.578125 2.640625 -0.984375q1.78125 -0.421875 3.828125 -0.421875zm-0.671875 13.796875q1.65625 0 2.296875 -0.21875q0.640625 -0.234375 0.640625 -0.90625l0 -2.5q-1.109375 -0.375 -2.46875 -0.375q-1.5625 0 -2.28125 0.46875q-0.71875 0.453125 -0.71875 1.453125q0 0.921875 0.75 1.5q0.75 0.578125 1.78125 0.578125zm16.694641 3.359375q-1.53125 0 -2.6875 -0.3125q-1.140625 -0.296875 -2.5625 -0.875l0 -4.1875q2.59375 1.953125 5.453125 1.953125q1.078125 0 1.578125 -0.375q0.5 -0.375 0.5 -1.0q0 -0.75 -0.8125 -1.09375q-0.796875 -0.359375 -2.546875 -0.765625q-1.859375 -0.390625 -3.0625 -1.53125q-1.203125 -1.15625 -1.203125 -3.375q0 -1.875 0.953125 -3.09375q0.96875 -1.21875 2.421875 -1.78125q1.46875 -0.5625 3.03125 -0.5625q1.921875 0 3.109375 0.34375q1.203125 0.328125 2.359375 1.03125l0 3.75q-1.625 -0.890625 -2.53125 -1.28125q-0.890625 -0.390625 -2.078125 -0.390625q-1.1875 0 -1.765625 0.375q-0.5625 0.375 -0.5625 1.046875q0 0.796875 0.640625 1.171875q0.640625 0.359375 2.046875 0.734375q1.59375 0.421875 2.515625 0.828125q0.9375 0.390625 1.671875 1.375q0.734375 0.96875 0.734375 2.734375q-0.0625 2.75 -2.078125 4.015625q-2.015625 1.265625 -5.125 1.265625zm26.084167 0.15625q-2.78125 0 -4.171875 -1.3125q-1.390625 -1.3125 -1.390625 -3.78125l0 -8.09375l-2.375 0l0 -3.640625l2.375 0l0 -4.453125l4.984375 0l0 4.453125l3.5625 0l0 3.640625l-3.5625 0l0 7.484375q0 0.84375 0.34375 1.25q0.359375 0.390625 1.203125 0.390625q0.5 0 1.046875 -0.171875q0.546875 -0.1875 0.96875 -0.5l0 4.0625q-1.21875 0.671875 -2.984375 0.671875zm15.966003 -17.28125q2.8125 0 4.375 1.40625q1.578125 1.40625 1.578125 4.609375l0 10.625l-4.765625 0l0 -9.625q0 -3.078125 -3.078125 -3.078125q-0.734375 0 -1.5 0.234375q-0.765625 0.21875 -1.1875 0.53125l-0.0625 11.9375l-4.734375 0l0 -22.59375l4.796875 0l0 7.140625q2.21875 -1.1875 4.578125 -1.1875zm17.348877 -0.09375q7.578125 0 7.484375 9.890625l-10.6875 0q0.609375 3.359375 4.515625 3.359375q1.1875 0 2.3125 -0.328125q1.140625 -0.34375 2.421875 -0.890625l0 4.09375q-2.625 1.09375 -5.890625 1.09375q-2.46875 0 -4.328125 -1.0q-1.84375 -1.015625 -2.875 -2.90625q-1.015625 -1.890625 -1.015625 -4.453125q0 -4.21875 2.09375 -6.53125q2.09375 -2.328125 5.96875 -2.328125zm-0.1875 3.640625q-2.5625 0 -3.046875 3.203125l5.984375 0q-0.21875 -1.71875 -0.90625 -2.453125q-0.6875 -0.75 -2.03125 -0.75zm29.81604 13.765625q-4.953125 0 -7.390625 -2.109375q-2.4375 -2.109375 -2.4375 -6.53125l0 -13.375l5.421875 0l0 13.15625q0 2.453125 0.984375 3.640625q0.984375 1.1875 3.171875 1.1875q2.015625 0 3.09375 -1.21875q1.09375 -1.21875 1.09375 -3.609375l0 -13.15625l4.921875 0l0 13.375q0 4.328125 -2.390625 6.484375q-2.375 2.15625 -6.46875 2.15625zm13.403931 -22.015625l14.53125 0l0 4.0l-9.34375 0l0 5.09375l8.0625 0l0 4.0625l-8.0625 0l0 8.1875l-5.1875 0l0 -21.34375zm27.755676 21.796875q-4.90625 0 -7.65625 -2.78125q-2.75 -2.796875 -2.75 -8.328125q0 -5.4375 2.703125 -8.265625q2.703125 -2.84375 7.703125 -2.84375q4.890625 0 7.65625 2.78125q2.765625 2.765625 2.765625 8.296875q0 5.4375 -2.703125 8.296875q-2.703125 2.84375 -7.71875 2.84375zm0 -4.265625q2.515625 0 3.796875 -1.59375q1.28125 -1.609375 1.28125 -5.28125q0 -3.6875 -1.265625 -5.265625q-1.25 -1.578125 -3.8125 -1.578125q-2.53125 0 -3.796875 1.59375q-1.265625 1.59375 -1.265625 5.3125q0 3.65625 1.265625 5.234375q1.265625 1.578125 3.796875 1.578125z" fill-rule="nonzero"/><path fill="#ffffff" d="m188.96005 336.94977q-4.09375 0 -6.140625 -2.171875q-2.046875 -2.1875 -2.046875 -6.46875q0 -4.484375 2.03125 -6.53125q2.03125 -2.046875 6.15625 -2.046875q4.125 0 6.203125 2.09375q2.09375 2.09375 2.09375 6.484375q0 4.21875 -2.15625 6.4375q-2.140625 2.203125 -6.140625 2.203125zm0 -3.8125q1.765625 0 2.65625 -1.234375q0.890625 -1.234375 0.890625 -3.59375q0 -2.59375 -0.875 -3.6875q-0.875 -1.109375 -2.671875 -1.109375q-1.859375 0 -2.671875 1.109375q-0.8125 1.09375 -0.8125 3.6875q0 2.453125 0.84375 3.640625q0.84375 1.1875 2.640625 1.1875zm20.192535 -13.3125q3.546875 0 5.4375 2.1875q1.890625 2.171875 1.890625 6.296875q-0.03125 8.640625 -8.515625 8.640625q-7.421875 0 -7.421875 -4.234375l0 -18.421875l4.671875 0l0 6.5625q0.859375 -0.515625 1.96875 -0.765625q1.109375 -0.265625 1.96875 -0.265625zm-1.25 13.15625q3.8125 0 3.8125 -4.390625q0 -4.953125 -3.71875 -4.953125q-0.671875 0 -1.4375 0.171875q-0.765625 0.171875 -1.34375 0.5l0 7.171875q0 1.5 2.6875 1.5zm16.66954 3.96875q-1.53125 0 -2.6875 -0.3125q-1.140625 -0.296875 -2.5625 -0.875l0 -4.1875q2.59375 1.953125 5.453125 1.953125q1.078125 0 1.578125 -0.375q0.5 -0.375 0.5 -1.0q0 -0.75 -0.8125 -1.09375q-0.796875 -0.359375 -2.546875 -0.765625q-1.859375 -0.390625 -3.0625 -1.53125q-1.203125 -1.15625 -1.203125 -3.375q0 -1.875 0.953125 -3.09375q0.96875 -1.21875 2.421875 -1.78125q1.46875 -0.5625 3.03125 -0.5625q1.921875 0 3.109375 0.34375q1.203125 0.328125 2.359375 1.03125l0 3.75q-1.625 -0.890625 -2.53125 -1.28125q-0.890625 -0.390625 -2.078125 -0.390625q-1.1875 0 -1.765625 0.375q-0.5625 0.375 -0.5625 1.046875q0 0.796875 0.640625 1.171875q0.640625 0.359375 2.046875 0.734375q1.59375 0.421875 2.515625 0.828125q0.9375 0.390625 1.671875 1.375q0.734375 0.96875 0.734375 2.734375q-0.0625 2.75 -2.078125 4.015625q-2.015625 1.265625 -5.125 1.265625zm17.799026 -17.21875q7.578125 0 7.484375 9.890625l-10.6875 0q0.609375 3.359375 4.515625 3.359375q1.1875 0 2.3125 -0.328125q1.140625 -0.34375 2.421875 -0.890625l0 4.09375q-2.625 1.09375 -5.890625 1.09375q-2.46875 0 -4.328125 -1.0q-1.84375 -1.015625 -2.875 -2.90625q-1.015625 -1.890625 -1.015625 -4.453125q0 -4.21875 2.09375 -6.53125q2.09375 -2.328125 5.96875 -2.328125zm-0.1875 3.640625q-2.5625 0 -3.046875 3.203125l5.984375 0q-0.21875 -1.71875 -0.90625 -2.453125q-0.6875 -0.75 -2.03125 -0.75zm10.999664 -1.40625q0.484375 -0.40625 1.671875 -0.921875q1.203125 -0.515625 2.6875 -0.875q1.5 -0.375 2.875 -0.375q2.65625 0 3.6875 0.796875l0 3.484375q-1.28125 -0.28125 -3.6875 -0.28125q-1.5 0 -2.46875 0.15625l0 12.515625l-4.765625 0l0 -14.5zm30.664795 -1.6875l-6.765625 16.1875l-4.765625 0l-6.75 -16.1875l5.15625 0l4.28125 10.9375l3.8125 -10.9375l5.03125 0zm10.075165 -0.546875q7.578125 0 7.484375 9.890625l-10.6875 0q0.609375 3.359375 4.515625 3.359375q1.1875 0 2.3125 -0.328125q1.140625 -0.34375 2.421875 -0.890625l0 4.09375q-2.625 1.09375 -5.890625 1.09375q-2.46875 0 -4.328125 -1.0q-1.84375 -1.015625 -2.875 -2.90625q-1.015625 -1.890625 -1.015625 -4.453125q0 -4.21875 2.09375 -6.53125q2.09375 -2.328125 5.96875 -2.328125zm-0.1875 3.640625q-2.5625 0 -3.046875 3.203125l5.984375 0q-0.21875 -1.71875 -0.90625 -2.453125q-0.6875 -0.75 -2.03125 -0.75zm26.26529 -9.75l0 18.625q0 1.5 -1.0625 2.5625q-1.046875 1.046875 -2.78125 1.59375q-1.71875 0.546875 -3.671875 0.546875q-4.125 0 -6.390625 -1.953125q-2.25 -1.953125 -2.25 -6.75q0 -4.03125 1.96875 -6.25q1.96875 -2.234375 5.765625 -2.234375q2.28125 0 3.6875 0.828125l0 -6.96875l4.734375 0zm-4.734375 10.65625q-1.28125 -0.671875 -2.5 -0.671875q-2.140625 0 -3.140625 1.09375q-0.984375 1.078125 -0.984375 3.671875q0 2.234375 0.921875 3.40625q0.9375 1.171875 3.109375 1.171875q1.1875 0 1.890625 -0.3125q0.703125 -0.328125 0.703125 -0.90625l0 -7.453125zm12.613037 5.5q0 -1.59375 0.421875 -2.71875q0.4375 -1.125 1.03125 -1.8125q0.59375 -0.6875 1.515625 -1.515625q0.921875 -0.828125 1.34375 -1.390625q0.421875 -0.5625 0.421875 -1.359375q0 -1.46875 -0.890625 -2.046875q-0.875 -0.578125 -2.40625 -0.578125q-1.25 0 -2.5 0.4375q-1.25 0.421875 -2.140625 1.09375l0 -3.609375q0.734375 -0.515625 2.171875 -0.953125q1.4375 -0.453125 3.015625 -0.453125q3.03125 0 4.765625 1.65625q1.75 1.640625 1.75 4.453125q0 1.078125 -0.34375 1.90625q-0.328125 0.8125 -0.796875 1.359375q-0.453125 0.53125 -1.25 1.28125q-1.15625 1.015625 -1.75 1.953125q-0.59375 0.921875 -0.59375 2.421875l0 0.640625l-3.765625 0l0 -0.765625zm-0.234375 3.046875l4.234375 0l0 3.640625l-4.234375 0l0 -3.640625zm11.837891 7.25q1.3125 -2.484375 2.375 -5.90625q1.0625 -3.4375 1.0625 -7.46875q0 -4.0625 -1.0625 -7.484375q-1.0625 -3.421875 -2.375 -5.921875l4.0 0q1.890625 2.1875 3.296875 5.734375q1.40625 3.546875 1.40625 7.671875q0 4.109375 -1.40625 7.65625q-1.40625 3.546875 -3.296875 5.71875l-4.0 0z" fill-rule="nonzero"/><path fill="#ffffff" d="m138.05525 406.73102l-9.1875 0l0 -3.703125l9.5625 -11.90625l4.828125 0l0 11.71875l2.703125 0l0 3.890625l-2.703125 0l0 5.734375l-5.203125 0l0 -5.734375zm0 -3.890625l0 -5.921875l-4.78125 5.921875l4.78125 0zm10.97316 5.109375l4.640625 0l0 4.515625l-4.640625 0l0 -4.515625z" fill-rule="nonzero"/><path fill="#ffffff" d="m181.81943 391.12164l8.578125 0q5.375 0 7.96875 2.671875q2.59375 2.671875 2.59375 8.015625q0 5.3125 -2.59375 7.984375q-2.59375 2.671875 -7.96875 2.671875l-8.578125 0l0 -21.34375zm7.96875 17.34375q2.921875 0 4.390625 -1.625q1.46875 -1.640625 1.46875 -5.03125q0 -3.453125 -1.46875 -5.0625q-1.46875 -1.625 -4.390625 -1.625l-2.78125 0l0 13.34375l2.78125 0zm14.627045 -18.078125l4.9375 0l0 3.671875l-4.9375 0l0 -3.671875zm0.09375 6.109375l4.765625 0l0.046875 15.96875l-4.8125 0l0 -15.96875zm13.855148 16.453125q-1.53125 0 -2.6875 -0.3125q-1.140625 -0.296875 -2.5625 -0.875l0 -4.1875q2.59375 1.953125 5.453125 1.953125q1.078125 0 1.578125 -0.375q0.5 -0.375 0.5 -1.0q0 -0.75 -0.8125 -1.09375q-0.796875 -0.359375 -2.546875 -0.765625q-1.859375 -0.390625 -3.0625 -1.53125q-1.203125 -1.15625 -1.203125 -3.375q0 -1.875 0.953125 -3.09375q0.96875 -1.21875 2.421875 -1.78125q1.46875 -0.5625 3.03125 -0.5625q1.921875 0 3.109375 0.34375q1.203125 0.328125 2.359375 1.03125l0 3.75q-1.625 -0.890625 -2.53125 -1.28125q-0.890625 -0.390625 -2.078125 -0.390625q-1.1875 0 -1.765625 0.375q-0.5625 0.375 -0.5625 1.046875q0 0.796875 0.640625 1.171875q0.640625 0.359375 2.046875 0.734375q1.59375 0.421875 2.515625 0.828125q0.9375 0.390625 1.671875 1.375q0.734375 0.96875 0.734375 2.734375q-0.0625 2.75 -2.078125 4.015625q-2.015625 1.265625 -5.125 1.265625zm17.252151 0.15625q-2.78125 0 -4.171875 -1.3125q-1.390625 -1.3125 -1.390625 -3.78125l0 -8.09375l-2.375 0l0 -3.640625l2.375 0l0 -4.453125l4.984375 0l0 4.453125l3.5625 0l0 3.640625l-3.5625 0l0 7.484375q0 0.84375 0.34375 1.25q0.359375 0.390625 1.203125 0.390625q0.5 0 1.046875 -0.171875q0.546875 -0.1875 0.96875 -0.5l0 4.0625q-1.21875 0.671875 -2.984375 0.671875zm13.669159 -17.3125q2.65625 0 4.828125 1.234375q2.171875 1.234375 2.171875 4.421875l-0.03125 7.65625q-0.03125 2.015625 -2.015625 2.9375q-1.984375 0.90625 -5.78125 0.90625q-7.109375 0 -7.109375 -5.546875q0 -2.328125 1.453125 -3.640625q1.453125 -1.3125 4.34375 -1.3125q1.171875 0 2.359375 0.3125q1.1875 0.296875 2.046875 0.78125l0 -1.03125q0 -2.78125 -3.578125 -2.78125q-1.375 0 -2.84375 0.5q-1.453125 0.484375 -2.3125 1.1875l0 -4.21875q0.859375 -0.578125 2.640625 -0.984375q1.78125 -0.421875 3.828125 -0.421875zm-0.671875 13.796875q1.65625 0 2.296875 -0.21875q0.640625 -0.234375 0.640625 -0.90625l0 -2.5q-1.109375 -0.375 -2.46875 -0.375q-1.5625 0 -2.28125 0.46875q-0.71875 0.453125 -0.71875 1.453125q0 0.921875 0.75 1.5q0.75 0.578125 1.78125 0.578125zm11.897797 -11.9375q1.25 -0.671875 3.8125 -1.25q2.5625 -0.578125 4.578125 -0.578125q3.421875 0 5.140625 1.34375q1.734375 1.34375 1.734375 4.421875l0 10.875l-4.765625 0l0 -9.921875q0 -2.78125 -3.140625 -2.78125q-0.703125 0 -1.4375 0.15625q-0.734375 0.15625 -1.15625 0.390625l0 12.15625l-4.765625 0l0 -14.8125zm27.081787 15.234375q-2.375 0 -4.296875 -0.921875q-1.921875 -0.9375 -3.0625 -2.8125q-1.125 -1.875 -1.125 -4.5625q0 -4.3125 2.296875 -6.53125q2.3125 -2.234375 6.140625 -2.234375q1.359375 0 2.734375 0.28125q1.375 0.265625 2.421875 0.75l0 4.09375q-1.3125 -0.578125 -2.34375 -0.875q-1.015625 -0.3125 -2.03125 -0.3125q-2.125 0 -3.3125 1.046875q-1.171875 1.03125 -1.171875 3.234375q0 2.46875 1.09375 3.65625q1.109375 1.1875 3.609375 1.1875q1.890625 0 4.1875 -1.28125l0 4.0625q-1.140625 0.609375 -2.375 0.90625q-1.234375 0.3125 -2.765625 0.3125zm15.642151 -17.15625q7.578125 0 7.484375 9.890625l-10.6875 0q0.609375 3.359375 4.515625 3.359375q1.1875 0 2.3125 -0.328125q1.140625 -0.34375 2.421875 -0.890625l0 4.09375q-2.625 1.09375 -5.890625 1.09375q-2.46875 0 -4.328125 -1.0q-1.84375 -1.015625 -2.875 -2.90625q-1.015625 -1.890625 -1.015625 -4.453125q0 -4.21875 2.09375 -6.53125q2.09375 -2.328125 5.96875 -2.328125zm-0.1875 3.640625q-2.5625 0 -3.046875 3.203125l5.984375 0q-0.21875 -1.71875 -0.90625 -2.453125q-0.6875 -0.75 -2.03125 -0.75zm21.050415 0.546875l-2.375 0l0 -3.640625l2.40625 0l0 -0.390625q0.03125 -3.640625 1.671875 -5.0625q1.65625 -1.4375 4.5 -1.4375q0.515625 0 1.125 0.109375q0.609375 0.09375 0.984375 0.21875l0 4.1875q-0.34375 -0.34375 -0.703125 -0.515625q-0.34375 -0.1875 -0.890625 -0.1875q-0.890625 0 -1.40625 0.484375q-0.515625 0.484375 -0.515625 1.625l0 0.96875l3.515625 0l0 3.640625l-3.546875 0l0 12.546875l-4.765625 0l0 -12.546875zm11.389282 -1.953125q0.484375 -0.40625 1.671875 -0.921875q1.203125 -0.515625 2.6875 -0.875q1.5 -0.375 2.875 -0.375q2.65625 0 3.6875 0.796875l0 3.484375q-1.28125 -0.28125 -3.6875 -0.28125q-1.5 0 -2.46875 0.15625l0 12.515625l-4.765625 0l0 -14.5zm20.99292 14.984375q-4.09375 0 -6.140625 -2.171875q-2.046875 -2.1875 -2.046875 -6.46875q0 -4.484375 2.03125 -6.53125q2.03125 -2.046875 6.15625 -2.046875q4.125 0 6.203125 2.09375q2.09375 2.09375 2.09375 6.484375q0 4.21875 -2.15625 6.4375q-2.140625 2.203125 -6.140625 2.203125zm0 -3.8125q1.765625 0 2.65625 -1.234375q0.890625 -1.234375 0.890625 -3.59375q0 -2.59375 -0.875 -3.6875q-0.875 -1.109375 -2.671875 -1.109375q-1.859375 0 -2.671875 1.109375q-0.8125 1.09375 -0.8125 3.6875q0 2.453125 0.84375 3.640625q0.84375 1.1875 2.640625 1.1875zm30.02066 -13.3125q3.390625 0 5.015625 1.328125q1.640625 1.328125 1.640625 4.4375l0 10.875l-4.765625 0l0 -9.921875q0 -2.78125 -3.140625 -2.78125q-1.3125 0 -2.203125 0.609375q0.0625 0.765625 0.0625 1.21875l0 10.875l-4.765625 0l0 -9.921875q0 -2.78125 -3.140625 -2.78125q-1.28125 0 -2.375 0.546875l0 12.15625l-4.765625 0l0 -14.8125q1.25 -0.671875 3.8125 -1.25q2.5625 -0.578125 4.578125 -0.578125q3.234375 0 4.765625 1.15625q1.25 -0.546875 2.640625 -0.84375q1.390625 -0.3125 2.640625 -0.3125zm26.331543 17.28125q-2.78125 0 -4.171875 -1.3125q-1.390625 -1.3125 -1.390625 -3.78125l0 -8.09375l-2.375 0l0 -3.640625l2.375 0l0 -4.453125l4.984375 0l0 4.453125l3.5625 0l0 3.640625l-3.5625 0l0 7.484375q0 0.84375 0.34375 1.25q0.359375 0.390625 1.203125 0.390625q0.5 0 1.046875 -0.171875q0.546875 -0.1875 0.96875 -0.5l0 4.0625q-1.21875 0.671875 -2.984375 0.671875zm15.966064 -17.28125q2.8125 0 4.375 1.40625q1.578125 1.40625 1.578125 4.609375l0 10.625l-4.765625 0l0 -9.625q0 -3.078125 -3.078125 -3.078125q-0.734375 0 -1.5 0.234375q-0.765625 0.21875 -1.1875 0.53125l-0.0625 11.9375l-4.734375 0l0 -22.59375l4.796875 0l0 7.140625q2.21875 -1.1875 4.578125 -1.1875zm17.348877 -0.09375q7.578125 0 7.484375 9.890625l-10.6875 0q0.609375 3.359375 4.515625 3.359375q1.1875 0 2.3125 -0.328125q1.140625 -0.34375 2.421875 -0.890625l0 4.09375q-2.625 1.09375 -5.890625 1.09375q-2.46875 0 -4.328125 -1.0q-1.84375 -1.015625 -2.875 -2.90625q-1.015625 -1.890625 -1.015625 -4.453125q0 -4.21875 2.09375 -6.53125q2.09375 -2.328125 5.96875 -2.328125zm-0.1875 3.640625q-2.5625 0 -3.046875 3.203125l5.984375 0q-0.21875 -1.71875 -0.90625 -2.453125q-0.6875 -0.75 -2.03125 -0.75zm21.050415 0.546875l-2.375 0l0 -3.640625l2.40625 0l0 -0.390625q0.03125 -3.640625 1.671875 -5.0625q1.65625 -1.4375 4.5 -1.4375q0.515625 0 1.125 0.109375q0.609375 0.09375 0.984375 0.21875l0 4.1875q-0.34375 -0.34375 -0.703125 -0.515625q-0.34375 -0.1875 -0.890625 -0.1875q-0.890625 0 -1.40625 0.484375q-0.515625 0.484375 -0.515625 1.625l0 0.96875l3.515625 0l0 3.640625l-3.546875 0l0 12.546875l-4.765625 0l0 -12.546875zm11.389282 -1.953125q0.484375 -0.40625 1.671875 -0.921875q1.203125 -0.515625 2.6875 -0.875q1.5 -0.375 2.875 -0.375q2.65625 0 3.6875 0.796875l0 3.484375q-1.28125 -0.28125 -3.6875 -0.28125q-1.5 0 -2.46875 0.15625l0 12.515625l-4.765625 0l0 -14.5zm20.86792 -2.234375q7.578125 0 7.484375 9.890625l-10.6875 0q0.609375 3.359375 4.515625 3.359375q1.1875 0 2.3125 -0.328125q1.140625 -0.34375 2.421875 -0.890625l0 4.09375q-2.625 1.09375 -5.890625 1.09375q-2.46875 0 -4.328125 -1.0q-1.84375 -1.015625 -2.875 -2.90625q-1.015625 -1.890625 -1.015625 -4.453125q0 -4.21875 2.09375 -6.53125q2.09375 -2.328125 5.96875 -2.328125zm-0.1875 3.640625q-2.5625 0 -3.046875 3.203125l5.984375 0q-0.21875 -1.71875 -0.90625 -2.453125q-0.6875 -0.75 -2.03125 -0.75zm18.17154 -3.640625q7.578125 0 7.484375 9.890625l-10.6875 0q0.609375 3.359375 4.515625 3.359375q1.1875 0 2.3125 -0.328125q1.140625 -0.34375 2.421875 -0.890625l0 4.09375q-2.625 1.09375 -5.890625 1.09375q-2.46875 0 -4.328125 -1.0q-1.84375 -1.015625 -2.875 -2.90625q-1.015625 -1.890625 -1.015625 -4.453125q0 -4.21875 2.09375 -6.53125q2.09375 -2.328125 5.96875 -2.328125zm-0.1875 3.640625q-2.5625 0 -3.046875 3.203125l5.984375 0q-0.21875 -1.71875 -0.90625 -2.453125q-0.6875 -0.75 -2.03125 -0.75zm34.54657 -3.09375l-5.375 16.1875l-4.3125 0l-2.78125 -9.09375l-2.65625 9.09375l-4.328125 0l-5.40625 -16.1875l5.125 0l2.84375 10.296875l2.6875 -10.296875l3.515625 0l2.796875 10.5625l2.875 -10.5625l5.015625 0zm9.9953 -0.484375q2.65625 0 4.828125 1.234375q2.171875 1.234375 2.171875 4.421875l-0.03125 7.65625q-0.03125 2.015625 -2.015625 2.9375q-1.984375 0.90625 -5.78125 0.90625q-7.109375 0 -7.109375 -5.546875q0 -2.328125 1.453125 -3.640625q1.453125 -1.3125 4.34375 -1.3125q1.171875 0 2.359375 0.3125q1.1875 0.296875 2.046875 0.78125l0 -1.03125q0 -2.78125 -3.578125 -2.78125q-1.375 0 -2.84375 0.5q-1.453125 0.484375 -2.3125 1.1875l0 -4.21875q0.859375 -0.578125 2.640625 -0.984375q1.78125 -0.421875 3.828125 -0.421875zm-0.671875 13.796875q1.65625 0 2.296875 -0.21875q0.640625 -0.234375 0.640625 -0.90625l0 -2.5q-1.109375 -0.375 -2.46875 -0.375q-1.5625 0 -2.28125 0.46875q-0.71875 0.453125 -0.71875 1.453125q0 0.921875 0.75 1.5q0.75 0.578125 1.78125 0.578125zm27.991516 -13.3125l-6.359375 16.4375q-2.34375 6.015625 -6.21875 6.015625q-1.65625 0 -2.875 -0.5625l0 -3.875q0.96875 0.34375 1.890625 0.34375q0.953125 0 1.609375 -0.546875q0.65625 -0.53125 1.046875 -1.78125l-6.5 -16.03125l5.4375 0l3.421875 10.625l3.4375 -10.625l5.109375 0z" fill-rule="nonzero"/></g></svg>