<svg version="1.1" viewBox="0.0 0.0 960.0 540.0" fill="none" stroke="none" stroke-linecap="square" stroke-miterlimit="10" xmlns:xlink="http://www.w3.org/1999/xlink" xmlns="http://www.w3.org/2000/svg"><clipPath id="p.0"><path d="m0 0l960.0 0l0 540.0l-960.0 0l0 -540.0z" clip-rule="nonzero"/></clipPath><g clip-path="url(#p.0)"><path fill="#599191" d="m0 0l960.0 0l0 540.0l-960.0 0z" fill-rule="evenodd"/><path fill="#ffffff" fill-opacity="0.0941" d="m787.5489 467.5812l0 0l0 0c4.4105225 0 8.640381 1.7520752 11.759155 4.8707886c3.1187134 3.1187134 4.8707886 7.3486023 4.8707886 11.759125l0 55.653564c0 1.2207031E-4 -1.2207031E-4 2.4414062E-4 -3.0517578E-4 2.4414062E-4l-33.259583 -2.4414062E-4l0 0c-1.2207031E-4 0 -2.4414062E-4 -1.2207031E-4 -2.4414062E-4 -3.0517578E-4l2.4414062E-4 -55.65326l0 0c0 -9.184448 7.4454956 -16.629913 16.629944 -16.629913z" fill-rule="evenodd"/><path fill="#ffffff" fill-opacity="0.0941" d="m787.5489 504.11795l0 0l0 0c4.4105225 0 8.640381 1.7520752 11.759155 4.8707886c3.1187134 3.118744 4.8707886 7.3486023 4.8707886 11.759125l0 19.118103c0 1.8310547E-4 -1.2207031E-4 3.0517578E-4 -3.0517578E-4 3.0517578E-4l-33.259583 -3.0517578E-4l0 0c-1.2207031E-4 0 -2.4414062E-4 -1.2207031E-4 -2.4414062E-4 -2.4414062E-4l2.4414062E-4 -19.117859l0 0c0 -9.184448 7.4454956 -16.629913 16.629944 -16.629913z" fill-rule="evenodd"/><path fill="#ffffff" fill-opacity="0.0941" d="m835.6546 467.5812l0 0l0 0c4.4105225 0 8.640442 1.7520752 11.759155 4.8707886c3.1187134 3.1187134 4.8707886 7.3486023 4.8707886 11.759125l0 55.653564c0 1.2207031E-4 -1.2207031E-4 2.4414062E-4 -3.0517578E-4 2.4414062E-4l-33.259583 -2.4414062E-4l0 0c-1.2207031E-4 0 -2.4414062E-4 -1.2207031E-4 -2.4414062E-4 -3.0517578E-4l2.4414062E-4 -55.65326l0 0c0 -9.184448 7.4454956 -16.629913 16.629944 -16.629913z" fill-rule="evenodd"/><path fill="#ffffff" fill-opacity="0.0941" d="m835.6546 431.04462l0 0l0 0c4.4105225 0 8.640442 1.7520752 11.759155 4.8707886c3.1187134 3.1187134 4.8707886 7.3486023 4.8707886 11.759125l0 92.188995c0 1.2207031E-4 -1.2207031E-4 2.4414062E-4 -3.0517578E-4 2.4414062E-4l-33.259583 -2.4414062E-4l0 0c-1.2207031E-4 0 -2.4414062E-4 -1.2207031E-4 -2.4414062E-4 -3.0517578E-4l2.4414062E-4 -92.18869l0 0c0 -9.184448 7.4454956 -16.629913 16.629944 -16.629913z" fill-rule="evenodd"/><path fill="#ffffff" fill-opacity="0.0941" d="m835.6546 504.11795l0 0l0 0c4.4105225 0 8.640442 1.7520752 11.759155 4.8707886c3.1187134 3.118744 4.8707886 7.3486023 4.8707886 11.759125l0 19.118103c0 1.8310547E-4 -1.2207031E-4 3.0517578E-4 -3.0517578E-4 3.0517578E-4l-33.259583 -3.0517578E-4l0 0c-1.2207031E-4 0 -2.4414062E-4 -1.2207031E-4 -2.4414062E-4 -2.4414062E-4l2.4414062E-4 -19.117859l0 0c0 -9.184448 7.4454956 -16.629913 16.629944 -16.629913z" fill-rule="evenodd"/><path fill="#ffffff" fill-opacity="0.0941" d="m883.76044 467.5812l0 0l0 0c4.4105225 0 8.640381 1.7520752 11.759094 4.8707886c3.1187134 3.1187134 4.8707886 7.3486023 4.8707886 11.759125l0 55.653564c0 1.2207031E-4 -1.2207031E-4 2.4414062E-4 -2.4414062E-4 2.4414062E-4l-33.259583 -2.4414062E-4l0 0c-1.2207031E-4 0 -3.0517578E-4 -1.2207031E-4 -3.0517578E-4 -3.0517578E-4l3.0517578E-4 -55.65326l0 0c0 -9.184448 7.4454956 -16.629913 16.629944 -16.629913z" fill-rule="evenodd"/><path fill="#ffffff" fill-opacity="0.0941" d="m883.76044 394.50797l0 0l0 0c4.4105225 0 8.640381 1.7520752 11.759094 4.8707886c3.1187134 3.1187134 4.8707886 7.3486023 4.8707886 11.759125l0 128.72443c0 1.2207031E-4 -1.2207031E-4 2.4414062E-4 -2.4414062E-4 2.4414062E-4l-33.259583 -2.4414062E-4l0 0c-1.2207031E-4 0 -3.0517578E-4 -1.2207031E-4 -3.0517578E-4 -3.0517578E-4l3.0517578E-4 -128.72412l0 0c0 -9.184448 7.4454956 -16.629913 16.629944 -16.629913z" fill-rule="evenodd"/><path fill="#ffffff" fill-opacity="0.0941" d="m883.76044 431.04462l0 0l0 0c4.4105225 0 8.640381 1.7520752 11.759094 4.8707886c3.1187134 3.1187134 4.8707886 7.3486023 4.8707886 11.759125l0 92.188995c0 1.2207031E-4 -1.2207031E-4 2.4414062E-4 -2.4414062E-4 2.4414062E-4l-33.259583 -2.4414062E-4l0 0c-1.2207031E-4 0 -3.0517578E-4 -1.2207031E-4 -3.0517578E-4 -3.0517578E-4l3.0517578E-4 -92.18869l0 0c0 -9.184448 7.4454956 -16.629913 16.629944 -16.629913z" fill-rule="evenodd"/><path fill="#ffffff" fill-opacity="0.0941" d="m883.76044 504.11795l0 0l0 0c4.4105225 0 8.640381 1.7520752 11.759094 4.8707886c3.1187134 3.118744 4.8707886 7.3486023 4.8707886 11.759125l0 19.118103c0 1.8310547E-4 -1.2207031E-4 3.0517578E-4 -2.4414062E-4 3.0517578E-4l-33.259583 -3.0517578E-4l0 0c-1.2207031E-4 0 -3.0517578E-4 -1.2207031E-4 -3.0517578E-4 -2.4414062E-4l3.0517578E-4 -19.117859l0 0c0 -9.184448 7.4454956 -16.629913 16.629944 -16.629913z" fill-rule="evenodd"/><path fill="#ffffff" fill-opacity="0.0941" d="m931.86615 467.5812l0 0l0 0c4.4105225 0 8.640381 1.7520752 11.759094 4.8707886c3.1187134 3.1187134 4.8707886 7.3486023 4.8707886 11.759125l0 55.653564c0 1.2207031E-4 -1.2207031E-4 2.4414062E-4 -2.4414062E-4 2.4414062E-4l-33.259583 -2.4414062E-4l0 0c-1.2207031E-4 0 -2.4414062E-4 -1.2207031E-4 -2.4414062E-4 -3.0517578E-4l2.4414062E-4 -55.65326l0 0c0 -9.184448 7.4454956 -16.629913 16.629944 -16.629913z" fill-rule="evenodd"/><path fill="#ffffff" fill-opacity="0.0941" d="m931.86615 394.50797l0 0l0 0c4.4105225 0 8.640381 1.7520752 11.759094 4.8707886c3.1187134 3.1187134 4.8707886 7.3486023 4.8707886 11.759125l0 128.72443c0 1.2207031E-4 -1.2207031E-4 2.4414062E-4 -2.4414062E-4 2.4414062E-4l-33.259583 -2.4414062E-4l0 0c-1.2207031E-4 0 -2.4414062E-4 -1.2207031E-4 -2.4414062E-4 -3.0517578E-4l2.4414062E-4 -128.72412l0 0c0 -9.184448 7.4454956 -16.629913 16.629944 -16.629913z" fill-rule="evenodd"/><path fill="#ffffff" fill-opacity="0.0941" d="m931.86615 431.04462l0 0l0 0c4.4105225 0 8.640381 1.7520752 11.759094 4.8707886c3.1187134 3.1187134 4.8707886 7.3486023 4.8707886 11.759125l0 92.188995c0 1.2207031E-4 -1.2207031E-4 2.4414062E-4 -2.4414062E-4 2.4414062E-4l-33.259583 -2.4414062E-4l0 0c-1.2207031E-4 0 -2.4414062E-4 -1.2207031E-4 -2.4414062E-4 -3.0517578E-4l2.4414062E-4 -92.18869l0 0c0 -9.184448 7.4454956 -16.629913 16.629944 -16.629913z" fill-rule="evenodd"/><path fill="#ffffff" fill-opacity="0.0941" d="m931.86615 357.97116l0 0l0 0c4.4105225 0 8.640381 1.7520752 11.759094 4.8707886c3.1187134 3.1187134 4.8707886 7.3486023 4.8707886 11.759155l0 165.25986c0 1.2207031E-4 -1.2207031E-4 2.4414062E-4 -2.4414062E-4 2.4414062E-4l-33.259583 -2.4414062E-4l0 0c-1.2207031E-4 0 -2.4414062E-4 -1.8310547E-4 -2.4414062E-4 -3.0517578E-4l2.4414062E-4 -165.25955l0 0c0 -9.184479 7.4454956 -16.629944 16.629944 -16.629944z" fill-rule="evenodd"/><path fill="#ffffff" fill-opacity="0.0941" d="m931.86615 504.11795l0 0l0 0c4.4105225 0 8.640381 1.7520752 11.759094 4.8707886c3.1187134 3.118744 4.8707886 7.3486023 4.8707886 11.759125l0 19.118103c0 1.8310547E-4 -1.2207031E-4 3.0517578E-4 -2.4414062E-4 3.0517578E-4l-33.259583 -3.0517578E-4l0 0c-1.2207031E-4 0 -2.4414062E-4 -1.2207031E-4 -2.4414062E-4 -2.4414062E-4l2.4414062E-4 -19.117859l0 0c0 -9.184448 7.4454956 -16.629913 16.629944 -16.629913z" fill-rule="evenodd"/><path fill="#ffffff" fill-opacity="0.0941" d="m888.2913 211.66142l0 0c0 -11.497971 9.320984 -20.818909 20.818909 -20.818909l0 0c5.5215454 0 10.816895 2.1934204 14.721191 6.0977173c3.9042969 3.9042969 6.0977173 9.1996765 6.0977173 14.721191l0 0c0 11.497955 -9.320923 20.818893 -20.818909 20.818893l0 0c-11.497925 0 -20.818909 -9.320938 -20.818909 -20.818893z" fill-rule="evenodd"/><path fill="#ffffff" fill-opacity="0.0941" d="m712.1872 386.9136l0 0c-2.58313 8.914825 -11.904114 14.047668 -20.818909 11.464539l0 0c-4.281067 -1.240448 -7.893982 -4.1307373 -10.044006 -8.035034c-2.1500244 -3.9042969 -2.6610107 -8.502808 -1.4205933 -12.783844l0 0c2.58313 -8.914825 11.904114 -14.047699 20.818909 -11.464569l0 0c8.914856 2.58313 14.0477295 11.904053 11.4646 20.818909z" fill-rule="evenodd"/><path fill="#ffffff" fill-opacity="0.0941" d="m836.2647 283.91425l0 0c18.415833 0 33.34485 14.928986 33.34485 33.34482l0 0c0 8.843628 -3.5131226 17.325012 -9.7664795 23.57837c-6.253357 6.253357 -14.734741 9.7664795 -23.57837 9.7664795l0 0c-18.415833 0 -33.344788 -14.928986 -33.344788 -33.34485l0 0c0 -18.415833 14.928955 -33.34482 33.344788 -33.34482z" fill-rule="evenodd"/><path fill="#ffffff" fill-opacity="0.0941" d="m813.7002 292.70868l0 0c9.801636 -9.008759 24.022583 -11.324127 36.17572 -5.8898926c12.153137 5.4342346 19.909363 17.5766 19.73059 30.888153l-33.341797 -0.44787598z" fill-rule="evenodd"/><path fill="#ffffff" fill-opacity="0.0941" d="m836.2682 296.56314l0 0c11.428162 0 20.692505 9.264374 20.692505 20.692505l0 0c0 5.4880066 -2.1801147 10.751221 -6.06073 14.631836c-3.8805542 3.8805847 -9.143799 6.0606995 -14.631775 6.0606995l0 0c-11.428162 0 -20.692505 -9.264374 -20.692505 -20.692535l0 0c0 -11.428131 9.264343 -20.692505 20.692505 -20.692505z" fill-rule="evenodd"/><path fill="#ffffff" fill-opacity="0.0941" d="m925.7254 199.11703l0 0c5.821594 7.7107086 5.573303 18.41333 -0.59954834 25.84578c-6.1728516 7.4324493 -16.64795 9.641418 -25.296387 5.334442c-8.6484375 -4.3069916 -13.197266 -13.998016 -10.984985 -23.402863c2.2122192 -9.404846 10.604187 -16.05185 20.265747 -16.05185l0 20.818893z" fill-rule="evenodd"/><path fill="#ffffff" fill-opacity="0.0941" d="m907.3644 83.878654l0 0c-10.624634 14.686798 -31.145874 17.981392 -45.83539 7.358696l0 0c-7.054199 -5.101204 -11.792603 -12.795204 -13.172852 -21.389412c-1.38031 -8.594212 0.7106323 -17.384636 5.812744 -24.437485l0 0c10.624695 -14.686794 31.145935 -17.981392 45.83545 -7.358692l0 0c14.689514 10.6227 17.984741 31.140102 7.3600464 45.826893z" fill-rule="evenodd"/><path fill="#ffffff" fill-opacity="0.0941" d="m847.9479 65.31851c-0.3305664 -16.088425 11.054443 -30.043423 26.884033 -32.952755c15.82959 -2.9093304 31.434082 6.085251 36.84778 21.23943c5.4136963 15.154175 -0.96032715 31.99752 -15.051453 39.773163l-15.861572 -28.733818z" fill-rule="evenodd"/><path fill="#ffffff" fill-opacity="0.0941" d="m566.91235 172.6892l0 0c0 -74.71064 60.56494 -135.27559 135.27557 -135.27559l0 0c35.87732 0 70.28522 14.252209 95.6543 39.621304c25.36908 25.369095 39.621338 59.776978 39.621338 95.65428l0 0c0 74.71065 -60.56494 135.27559 -135.27563 135.27559l0 0c-74.71063 0 -135.27557 -60.56494 -135.27557 -135.27559z" fill-rule="evenodd"/><path fill="#ffffff" fill-opacity="0.0941" d="m599.1709 103.03936l0 0c38.477295 -56.907074 115.801575 -71.84737 172.70868 -33.37008l0 0c27.327698 18.47744 46.196045 47.054 52.454163 79.44316c6.2581177 32.38916 -0.60668945 65.93776 -19.084106 93.2655l0 0c-38.477295 56.90706 -115.801575 71.84737 -172.70868 33.37007l0 0c-56.907043 -38.47728 -71.84735 -115.80159 -33.370056 -172.70865z" fill-rule="evenodd"/><path fill="#ffffff" fill-opacity="0.0941" d="m589.1371 247.39746l0 0c-27.312927 -41.5578 -29.621948 -94.75075 -6.0128174 -138.51898c23.60913 -43.76822 69.32922 -71.05369 119.05896 -71.05369l0 135.27559z" fill-rule="evenodd"/><path fill="#599191" d="m634.6362 126.97012l0 0c25.248535 -37.320534 75.970825 -47.10681 113.29132 -21.858269l0 0c17.921997 12.124779 30.293335 30.872429 34.39258 52.118675c4.099182 21.246246 -0.40948486 43.250717 -12.534302 61.17267l0 0c-25.248535 37.320526 -75.970764 47.10681 -113.29132 21.858261l0 0c-37.320557 -25.248535 -47.10681 -75.970795 -21.858276 -113.291336z" fill-rule="evenodd"/><path fill="#ffffff" fill-opacity="0.0941" d="m584.13855 106.620865l0 0c23.919128 -42.73689 69.06952 -69.20793 118.04468 -69.20793l0 135.27559z" fill-rule="evenodd"/><path fill="#ffffff" fill-opacity="0.0941" d="m680.3448 388.2298l0 0c-2.781372 -7.2862854 -0.18444824 -15.528687 6.2713623 -19.904572c6.4558716 -4.375885 15.073914 -3.73526 20.811768 1.5470886c5.737854 5.282318 7.0875854 13.818085 3.2594604 20.613068c-3.828186 6.7949524 -11.828125 10.063293 -19.319092 7.8927307l4.677124 -16.141724z" fill-rule="evenodd"/><path fill="#000000" fill-opacity="0.0" d="m86.509186 169.43045l835.937 0l0 196.62991l-835.937 0z" fill-rule="evenodd"/><path fill="#ffffff" d="m113.64981 256.84103q-7.4375 0 -11.09375 -3.171875q-3.640625 -3.171875 -3.640625 -9.796875l0 -20.0625l8.109375 0l0 19.734375q0 3.6875 1.484375 5.46875q1.5 1.765625 4.765625 1.765625q3.015625 0 4.640625 -1.8125q1.640625 -1.828125 1.640625 -5.421875l0 -19.734375l7.390625 0l0 20.0625q0 6.484375 -3.578125 9.734375q-3.578125 3.234375 -9.71875 3.234375zm20.113693 -33.03125l21.796875 0l0 6.0l-14.015625 0l0 7.625l12.09375 0l0 6.109375l-12.09375 0l0 12.28125l-7.78125 0l0 -32.015625zm41.61006 32.6875q-7.34375 0 -11.46875 -4.171875q-4.125 -4.1875 -4.125 -12.484375q0 -8.15625 4.046875 -12.40625q4.0625 -4.25 11.546875 -4.25q7.359375 0 11.5 4.15625q4.15625 4.140625 4.15625 12.453125q0 8.15625 -4.0625 12.4375q-4.046875 4.265625 -11.59375 4.265625zm0 -6.390625q3.796875 0 5.71875 -2.390625q1.921875 -2.40625 1.921875 -7.921875q0 -5.515625 -1.90625 -7.890625q-1.890625 -2.375 -5.734375 -2.375q-3.78125 0 -5.6875 2.40625q-1.890625 2.390625 -1.890625 7.953125q0 5.46875 1.890625 7.84375q1.90625 2.375 5.6875 2.375zm34.3741 -26.296875l21.9375 0l0 6.0l-14.15625 0l0 6.953125l12.28125 0l0 6.046875l-12.28125 0l0 7.015625l14.15625 0l0 6.0l-21.9375 0l0 -32.015625zm28.229675 9.796875q1.875 -1.015625 5.703125 -1.875q3.84375 -0.859375 6.875 -0.859375q5.125 0 7.7187653 2.015625q2.59375 2.015625 2.59375 6.625l0 16.3125l-7.1562653 0l0 -14.875q0 -4.1875 -4.703125 -4.1875q-1.046875 0 -2.15625 0.25q-1.109375 0.234375 -1.734375 0.578125l0 18.234375l-7.140625 0l0 -22.21875zm40.60707 22.84375q-3.5625 0 -6.4375 -1.390625q-2.875 -1.390625 -4.578125 -4.203125q-1.703125 -2.8125 -1.703125 -6.84375q0 -6.46875 3.453125 -9.796875q3.453125 -3.34375 9.21875 -3.34375q2.015625 0 4.078125 0.40625q2.0625 0.40625 3.640625 1.125l0 6.140625q-1.96875 -0.859375 -3.5 -1.3125q-1.53125 -0.46875 -3.078125 -0.46875q-3.15625 0 -4.9375 1.5625q-1.78125 1.5625 -1.78125 4.875q0 3.703125 1.65625 5.484375q1.65625 1.765625 5.40625 1.765625q2.828125 0 6.28125 -1.921875l0 6.09375q-1.71875 0.921875 -3.578125 1.375q-1.84375 0.453125 -4.140625 0.453125zm23.658539 0.09375q-6.140625 0 -9.21875 -3.265625q-3.0625 -3.265625 -3.0625 -9.6875q0 -6.71875 3.046875 -9.796875q3.046875 -3.078125 9.234375 -3.078125q6.1875 0 9.3125 3.15625q3.125 3.140625 3.125 9.71875q0 6.328125 -3.21875 9.640625q-3.21875 3.3125 -9.21875 3.3125zm0 -5.703125q2.640625 0 3.984375 -1.84375q1.34375 -1.859375 1.34375 -5.40625q0 -3.890625 -1.328125 -5.546875q-1.3125 -1.65625 -4.0 -1.65625q-2.78125 0 -4.015625 1.65625q-1.21875 1.65625 -1.21875 5.546875q0 3.6875 1.265625 5.46875q1.28125 1.78125 3.96875 1.78125zm28.804443 5.703125q-5.328125 0 -8.375 -2.484375q-3.046875 -2.5 -3.046875 -7.5l0 -15.015625l7.140625 0l0 14.4375q0 2.3125 1.03125 3.4375q1.046875 1.125 3.296875 1.125q2.25 0 3.28125 -1.125q1.03125 -1.125 1.03125 -3.4375l0 -14.4375l6.734375 0l0 15.015625q0 5.046875 -2.90625 7.515625q-2.90625 2.46875 -8.1875 2.46875zm17.426147 -22.9375q1.875 -1.015625 5.703125 -1.875q3.84375 -0.859375 6.875 -0.859375q5.125 0 7.71875 2.015625q2.59375 2.015625 2.59375 6.625l0 16.3125l-7.15625 0l0 -14.875q0 -4.1875 -4.703125 -4.1875q-1.046875 0 -2.15625 0.25q-1.109375 0.234375 -1.734375 0.578125l0 18.234375l-7.140625 0l0 -22.21875zm39.169556 23.171875q-4.1875 0 -6.28125 -1.953125q-2.078125 -1.96875 -2.078125 -5.671875l0 -12.140625l-3.546875 0l0 -5.46875l3.546875 0l0 -6.671875l7.484375 0l0 6.671875l5.328125 0l0 5.46875l-5.328125 0l0 11.234375q0 1.234375 0.53125 1.84375q0.53125 0.59375 1.78125 0.59375q0.765625 0 1.578125 -0.25q0.8125 -0.265625 1.4375 -0.75l0 6.09375q-1.8125 1.0 -4.453125 1.0zm20.636536 -26.0625q11.375 0 11.234375 14.84375l-16.03125 0q0.90625 5.03125 6.765625 5.03125q1.765625 0 3.46875 -0.5q1.71875 -0.5 3.625 -1.328125l0 6.15625q-3.921875 1.625 -8.828125 1.625q-3.6875 0 -6.484375 -1.5q-2.78125 -1.515625 -4.3125 -4.34375q-1.53125 -2.84375 -1.53125 -6.6875q0 -6.328125 3.140625 -9.8125q3.140625 -3.484375 8.953125 -3.484375zm-0.296875 5.484375q-3.828125 0 -4.546875 4.796875l8.96875 0q-0.328125 -2.59375 -1.375 -3.6875q-1.03125 -1.109375 -3.046875 -1.109375zm16.52295 -2.125q0.71875 -0.625 2.515625 -1.390625q1.796875 -0.765625 4.03125 -1.3125q2.234375 -0.5625 4.296875 -0.5625q3.984375 0 5.515625 1.203125l0 5.234375q-1.921875 -0.4375 -5.515625 -0.4375q-2.25 0 -3.703125 0.25l0 18.765625l-7.140625 0l0 -21.75zm27.747162 22.46875q-2.3125 0 -4.046875 -0.453125q-1.71875 -0.453125 -3.828125 -1.328125l0 -6.28125q3.890625 2.921875 8.15625 2.921875q1.625 0 2.375 -0.546875q0.75 -0.546875 0.75 -1.515625q0 -1.09375 -1.203125 -1.625q-1.203125 -0.53125 -3.84375 -1.15625q-2.78125 -0.578125 -4.578125 -2.296875q-1.796875 -1.734375 -1.796875 -5.046875q0 -2.828125 1.4375 -4.65625q1.4375 -1.828125 3.609375 -2.65625q2.1875 -0.84375 4.546875 -0.84375q2.875 0 4.671875 0.5q1.8125 0.5 3.53125 1.5625l0 5.609375q-2.4375 -1.34375 -3.78125 -1.90625q-1.34375 -0.578125 -3.125 -0.578125q-1.78125 0 -2.640625 0.546875q-0.859375 0.546875 -0.859375 1.5625q0 1.203125 0.953125 1.75q0.953125 0.546875 3.078125 1.125q2.390625 0.625 3.78125 1.234375q1.390625 0.59375 2.5 2.0625q1.109375 1.453125 1.109375 4.09375q-0.09375 4.125 -3.125 6.03125q-3.015625 1.890625 -7.671875 1.890625z" fill-rule="nonzero"/><path fill="#ffffff" d="m98.68106 280.7004l7.390625 0l0 5.53125l-7.390625 0l0 -5.53125zm0.140625 9.171875l7.15625 0l0.046875 23.953125l-7.203125 0l0 -23.953125zm13.587402 1.734375q1.875 -1.015625 5.703125 -1.875q3.84375 -0.859375 6.875 -0.859375q5.125 0 7.71875 2.015625q2.59375 2.015625 2.59375 6.625l0 16.3125l-7.15625 0l0 -14.875q0 -4.1875 -4.703125 -4.1875q-1.046875 0 -2.15625 0.25q-1.109375 0.234375 -1.734375 0.578125l0 18.234375l-7.140625 0l0 -22.21875zm52.417587 23.171875q-4.1875 0 -6.28125 -1.953125q-2.078125 -1.96875 -2.078125 -5.671875l0 -12.140625l-3.546875 0l0 -5.46875l3.546875 0l0 -6.671875l7.484375 0l0 6.671875l5.328125 0l0 5.46875l-5.328125 0l0 11.234375q0 1.234375 0.53125 1.84375q0.53125 0.59375 1.78125 0.59375q0.765625 0 1.578125 -0.25q0.8125 -0.265625 1.4375 -0.75l0 6.09375q-1.8125 1.0 -4.453125 1.0zm23.949036 -25.90625q4.21875 0 6.5625 2.109375q2.359375 2.109375 2.359375 6.90625l0 15.9375l-7.140625 0l0 -14.453125q0 -4.609375 -4.609375 -4.609375q-1.109375 0 -2.265625 0.34375q-1.15625 0.328125 -1.765625 0.8125l-0.109375 17.90625l-7.09375 0l0 -33.890625l7.203125 0l0 10.703125q3.3125 -1.765625 6.859375 -1.765625zm26.015564 -0.15625q11.375 0 11.234375 14.84375l-16.03125 0q0.90625 5.03125 6.765625 5.03125q1.765625 0 3.46875 -0.5q1.71875 -0.5 3.625 -1.328125l0 6.15625q-3.921875 1.625 -8.828125 1.625q-3.6875 0 -6.484375 -1.5q-2.78125 -1.515625 -4.3125 -4.34375q-1.53125 -2.84375 -1.53125 -6.6875q0 -6.328125 3.140625 -9.8125q3.140625 -3.484375 8.953125 -3.484375zm-0.296875 5.484375q-3.828125 0 -4.546875 4.796875l8.96875 0q-0.328125 -2.59375 -1.375 -3.6875q-1.03125 -1.109375 -3.046875 -1.109375zm44.73973 20.640625q-7.4375153 0 -11.093765 -3.171875q-3.640625 -3.171875 -3.640625 -9.796875l0 -20.0625l8.109375 0l0 19.734375q0 3.6875 1.484375 5.46875q1.5 1.765625 4.7656403 1.765625q3.015625 0 4.640625 -1.8125q1.640625 -1.828125 1.640625 -5.421875l0 -19.734375l7.390625 0l0 20.0625q0 6.484375 -3.578125 9.734375q-3.578125 3.234375 -9.71875 3.234375zm19.879303 -23.234375q1.875 -1.015625 5.703125 -1.875q3.84375 -0.859375 6.875 -0.859375q5.125 0 7.71875 2.015625q2.59375 2.015625 2.59375 6.625l0 16.3125l-7.15625 0l0 -14.875q0 -4.1875 -4.703125 -4.1875q-1.046875 0 -2.15625 0.25q-1.109375 0.234375 -1.734375 0.578125l0 18.234375l-7.140625 0l0 -22.21875zm29.232056 -10.90625l7.390625 0l0 5.53125l-7.390625 0l0 -5.53125zm0.140625 9.171875l7.15625 0l0.046875 23.953125l-7.203125 0l0 -23.953125zm23.524902 24.90625q-4.1875 0 -6.28125 -1.953125q-2.078125 -1.96875 -2.078125 -5.671875l0 -12.140625l-3.546875 0l0 -5.46875l3.546875 0l0 -6.671875l7.484375 0l0 6.671875l5.328125 0l0 5.46875l-5.328125 0l0 11.234375q0 1.234375 0.53125 1.84375q0.53125 0.59375 1.78125 0.59375q0.765625 0 1.578125 -0.25q0.8125 -0.265625 1.4375 -0.75l0 6.09375q-1.8125 1.0 -4.453125 1.0zm20.636536 -26.0625q11.375 0 11.234375 14.84375l-16.03125 0q0.90625 5.03125 6.765625 5.03125q1.765625 0 3.46875 -0.5q1.71875 -0.5 3.625 -1.328125l0 6.15625q-3.921875 1.625 -8.828125 1.625q-3.6875 0 -6.484375 -1.5q-2.78125 -1.515625 -4.3125 -4.34375q-1.53125 -2.84375 -1.53125 -6.6875q0 -6.328125 3.140625 -9.8125q3.140625 -3.484375 8.953125 -3.484375zm-0.296875 5.484375q-3.828125 0 -4.546875 4.796875l8.96875 0q-0.328125 -2.59375 -1.375 -3.6875q-1.03125 -1.109375 -3.046875 -1.109375zm39.413574 -14.640625l0 27.921875q0 2.265625 -1.59375 3.859375q-1.578125 1.578125 -4.171875 2.390625q-2.578125 0.8125 -5.515625 0.8125q-6.1875 0 -9.578125 -2.921875q-3.375 -2.9375 -3.375 -10.140625q0 -6.046875 2.953125 -9.375q2.953125 -3.34375 8.65625 -3.34375q3.40625 0 5.515625 1.25l0 -10.453125l7.109375 0zm-7.109375 15.984375q-1.90625 -1.015625 -3.734375 -1.015625q-3.21875 0 -4.703125 1.640625q-1.484375 1.625 -1.484375 5.515625q0 3.359375 1.390625 5.109375q1.390625 1.75 4.65625 1.75q1.765625 0 2.8125 -0.46875q1.0625 -0.484375 1.0625 -1.359375l0 -11.171875zm37.683228 18.953125q-3.640625 0 -6.328125 -0.515625q-2.6875 -0.5 -5.0 -1.6875l0 -7.390625q2.15625 1.71875 4.921875 2.65625q2.765625 0.9375 5.40625 0.9375q4.5 0 4.5 -3.40625q0 -1.484375 -1.4375 -2.328125q-1.4375 -0.84375 -4.65625 -1.890625q-1.484375 -0.484375 -1.8125 -0.625q-3.46875 -1.15625 -5.46875 -3.125q-1.984375 -1.96875 -1.984375 -5.859375q0 -2.734375 1.34375 -5.0625q1.34375 -2.328125 4.125 -3.71875q2.796875 -1.390625 6.875 -1.390625q2.828125 0 4.859375 0.5q2.046875 0.5 4.359375 1.609375l0 7.4375q-2.015625 -1.53125 -4.328125 -2.53125q-2.296875 -1.015625 -4.65625 -1.015625q-2.109375 0 -3.390625 0.84375q-1.265625 0.828125 -1.265625 2.421875q0 1.25 0.765625 2.046875q0.78125 0.78125 1.90625 1.21875q1.125 0.421875 3.625 1.1875q2.96875 0.875 4.890625 1.9375q1.921875 1.046875 3.0625 2.828125q1.15625 1.765625 1.15625 4.546875q0 2.9375 -1.34375 5.296875q-1.34375 2.34375 -3.953125 3.71875q-2.609375 1.359375 -6.171875 1.359375zm26.64917 0.28125q-4.1875 0 -6.28125 -1.953125q-2.078125 -1.96875 -2.078125 -5.671875l0 -12.140625l-3.546875 0l0 -5.46875l3.546875 0l0 -6.671875l7.484375 0l0 6.671875l5.328125 0l0 5.46875l-5.328125 0l0 11.234375q0 1.234375 0.53125 1.84375q0.53125 0.59375 1.78125 0.59375q0.765625 0 1.578125 -0.25q0.8125 -0.265625 1.4375 -0.75l0 6.09375q-1.8125 1.0 -4.453125 1.0zm20.49591 -25.96875q3.984375 0 7.234375 1.859375q3.265625 1.84375 3.265625 6.640625l-0.046875 11.46875q-0.046875 3.03125 -3.03125 4.40625q-2.96875 1.359375 -8.671875 1.359375q-10.65625 0 -10.65625 -8.296875q0 -3.515625 2.171875 -5.484375q2.1875 -1.96875 6.515625 -1.96875q1.78125 0 3.546875 0.46875q1.78125 0.453125 3.078125 1.171875l0 -1.53125q0 -4.1875 -5.375 -4.1875q-2.0625 0 -4.25 0.75q-2.1875 0.75 -3.484375 1.796875l0 -6.328125q1.296875 -0.875 3.953125 -1.5q2.671875 -0.625 5.75 -0.625zm-1.015625 20.703125q2.5 0 3.453125 -0.328125q0.96875 -0.34375 0.96875 -1.359375l0 -3.75q-1.6875 -0.5625 -3.703125 -0.5625q-2.34375 0 -3.4375 0.703125q-1.078125 0.6875 -1.078125 2.171875q0 1.390625 1.125 2.265625q1.140625 0.859375 2.671875 0.859375zm27.799805 5.265625q-4.1875 0 -6.28125 -1.953125q-2.078125 -1.96875 -2.078125 -5.671875l0 -12.140625l-3.546875 0l0 -5.46875l3.546875 0l0 -6.671875l7.484375 0l0 6.671875l5.328125 0l0 5.46875l-5.328125 0l0 11.234375q0 1.234375 0.53125 1.84375q0.53125 0.59375 1.78125 0.59375q0.765625 0 1.578125 -0.25q0.8125 -0.265625 1.4375 -0.75l0 6.09375q-1.8125 1.0 -4.453125 1.0zm20.636566 -26.0625q11.375 0 11.234375 14.84375l-16.03125 0q0.90625 5.03125 6.765625 5.03125q1.765625 0 3.46875 -0.5q1.71875 -0.5 3.625 -1.328125l0 6.15625q-3.921875 1.625 -8.828125 1.625q-3.6875 0 -6.4844055 -1.5q-2.78125 -1.515625 -4.3125 -4.34375q-1.53125 -2.84375 -1.53125 -6.6875q0 -6.328125 3.140625 -9.8125q3.140625 -3.484375 8.9531555 -3.484375zm-0.296875 5.484375q-3.828125 0 -4.546875 4.796875l8.96875 0q-0.328125 -2.59375 -1.375 -3.6875q-1.03125 -1.109375 -3.046875 -1.109375zm23.726074 20.34375q-2.3125 0 -4.046875 -0.453125q-1.71875 -0.453125 -3.828125 -1.328125l0 -6.28125q3.890625 2.921875 8.15625 2.921875q1.625 0 2.375 -0.546875q0.75 -0.546875 0.75 -1.515625q0 -1.09375 -1.203125 -1.625q-1.203125 -0.53125 -3.84375 -1.15625q-2.78125 -0.578125 -4.578125 -2.296875q-1.796875 -1.734375 -1.796875 -5.046875q0 -2.828125 1.4375 -4.65625q1.4375 -1.828125 3.609375 -2.65625q2.1875 -0.84375 4.546875 -0.84375q2.875 0 4.671875 0.5q1.8125 0.5 3.53125 1.5625l0 5.609375q-2.4375 -1.34375 -3.78125 -1.90625q-1.34375 -0.578125 -3.125 -0.578125q-1.78125 0 -2.640625 0.546875q-0.859375 0.546875 -0.859375 1.5625q0 1.203125 0.953125 1.75q0.953125 0.546875 3.078125 1.125q2.390625 0.625 3.78125 1.234375q1.390625 0.59375 2.5 2.0625q1.109375 1.453125 1.109375 4.09375q-0.09375 4.125 -3.125 6.03125q-3.015625 1.890625 -7.671875 1.890625z" fill-rule="nonzero"/><path fill="#000000" fill-opacity="0.0" d="m86.509186 377.5643l446.77164 0l0 73.00787l-446.77164 0z" fill-rule="evenodd"/><path fill="#ffffff" d="m98.259186 407.0443q-0.40625 0 -0.65625 -0.234375q-0.234375 -0.234375 -0.234375 -0.625l0 -13.328125q0 -0.375 0.234375 -0.609375q0.25 -0.234375 0.65625 -0.234375l4.15625 0q3.609375 0 5.578125 1.953125q1.96875 1.9375 1.96875 5.546875q0 3.609375 -1.984375 5.578125q-1.96875 1.953125 -5.5625 1.953125l-4.15625 0zm4.046875 -1.5q5.84375 0 5.84375 -6.03125q0 -6.015625 -5.84375 -6.015625l-3.1875 0l0 12.046875l3.1875 0zm14.808426 -9.140625q3.90625 0 3.90625 4.09375l0 5.796875q0 0.390625 -0.234375 0.625q-0.21875 0.234375 -0.59375 0.234375q-0.390625 0 -0.625 -0.234375q-0.234375 -0.234375 -0.234375 -0.625l0 -1.015625q-0.40625 0.90625 -1.234375 1.421875q-0.828125 0.5 -1.921875 0.5q-1.0 0 -1.84375 -0.40625q-0.84375 -0.40625 -1.34375 -1.125q-0.484375 -0.734375 -0.484375 -1.609375q0 -1.171875 0.59375 -1.8125q0.609375 -0.65625 1.96875 -0.9375q1.359375 -0.296875 3.796875 -0.296875l0.46875 0l0 -0.703125q0 -1.28125 -0.53125 -1.875q-0.515625 -0.609375 -1.6875 -0.609375q-1.453125 0 -2.9375 0.796875q-0.578125 0.359375 -0.8125 0.359375q-0.265625 0 -0.4375 -0.1875q-0.15625 -0.203125 -0.15625 -0.5q0 -0.296875 0.171875 -0.515625q0.1875 -0.21875 0.59375 -0.453125q0.734375 -0.4375 1.6875 -0.671875q0.953125 -0.25 1.890625 -0.25zm-0.703125 9.421875q1.28125 0 2.09375 -0.859375q0.828125 -0.859375 0.828125 -2.234375l0 -0.609375l-0.390625 0q-1.875 0 -2.859375 0.15625q-0.96875 0.15625 -1.390625 0.53125q-0.421875 0.375 -0.421875 1.09375q0 0.84375 0.609375 1.390625q0.609375 0.53125 1.53125 0.53125zm12.991455 -9.421875q3.734375 0 3.734375 4.109375l0 5.78125q0 0.40625 -0.234375 0.640625q-0.21875 0.21875 -0.625 0.21875q-0.40625 0 -0.640625 -0.21875q-0.234375 -0.234375 -0.234375 -0.640625l0 -5.671875q0 -1.453125 -0.5625 -2.109375q-0.5625 -0.65625 -1.796875 -0.65625q-1.4375 0 -2.296875 0.875q-0.84375 0.875 -0.84375 2.359375l0 5.203125q0 0.40625 -0.234375 0.640625q-0.21875 0.21875 -0.625 0.21875q-0.40625 0 -0.640625 -0.21875q-0.234375 -0.234375 -0.234375 -0.640625l0 -9.0q0 -0.375 0.234375 -0.609375q0.234375 -0.234375 0.640625 -0.234375q0.390625 0 0.609375 0.234375q0.234375 0.234375 0.234375 0.59375l0 1.078125q0.5 -0.953125 1.421875 -1.453125q0.921875 -0.5 2.09375 -0.5zm17.445236 10.8125q-1.59375 0 -3.0625 -0.484375q-1.453125 -0.484375 -2.328125 -1.28125q-0.328125 -0.296875 -0.328125 -0.75q0 -0.296875 0.171875 -0.515625q0.171875 -0.234375 0.40625 -0.234375q0.28125 0 0.59375 0.234375q1.984375 1.53125 4.53125 1.53125q1.828125 0 2.796875 -0.703125q0.984375 -0.703125 0.984375 -2.0q0 -0.75 -0.46875 -1.203125q-0.46875 -0.453125 -1.234375 -0.734375q-0.765625 -0.28125 -2.0625 -0.578125q-1.75 -0.40625 -2.875 -0.84375q-1.109375 -0.453125 -1.8125 -1.28125q-0.6875 -0.84375 -0.6875 -2.1875q0 -1.28125 0.6875 -2.265625q0.703125 -1.0 1.9375 -1.53125q1.25 -0.546875 2.859375 -0.546875q1.484375 0 2.765625 0.453125q1.296875 0.453125 2.171875 1.3125q0.34375 0.34375 0.34375 0.75q0 0.296875 -0.171875 0.53125q-0.171875 0.21875 -0.40625 0.21875q-0.234375 0 -0.609375 -0.234375q-1.046875 -0.859375 -1.953125 -1.203125q-0.890625 -0.34375 -2.140625 -0.34375q-1.78125 0 -2.765625 0.734375q-0.96875 0.734375 -0.96875 2.0625q0 1.125 0.859375 1.703125q0.859375 0.5625 2.65625 0.984375q1.9375 0.46875 3.046875 0.875q1.109375 0.390625 1.84375 1.1875q0.734375 0.78125 0.734375 2.09375q0 1.265625 -0.6875 2.234375q-0.6875 0.953125 -1.953125 1.484375q-1.25 0.53125 -2.875 0.53125zm13.331375 -10.8125q1.359375 0 2.40625 0.6875q1.046875 0.671875 1.625 1.90625q0.578125 1.21875 0.578125 2.84375q0 1.625 -0.578125 2.828125q-0.578125 1.203125 -1.609375 1.875q-1.03125 0.65625 -2.421875 0.65625q-1.21875 0 -2.125 -0.53125q-0.90625 -0.546875 -1.375 -1.515625l0 5.0q0 0.390625 -0.234375 0.609375q-0.21875 0.234375 -0.625 0.234375q-0.40625 0 -0.640625 -0.25q-0.234375 -0.234375 -0.234375 -0.59375l0 -12.859375q0 -0.375 0.234375 -0.609375q0.234375 -0.234375 0.640625 -0.234375q0.40625 0 0.625 0.234375q0.234375 0.234375 0.234375 0.609375l0 1.15625q0.46875 -0.984375 1.375 -1.515625q0.90625 -0.53125 2.125 -0.53125zm-0.34375 9.359375q1.515625 0 2.34375 -1.015625q0.828125 -1.03125 0.828125 -2.90625q0 -1.875 -0.828125 -2.921875q-0.828125 -1.0625 -2.34375 -1.0625q-1.515625 0 -2.34375 1.03125q-0.8125 1.015625 -0.8125 2.90625q0 1.90625 0.8125 2.9375q0.828125 1.03125 2.34375 1.03125zm15.569275 -1.125q0.234375 0 0.40625 0.1875q0.171875 0.1875 0.171875 0.484375q0 0.546875 -0.75 0.984375q-0.765625 0.453125 -1.625 0.6875q-0.84375 0.21875 -1.65625 0.21875q-2.40625 0 -3.8125 -1.421875q-1.390625 -1.4375 -1.390625 -3.953125q0 -1.609375 0.609375 -2.828125q0.625 -1.234375 1.734375 -1.90625q1.125 -0.6875 2.5625 -0.6875q2.015625 0 3.203125 1.328125q1.203125 1.3125 1.203125 3.578125q0 0.421875 -0.171875 0.625q-0.171875 0.1875 -0.546875 0.1875l-6.875 0q0.203125 3.65625 3.484375 3.65625q0.828125 0 1.421875 -0.21875q0.609375 -0.21875 1.28125 -0.609375q0.5625 -0.3125 0.75 -0.3125zm-3.734375 -6.890625q-1.359375 0 -2.1875 0.859375q-0.8125 0.84375 -0.96875 2.40625l6.03125 0q-0.03125 -1.578125 -0.78125 -2.421875q-0.75 -0.84375 -2.09375 -0.84375zm11.224335 9.453125q-1.453125 0 -2.578125 -0.65625q-1.109375 -0.671875 -1.71875 -1.890625q-0.609375 -1.21875 -0.609375 -2.8125q0 -1.59375 0.625 -2.828125q0.625 -1.25 1.75 -1.921875q1.140625 -0.6875 2.609375 -0.6875q0.8125 0 1.609375 0.234375q0.796875 0.21875 1.40625 0.640625q0.375 0.25 0.53125 0.5q0.171875 0.25 0.171875 0.546875q0 0.296875 -0.171875 0.484375q-0.15625 0.1875 -0.40625 0.1875q-0.15625 0 -0.328125 -0.078125q-0.171875 -0.09375 -0.296875 -0.171875q-0.109375 -0.078125 -0.140625 -0.109375q-0.5625 -0.359375 -1.0625 -0.5625q-0.5 -0.21875 -1.21875 -0.21875q-1.5625 0 -2.4375 1.0625q-0.859375 1.046875 -0.859375 2.921875q0 1.875 0.859375 2.90625q0.875 1.015625 2.4375 1.015625q0.71875 0 1.234375 -0.203125q0.53125 -0.21875 1.0625 -0.578125q0.234375 -0.15625 0.4375 -0.265625q0.21875 -0.109375 0.375 -0.109375q0.234375 0 0.390625 0.203125q0.15625 0.1875 0.15625 0.484375q0 0.28125 -0.15625 0.5q-0.140625 0.21875 -0.546875 0.5q-0.59375 0.40625 -1.4375 0.65625q-0.84375 0.25 -1.6875 0.25zm10.731842 -1.421875q0.734375 0.078125 0.734375 0.6875q0 0.359375 -0.265625 0.546875q-0.265625 0.1875 -0.796875 0.140625l-0.578125 -0.046875q-1.703125 -0.125 -2.515625 -1.015625q-0.8125 -0.90625 -0.8125 -2.71875l0 -5.34375l-1.421875 0q-0.359375 0 -0.5625 -0.1875q-0.203125 -0.1875 -0.203125 -0.484375q0 -0.3125 0.203125 -0.5q0.203125 -0.203125 0.5625 -0.203125l1.421875 0l0 -2.40625q0 -0.40625 0.234375 -0.625q0.234375 -0.234375 0.640625 -0.234375q0.390625 0 0.625 0.234375q0.234375 0.21875 0.234375 0.625l0 2.40625l2.359375 0q0.34375 0 0.546875 0.203125q0.203125 0.1875 0.203125 0.5q0 0.296875 -0.203125 0.484375q-0.203125 0.1875 -0.546875 0.1875l-2.359375 0l0 5.4375q0 1.171875 0.46875 1.703125q0.484375 0.515625 1.453125 0.578125l0.578125 0.03125zm6.751587 1.421875q-1.46875 0 -2.59375 -0.65625q-1.109375 -0.671875 -1.71875 -1.890625q-0.609375 -1.234375 -0.609375 -2.859375q0 -1.625 0.609375 -2.84375q0.609375 -1.234375 1.71875 -1.890625q1.125 -0.65625 2.59375 -0.65625q1.46875 0 2.59375 0.65625q1.140625 0.65625 1.75 1.890625q0.609375 1.21875 0.609375 2.84375q0 1.625 -0.609375 2.859375q-0.609375 1.21875 -1.75 1.890625q-1.125 0.65625 -2.59375 0.65625zm0 -1.4375q1.53125 0 2.34375 -1.015625q0.828125 -1.015625 0.828125 -2.953125q0 -1.890625 -0.828125 -2.921875q-0.828125 -1.046875 -2.34375 -1.046875q-1.515625 0 -2.34375 1.046875q-0.828125 1.03125 -0.828125 2.921875q0 1.921875 0.8125 2.953125q0.828125 1.015625 2.359375 1.015625zm12.665283 -9.3125q0.90625 -0.078125 0.90625 0.71875q0 0.34375 -0.203125 0.546875q-0.1875 0.203125 -0.65625 0.25l-0.640625 0.0625q-1.421875 0.125 -2.125 1.015625q-0.6875 0.875 -0.6875 2.078125l0 5.171875q0 0.4375 -0.234375 0.65625q-0.234375 0.203125 -0.625 0.203125q-0.375 0 -0.625 -0.21875q-0.25 -0.234375 -0.25 -0.640625l0 -9.0q0 -0.40625 0.25 -0.625q0.265625 -0.21875 0.625 -0.21875q0.34375 0 0.578125 0.21875q0.234375 0.21875 0.234375 0.609375l0 1.1875q0.453125 -0.9375 1.265625 -1.421875q0.828125 -0.5 1.890625 -0.578125l0.296875 -0.015625z" fill-rule="nonzero"/></g></svg>