<svg version="1.1" viewBox="0.0 0.0 960.0 540.0" fill="none" stroke="none" stroke-linecap="square" stroke-miterlimit="10" xmlns:xlink="http://www.w3.org/1999/xlink" xmlns="http://www.w3.org/2000/svg"><clipPath id="g3a1d405597_0_279.0"><path d="m0 0l960.0 0l0 540.0l-960.0 0l0 -540.0z" clip-rule="nonzero"/></clipPath><g clip-path="url(#g3a1d405597_0_279.0)"><path fill="#c0791b" d="m0 0l960.0 0l0 540.0l-960.0 0z" fill-rule="evenodd"/><path fill="#ffffff" fill-opacity="0.0902" d="m894.3754 133.42087l0 0c-15.91626 22.02182 -46.671143 26.97136 -68.69293 11.055115l0 0c-10.575256 -7.6432343 -17.681091 -19.174438 -19.754333 -32.05686c-2.0732422 -12.882416 1.0559692 -26.060799 8.699219 -36.636047l0 0c15.91626 -22.021809 46.67108 -26.971355 68.69293 -11.055115l0 0c22.02179 15.916237 26.971313 46.671104 11.055115 68.69291z" fill-rule="evenodd"/><path fill="#ffffff" fill-opacity="0.0902" d="m805.31384 105.62816l0 0c-0.5031128 -24.116867 16.553223 -45.041424 40.276306 -49.410645c23.723145 -4.3692207 47.11499 9.105759 55.236877 31.819435c8.121948 22.713676 -1.4219971 47.965767 -22.536743 59.62957l-23.78888 -43.064545z" fill-rule="evenodd"/><path fill="#ffffff" fill-opacity="0.0902" d="m915.1407 148.43637l0 0c-24.204895 33.493683 -70.98584 41.023758 -104.48822 16.818893l0 0c-16.088379 -11.623581 -26.90039 -29.160522 -30.057495 -48.752907c-3.1571655 -19.592384 1.5993042 -39.6353 13.222839 -55.71953l0 0c24.204895 -33.49368 70.98584 -41.023758 104.48822 -16.818897l0 0c33.50238 24.204853 41.03949 70.97876 16.834656 104.47244z" fill-rule="evenodd"/><path fill="#ffffff" fill-opacity="0.0902" d="m887.1523 214.03633l0 0c9.671509 -13.376587 28.355713 -16.380157 41.7323 -6.708664l0 0c6.423706 4.6444244 10.739258 11.650421 11.9973755 19.476746c1.2581177 7.826309 -0.6442871 15.831879 -5.2886963 22.255539l0 0c-9.671509 13.376602 -28.355713 16.380173 -41.7323 6.708664l0 0c-13.376587 -9.671509 -16.380127 -28.355682 -6.708679 -41.732285z" fill-rule="evenodd"/><path fill="#ffffff" fill-opacity="0.0902" d="m894.6582 219.42905l0 0c6.6708984 -9.236633 19.566528 -11.316574 28.803162 -4.6456604l0 0c4.435608 3.203476 7.416931 8.037781 8.288147 13.439423c0.87127686 5.401642 -0.43896484 10.928131 -3.642456 15.363724l0 0c-6.6708984 9.236633 -19.566528 11.316574 -28.803162 4.6456757l0 0c-9.236633 -6.6709137 -11.316589 -19.566513 -4.645691 -28.803162z" fill-rule="evenodd"/><path fill="#ffffff" fill-opacity="0.0902" d="m897.8927 247.11624l0 0c-5.1034546 -4.4107666 -7.7282715 -11.037888 -7.0290527 -17.746933c0.69921875 -6.7090454 4.6341553 -12.652527 10.537415 -15.916168l9.981567 18.054657z" fill-rule="evenodd"/><path fill="#ffffff" fill-opacity="0.0902" d="m732.9936 29.2028l0 0c6.6708984 -9.236637 19.566528 -11.316574 28.803162 -4.64567l0 0c4.435608 3.2034817 7.416931 8.0377865 8.288147 13.4394245c0.8712158 5.401638 -0.43902588 10.928135 -3.642456 15.363728l0 0c-6.6708984 9.236633 -19.566528 11.316574 -28.803162 4.645668l0 0c-9.236633 -6.670906 -11.316589 -19.566513 -4.645691 -28.80315z" fill-rule="evenodd"/><path fill="#ffffff" fill-opacity="0.0902" d="m736.2281 56.889996l0 0c-5.1034546 -4.4107666 -7.7282715 -11.037895 -7.0290527 -17.74694c0.69921875 -6.7090454 4.6341553 -12.652519 10.537415 -15.916164l9.981567 18.05465z" fill-rule="evenodd"/><path fill="#000000" fill-opacity="0.0" d="m86.509186 80.16798l614.9922 0l0 375.14963l-614.9922 0z" fill-rule="evenodd"/><path fill="#ffffff" d="m142.79044 223.80716l-8.984375 32.015625l-7.671875 0l-6.390625 -20.78125l-6.375 20.78125l-7.6875 0l-8.96875 -32.015625l8.5 0l5.03125 22.375l6.484375 -22.375l6.0 0l6.53125 22.421875l5.03125 -22.421875l8.5 0zm18.433228 7.0625q4.21875 0 6.5625 2.109375q2.359375 2.109375 2.359375 6.90625l0 15.9375l-7.140625 0l0 -14.453125q0 -4.609375 -4.609375 -4.609375q-1.109375 0 -2.265625 0.34375q-1.15625 0.328125 -1.765625 0.8125l-0.109375 17.90625l-7.09375 0l0 -33.890625l7.203125 0l0 10.703125q3.3125 -1.765625 6.859375 -1.765625zm25.874939 -0.0625q3.984375 0 7.234375 1.859375q3.265625 1.84375 3.265625 6.640625l-0.046875 11.46875q-0.046875 3.03125 -3.03125 4.40625q-2.96875 1.359375 -8.671875 1.359375q-10.65625 0 -10.65625 -8.296875q0 -3.515625 2.171875 -5.484375q2.1875 -1.96875 6.515625 -1.96875q1.78125 0 3.546875 0.46875q1.78125 0.453125 3.078125 1.171875l0 -1.53125q0 -4.1875 -5.375 -4.1875q-2.0625 0 -4.25 0.75q-2.1875 0.75 -3.484375 1.796875l0 -6.328125q1.296875 -0.875 3.953125 -1.5q2.671875 -0.625 5.75 -0.625zm-1.015625 20.703125q2.5 0 3.453125 -0.328125q0.96875 -0.34375 0.96875 -1.359375l0 -3.75q-1.6875 -0.5625 -3.703125 -0.5625q-2.34375 0 -3.4375 0.703125q-1.078125 0.6875 -1.078125 2.171875q0 1.390625 1.125 2.265625q1.140625 0.859375 2.671875 0.859375zm27.799805 5.265625q-4.1875 0 -6.28125 -1.953125q-2.078125 -1.96875 -2.078125 -5.671875l0 -12.140625l-3.546875 0l0 -5.46875l3.546875 0l0 -6.671875l7.484375 0l0 6.671875l5.328125 0l0 5.46875l-5.328125 0l0 11.234375q0 1.234375 0.53125 1.84375q0.53125 0.59375 1.78125 0.59375q0.765625 0 1.578125 -0.25q0.8125 -0.265625 1.4375 -0.75l0 6.09375q-1.8125 1.0 -4.453125 1.0zm23.134567 -34.078125l7.390625 0l0 5.53125l-7.390625 0l0 -5.53125zm0.140625 9.171875l7.15625 0l0.046875 23.953125l-7.203125 0l0 -23.953125zm13.587402 1.734375q1.875 -1.015625 5.7031403 -1.875q3.84375 -0.859375 6.875 -0.859375q5.125 0 7.71875 2.015625q2.59375 2.015625 2.59375 6.625l0 16.3125l-7.15625 0l0 -14.875q0 -4.1875 -4.703125 -4.1875q-1.046875 0 -2.15625 0.25q-1.109375 0.234375 -1.734375 0.578125l0 18.234375l-7.1406403 0l0 -22.21875zm31.04457 3.40625l-3.546875 0l0 -5.46875l3.609375 0l0 -0.578125q0.046875 -5.484375 2.515625 -7.609375q2.46875 -2.140625 6.734375 -2.140625q0.78125 0 1.6875 0.15625q0.90625 0.140625 1.484375 0.328125l0 6.28125q-0.53125 -0.53125 -1.0625 -0.78125q-0.515625 -0.265625 -1.328125 -0.265625q-1.34375 0 -2.125 0.71875q-0.765625 0.71875 -0.765625 2.4375l0 1.453125l5.28125 0l0 5.46875l-5.328125 0l0 18.8125l-7.15625 0l0 -18.8125zm28.037018 19.53125q-6.140625 0 -9.21875 -3.265625q-3.0625 -3.265625 -3.0625 -9.6875q0 -6.71875 3.046875 -9.796875q3.046875 -3.078125 9.234375 -3.078125q6.1875 0 9.3125 3.15625q3.125 3.140625 3.125 9.71875q0 6.328125 -3.21875 9.640625q-3.21875 3.3125 -9.21875 3.3125zm0 -5.703125q2.640625 0 3.984375 -1.84375q1.34375 -1.859375 1.34375 -5.40625q0 -3.890625 -1.328125 -5.546875q-1.3125 -1.65625 -4.0 -1.65625q-2.78125 0 -4.015625 1.65625q-1.21875 1.65625 -1.21875 5.546875q0 3.6875 1.265625 5.46875q1.28125 1.78125 3.96875 1.78125zm17.382568 -16.765625q0.71875 -0.625 2.515625 -1.390625q1.796875 -0.765625 4.03125 -1.3125q2.234375 -0.5625 4.296875 -0.5625q3.984375 0 5.5155945 1.203125l0 5.234375q-1.9218445 -0.4375 -5.5155945 -0.4375q-2.25 0 -3.703125 0.25l0 18.765625l-7.140625 0l0 -21.75zm48.18466 -3.203125q5.09375 0 7.53125 2.0q2.453125 1.984375 2.453125 6.640625l0 16.3125l-7.15625 0l0 -14.875q0 -4.1875 -4.703125 -4.1875q-1.96875 0 -3.3125 0.921875q0.109375 1.15625 0.109375 1.828125l0 16.3125l-7.15625 0l0 -14.875q0 -4.1875 -4.703125 -4.1875q-1.921875 0 -3.5625 0.828125l0 18.234375l-7.140625 0l0 -22.21875q1.875 -1.015625 5.703125 -1.875q3.84375 -0.859375 6.875 -0.859375q4.84375 0 7.140625 1.71875q1.875 -0.8125 3.953125 -1.265625q2.09375 -0.453125 3.96875 -0.453125zm26.936829 -0.0625q3.984375 0 7.234375 1.859375q3.265625 1.84375 3.265625 6.640625l-0.046875 11.46875q-0.046875 3.03125 -3.03125 4.40625q-2.96875 1.359375 -8.671875 1.359375q-10.65625 0 -10.65625 -8.296875q0 -3.515625 2.171875 -5.484375q2.1875 -1.96875 6.515625 -1.96875q1.78125 0 3.546875 0.46875q1.78125 0.453125 3.078125 1.171875l0 -1.53125q0 -4.1875 -5.375 -4.1875q-2.0625 0 -4.25 0.75q-2.1875 0.75 -3.484375 1.796875l0 -6.328125q1.296875 -0.875 3.953125 -1.5q2.671875 -0.625 5.75 -0.625zm-1.015625 20.703125q2.5 0 3.453125 -0.328125q0.96875 -0.34375 0.96875 -1.359375l0 -3.75q-1.6875 -0.5625 -3.703125 -0.5625q-2.34375 0 -3.4375 0.703125q-1.078125 0.6875 -1.078125 2.171875q0 1.390625 1.125 2.265625q1.140625 0.859375 2.671875 0.859375zm27.799805 5.265625q-4.1875 0 -6.28125 -1.953125q-2.078125 -1.96875 -2.078125 -5.671875l0 -12.140625l-3.546875 0l0 -5.46875l3.546875 0l0 -6.671875l7.484375 0l0 6.671875l5.328125 0l0 5.46875l-5.328125 0l0 11.234375q0 1.234375 0.53125 1.84375q0.53125 0.59375 1.78125 0.59375q0.765625 0 1.578125 -0.25q0.8125 -0.265625 1.4375 -0.75l0 6.09375q-1.8125 1.0 -4.453125 1.0zm9.886536 -34.078125l7.390625 0l0 5.53125l-7.390625 0l0 -5.53125zm0.140625 9.171875l7.15625 0l0.046875 23.953125l-7.203125 0l0 -23.953125zm24.524902 24.671875q-6.140625 0 -9.21875 -3.265625q-3.0625 -3.265625 -3.0625 -9.6875q0 -6.71875 3.046875 -9.796875q3.046875 -3.078125 9.234375 -3.078125q6.1875 0 9.3125 3.15625q3.125 3.140625 3.125 9.71875q0 6.328125 -3.21875 9.640625q-3.21875 3.3125 -9.21875 3.3125zm0 -5.703125q2.640625 0 3.984375 -1.84375q1.34375 -1.859375 1.34375 -5.40625q0 -3.890625 -1.328125 -5.546875q-1.3125 -1.65625 -4.0 -1.65625q-2.78125 0 -4.015625 1.65625q-1.21875 1.65625 -1.21875 5.546875q0 3.6875 1.265625 5.46875q1.28125 1.78125 3.96875 1.78125zm17.382568 -17.234375q1.875 -1.015625 5.703125 -1.875q3.84375 -0.859375 6.875 -0.859375q5.125 0 7.71875 2.015625q2.59375 2.015625 2.59375 6.625l0 16.3125l-7.15625 0l0 -14.875q0 -4.1875 -4.703125 -4.1875q-1.046875 0 -2.15625 0.25q-1.109375 0.234375 -1.734375 0.578125l0 18.234375l-7.140625 0l0 -22.21875zm65.37076 -12.046875l0 27.921875q0 2.265625 -1.59375 3.859375q-1.578125 1.578125 -4.171875 2.390625q-2.578125 0.8125 -5.515625 0.8125q-6.1875 0 -9.578125 -2.921875q-3.375 -2.9375 -3.375 -10.140625q0 -6.046875 2.953125 -9.375q2.953125 -3.34375 8.65625 -3.34375q3.40625 0 5.515625 1.25l0 -10.453125l7.109375 0zm-7.109375 15.984375q-1.90625 -1.015625 -3.734375 -1.015625q-3.21875 0 -4.703125 1.640625q-1.484375 1.625 -1.484375 5.515625q0 3.359375 1.390625 5.109375q1.390625 1.75 4.65625 1.75q1.765625 0 2.8125 -0.46875q1.0625 -0.484375 1.0625 -1.359375l0 -11.171875zm13.450806 -14.84375l7.390625 0l0 5.53125l-7.390625 0l0 -5.53125zm0.140625 9.171875l7.15625 0l0.046875 23.953125l-7.203125 0l0 -23.953125zm36.478027 -10.3125l0 27.921875q0 2.265625 -1.59375 3.859375q-1.578125 1.578125 -4.171875 2.390625q-2.578125 0.8125 -5.515625 0.8125q-6.1875 0 -9.578125 -2.921875q-3.375 -2.9375 -3.375 -10.140625q0 -6.046875 2.953125 -9.375q2.953125 -3.34375 8.65625 -3.34375q3.40625 0 5.515625 1.25l0 -10.453125l7.109375 0zm-7.109375 15.984375q-1.90625 -1.015625 -3.734375 -1.015625q-3.21875 0 -4.703125 1.640625q-1.484375 1.625 -1.484375 5.515625q0 3.359375 1.390625 5.109375q1.390625 1.75 4.65625 1.75q1.765625 0 2.8125 -0.46875q1.0625 -0.484375 1.0625 -1.359375l0 -11.171875zm26.933228 -13.734375l7.78125 0l0 32.015625l-7.78125 0l0 -32.015625z" fill-rule="nonzero"/><path fill="#ffffff" d="m124.11856 289.54153l-10.125 24.28125l-7.15625 0l-10.125 -24.28125l7.71875 0l6.4375 16.40625l5.71875 -16.40625l7.53125 0zm4.3705597 -8.84375l7.390625 0l0 5.53125l-7.390625 0l0 -5.53125zm0.140625 9.171875l7.15625 0l0.046875 23.953125l-7.203125 0l0 -23.953125zm20.790527 24.671875q-2.3125 0 -4.046875 -0.453125q-1.71875 -0.453125 -3.828125 -1.328125l0 -6.28125q3.890625 2.921875 8.15625 2.921875q1.625 0 2.375 -0.546875q0.75 -0.546875 0.75 -1.515625q0 -1.09375 -1.203125 -1.625q-1.203125 -0.53125 -3.84375 -1.15625q-2.78125 -0.578125 -4.578125 -2.296875q-1.796875 -1.734375 -1.796875 -5.046875q0 -2.828125 1.4375 -4.65625q1.4375 -1.828125 3.609375 -2.65625q2.1875 -0.84375 4.546875 -0.84375q2.875 0 4.671875 0.5q1.8125 0.5 3.53125 1.5625l0 5.609375q-2.4375 -1.34375 -3.78125 -1.90625q-1.34375 -0.578125 -3.125 -0.578125q-1.78125 0 -2.640625 0.546875q-0.859375 0.546875 -0.859375 1.5625q0 1.203125 0.953125 1.75q0.953125 0.546875 3.078125 1.125q2.390625 0.625 3.78125 1.234375q1.390625 0.59375 2.5 2.0625q1.109375 1.453125 1.109375 4.09375q-0.09375 4.125 -3.125 6.03125q-3.015625 1.890625 -7.671875 1.890625zm27.354797 0q-5.328125 0 -8.375 -2.484375q-3.046875 -2.5 -3.046875 -7.5l0 -15.015625l7.140625 0l0 14.4375q0 2.3125 1.03125 3.4375q1.046875 1.125 3.296875 1.125q2.25 0 3.28125 -1.125q1.03125 -1.125 1.03125 -3.4375l0 -14.4375l6.734375 0l0 15.015625q0 5.046875 -2.90625 7.515625q-2.90625 2.46875 -8.1875 2.46875zm28.035553 -25.734375q3.984375 0 7.234375 1.859375q3.265625 1.84375 3.265625 6.640625l-0.046875 11.46875q-0.046875 3.03125 -3.03125 4.40625q-2.96875 1.359375 -8.671875 1.359375q-10.65625 0 -10.65625 -8.296875q0 -3.515625 2.171875 -5.484375q2.1875 -1.96875 6.515625 -1.96875q1.78125 0 3.546875 0.46875q1.78125 0.453125 3.078125 1.171875l0 -1.53125q0 -4.1875 -5.375 -4.1875q-2.0625 0 -4.25 0.75q-2.1875 0.75 -3.484375 1.796875l0 -6.328125q1.296875 -0.875 3.953125 -1.5q2.671875 -0.625 5.75 -0.625zm-1.015625 20.703125q2.5 0 3.453125 -0.328125q0.96875 -0.34375 0.96875 -1.359375l0 -3.75q-1.6875 -0.5625 -3.703125 -0.5625q-2.34375 0 -3.4375 0.703125q-1.078125 0.6875 -1.078125 2.171875q0 1.390625 1.125 2.265625q1.140625 0.859375 2.671875 0.859375zm17.862305 4.3125l0 -33.453125l7.09375 0l0 33.453125l-7.09375 0zm13.440033 -33.125l7.390625 0l0 5.53125l-7.390625 0l0 -5.53125zm0.140625 9.171875l7.15625 0l0.046875 23.953125l-7.203125 0l0 -23.953125zm31.868668 5.234375l-10.609375 13.0l10.609375 0l0 5.71875l-19.29689 0l0 -5.65625l11.76564 -13.25l-11.468765 0l0 -5.375l19.000015 0l0 5.5625zm16.084778 -6.390625q11.375 0 11.234375 14.84375l-16.03125 0q0.90625 5.03125 6.765625 5.03125q1.765625 0 3.46875 -0.5q1.71875 -0.5 3.625 -1.328125l0 6.15625q-3.921875 1.625 -8.828125 1.625q-3.6875 0 -6.484375 -1.5q-2.78125 -1.515625 -4.3125 -4.34375q-1.53125 -2.84375 -1.53125 -6.6875q0 -6.328125 3.140625 -9.8125q3.140625 -3.484375 8.953125 -3.484375zm-0.296875 5.484375q-3.828125 0 -4.546875 4.796875l8.96875 0q-0.328125 -2.59375 -1.375 -3.6875q-1.03125 -1.109375 -3.046875 -1.109375zm21.9917 9.59375q0 -2.40625 0.640625 -4.078125q0.65625 -1.6875 1.546875 -2.71875q0.890625 -1.03125 2.28125 -2.28125q1.390625 -1.25 2.015625 -2.078125q0.625 -0.84375 0.625 -2.046875q0 -2.203125 -1.328125 -3.0625q-1.3125 -0.875 -3.625 -0.875q-1.875 0 -3.75 0.65625q-1.859375 0.640625 -3.203125 1.65625l0 -5.421875q1.09375 -0.78125 3.25 -1.453125q2.171875 -0.671875 4.515625 -0.671875q4.5625 0 7.171875 2.484375q2.625 2.46875 2.625 6.6875q0 1.640625 -0.5 2.859375q-0.5 1.21875 -1.203125 2.046875q-0.6875 0.8125 -1.890625 1.90625q-1.734375 1.546875 -2.625 2.9375q-0.890625 1.390625 -0.890625 3.640625l0 0.96875l-5.65625 0l0 -1.15625zm-0.34375 4.5625l6.34375 0l0 5.46875l-6.34375 0l0 -5.46875z" fill-rule="nonzero"/></g></svg>