<svg version="1.1" viewBox="0.0 0.0 960.0 540.0" fill="none" stroke="none" stroke-linecap="square" stroke-miterlimit="10" xmlns:xlink="http://www.w3.org/1999/xlink" xmlns="http://www.w3.org/2000/svg"><clipPath id="g3a1d405597_0_288.0"><path d="m0 0l960.0 0l0 540.0l-960.0 0l0 -540.0z" clip-rule="nonzero"/></clipPath><g clip-path="url(#g3a1d405597_0_288.0)"><path fill="#c0791b" d="m0 0l960.0 0l0 540.0l-960.0 0z" fill-rule="evenodd"/><path fill="#ffffff" fill-opacity="0.0902" d="m894.3754 133.42087l0 0c-15.91626 22.02182 -46.671143 26.97136 -68.69293 11.055115l0 0c-10.575256 -7.6432343 -17.681091 -19.174438 -19.754333 -32.05686c-2.0732422 -12.882416 1.0559692 -26.060799 8.699219 -36.636047l0 0c15.91626 -22.021809 46.67108 -26.971355 68.69293 -11.055115l0 0c22.02179 15.916237 26.971313 46.671104 11.055115 68.69291z" fill-rule="evenodd"/><path fill="#ffffff" fill-opacity="0.0902" d="m805.31384 105.62816l0 0c-0.5031128 -24.116867 16.553223 -45.041424 40.276306 -49.410645c23.723145 -4.3692207 47.11499 9.105759 55.236877 31.819435c8.121948 22.713676 -1.4219971 47.965767 -22.536743 59.62957l-23.78888 -43.064545z" fill-rule="evenodd"/><path fill="#ffffff" fill-opacity="0.0902" d="m915.1407 148.43637l0 0c-24.204895 33.493683 -70.98584 41.023758 -104.48822 16.818893l0 0c-16.088379 -11.623581 -26.90039 -29.160522 -30.057495 -48.752907c-3.1571655 -19.592384 1.5993042 -39.6353 13.222839 -55.71953l0 0c24.204895 -33.49368 70.98584 -41.023758 104.48822 -16.818897l0 0c33.50238 24.204853 41.03949 70.97876 16.834656 104.47244z" fill-rule="evenodd"/><path fill="#ffffff" fill-opacity="0.0902" d="m887.1523 214.03633l0 0c9.671509 -13.376587 28.355713 -16.380157 41.7323 -6.708664l0 0c6.423706 4.6444244 10.739258 11.650421 11.9973755 19.476746c1.2581177 7.826309 -0.6442871 15.831879 -5.2886963 22.255539l0 0c-9.671509 13.376602 -28.355713 16.380173 -41.7323 6.708664l0 0c-13.376587 -9.671509 -16.380127 -28.355682 -6.708679 -41.732285z" fill-rule="evenodd"/><path fill="#ffffff" fill-opacity="0.0902" d="m894.6582 219.42905l0 0c6.6708984 -9.236633 19.566528 -11.316574 28.803162 -4.6456604l0 0c4.435608 3.203476 7.416931 8.037781 8.288147 13.439423c0.87127686 5.401642 -0.43896484 10.928131 -3.642456 15.363724l0 0c-6.6708984 9.236633 -19.566528 11.316574 -28.803162 4.6456757l0 0c-9.236633 -6.6709137 -11.316589 -19.566513 -4.645691 -28.803162z" fill-rule="evenodd"/><path fill="#ffffff" fill-opacity="0.0902" d="m897.8927 247.11624l0 0c-5.1034546 -4.4107666 -7.7282715 -11.037888 -7.0290527 -17.746933c0.69921875 -6.7090454 4.6341553 -12.652527 10.537415 -15.916168l9.981567 18.054657z" fill-rule="evenodd"/><path fill="#ffffff" fill-opacity="0.0902" d="m732.9936 29.2028l0 0c6.6708984 -9.236637 19.566528 -11.316574 28.803162 -4.64567l0 0c4.435608 3.2034817 7.416931 8.0377865 8.288147 13.4394245c0.8712158 5.401638 -0.43902588 10.928135 -3.642456 15.363728l0 0c-6.6708984 9.236633 -19.566528 11.316574 -28.803162 4.645668l0 0c-9.236633 -6.670906 -11.316589 -19.566513 -4.645691 -28.80315z" fill-rule="evenodd"/><path fill="#ffffff" fill-opacity="0.0902" d="m736.2281 56.889996l0 0c-5.1034546 -4.4107666 -7.7282715 -11.037895 -7.0290527 -17.74694c0.69921875 -6.7090454 4.6341553 -12.652519 10.537415 -15.916164l9.981567 18.05465z" fill-rule="evenodd"/><path fill="#000000" fill-opacity="0.0" d="m86.509186 80.16798l614.9922 0l0 375.14963l-614.9922 0z" fill-rule="evenodd"/><path fill="#ffffff" d="m121.290436 277.7134l0 7.109375l-22.421875 0l0 -5.46875q2.984375 -1.734375 6.265625 -4.578125q3.28125 -2.859375 5.515625 -6.0q2.234375 -3.15625 2.234375 -5.65625q0 -2.4375 -1.484375 -3.65625q-1.484375 -1.234375 -4.03125 -1.234375q-2.109375 0 -4.015625 0.921875q-1.890625 0.90625 -4.203125 2.625l0 -6.609375q4.859375 -2.984375 10.5625 -2.984375q5.28125 0 8.109375 2.578125q2.84375 2.5625 2.84375 7.265625q0 3.171875 -1.78125 6.0q-1.78125 2.828125 -4.28125 5.015625q-2.484375 2.1875 -5.9375 4.671875l12.625 0zm6.230942 0.34375l6.96875 0l0 6.765625l-6.96875 0l0 -6.765625zm37.20018 7.4375q-3.640625 0 -6.328125 -0.515625q-2.6875 -0.5 -5.0 -1.6875l0 -7.390625q2.15625 1.71875 4.921875 2.65625q2.765625 0.9375 5.40625 0.9375q4.5 0 4.5 -3.40625q0 -1.484375 -1.4375 -2.328125q-1.4375 -0.84375 -4.65625 -1.890625q-1.484375 -0.484375 -1.8125 -0.625q-3.46875 -1.15625 -5.46875 -3.125q-1.984375 -1.96875 -1.984375 -5.859375q0 -2.734375 1.34375 -5.0625q1.34375 -2.328125 4.125 -3.71875q2.796875 -1.390625 6.875 -1.390625q2.828125 0 4.859375 0.5q2.046875 0.5 4.359375 1.609375l0 7.4375q-2.015625 -1.53125 -4.328125 -2.53125q-2.296875 -1.015625 -4.65625 -1.015625q-2.109375 0 -3.390625 0.84375q-1.265625 0.828125 -1.265625 2.421875q0 1.25 0.765625 2.046875q0.78125 0.78125 1.90625 1.21875q1.125 0.421875 3.625 1.1875q2.96875 0.875 4.890625 1.9375q1.921875 1.046875 3.0625 2.828125q1.15625 1.765625 1.15625 4.546875q0 2.9375 -1.34375 5.296875q-1.34375 2.34375 -3.953125 3.71875q-2.609375 1.359375 -6.171875 1.359375zm30.774185 -25.625q4.21875 0 6.5625 2.109375q2.359375 2.109375 2.359375 6.90625l0 15.9375l-7.140625 0l0 -14.453125q0 -4.609375 -4.609375 -4.609375q-1.109375 0 -2.265625 0.34375q-1.15625 0.328125 -1.765625 0.8125l-0.109375 17.90625l-7.09375 0l0 -33.890625l7.203125 0l0 10.703125q3.3125 -1.765625 6.859375 -1.765625zm25.874939 -0.0625q3.984375 0 7.234375 1.859375q3.265625 1.84375 3.265625 6.640625l-0.046875 11.46875q-0.046875 3.03125 -3.03125 4.40625q-2.96875 1.359375 -8.671875 1.359375q-10.65625 0 -10.65625 -8.296875q0 -3.515625 2.171875 -5.484375q2.1875 -1.96875 6.515625 -1.96875q1.78125 0 3.546875 0.46875q1.78125 0.453125 3.078125 1.171875l0 -1.53125q0 -4.1875 -5.375 -4.1875q-2.0625 0 -4.25 0.75q-2.1875 0.75 -3.484375 1.796875l0 -6.328125q1.296875 -0.875 3.953125 -1.5q2.671875 -0.625 5.75 -0.625zm-1.015625 20.703125q2.5 0 3.453125 -0.328125q0.96875 -0.34375 0.96875 -1.359375l0 -3.75q-1.6875 -0.5625 -3.703125 -0.5625q-2.34375 0 -3.4375 0.703125q-1.078125 0.6875 -1.078125 2.171875q0 1.390625 1.125 2.265625q1.140625 0.859375 2.671875 0.859375zm29.424805 -20.796875q5.859375 0 9.07814 3.046875q3.21875 3.046875 3.21875 10.15625q0 5.71875 -2.890625 9.171875q-2.875 3.453125 -7.8750153 3.453125q-3.640625 0 -6.09375 -1.296875l0 9.265625l-7.0 0l0 -27.84375q0 -2.921875 3.234375 -4.40625q3.234375 -1.5 8.328125 -1.546875zm-0.578125 20.0625q2.9375 0 4.328125 -1.625q1.390625 -1.625 1.390625 -5.46875q0 -3.453125 -1.234375 -5.203125q-1.21875 -1.765625 -4.1875 -1.765625q-4.28125 0 -4.28125 1.640625l0 11.421875q0.875 0.53125 1.921875 0.765625q1.0625 0.234375 2.0625 0.234375zm28.613693 -20.0625q11.375 0 11.234375 14.84375l-16.03125 0q0.90625 5.03125 6.765625 5.03125q1.765625 0 3.46875 -0.5q1.71875 -0.5 3.625 -1.328125l0 6.15625q-3.921875 1.625 -8.828125 1.625q-3.6875 0 -6.484375 -1.5q-2.78125 -1.515625 -4.3125 -4.34375q-1.53125 -2.84375 -1.53125 -6.6875q0 -6.328125 3.140625 -9.8125q3.140625 -3.484375 8.953125 -3.484375zm-0.296875 5.484375q-3.828125 0 -4.546875 4.796875l8.96875 0q-0.328125 -2.59375 -1.375 -3.6875q-1.03125 -1.109375 -3.046875 -1.109375zm43.53659 -16.65625l5.140625 0l-17.65625 40.984375l-5.09375 0l17.609375 -40.984375zm27.795563 10.265625l-8.96875 0l0 -6.0l25.875 0l0 6.0l-9.125 0l0 26.015625l-7.78125 0l0 -26.015625zm45.363556 1.734375l-9.546875 24.671875q-3.515625 9.015625 -9.3125 9.015625q-2.5 0 -4.328125 -0.859375l0 -5.8125q1.4375 0.53125 2.828125 0.53125q1.453125 0 2.4375 -0.828125q0.984375 -0.8125 1.546875 -2.671875l-9.734375 -24.046875l8.15625 0l5.140625 15.921875l5.125 -15.921875l7.6875 0zm15.885925 -0.828125q5.859375 0 9.078125 3.046875q3.21875 3.046875 3.21875 10.15625q0 5.71875 -2.890625 9.171875q-2.875 3.453125 -7.875 3.453125q-3.640625 0 -6.09375 -1.296875l0 9.265625l-7.0 0l0 -27.84375q0 -2.921875 3.234375 -4.40625q3.234375 -1.5 8.328125 -1.546875zm-0.578125 20.0625q2.9375 0 4.328125 -1.625q1.390625 -1.625 1.390625 -5.46875q0 -3.453125 -1.234375 -5.203125q-1.21875 -1.765625 -4.1875 -1.765625q-4.28125 0 -4.28125 1.640625l0 11.421875q0.875 0.53125 1.921875 0.765625q1.0625 0.234375 2.0625 0.234375zm28.613678 -20.0625q11.375 0 11.234375 14.84375l-16.03125 0q0.90625 5.03125 6.765625 5.03125q1.765625 0 3.46875 -0.5q1.71875 -0.5 3.625 -1.328125l0 6.15625q-3.921875 1.625 -8.828125 1.625q-3.6875 0 -6.484375 -1.5q-2.78125 -1.515625 -4.3125 -4.34375q-1.53125 -2.84375 -1.53125 -6.6875q0 -6.328125 3.140625 -9.8125q3.140625 -3.484375 8.953125 -3.484375zm-0.296875 5.484375q-3.828125 0 -4.546875 4.796875l8.96875 0q-0.328125 -2.59375 -1.375 -3.6875q-1.03125 -1.109375 -3.046875 -1.109375z" fill-rule="nonzero"/></g></svg>