<svg id="Layer_1" data-name="Layer 1" xmlns="http://www.w3.org/2000/svg" viewBox="0 0 1683.07 2202.26"><defs><style>.cls-1{font-size:30px;}.cls-1,.cls-104,.cls-108,.cls-13,.cls-134,.cls-142,.cls-48,.cls-55,.cls-76,.cls-98{font-family:MyriadPro-Regular, Myriad Pro;}.cls-2{letter-spacing:0.01em;}.cls-3{letter-spacing:0em;}.cls-4{letter-spacing:0em;}.cls-5{letter-spacing:-0.01em;}.cls-6{letter-spacing:0em;}.cls-7{letter-spacing:-0.01em;}.cls-8{letter-spacing:-0.01em;}.cls-9{letter-spacing:0em;}.cls-10,.cls-11,.cls-158,.cls-159,.cls-160,.cls-162,.cls-163,.cls-74{fill:none;}.cls-10,.cls-11,.cls-162,.cls-163,.cls-53{stroke:#000;}.cls-10,.cls-11,.cls-158,.cls-159,.cls-160,.cls-161,.cls-162,.cls-163,.cls-53{stroke-miterlimit:10;}.cls-11,.cls-53{stroke-width:5px;}.cls-12,.cls-53{fill:#22af5b;}.cls-13{font-size:17.79px;}.cls-13,.cls-161,.cls-75,.cls-76{fill:#e92000;}.cls-14{letter-spacing:-0.03em;}.cls-15{letter-spacing:-0.01em;}.cls-16{letter-spacing:-0.01em;}.cls-17{letter-spacing:0em;}.cls-18{letter-spacing:-0.03em;}.cls-19{letter-spacing:0em;}.cls-20{letter-spacing:-0.01em;}.cls-21{letter-spacing:0.01em;}.cls-22{letter-spacing:0em;}.cls-23{letter-spacing:-0.05em;}.cls-24{letter-spacing:-0.08em;}.cls-25{letter-spacing:0em;}.cls-26{letter-spacing:0.01em;}.cls-27{letter-spacing:-0.02em;}.cls-28{letter-spacing:-0.03em;}.cls-29{letter-spacing:0em;}.cls-30{letter-spacing:0em;}.cls-31{letter-spacing:-0.04em;}.cls-32{letter-spacing:-0.05em;}.cls-33{letter-spacing:0em;}.cls-34{letter-spacing:-0.01em;}.cls-35{letter-spacing:0.02em;}.cls-36{letter-spacing:0em;}.cls-37{letter-spacing:-0.05em;}.cls-38{letter-spacing:-0.07em;}.cls-39{letter-spacing:0.02em;}.cls-40{letter-spacing:-0.03em;}.cls-41{letter-spacing:0.02em;}.cls-42{letter-spacing:-0.07em;}.cls-43{letter-spacing:-0.01em;}.cls-44{letter-spacing:-0.01em;}.cls-45{letter-spacing:-0.08em;}.cls-46{letter-spacing:0.05em;}.cls-47{letter-spacing:-0.06em;}.cls-48{font-size:35.58px;}.cls-49{letter-spacing:0.01em;}.cls-50{letter-spacing:-0.01em;}.cls-51{letter-spacing:-0.08em;}.cls-104,.cls-108,.cls-150,.cls-151,.cls-152,.cls-153,.cls-52,.cls-98{fill:#93278f;}.cls-54{fill:#80dd80;}.cls-164,.cls-55{font-size:16px;}.cls-56{letter-spacing:-0.01em;}.cls-57{letter-spacing:-0.01em;}.cls-58{letter-spacing:0em;}.cls-59{letter-spacing:-0.03em;}.cls-60{letter-spacing:0em;}.cls-61{letter-spacing:0.01em;}.cls-62{letter-spacing:0em;}.cls-63{letter-spacing:0em;}.cls-64{letter-spacing:-0.02em;}.cls-65{letter-spacing:-0.01em;}.cls-66{letter-spacing:-0.04em;}.cls-67{letter-spacing:-0.01em;}.cls-68{letter-spacing:0.01em;}.cls-69{letter-spacing:-0.01em;}.cls-70{letter-spacing:-0.01em;}.cls-71{letter-spacing:-0.01em;}.cls-72{letter-spacing:1.81em;}.cls-73{letter-spacing:1.81em;}.cls-142,.cls-76{font-size:18px;}.cls-77{letter-spacing:-0.01em;}.cls-78{letter-spacing:-0.01em;}.cls-79{letter-spacing:0em;}.cls-80{letter-spacing:0em;}.cls-81{letter-spacing:-0.01em;}.cls-82{letter-spacing:0em;}.cls-83{letter-spacing:0em;}.cls-84{letter-spacing:0em;}.cls-85{letter-spacing:-0.01em;}.cls-86{letter-spacing:-0.01em;}.cls-87{letter-spacing:0em;}.cls-88{letter-spacing:0em;}.cls-89{letter-spacing:0.02em;}.cls-90{letter-spacing:0em;}.cls-91{letter-spacing:-0.01em;}.cls-92{letter-spacing:-0.01em;}.cls-93{letter-spacing:0.01em;}.cls-94{letter-spacing:0.02em;}.cls-95{letter-spacing:-0.03em;}.cls-96{letter-spacing:0em;}.cls-97{letter-spacing:0.01em;}.cls-98{font-size:15.84px;}.cls-99{letter-spacing:-0.05em;}.cls-100{letter-spacing:0em;}.cls-101{letter-spacing:0.01em;}.cls-102{letter-spacing:0em;}.cls-103{letter-spacing:0em;}.cls-104{font-size:15.6px;}.cls-105{letter-spacing:-0.02em;}.cls-106{letter-spacing:-0.01em;}.cls-107{letter-spacing:-0.03em;}.cls-108{font-size:15.84px;}.cls-109{letter-spacing:-0.01em;}.cls-110{letter-spacing:-0.03em;}.cls-111{letter-spacing:-0.01em;}.cls-112{letter-spacing:0em;}.cls-113{letter-spacing:0.01em;}.cls-114{letter-spacing:-0.01em;}.cls-115{letter-spacing:-0.04em;}.cls-116{letter-spacing:-0.02em;}.cls-117{letter-spacing:-0.06em;}.cls-118{letter-spacing:0.01em;}.cls-119{letter-spacing:0.01em;}.cls-120{letter-spacing:0em;}.cls-121{letter-spacing:0em;}.cls-122{letter-spacing:0em;}.cls-123{letter-spacing:-0.03em;}.cls-124{letter-spacing:0em;}.cls-125{letter-spacing:-0.01em;}.cls-126{letter-spacing:-0.01em;}.cls-127{letter-spacing:0.01em;}.cls-128{letter-spacing:-0.01em;}.cls-129{letter-spacing:0.02em;}.cls-130{letter-spacing:-0.03em;}.cls-131{letter-spacing:0em;}.cls-132{letter-spacing:0em;}.cls-133{letter-spacing:0.01em;}.cls-134{font-size:36px;}.cls-135{letter-spacing:-0.02em;}.cls-136{letter-spacing:-0.01em;}.cls-137{letter-spacing:0.01em;}.cls-138{letter-spacing:0em;}.cls-139{letter-spacing:-0.06em;}.cls-140{letter-spacing:0.02em;}.cls-141{letter-spacing:-0.02em;}.cls-143{letter-spacing:-0.01em;}.cls-144,.cls-154{font-size:150px;}.cls-144,.cls-149{font-family:LaoMN, Lao MN;}.cls-145{letter-spacing:0.01em;}.cls-146{letter-spacing:-0.07em;}.cls-147,.cls-153{letter-spacing:0em;}.cls-148{letter-spacing:-0.1em;}.cls-149{font-size:50px;}.cls-150{letter-spacing:-0.06em;}.cls-151{letter-spacing:-0.01em;}.cls-152{letter-spacing:-0.01em;}.cls-155{letter-spacing:-0.01em;}.cls-156{letter-spacing:0em;}.cls-157{letter-spacing:-0.01em;}.cls-158,.cls-159,.cls-161{stroke:#e92000;}.cls-158{stroke-width:1.5px;}.cls-159{stroke-width:2px;}.cls-160{stroke:#fff;}.cls-160,.cls-162,.cls-163{stroke-width:0.5px;}.cls-161{stroke-width:0.75px;}.cls-163{stroke-dasharray:6.05 2.02;}.cls-164{font-family:MyriadPro-Semibold, Myriad Pro;font-weight:700;}.cls-165{letter-spacing:1.48em;}.cls-166{letter-spacing:-0.01em;}.cls-167{letter-spacing:-0.05em;}.cls-168{letter-spacing:-0.08em;}.cls-169{letter-spacing:-0.04em;}.cls-170{letter-spacing:-0.02em;}.cls-171{letter-spacing:0.01em;}.cls-172{letter-spacing:0.02em;}</style></defs><title>three_trips_fonts</title><path d="M785.86,481.22h6.21V534a3.1,3.1,0,0,0,3.1,3.1h80.72A3.1,3.1,0,0,0,879,534V481.22h6.21a3.1,3.1,0,0,0,2.2-5.3l-49.67-49.67a3.1,3.1,0,0,0-4.39,0l-49.67,49.67a3.1,3.1,0,0,0,2.19,5.3Zm71.4,49.67H844.84v-31h12.42Zm15.52,0h-9.31V496.75a3.1,3.1,0,0,0-3.1-3.1H841.74a3.1,3.1,0,0,0-3.1,3.1V530.9H798.27V481.22h74.51Zm-37.25-98.06L877.7,475H793.35Z" transform="translate(-6.75 -107.75)"/><path d="M810.69,518.48h18.63a3.1,3.1,0,0,0,3.1-3.1V496.75a3.1,3.1,0,0,0-3.1-3.1H810.69a3.1,3.1,0,0,0-3.1,3.1v18.63A3.1,3.1,0,0,0,810.69,518.48Zm3.1-18.63h12.42v12.42H813.8Z" transform="translate(-6.75 -107.75)"/><text class="cls-1" transform="translate(943.24 348.78)"><tspan class="cls-2">H</tspan><tspan class="cls-3" x="19.86" y="0">illside </tspan><tspan class="cls-4" x="98.25" y="0">S</tspan><tspan x="112.95" y="0">t</tspan><tspan class="cls-5" x="122.88" y="0">r</tspan><tspan class="cls-3" x="132.39" y="0">eet</tspan><tspan class="cls-6" x="-26.64" y="36">B</tspan><tspan x="-10.26" y="36">os</tspan><tspan class="cls-7" x="18.09" y="36">t</tspan><tspan x="27.84" y="36">on, </tspan><tspan class="cls-8" x="73.53" y="36">M</tspan><tspan class="cls-9" x="97.35" y="36">A 02120</tspan></text><path class="cls-10" d="M1053.47,1305.09" transform="translate(-6.75 -107.75)"/><path class="cls-11" d="M1053.47,1305.09" transform="translate(-6.75 -107.75)"/><path class="cls-11" d="M834,2005.33" transform="translate(-6.75 -107.75)"/><path class="cls-11" d="M834,681.87" transform="translate(-6.75 -107.75)"/><path class="cls-11" d="M927.83,1942.33" transform="translate(-6.75 -107.75)"/><path class="cls-11" d="M740.17,1942.33" transform="translate(-6.75 -107.75)"/><path class="cls-11" d="M930.61,1793.74" transform="translate(-6.75 -107.75)"/><path class="cls-11" d="M740.17,1793.74" transform="translate(-6.75 -107.75)"/><path class="cls-11" d="M927.83,1645.16" transform="translate(-6.75 -107.75)"/><path class="cls-11" d="M740.17,1645.16" transform="translate(-6.75 -107.75)"/><path class="cls-11" d="M740.17,1496.57" transform="translate(-6.75 -107.75)"/><path class="cls-11" d="M740.17,1348" transform="translate(-6.75 -107.75)"/><path class="cls-11" d="M927.83,902.23" transform="translate(-6.75 -107.75)"/><path class="cls-11" d="M740.17,902.23" transform="translate(-6.75 -107.75)"/><path class="cls-11" d="M927.83,753.65" transform="translate(-6.75 -107.75)"/><path class="cls-11" d="M740.17,753.65" transform="translate(-6.75 -107.75)"/><rect class="cls-12" x="820.3" y="646.63" width="13.53" height="148.51"/><rect class="cls-12" x="824.48" y="794.48" width="5.53" height="148.59"/><rect class="cls-12" x="739.62" y="943.07" width="175.26" height="148.59"/><rect class="cls-12" x="825.4" y="1091.45" width="3.69" height="151.94"/><rect class="cls-12" x="803.26" y="1240.24" width="47.97" height="148.59"/><rect class="cls-12" x="825.71" y="1388.83" width="3.07" height="148.59"/><rect class="cls-12" x="818.33" y="1537.41" width="17.83" height="148.59"/><rect class="cls-12" x="823.56" y="1686" width="7.38" height="301.1"/><path class="cls-11" d="M834,604" transform="translate(-6.75 -107.75)"/><path class="cls-11" d="M834,681.87" transform="translate(-6.75 -107.75)"/><text class="cls-13" transform="translate(1030.72 645.9) scale(1.01 1)"><tspan class="cls-14">F</tspan><tspan x="8.11" y="0">e</tspan><tspan class="cls-15" x="17.03" y="0">n</tspan><tspan class="cls-16" x="26.67" y="0">w</tspan><tspan x="39.58" y="0">ood</tspan><tspan class="cls-17" x="0" y="21.35">R</tspan><tspan x="9.64" y="21.35">oad</tspan></text><text class="cls-13" transform="translate(1030.72 794.48) scale(1.01 1)"><tspan class="cls-18">P</tspan><tspan x="9" y="0">a</tspan><tspan class="cls-17" x="17.58" y="0">r</tspan><tspan x="23.47" y="0">k</tspan><tspan class="cls-19" x="0" y="21.35">S</tspan><tspan x="8.72" y="21.35">t</tspan><tspan class="cls-20" x="14.61" y="21.35">r</tspan><tspan x="20.25" y="21.35">eet</tspan></text><text class="cls-13" transform="translate(1030.72 943.07) scale(1.01 1)"><tspan class="cls-21">S</tspan><tspan x="8.88" y="0">outh </tspan><tspan class="cls-19" x="47.98" y="0">S</tspan><tspan x="56.7" y="0">t</tspan><tspan class="cls-22" x="62.59" y="0">a</tspan><tspan x="71.09" y="0">tion</tspan><tspan x="0" y="21.35">(</tspan><tspan class="cls-21" x="5.05" y="21.35">M</tspan><tspan x="19.46" y="21.35">egabus)</tspan></text><text class="cls-13" transform="translate(1030.72 1091.65) scale(1.01 1)">New<tspan class="cls-23" x="33.71" y="0"> </tspan><tspan class="cls-24" x="36.67" y="0">Y</tspan><tspan x="44.94" y="0">o</tspan><tspan class="cls-17" x="54.71" y="0">r</tspan><tspan class="cls-25" x="60.59" y="0">k </tspan><tspan class="cls-19" x="72.71" y="0">C</tspan><tspan x="82.98" y="0">i</tspan><tspan class="cls-26" x="87.14" y="0">t</tspan><tspan x="93.19" y="0">y</tspan><tspan x="0" y="21.35">7th </tspan><tspan class="cls-27" x="28.66" y="21.35">A</tspan><tspan class="cls-20" x="39.17" y="21.35">v</tspan><tspan x="47.55" y="21.35">e and 27th </tspan><tspan class="cls-19" x="130.28" y="21.35">S</tspan><tspan x="139" y="21.35">t</tspan></text><text class="cls-13" transform="translate(1030.72 1240.24) scale(1.01 1)"><tspan class="cls-28">P</tspan><tspan x="9.02" y="0">enn </tspan><tspan class="cls-19" x="41.45" y="0">S</tspan><tspan class="cls-29" x="50.17" y="0">t</tspan><tspan class="cls-30" x="56.06" y="0">a</tspan><tspan x="64.56" y="0">tion</tspan><tspan x="0" y="21.35">(NJ</tspan><tspan class="cls-31" x="23.34" y="21.35"> </tspan><tspan class="cls-32" x="26.38" y="21.35">T</tspan><tspan class="cls-33" x="34.42" y="21.35">r</tspan><tspan x="40.15" y="21.35">ansit)</tspan></text><text class="cls-13" transform="translate(1030.72 1390.88) scale(1.01 1)">Hamil<tspan class="cls-34" x="43.37" y="0">t</tspan><tspan x="49.16" y="0">on </tspan><tspan class="cls-19" x="72.57" y="0">S</tspan><tspan class="cls-29" x="81.29" y="0">t</tspan><tspan class="cls-30" x="87.17" y="0">a</tspan><tspan x="95.68" y="0">tion</tspan></text><text class="cls-13" transform="translate(1030.72 1532.46) scale(1.01 1)">Sho<tspan class="cls-35" x="28.41" y="0">r</tspan><tspan class="cls-36" x="34.66" y="0">t</tspan><tspan class="cls-37" x="40.46" y="0">-</tspan><tspan class="cls-38" x="45.03" y="0">T</tspan><tspan x="52.61" y="0">e</tspan><tspan class="cls-17" x="61.52" y="0">r</tspan><tspan x="67.41" y="0">m </tspan><tspan class="cls-18" x="86.02" y="0">P</tspan><tspan x="95.02" y="0">a</tspan><tspan class="cls-17" x="103.6" y="0">r</tspan><tspan class="cls-39" x="109.48" y="0">k</tspan><tspan x="118.13" y="0">ing</tspan><tspan x="0" y="21.35">(</tspan><tspan class="cls-40" x="5.05" y="21.35">P</tspan><tspan x="14.05" y="21.35">a</tspan><tspan class="cls-20" x="22.63" y="21.35">r</tspan><tspan class="cls-25" x="28.27" y="21.35">e</tspan><tspan class="cls-22" x="37.18" y="21.35">n</tspan><tspan class="cls-41" x="46.99" y="21.35">t</tspan><tspan class="cls-42" x="53.25" y="21.35">’</tspan><tspan x="55.65" y="21.35">s </tspan><tspan class="cls-43" x="66.47" y="21.35">C</tspan><tspan x="76.66" y="21.35">ar)</tspan></text><text class="cls-13" transform="translate(1030.72 1668.17) scale(1.01 1)">Subu<tspan class="cls-17" x="38.5" y="0">r</tspan><tspan x="44.39" y="0">ban Diner</tspan><tspan class="cls-14" x="0" y="21.35">F</tspan><tspan x="8.11" y="21.35">eas</tspan><tspan class="cls-34" x="32.65" y="21.35">t</tspan><tspan x="38.43" y="21.35">e</tspan><tspan class="cls-17" x="47.34" y="21.35">r</tspan><tspan x="53.23" y="21.35">ill</tspan><tspan class="cls-44" x="65.79" y="21.35">e</tspan><tspan class="cls-25" x="74.49" y="21.35">, </tspan><tspan class="cls-45" x="81.94" y="21.35">P</tspan><tspan class="cls-25" x="89.91" y="21.35">A</tspan><tspan class="cls-46" x="0" y="42.7">(</tspan><tspan class="cls-47" x="5.91" y="42.7">T</tspan><tspan x="13.61" y="42.7">akeout)</tspan></text><path class="cls-11" d="M834,2106.77" transform="translate(-6.75 -107.75)"/><path class="cls-11" d="M834,2005.33" transform="translate(-6.75 -107.75)"/><text class="cls-48" transform="translate(706.83 2120.03) scale(1.01 1)"><tspan class="cls-49">S</tspan><tspan x="17.76" y="0">outhamp</tspan><tspan class="cls-50" x="155.49" y="0">t</tspan><tspan x="167.05" y="0">on, </tspan><tspan class="cls-51" x="221.24" y="0">P</tspan><tspan x="237.18" y="0">A</tspan></text><path class="cls-52" d="M875.56,1848.56" transform="translate(-6.75 -107.75)"/><line class="cls-52" x1="866.23" y1="1769.29" x2="867.23" y2="1769.29"/><path class="cls-11" d="M927.83,1199.4" transform="translate(-6.75 -107.75)"/><path class="cls-11" d="M740.17,1199.4" transform="translate(-6.75 -107.75)"/><path class="cls-11" d="M927.83,1050.82" transform="translate(-6.75 -107.75)"/><path class="cls-11" d="M740.17,1050.82" transform="translate(-6.75 -107.75)"/><path class="cls-53" d="M235.62,2027.07" transform="translate(-6.75 -107.75)"/><path class="cls-53" d="M235.83,655.29" transform="translate(-6.75 -107.75)"/><path class="cls-53" d="M140.46,653.43" transform="translate(-6.75 -107.75)"/><path class="cls-53" d="M328.06,753.65" transform="translate(-6.75 -107.75)"/><path class="cls-53" d="M140.4,753.65" transform="translate(-6.75 -107.75)"/><path class="cls-53" d="M328,853.87" transform="translate(-6.75 -107.75)"/><path class="cls-53" d="M140.34,853.87" transform="translate(-6.75 -107.75)"/><path class="cls-53" d="M327.94,954.09" transform="translate(-6.75 -107.75)"/><path class="cls-53" d="M140.28,954.09" transform="translate(-6.75 -107.75)"/><path class="cls-53" d="M327.88,1054.31" transform="translate(-6.75 -107.75)"/><path class="cls-53" d="M140.23,1054.31" transform="translate(-6.75 -107.75)"/><path class="cls-53" d="M327.83,1154.53" transform="translate(-6.75 -107.75)"/><path class="cls-53" d="M140.17,1104.53" transform="translate(-6.75 -107.75)"/><path class="cls-53" d="M327.77,1254.75" transform="translate(-6.75 -107.75)"/><path class="cls-53" d="M140.11,1254.75" transform="translate(-6.75 -107.75)"/><path class="cls-53" d="M327.93,1356.58" transform="translate(-6.75 -107.75)"/><path class="cls-53" d="M140.27,1356.58" transform="translate(-6.75 -107.75)"/><path class="cls-53" d="M139.94,1555.42" transform="translate(-6.75 -107.75)"/><path class="cls-53" d="M139.89,1655.64" transform="translate(-6.75 -107.75)"/><path class="cls-53" d="M328.17,1755.86" transform="translate(-6.75 -107.75)"/><path class="cls-53" d="M140.51,1755.86" transform="translate(-6.75 -107.75)"/><path class="cls-53" d="M330.15,1856.08" transform="translate(-6.75 -107.75)"/><path class="cls-53" d="M142.49,1856.08" transform="translate(-6.75 -107.75)"/><path class="cls-53" d="M332.12,1952.79" transform="translate(-6.75 -107.75)"/><path class="cls-53" d="M144.46,1952.79" transform="translate(-6.75 -107.75)"/><path class="cls-53" d="M140,1455.2" transform="translate(-6.75 -107.75)"/><rect class="cls-12" x="221.25" y="647.76" width="16" height="96.49"/><polygon class="cls-12" points="232.03 848 226.5 848.06 226.5 740.82 232.03 740.83 232.03 848"/><rect class="cls-12" x="227.09" y="847.26" width="4.31" height="101.17"/><path class="cls-12" d="M238.77,1153h-5.54v-96.77h5.39Z" transform="translate(-6.75 -107.75)"/><rect class="cls-12" x="192.33" y="1045.2" width="73.83" height="101.8"/><rect class="cls-12" x="192.33" y="1650.83" width="73.83" height="96.2"/><polyline class="cls-12" points="135.45 1247.01 135.45 1146.78 323.05 1146.78 323.05 1247.01"/><polygon class="cls-54" points="322.87 1550.87 135.26 1550.87 135.63 1444.7 323.23 1444.7 322.87 1550.87"/><rect class="cls-12" x="204.76" y="1246.86" width="48.97" height="102.56"/><rect class="cls-12" x="167.72" y="1349.42" width="123.05" height="95.48"/><rect class="cls-12" x="198.79" y="1549.76" width="60.91" height="107.73"/><polygon class="cls-54" points="320.01 1987.1 134.96 1987.1 135.88 1746.65 323.54 1746.65 320.01 1987.1"/><text class="cls-55" transform="translate(143.45 700.08)">26 minu<tspan class="cls-56" x="54.59" y="0">t</tspan><tspan x="59.79" y="0">es</tspan></text><text class="cls-55" transform="translate(358.27 455.25)">7 minu<tspan class="cls-56" x="46.38" y="0">t</tspan><tspan x="51.58" y="0">es</tspan></text><text class="cls-55" transform="translate(850.63 532.65)">7 minu<tspan class="cls-56" x="46.38" y="0">t</tspan><tspan x="51.58" y="0">es</tspan></text><text class="cls-55" transform="translate(1287.97 463.5)">6 minu<tspan class="cls-56" x="46.38" y="0">t</tspan><tspan x="51.58" y="0">es</tspan></text><text class="cls-55" transform="translate(733.42 724.65)">22 minu<tspan class="cls-57" x="54.59" y="0">t</tspan><tspan class="cls-58" x="59.79" y="0">es</tspan></text><text class="cls-55" transform="translate(733.42 875.7)">9 minu<tspan class="cls-56" x="46.38" y="0">t</tspan><tspan x="51.58" y="0">es</tspan></text><text class="cls-55" transform="translate(796.25 1017.36)">4 hours<tspan x="0" y="19.2">45 minu</tspan><tspan class="cls-57" x="54.59" y="19.2">t</tspan><tspan class="cls-58" x="59.79" y="19.2">es</tspan></text><text class="cls-55" transform="translate(723.42 1178.4)">6 minu<tspan class="cls-56" x="46.38" y="0">t</tspan><tspan x="51.58" y="0">es</tspan></text><text class="cls-55" transform="translate(723.42 1321.89)">1 hour<tspan x="0" y="19.2">18 minu</tspan><tspan class="cls-57" x="54.59" y="19.2">t</tspan><tspan class="cls-58" x="59.79" y="19.2">es</tspan></text><text class="cls-55" transform="translate(723.42 1473.54)">5 minu<tspan class="cls-56" x="46.38" y="0">t</tspan><tspan x="51.58" y="0">es</tspan></text><text class="cls-55" transform="translate(723.42 1628.22)">29 minu<tspan class="cls-57" x="54.59" y="0">t</tspan><tspan class="cls-58" x="59.79" y="0">es</tspan></text><text class="cls-55" transform="translate(723.42 1854.88)">12 minu<tspan class="cls-57" x="54.59" y="0">t</tspan><tspan class="cls-58" x="59.79" y="0">es</tspan></text><text class="cls-55" transform="translate(1510.51 2159.87)"><tspan class="cls-59">F</tspan><tspan x="7.3" y="0">o</tspan><tspan class="cls-60" x="16.08" y="0">n</tspan><tspan x="24.9" y="0">ts: Lao MN, </tspan><tspan class="cls-61" x="100.77" y="0">M</tspan><tspan x="113.74" y="0">y</tspan><tspan class="cls-62" x="121.28" y="0">r</tspan><tspan class="cls-63" x="126.57" y="0">iad </tspan><tspan class="cls-64" x="150.45" y="0">P</tspan><tspan class="cls-65" x="158.7" y="0">r</tspan><tspan x="163.77" y="0">o</tspan><tspan x="0" y="19.2">I</tspan><tspan class="cls-56" x="3.82" y="19.2">c</tspan><tspan class="cls-58" x="10.9" y="19.2">ons:</tspan><tspan class="cls-66" x="38.21" y="19.2"> </tspan><tspan class="cls-67" x="40.94" y="19.2">T</tspan><tspan x="48.78" y="19.2">he Noun </tspan><tspan class="cls-64" x="109.47" y="19.2">P</tspan><tspan class="cls-65" x="117.73" y="19.2">r</tspan><tspan class="cls-63" x="122.8" y="19.2">oje</tspan><tspan class="cls-68" x="143.49" y="19.2">c</tspan><tspan x="150.86" y="19.2">t</tspan><tspan x="0" y="38.4">NEU 2017 </tspan></text><text class="cls-55" transform="translate(143.45 787.63)">9 minu<tspan class="cls-56" x="46.38" y="0">t</tspan><tspan x="51.58" y="0">es</tspan></text><text class="cls-55" transform="translate(143.45 1005.66)">9 minu<tspan class="cls-56" x="46.38" y="0">t</tspan><tspan x="51.58" y="0">es</tspan></text><text class="cls-55" transform="translate(205 1091.66)">2 hours<tspan x="0" y="19.2">l</tspan><tspan class="cls-69" x="3.78" y="19.2">a</tspan><tspan class="cls-65" x="11.36" y="19.2">y</tspan><tspan class="cls-67" x="18.74" y="19.2">o</tspan><tspan class="cls-70" x="27.41" y="19.2">v</tspan><tspan x="34.94" y="19.2">er</tspan></text><text class="cls-55" transform="translate(198.8 1191.21)">5 hours<tspan x="0" y="19.2">5 minu</tspan><tspan class="cls-56" x="46.38" y="19.2">t</tspan><tspan x="51.58" y="19.2">es</tspan></text><text class="cls-55" transform="translate(120.64 1286.17)">1 hour <tspan x="0" y="19.2">20 minu</tspan><tspan class="cls-57" x="54.59" y="19.2">t</tspan><tspan class="cls-58" x="59.79" y="19.2">es</tspan><tspan x="0" y="38.4">L</tspan><tspan class="cls-69" x="7.55" y="38.4">a</tspan><tspan class="cls-70" x="15.14" y="38.4">y</tspan><tspan class="cls-71" x="22.51" y="38.4">o</tspan><tspan class="cls-65" x="31.18" y="38.4">v</tspan><tspan class="cls-58" x="38.72" y="38.4">er</tspan></text><text class="cls-55" transform="translate(194.79 1397.16)">3 hours <tspan x="0" y="19.2">20 minu</tspan><tspan class="cls-56" x="54.59" y="19.2">t</tspan><tspan x="59.79" y="19.2">es</tspan><tspan class="cls-72"><tspan x="0" y="38.4">	</tspan></tspan></text><text class="cls-55" transform="translate(274.04 1609.35)">1 hour <tspan x="0" y="19.2">39 minu</tspan><tspan class="cls-56" x="54.59" y="19.2">t</tspan><tspan x="59.79" y="19.2">es</tspan><tspan class="cls-72"><tspan x="0" y="38.4">	</tspan></tspan></text><text class="cls-55" transform="translate(274.04 1697.33)">2 hours <tspan x="0" y="19.2">L</tspan><tspan class="cls-69" x="7.55" y="19.2">a</tspan><tspan class="cls-70" x="15.14" y="19.2">y</tspan><tspan class="cls-71" x="22.51" y="19.2">o</tspan><tspan class="cls-65" x="31.18" y="19.2">v</tspan><tspan class="cls-58" x="38.72" y="19.2">er</tspan><tspan class="cls-73"><tspan x="0" y="38.4">	</tspan></tspan></text><text class="cls-55" transform="translate(198.79 1873.73)">40 hours <tspan class="cls-73"><tspan x="0" y="38.4">	</tspan></tspan></text><text class="cls-55" transform="translate(143.45 905.44)">7 minu<tspan class="cls-56" x="46.38" y="0">t</tspan><tspan x="51.58" y="0">es</tspan></text><line class="cls-74" x1="159.09" y1="1479.99" x2="299.41" y2="1479.99"/><text class="cls-55" transform="translate(175.02 1505.26)">24 hours l<tspan class="cls-69" x="65.02" y="0">a</tspan><tspan class="cls-65" x="72.61" y="0">y</tspan><tspan class="cls-67" x="79.98" y="0">o</tspan><tspan class="cls-70" x="88.65" y="0">v</tspan><tspan x="96.19" y="0">er</tspan></text><path class="cls-75" d="M421.27,737.39a.75.75,0,0,0-.6.41L419,741.14h-3.66a3.38,3.38,0,0,0-3.37,3.37v15a3.38,3.38,0,0,0,3.38,3.37h3.9l-2.72,6.45a.75.75,0,0,0,1.35.66l0-.09.43-1h13.5l.43,1a.75.75,0,0,0,1.42-.49l0-.09-2.72-6.45h3.9a3.38,3.38,0,0,0,3.38-3.37v-15a3.38,3.38,0,0,0-3.37-3.37h-3.66l-1.68-3.34a.75.75,0,0,0-.67-.41h-7.57Zm.53,1.5h6.59l1.13,2.25h-8.84Zm-6.46,3.75h19.5a1.85,1.85,0,0,1,1.88,1.87v15a1.85,1.85,0,0,1-1.87,1.87h-19.5a1.85,1.85,0,0,1-1.87-1.87v-15A1.85,1.85,0,0,1,415.34,742.63Zm2.25,1.5a2.26,2.26,0,0,0-2.25,2.25v5.24a2.26,2.26,0,0,0,2.25,2.25h15a2.26,2.26,0,0,0,2.25-2.25v-5.24a2.26,2.26,0,0,0-2.25-2.25Zm0,1.5h6.75v6.74h-6.75a.73.73,0,0,1-.75-.75v-5.24a.73.73,0,0,1,.75-.75Zm8.25,0h6.75a.73.73,0,0,1,.75.75v5.24a.73.73,0,0,1-.75.75h-6.75v-6.74ZM419.47,755a2.62,2.62,0,1,0,2.63,2.62A2.63,2.63,0,0,0,419.47,755Zm11.25,0a2.62,2.62,0,1,0,2.63,2.62A2.63,2.63,0,0,0,430.72,755Zm-11.25,1.5a1.12,1.12,0,1,1-1.12,1.12A1.11,1.11,0,0,1,419.47,756.49Zm11.25,0a1.12,1.12,0,1,1-1.12,1.12A1.11,1.11,0,0,1,430.72,756.49Zm-9.84,6.37h8.44l.63,1.5h-9.7Zm-1.27,3h11l.63,1.5H419Z" transform="translate(-6.75 -107.75)"/><path class="cls-75" d="M1001.5,736.25a.75.75,0,0,0-.6.41L999.23,740h-3.66a3.38,3.38,0,0,0-3.37,3.37v15a3.38,3.38,0,0,0,3.38,3.37h3.9l-2.72,6.45a.75.75,0,0,0,1.35.66l0-.09.43-1h13.5l.43,1a.75.75,0,0,0,1.42-.49l0-.09-2.72-6.45h3.9a3.38,3.38,0,0,0,3.38-3.37v-15a3.38,3.38,0,0,0-3.37-3.37h-3.66l-1.68-3.34a.75.75,0,0,0-.67-.41h-7.57Zm.53,1.5h6.59l1.13,2.25h-8.84Zm-6.46,3.75h19.5a1.85,1.85,0,0,1,1.88,1.87v15a1.85,1.85,0,0,1-1.87,1.87h-19.5a1.85,1.85,0,0,1-1.87-1.87v-15A1.85,1.85,0,0,1,995.57,741.5Zm2.25,1.5a2.26,2.26,0,0,0-2.25,2.25v5.24a2.26,2.26,0,0,0,2.25,2.25h15a2.26,2.26,0,0,0,2.25-2.25v-5.24a2.26,2.26,0,0,0-2.25-2.25Zm0,1.5h6.75v6.74h-6.75a.73.73,0,0,1-.75-.75v-5.24a.73.73,0,0,1,.75-.75Zm8.25,0h6.75a.73.73,0,0,1,.75.75v5.24a.73.73,0,0,1-.75.75h-6.75v-6.74Zm-6.37,9.36a2.62,2.62,0,1,0,2.62,2.62A2.63,2.63,0,0,0,999.7,753.86Zm11.25,0a2.62,2.62,0,1,0,2.63,2.62A2.63,2.63,0,0,0,1010.95,753.86Zm-11.25,1.5a1.12,1.12,0,1,1-1.12,1.12A1.11,1.11,0,0,1,999.7,755.35Zm11.25,0a1.12,1.12,0,1,1-1.12,1.12A1.11,1.11,0,0,1,1010.95,755.35Zm-9.84,6.37h8.44l.63,1.5h-9.7Zm-1.27,3h11l.63,1.5H999.21Z" transform="translate(-6.75 -107.75)"/><path class="cls-75" d="M1001.5,885.73a.75.75,0,0,0-.6.41l-1.68,3.34h-3.66a3.38,3.38,0,0,0-3.37,3.37v15a3.38,3.38,0,0,0,3.38,3.37h3.9l-2.72,6.45a.75.75,0,0,0,1.35.66l0-.09.43-1h13.5l.43,1a.75.75,0,0,0,1.42-.49l0-.09-2.72-6.45h3.9a3.38,3.38,0,0,0,3.38-3.37v-15a3.38,3.38,0,0,0-3.37-3.37h-3.66l-1.68-3.34a.75.75,0,0,0-.67-.41h-7.57Zm.53,1.5h6.59l1.13,2.25h-8.84ZM995.57,891h19.5a1.85,1.85,0,0,1,1.88,1.87v15a1.85,1.85,0,0,1-1.87,1.87h-19.5a1.85,1.85,0,0,1-1.87-1.87v-15A1.85,1.85,0,0,1,995.57,891Zm2.25,1.5a2.26,2.26,0,0,0-2.25,2.25V900a2.26,2.26,0,0,0,2.25,2.25h15a2.26,2.26,0,0,0,2.25-2.25v-5.24a2.26,2.26,0,0,0-2.25-2.25Zm0,1.5h6.75v6.74h-6.75a.73.73,0,0,1-.75-.75v-5.24a.73.73,0,0,1,.75-.75Zm8.25,0h6.75a.73.73,0,0,1,.75.75V900a.73.73,0,0,1-.75.75h-6.75V894Zm-6.37,9.36a2.62,2.62,0,1,0,2.62,2.62A2.63,2.63,0,0,0,999.7,903.34Zm11.25,0a2.62,2.62,0,1,0,2.63,2.62A2.63,2.63,0,0,0,1010.95,903.34Zm-11.25,1.5a1.12,1.12,0,1,1-1.12,1.12A1.11,1.11,0,0,1,999.7,904.84Zm11.25,0a1.12,1.12,0,1,1-1.12,1.12A1.11,1.11,0,0,1,1010.95,904.84Zm-9.84,6.37h8.44l.63,1.5h-9.7Zm-1.27,3h11l.63,1.5H999.21Z" transform="translate(-6.75 -107.75)"/><path class="cls-75" d="M1007.94,1334.64a.75.75,0,0,0-.6.41l-1.68,3.34H1002a3.38,3.38,0,0,0-3.37,3.37v15a3.38,3.38,0,0,0,3.37,3.37h3.9l-2.72,6.45a.75.75,0,0,0,1.35.66l0-.09.43-1h13.5l.43,1a.75.75,0,0,0,1.42-.49l0-.09-2.72-6.45h3.9a3.38,3.38,0,0,0,3.38-3.37v-15a3.38,3.38,0,0,0-3.37-3.37h-3.66l-1.68-3.34a.75.75,0,0,0-.67-.41h-7.57Zm.53,1.5h6.59l1.13,2.25h-8.84Zm-6.46,3.75h19.5a1.85,1.85,0,0,1,1.88,1.87v15a1.85,1.85,0,0,1-1.87,1.87H1002a1.85,1.85,0,0,1-1.87-1.87v-15A1.85,1.85,0,0,1,1002,1339.88Zm2.25,1.5a2.26,2.26,0,0,0-2.25,2.25v5.24a2.26,2.26,0,0,0,2.25,2.25h15a2.26,2.26,0,0,0,2.25-2.25v-5.24a2.26,2.26,0,0,0-2.25-2.25Zm0,1.5H1011v6.74h-6.75a.73.73,0,0,1-.75-.75v-5.24a.73.73,0,0,1,.75-.75Zm8.25,0h6.75a.73.73,0,0,1,.75.75v5.24a.73.73,0,0,1-.75.75h-6.75v-6.74Zm-6.37,9.36a2.62,2.62,0,1,0,2.63,2.62A2.63,2.63,0,0,0,1006.14,1352.24Zm11.25,0a2.62,2.62,0,1,0,2.63,2.62A2.63,2.63,0,0,0,1017.39,1352.24Zm-11.25,1.5a1.12,1.12,0,1,1-1.12,1.12A1.11,1.11,0,0,1,1006.14,1353.74Zm11.25,0a1.12,1.12,0,1,1-1.12,1.12A1.11,1.11,0,0,1,1017.39,1353.74Zm-9.84,6.37H1016l.63,1.5h-9.7Zm-1.27,3h11l.63,1.5h-12.23Z" transform="translate(-6.75 -107.75)"/><path class="cls-75" d="M1005.29,1477.61a.75.75,0,0,0-.6.41l-1.68,3.34h-3.66a3.38,3.38,0,0,0-3.37,3.37v15a3.38,3.38,0,0,0,3.38,3.37h3.9l-2.72,6.45a.75.75,0,0,0,1.35.66l0-.09.43-1h13.5l.43,1a.75.75,0,0,0,1.42-.49l0-.09-2.72-6.45h3.9a3.38,3.38,0,0,0,3.38-3.37v-15a3.38,3.38,0,0,0-3.37-3.37h-3.66l-1.68-3.34a.75.75,0,0,0-.67-.41h-7.57Zm.53,1.5h6.59l1.13,2.25h-8.84Zm-6.46,3.75h19.5a1.85,1.85,0,0,1,1.88,1.87v15a1.85,1.85,0,0,1-1.87,1.87h-19.5a1.85,1.85,0,0,1-1.87-1.87v-15A1.85,1.85,0,0,1,999.36,1482.85Zm2.25,1.5a2.26,2.26,0,0,0-2.25,2.25v5.24a2.26,2.26,0,0,0,2.25,2.25h15a2.26,2.26,0,0,0,2.25-2.25v-5.24a2.26,2.26,0,0,0-2.25-2.25Zm0,1.5h6.75v6.74h-6.75a.73.73,0,0,1-.75-.75v-5.24a.73.73,0,0,1,.75-.75Zm8.25,0h6.75a.73.73,0,0,1,.75.75v5.24a.73.73,0,0,1-.75.75h-6.75v-6.74Zm-6.37,9.36a2.62,2.62,0,1,0,2.63,2.62A2.63,2.63,0,0,0,1003.49,1495.21Zm11.25,0a2.62,2.62,0,1,0,2.63,2.62A2.63,2.63,0,0,0,1014.74,1495.21Zm-11.25,1.5a1.12,1.12,0,1,1-1.12,1.12A1.11,1.11,0,0,1,1003.49,1496.71Zm11.25,0a1.12,1.12,0,1,1-1.12,1.12A1.11,1.11,0,0,1,1014.74,1496.71Zm-9.84,6.37h8.44l.63,1.5h-9.7Zm-1.27,3h11l.63,1.5H1003Z" transform="translate(-6.75 -107.75)"/><path class="cls-75" d="M421.27,838a.75.75,0,0,0-.6.41L419,841.74h-3.66a3.38,3.38,0,0,0-3.37,3.37v15a3.38,3.38,0,0,0,3.38,3.37h3.9l-2.72,6.45a.75.75,0,0,0,1.35.66l0-.09.43-1h13.5l.43,1a.75.75,0,0,0,1.42-.49l0-.09-2.72-6.45h3.9a3.38,3.38,0,0,0,3.38-3.37v-15a3.38,3.38,0,0,0-3.37-3.37h-3.66l-1.68-3.34a.75.75,0,0,0-.67-.41h-7.57Zm.53,1.5h6.59l1.13,2.25h-8.84Zm-6.46,3.75h19.5a1.85,1.85,0,0,1,1.88,1.87v15a1.85,1.85,0,0,1-1.87,1.87h-19.5a1.85,1.85,0,0,1-1.87-1.87v-15A1.85,1.85,0,0,1,415.34,843.24Zm2.25,1.5a2.26,2.26,0,0,0-2.25,2.25v5.24a2.26,2.26,0,0,0,2.25,2.25h15a2.26,2.26,0,0,0,2.25-2.25V847a2.26,2.26,0,0,0-2.25-2.25Zm0,1.5h6.75V853h-6.75a.73.73,0,0,1-.75-.75V847a.73.73,0,0,1,.75-.75Zm8.25,0h6.75a.73.73,0,0,1,.75.75v5.24a.73.73,0,0,1-.75.75h-6.75v-6.74Zm-6.37,9.36a2.62,2.62,0,1,0,2.63,2.62A2.63,2.63,0,0,0,419.47,855.6Zm11.25,0a2.62,2.62,0,1,0,2.63,2.62A2.63,2.63,0,0,0,430.72,855.6Zm-11.25,1.5a1.12,1.12,0,1,1-1.12,1.12A1.11,1.11,0,0,1,419.47,857.1Zm11.25,0a1.12,1.12,0,1,1-1.12,1.12A1.11,1.11,0,0,1,430.72,857.1Zm-9.84,6.37h8.44l.63,1.5h-9.7Zm-1.27,3h11l.63,1.5H419Z" transform="translate(-6.75 -107.75)"/><path class="cls-75" d="M421.27,938.27a.75.75,0,0,0-.6.41L419,942h-3.66a3.38,3.38,0,0,0-3.37,3.37v15a3.38,3.38,0,0,0,3.38,3.37h3.9l-2.72,6.45a.75.75,0,0,0,1.35.66l0-.09.43-1h13.5l.43,1a.75.75,0,0,0,1.42-.49l0-.09-2.72-6.45h3.9a3.38,3.38,0,0,0,3.38-3.37v-15a3.38,3.38,0,0,0-3.37-3.37h-3.66l-1.68-3.34a.75.75,0,0,0-.67-.41h-7.57Zm.53,1.5h6.59l1.13,2.25h-8.84Zm-6.46,3.75h19.5a1.85,1.85,0,0,1,1.88,1.87v15a1.85,1.85,0,0,1-1.87,1.87h-19.5a1.85,1.85,0,0,1-1.87-1.87v-15A1.85,1.85,0,0,1,415.34,943.52Zm2.25,1.5a2.26,2.26,0,0,0-2.25,2.25v5.24a2.26,2.26,0,0,0,2.25,2.25h15a2.26,2.26,0,0,0,2.25-2.25v-5.24a2.26,2.26,0,0,0-2.25-2.25Zm0,1.5h6.75v6.74h-6.75a.73.73,0,0,1-.75-.75v-5.24a.73.73,0,0,1,.75-.75Zm8.25,0h6.75a.73.73,0,0,1,.75.75v5.24a.73.73,0,0,1-.75.75h-6.75v-6.74Zm-6.37,9.36a2.62,2.62,0,1,0,2.63,2.62A2.63,2.63,0,0,0,419.47,955.88Zm11.25,0a2.62,2.62,0,1,0,2.63,2.62A2.63,2.63,0,0,0,430.72,955.88Zm-11.25,1.5a1.12,1.12,0,1,1-1.12,1.12A1.11,1.11,0,0,1,419.47,957.38Zm11.25,0a1.12,1.12,0,1,1-1.12,1.12A1.11,1.11,0,0,1,430.72,957.38Zm-9.84,6.37h8.44l.63,1.5h-9.7Zm-1.27,3h11l.63,1.5H419Z" transform="translate(-6.75 -107.75)"/><path class="cls-75" d="M434.09,1059.79a1.9,1.9,0,0,0,.34-.6,2.18,2.18,0,0,0,.11-.71,2.1,2.1,0,1,0-2.1,2.1A2,2,0,0,0,434.09,1059.79Zm-2.29-1.27a.6.6,0,1,1,1.2,0,.28.28,0,0,1,0,.19.5.5,0,0,1-.11.19.6.6,0,0,1-.49.22A.59.59,0,0,1,431.81,1058.51Z" transform="translate(-6.75 -107.75)"/><path class="cls-75" d="M417.78,1060.61a2.1,2.1,0,1,0-2.1-2.1A2.1,2.1,0,0,0,417.78,1060.61Zm0-2.74a.6.6,0,1,1-.6.6A.59.59,0,0,1,417.78,1057.87Z" transform="translate(-6.75 -107.75)"/><path class="cls-75" d="M428.47,1058.21a.75.75,0,0,0,0-1.5h-.41a.75.75,0,0,0,0,1.5Z" transform="translate(-6.75 -107.75)"/><path class="cls-75" d="M421.72,1058.21H426a.75.75,0,0,0,0-1.5h-4.28a.75.75,0,1,0,0,1.5Z" transform="translate(-6.75 -107.75)"/><path class="cls-75" d="M428.09,1042.46h-6a.75.75,0,1,0,0,1.5h6a.75.75,0,0,0,0-1.5Z" transform="translate(-6.75 -107.75)"/><path class="cls-75" d="M421.72,1060.09h6.75a.75.75,0,0,0,0-1.5h-6.75a.75.75,0,1,0,0,1.5Z" transform="translate(-6.75 -107.75)"/><path class="cls-75" d="M430,1069.42h5l.15-.07c.19-.07.86-.41.86-1.05v-2.21H436a1.12,1.12,0,0,0,1.05-1.12v-22.12a2.26,2.26,0,0,0-2.25-2.25h-19.5a2.26,2.26,0,0,0-2.25,2.25V1065a1.13,1.13,0,0,0,1.13,1.13v2.21a1.13,1.13,0,0,0,1.13,1.13h5l.15-.07c.19-.07.86-.41.86-1.05v-2.21h5.44a.75.75,0,0,0,0-1.5H414.59v-9h21v6H416.06a.75.75,0,0,0,0,1.5h19.54v1.5h-6.75a.75.75,0,1,0,0,1.5v2.21A1.16,1.16,0,0,0,430,1069.42Zm-14.25-3.34h.38v.75a.75.75,0,0,0,1.5,0v-.75H418v.75a.75.75,0,0,0,1.5,0v-.75h.38v1.84h-4.12Zm-1.12-12v-8.25h9.75v6.94a.75.75,0,0,0,1.5,0v-6.94h6.56a.75.75,0,0,0,0-1.5H414.59v-1.46a.75.75,0,0,1,.75-.75h19.5a.75.75,0,0,1,.75.75v1.46h-1a.75.75,0,0,0,0,1.5h1V1054Zm15.75,12h.38v.75a.75.75,0,0,0,1.5,0v-.75h.38v.75a.75.75,0,0,0,1.5,0v-.75h.38v1.84h-4.12Z" transform="translate(-6.75 -107.75)"/><path class="cls-75" d="M1014.32,1055.6a1.9,1.9,0,0,0,.34-.6,2.18,2.18,0,0,0,.11-.71,2.1,2.1,0,1,0-2.1,2.1A2,2,0,0,0,1014.32,1055.6Zm-2.29-1.28a.6.6,0,0,1,1.2,0,.28.28,0,0,1,0,.19.5.5,0,0,1-.11.19.6.6,0,0,1-.49.22A.59.59,0,0,1,1012,1054.32Z" transform="translate(-6.75 -107.75)"/><path class="cls-75" d="M998,1056.42a2.1,2.1,0,1,0-2.1-2.1A2.1,2.1,0,0,0,998,1056.42Zm0-2.74a.6.6,0,1,1-.6.6A.59.59,0,0,1,998,1053.69Z" transform="translate(-6.75 -107.75)"/><path class="cls-75" d="M1008.7,1054a.75.75,0,0,0,0-1.5h-.41a.75.75,0,1,0,0,1.5Z" transform="translate(-6.75 -107.75)"/><path class="cls-75" d="M1001.95,1054h4.28a.75.75,0,0,0,0-1.5h-4.28a.75.75,0,1,0,0,1.5Z" transform="translate(-6.75 -107.75)"/><path class="cls-75" d="M1008.32,1038.27h-6a.75.75,0,1,0,0,1.5h6a.75.75,0,0,0,0-1.5Z" transform="translate(-6.75 -107.75)"/><path class="cls-75" d="M1001.95,1055.9h6.75a.75.75,0,0,0,0-1.5h-6.75a.75.75,0,1,0,0,1.5Z" transform="translate(-6.75 -107.75)"/><path class="cls-75" d="M1010.2,1065.24h5l.15-.07c.19-.07.86-.41.86-1.05v-2.21h.07a1.12,1.12,0,0,0,1.05-1.12v-22.12a2.26,2.26,0,0,0-2.25-2.25h-19.5a2.26,2.26,0,0,0-2.25,2.25v22.13a1.13,1.13,0,0,0,1.13,1.13v2.21a1.13,1.13,0,0,0,1.13,1.13h5l.15-.07c.19-.07.86-.41.86-1.05v-2.21H1007a.75.75,0,0,0,0-1.5H994.82v-9h21v6H996.29a.75.75,0,1,0,0,1.5h19.54v1.5h-6.75a.75.75,0,1,0,0,1.5v2.21A1.16,1.16,0,0,0,1010.2,1065.24Zm-14.25-3.34h.38v.75a.75.75,0,0,0,1.5,0v-.75h.38v.75a.75.75,0,0,0,1.5,0v-.75h.38v1.84h-4.13Zm-1.12-12v-8.25h9.75v6.94a.75.75,0,0,0,1.5,0v-6.94h6.56a.75.75,0,0,0,0-1.5H994.82v-1.46a.75.75,0,0,1,.75-.75h19.5a.75.75,0,0,1,.75.75v1.46h-1a.75.75,0,1,0,0,1.5h1v8.25Zm15.75,12h.38v.75a.75.75,0,0,0,1.5,0v-.75h.38v.75a.75.75,0,0,0,1.5,0v-.75h.38v1.84h-4.12Z" transform="translate(-6.75 -107.75)"/><text class="cls-76" transform="translate(449.69 640.62)"><tspan class="cls-59">F</tspan><tspan x="8.21" y="0">e</tspan><tspan class="cls-77" x="17.23" y="0">n</tspan><tspan class="cls-78" x="26.98" y="0">w</tspan><tspan x="40.05" y="0">ood </tspan><tspan class="cls-79" x="0" y="21.6">R</tspan><tspan x="9.76" y="21.6">oad</tspan></text><text class="cls-76" transform="translate(449.69 741.23)"><tspan class="cls-80">G</tspan><tspan class="cls-81" x="11.72" y="0">o</tspan><tspan class="cls-70" x="21.47" y="0">v</tspan><tspan x="29.95" y="0">e</tspan><tspan class="cls-79" x="38.97" y="0">r</tspan><tspan class="cls-82" x="44.93" y="0">nme</tspan><tspan class="cls-83" x="78.95" y="0">n</tspan><tspan class="cls-84" x="88.87" y="0">t</tspan><tspan class="cls-85"><tspan x="0" y="21.6">C</tspan><tspan class="cls-84" x="10.24" y="21.6">e</tspan><tspan class="cls-83" x="19.26" y="21.6">n</tspan><tspan class="cls-86" x="29.18" y="21.6">t</tspan><tspan class="cls-84" x="35.03" y="21.6">er</tspan></tspan></text><text class="cls-76" transform="translate(449.69 841.51)"><tspan class="cls-87">A</tspan><tspan x="10.96" y="0">i</tspan><tspan class="cls-88" x="15.17" y="0">r</tspan><tspan x="21.13" y="0">po</tspan><tspan class="cls-89" x="41.26" y="0">r</tspan><tspan x="47.57" y="0">t</tspan><tspan class="cls-90" x="0" y="21.6">S</tspan><tspan class="cls-84" x="8.82" y="21.6">t</tspan><tspan class="cls-83" x="14.78" y="21.6">a</tspan><tspan x="23.38" y="21.6">tion</tspan></text><text class="cls-76" transform="translate(449.69 941.74)"><tspan class="cls-87">A</tspan><tspan x="10.96" y="0">i</tspan><tspan class="cls-88" x="15.17" y="0">r</tspan><tspan x="21.13" y="0">po</tspan><tspan class="cls-89" x="41.26" y="0">r</tspan><tspan x="47.57" y="0">t</tspan><tspan x="0" y="21.6">Shuttle</tspan></text><text class="cls-76" transform="translate(449.69 1040.24)"><tspan class="cls-79">B</tspan><tspan class="cls-82" x="9.83" y="0">os</tspan><tspan class="cls-91" x="26.84" y="0">t</tspan><tspan x="32.69" y="0">on</tspan><tspan class="cls-87" x="0" y="21.6">A</tspan><tspan x="10.96" y="21.6">i</tspan><tspan class="cls-88" x="15.17" y="21.6">r</tspan><tspan x="21.13" y="21.6">po</tspan><tspan class="cls-89" x="41.26" y="21.6">r</tspan><tspan x="47.57" y="21.6">t</tspan></text><text class="cls-76" transform="translate(449.69 1246.78)"><tspan class="cls-79">R</tspan><tspan x="9.76" y="0">eyj</tspan><tspan class="cls-92" x="31.63" y="0">a</tspan><tspan x="40.16" y="0">vi</tspan><tspan class="cls-93" x="53.03" y="0">k</tspan><tspan class="cls-82" x="61.72" y="0">, I</tspan><tspan class="cls-86" x="73.56" y="0">c</tspan><tspan x="81.52" y="0">eland</tspan><tspan class="cls-90" x="0" y="21.6">A</tspan><tspan class="cls-84" x="10.96" y="21.6">i</tspan><tspan class="cls-88" x="15.17" y="21.6">r</tspan><tspan x="21.13" y="21.6">po</tspan><tspan class="cls-89" x="41.26" y="21.6">r</tspan><tspan x="47.57" y="21.6">t</tspan></text><text class="cls-76" transform="translate(449.69 1436.98)">Helsin<tspan class="cls-94" x="46.33" y="0">k</tspan><tspan x="55.08" y="0">i, </tspan><tspan class="cls-95" x="66.83" y="0">F</tspan><tspan x="75.13" y="0">inland</tspan><tspan class="cls-87" x="0" y="21.6">A</tspan><tspan x="10.96" y="21.6">i</tspan><tspan class="cls-88" x="15.17" y="21.6">r</tspan><tspan x="21.13" y="21.6">po</tspan><tspan class="cls-89" x="41.26" y="21.6">r</tspan><tspan x="47.57" y="21.6">t</tspan></text><text class="cls-76" transform="translate(449.69 1643.01)"><tspan class="cls-96">M</tspan><tspan x="14.53" y="0">u</tspan><tspan class="cls-88" x="24.44" y="0">r</tspan><tspan x="30.4" y="0">mans</tspan><tspan class="cls-97" x="71.21" y="0">k</tspan><tspan x="79.9" y="0">, Russia</tspan><tspan class="cls-87" x="0" y="21.6">A</tspan><tspan x="10.96" y="21.6">i</tspan><tspan class="cls-88" x="15.17" y="21.6">r</tspan><tspan x="21.13" y="21.6">po</tspan><tspan class="cls-89" x="41.26" y="21.6">r</tspan><tspan x="47.57" y="21.6">t</tspan></text><path d="M286.93,2159c-1-1.32-3.14-4.73-1.62-7.76a46.61,46.61,0,0,0,2.94-9.2c1.62-11.6-8.58-18.7-8.94-18.95-8.22-6.41-25.59-8.76-37.17-5A46.31,46.31,0,0,1,222.7,2120h0c-1.72-.32-7.75.74-29,12.31a4.74,4.74,0,0,0-2.42-1.57,2.92,2.92,0,0,0-2.31.47,3,3,0,0,0-1.31,2.06,4.29,4.29,0,0,0,.47,2.47l-4.64,4.11-.14.15a4.72,4.72,0,0,0-.91,3c-.07.81-2.07,4-3.76,6l-.22.35c-.35.82-.2,2.25,2.43,4.38.31.29,3.22,2.77,10-.42,4.31-1.49,15.37-4.93,20.55-5,1.21,5.74,2.45,17.91-3.52,20-1.1,0-4.84.05-6.87,2a4.26,4.26,0,0,0-1.34,3.16,1.4,1.4,0,0,0,1.4,1.4h17.53a1.38,1.38,0,0,0,1.11-.49,1.31,1.31,0,0,0,.27-1.16s-.09-1.24,2.23-3.13c2.84-2.32,5.76-4.7,7.67-9.93.27.36.52.72.74,1.07a18.83,18.83,0,0,1,1.74,3.5c.82,2.11,1.37,3,6.43,6.59.79.76,1.52,1.9,1.43,2.24a.49.49,0,0,1-.13.1c-2.32,1.39-2.44,2.81-2.13,3.76.56,1.72,2.87,2.47,4.23,2.47h.26c1.75-.14,6.06-1.32,8.23-4a7.78,7.78,0,0,0,1.64-6.18c0-.24,0-.48-.05-.72l0-.7-.58-.39a11.86,11.86,0,0,1-3-3.09,11.43,11.43,0,0,1-1.19-5,14.22,14.22,0,0,0-.59-3,30.35,30.35,0,0,0,8.74,1.11c1,0,2.15,0,3.34-.12,3.24,2.57,7.88,6.43,7.69,9.24,0,.35-.1,1.43-2.19,2.67-1,.65-2.37,2.58-1.37,5.69a3.92,3.92,0,0,0,3,2.58,6.69,6.69,0,0,0,1.56.17,10.39,10.39,0,0,0,2.6-.37h8.2c5.39,0,7.89-2.73,9-5C289.84,2167.88,288.45,2161,286.93,2159Zm-96.28-25.51a1.21,1.21,0,0,1,.42.24l-.64.35a1,1,0,0,1,0-.38S190.41,2133.63,190.66,2133.51Zm29.77,34.37a8.46,8.46,0,0,0-3.07,4.12h-14a9.55,9.55,0,0,1,4.72-.94,1.45,1.45,0,0,0,.47-.06c8.6-2.58,6.88-16.75,5.86-22.27a36,36,0,0,1,10.58,6.34,12.53,12.53,0,0,1-3.72,8.31,1,1,0,1,0,1.33,1.45,14,14,0,0,0,4.19-8.17q.52.48,1,1C226.13,2163.22,223.37,2165.48,220.42,2167.88Zm64.55,3.46c-1.17,2.34-3.3,3.47-6.52,3.47H275.8A21,21,0,0,0,278,2173c.88-.65,6.66-5.2,5.24-10.77l-.09-.35-.24-.26c-.28-.3-6.86-7.54-1.13-16.39a1.4,1.4,0,0,0-2.36-1.52c-6.21,9.6-.22,17.83,1.17,19.52.71,3.91-4.26,7.52-4.31,7.56l-.18.15c-3.41,3.41-7.27,4.69-9.31,4.19-.54-.13-.87-.37-1-.71-.57-1.78.21-2.45.19-2.46,2.19-1.29,3.37-2.93,3.5-4.86.3-4.5-5.33-8.94-9.45-12.18a28.89,28.89,0,0,1-2.82-2.39,50.16,50.16,0,0,1-5.18-8.12,1.4,1.4,0,1,0-2.5,1.28,52.14,52.14,0,0,0,5.57,8.7,8.4,8.4,0,0,0,.6.6c-6.24,0-9.27-1.37-10.12-1.84a34,34,0,0,0-4-6.51,31,31,0,0,1-2.41-3.52,1.4,1.4,0,1,0-2.45,1.37,33.8,33.8,0,0,0,2.63,3.86c5,6.5,5.32,11.42,5.32,11.42a14.05,14.05,0,0,0,1.62,6.47,14.39,14.39,0,0,0,3.22,3.51v.14a5,5,0,0,1-1,4.2c-1.51,1.88-5,2.88-6.27,3a3,3,0,0,1-1.46-.44,3.78,3.78,0,0,1,.78-.58,2.87,2.87,0,0,0,1.47-2.21c.22-2.12-1.94-4.24-2.37-4.65l-.15-.12c-4.7-3.31-4.92-3.87-5.51-5.37a21.74,21.74,0,0,0-2-4c-3.59-5.81-13.69-13.07-19.65-14.11-5.69-1-21.68,4.48-23.49,5.11l-.14.06c-5.07,2.39-7,.93-7.05.88a7.79,7.79,0,0,1-1.43-1.41c1.15-1.47,3.94-5.26,3.94-7.19a2.54,2.54,0,0,1,.24-1.17l5.25-4.69c7.32-4.07,13-7,17.34-9.07,3.55-.67,9.51-1.57,12-1a1,1,0,0,0,.41-1.92,21.34,21.34,0,0,0-5.82,0c5.42-2.24,7.17-2.34,7.49-2.35l.12,0a48.2,48.2,0,0,0,20.76-2c10.64-3.43,27.12-1.26,34.65,4.61a21,21,0,0,1,3.11,2.83c.4,1.34,2,7.48.41,12.13a1.4,1.4,0,1,0,2.65.92,18.34,18.34,0,0,0,.83-6.85,14.46,14.46,0,0,1,.83,7.16,44.69,44.69,0,0,1-2.69,8.43c-2.22,4.43.58,9,1.89,10.7C285.56,2161.85,286.84,2167.6,285,2171.34Zm-82.52-33.43a1,1,0,0,1-2,0,2.58,2.58,0,0,0-1.24-1.94,8.67,8.67,0,0,1,.81,4.13,1,1,0,0,1-1,1h0a1,1,0,0,1-1-1,7.21,7.21,0,0,0-.5-3.07,3.9,3.9,0,0,0-.31,1.31,1,1,0,0,1-2,0,5.12,5.12,0,0,1,2.37-4.24,2.53,2.53,0,0,1,2.55.17A4.5,4.5,0,0,1,202.45,2137.9Zm-10.5,5.77a1,1,0,0,1-1.36.29c-.34-.22-1.17.16-1.54.43a1,1,0,0,1-1.17-1.57c.22-.16,2.17-1.55,3.78-.51A1,1,0,0,1,192,2143.67Zm36.64-4.85a1,1,0,0,1-1.82.73,3.77,3.77,0,0,0-2.06-2.06,15.51,15.51,0,0,1,2.55,4.54,1,1,0,1,1-1.85.65,14,14,0,0,0-4.11-5.89,1,1,0,0,1,.53-1.76C222,2135,226.94,2134.72,228.59,2138.82Zm-.21,6a1.05,1.05,0,1,1-1.05-1.05A1.05,1.05,0,0,1,228.38,2144.83Zm-6.49-18.56a1,1,0,1,1,1,1A1,1,0,0,1,221.89,2126.28Zm54.19,15.83a1,1,0,0,1,.25,1.36s-3.36,5-2.31,9.5a1,1,0,0,1-.73,1.18l-.22,0a1,1,0,0,1-1-.76c-1.25-5.39,2.44-10.83,2.6-11.05A1,1,0,0,1,276.08,2142.11Zm-1.29,14.25a1.14,1.14,0,1,1-1.14-1.14A1.14,1.14,0,0,1,274.79,2156.36Zm-41.35-1c.13.17,3.16,4,4.13,7.08a12.42,12.42,0,0,1,2.42,1.63,1,1,0,0,1-1.39,1.39,12.42,12.42,0,0,0-2.31-1.47,1,1,0,0,1-.5-.63c-.7-2.72-3.86-6.74-3.89-6.78a1,1,0,1,1,1.54-1.22Zm7.26,10.63a.88.88,0,1,1,.88.88A.88.88,0,0,1,240.71,2166Zm-19.92,0a.88.88,0,1,1-.88-.88A.88.88,0,0,1,220.78,2166Z" transform="translate(-6.75 -107.75)"/><path class="cls-11" d="M182.87,2125.17" transform="translate(-6.75 -107.75)"/><path class="cls-11" d="M182.87,2032.8" transform="translate(-6.75 -107.75)"/><path class="cls-52" d="M129.14,1536.38H127.7l1.67-2.51a.75.75,0,0,0,.14-.38c0-.22-.14-.4-.5-.4h-2a.43.43,0,1,0,0,.85h1.26l-1.67,2.51a.64.64,0,0,0-.09.32c0,.3.14.45.42.45h2.19a.39.39,0,0,0,.44-.44A.38.38,0,0,0,129.14,1536.38Z" transform="translate(-6.75 -107.75)"/><polygon class="cls-52" points="123.96 1388.11 123.96 1388.16 122.63 1389.25 122.63 1394.09 123.96 1395.19 123.96 1401.22 125.28 1401.22 125.28 1388.11 123.96 1388.11"/><path class="cls-52" d="M710.73,1149.59h-3.39l3.94-5.93a1.77,1.77,0,0,0,.33-.89c0-.53-.33-1-1.17-1h-4.69a1,1,0,1,0,0,2h3l-3.94,5.95a1.52,1.52,0,0,0-.21.77c0,.72.34,1.07,1,1.07h5.18a.91.91,0,0,0,1-1A.9.9,0,0,0,710.73,1149.59Z" transform="translate(-6.75 -107.75)"/><path class="cls-52" d="M718.1,1152.93h-2l2.35-3.54a1.05,1.05,0,0,0,.2-.53c0-.32-.2-.57-.7-.57h-2.79a.6.6,0,1,0,0,1.2h1.77l-2.35,3.54a.91.91,0,0,0-.13.46c0,.43.2.64.59.64h3.09a.55.55,0,0,0,.62-.62A.54.54,0,0,0,718.1,1152.93Z" transform="translate(-6.75 -107.75)"/><path class="cls-52" d="M723.89,1157.85h-1.41l1.64-2.47a.74.74,0,0,0,.14-.37c0-.22-.14-.4-.49-.4h-2a.42.42,0,1,0,0,.84h1.24l-1.64,2.47a.63.63,0,0,0-.09.32c0,.3.14.45.41.45h2.15a.38.38,0,0,0,.43-.43A.37.37,0,0,0,723.89,1157.85Z" transform="translate(-6.75 -107.75)"/><text class="cls-98" transform="translate(575.59 1024.52)"><tspan class="cls-99">T</tspan><tspan x="7.16" y="0">u</tspan><tspan class="cls-100" x="15.89" y="0">r</tspan><tspan x="21.13" y="0">key sandwich</tspan></text><path class="cls-52" d="M709.57,1109.94a3,3,0,0,0,3-3h0v-9.52l8.39-1.58v7a3,3,0,1,0,1.36,2.52v-10.08a.88.88,0,0,0-.88-.94.38.38,0,0,0-.14,0l-9.32,1.75a.89.89,0,0,0-.8.94v7.35a2.91,2.91,0,0,0-1.64-.51,3,3,0,0,0,0,6Zm9.75-2.93a1.66,1.66,0,1,1,1.66-1.66A1.66,1.66,0,0,1,719.32,1107Zm-9.75-1.75a1.66,1.66,0,1,1-1.66,1.66A1.66,1.66,0,0,1,709.57,1105.26Z" transform="translate(-6.75 -107.75)"/><polygon class="cls-52" points="716.96 1012.92 716.96 1012.96 715.65 1014.04 715.65 1018.81 716.96 1019.88 716.96 1025.82 718.26 1025.82 718.26 1012.92 716.96 1012.92"/><polygon class="cls-52" points="701.26 1017.1 700.5 1017.1 700.5 1012.92 699.19 1012.92 699.19 1017.1 698.43 1017.1 698.43 1012.92 697.13 1013.99 697.13 1017.91 697.13 1017.91 697.13 1018.4 699.24 1018.4 699.24 1025.82 700.54 1025.82 700.54 1018.4 702.57 1018.4 702.57 1017.75 702.57 1017.1 702.57 1013.99 701.26 1012.92 701.26 1017.1"/><path class="cls-52" d="M720.18,1121.7h-8.77v1.24h-1.24v8.77h1.24v1.24h8.77v-1.24h1.24v-8.77h-1.24v-1.24Zm0,9h-1v1h-6.84v-1h-1v-6.84h1v-1h6.84v1h1v6.84Z" transform="translate(-6.75 -107.75)"/><rect class="cls-52" x="706.77" y="1017.3" width="4.54" height="4.54"/><text class="cls-98" transform="translate(614.38 999.59)"><tspan class="cls-101">N</tspan><tspan class="cls-102" x="10.58" y="0">ick D</tspan><tspan class="cls-103" x="42.72" y="0">r</tspan><tspan x="47.82" y="0">ake</tspan></text><path class="cls-52" d="M700.16,1466.15h-3.39l3.94-5.93a1.77,1.77,0,0,0,.33-.89c0-.53-.33-1-1.17-1h-4.69a1,1,0,1,0,0,2h3l-3.94,5.95a1.52,1.52,0,0,0-.21.77c0,.72.34,1.07,1,1.07h5.18a.91.91,0,0,0,1-1A.9.9,0,0,0,700.16,1466.15Z" transform="translate(-6.75 -107.75)"/><path class="cls-52" d="M707.53,1469.48h-2l2.35-3.54a1.05,1.05,0,0,0,.2-.53c0-.32-.2-.57-.7-.57h-2.79a.6.6,0,1,0,0,1.2h1.77l-2.35,3.54a.91.91,0,0,0-.13.46c0,.43.2.64.59.64h3.09a.55.55,0,0,0,.62-.62A.54.54,0,0,0,707.53,1469.48Z" transform="translate(-6.75 -107.75)"/><path class="cls-52" d="M713.33,1474.4h-1.41l1.64-2.47a.74.74,0,0,0,.14-.37c0-.22-.14-.4-.49-.4h-2a.42.42,0,1,0,0,.84h1.24l-1.64,2.47a.63.63,0,0,0-.09.32c0,.3.14.45.41.45h2.15a.38.38,0,0,0,.43-.43A.37.37,0,0,0,713.33,1474.4Z" transform="translate(-6.75 -107.75)"/><text class="cls-104" transform="translate(640.98 1339.63)"><tspan class="cls-105">P</tspan><tspan x="8.05" y="0">izza</tspan></text><path class="cls-52" d="M699,1426.49a3,3,0,0,0,3-3h0V1414l8.38-1.58v7a3,3,0,1,0,1.37,2.52v-10.08a.88.88,0,0,0-.88-.94.38.38,0,0,0-.14,0l-9.32,1.75a.89.89,0,0,0-.8.94V1421a2.91,2.91,0,0,0-1.64-.51,3,3,0,1,0,0,6Zm9.75-2.92a1.66,1.66,0,1,1,1.66-1.66A1.66,1.66,0,0,1,708.75,1423.57Zm-9.75-1.76a1.66,1.66,0,1,1-1.66,1.66A1.66,1.66,0,0,1,699,1421.81Z" transform="translate(-6.75 -107.75)"/><polygon class="cls-52" points="706.39 1329.47 706.39 1329.51 705.08 1330.59 705.08 1335.36 706.39 1336.44 706.39 1342.37 707.69 1342.37 707.69 1329.47 706.39 1329.47"/><polygon class="cls-52" points="690.69 1333.65 689.93 1333.65 689.93 1329.47 688.63 1329.47 688.63 1333.65 687.86 1333.65 687.86 1329.47 686.56 1330.55 686.56 1334.46 686.56 1334.46 686.56 1334.95 688.67 1334.95 688.67 1342.37 689.98 1342.37 689.98 1334.95 692 1334.95 692 1334.3 692 1333.65 692 1330.55 690.69 1329.47 690.69 1333.65"/><path class="cls-52" d="M709.61,1438.25h-8.77v1.24h-1.24v8.77h1.24v1.24h8.77v-1.24h1.24v-8.77h-1.24v-1.24Zm0,9h-1v1h-6.84v-1h-1v-6.84h1v-1h6.84v1h1v6.84Z" transform="translate(-6.75 -107.75)"/><rect class="cls-52" x="696.2" y="1333.85" width="4.54" height="4.54"/><text class="cls-98" transform="translate(594.49 1316.44)">Elliott Smith</text><text class="cls-98" transform="translate(571.29 1735.09)">Bu<tspan class="cls-106" x="17.31" y="0">r</tspan><tspan x="22.37" y="0">ger and </tspan><tspan class="cls-107" x="76.41" y="0">F</tspan><tspan class="cls-100" x="83.71" y="0">r</tspan><tspan class="cls-102" x="88.96" y="0">ies</tspan></text><polygon class="cls-52" points="709.37 1723.36 709.37 1723.4 708.07 1724.48 708.07 1729.25 709.37 1730.33 709.37 1736.26 710.68 1736.26 710.68 1723.36 709.37 1723.36"/><polygon class="cls-52" points="693.68 1727.54 692.91 1727.54 692.91 1723.36 691.61 1723.36 691.61 1727.54 690.85 1727.54 690.85 1723.36 689.54 1724.44 689.54 1728.35 689.54 1728.35 689.54 1728.84 691.65 1728.84 691.65 1736.26 692.96 1736.26 692.96 1728.84 694.98 1728.84 694.98 1728.19 694.98 1727.54 694.98 1724.44 693.68 1723.36 693.68 1727.54"/><path class="cls-52" d="M712.6,1832.14h-8.77v1.24h-1.24v8.77h1.24v1.24h8.77v-1.24h1.24v-8.77H712.6v-1.24Zm0,9h-1v1h-6.84v-1h-1v-6.84h1v-1h6.84v1h1v6.84Z" transform="translate(-6.75 -107.75)"/><rect class="cls-52" x="699.19" y="1727.74" width="4.54" height="4.54"/><path class="cls-52" d="M117.53,1097.82a3.08,3.08,0,0,0,3.07-3.07h0v-9.66l8.51-1.6v7.13a3.06,3.06,0,1,0,1.39,2.55v-10.24a.89.89,0,0,0-.89-1,.39.39,0,0,0-.14,0l-9.46,1.78a.9.9,0,0,0-.81,1v7.46a3,3,0,0,0-1.66-.51,3.07,3.07,0,1,0,0,6.14Zm9.9-3a1.68,1.68,0,1,1,1.68-1.68A1.68,1.68,0,0,1,127.43,1094.85Zm-9.9-1.78a1.68,1.68,0,1,1-1.68,1.68A1.68,1.68,0,0,1,117.53,1093.07Z" transform="translate(-6.75 -107.75)"/><polygon class="cls-52" points="125.13 1005.66 125.13 1005.71 123.8 1006.8 123.8 1011.64 125.13 1012.74 125.13 1018.76 126.45 1018.76 126.45 1005.66 125.13 1005.66"/><polygon class="cls-52" points="109.19 1009.9 108.42 1009.9 108.42 1005.66 107.09 1005.66 107.09 1009.9 106.32 1009.9 106.32 1005.66 104.99 1006.75 104.99 1010.73 104.99 1010.73 104.99 1011.23 107.14 1011.23 107.14 1018.76 108.46 1018.76 108.46 1011.23 110.52 1011.23 110.52 1010.57 110.52 1009.9 110.52 1006.75 109.19 1005.66 109.19 1009.9"/><path class="cls-52" d="M128.3,1114.46h-8.9v1.26h-1.26v8.9h1.26v1.26h8.9v-1.26h1.26v-8.9H128.3v-1.26Zm0,9.18h-1v1h-6.94v-1h-1v-6.94h1v-1h6.94v1h1v6.94Z" transform="translate(-6.75 -107.75)"/><rect class="cls-52" x="114.78" y="1010.11" width="4.61" height="4.61"/><text class="cls-108" transform="translate(25.21 985.96)"><tspan class="cls-109">T</tspan><tspan x="7.76" y="0">he Smiths</tspan></text><text class="cls-108" transform="translate(15.67 1214.55)"><tspan class="cls-110">F</tspan><tspan x="7.3" y="0">ig New</tspan><tspan class="cls-111" x="53.24" y="0">t</tspan><tspan class="cls-112" x="58.39" y="0">on</tspan></text><path class="cls-52" d="M111,1293.86a3.08,3.08,0,0,0,3.07-3.07h0v-9.66l8.51-1.6v7.13a3.06,3.06,0,1,0,1.39,2.55V1279a.89.89,0,0,0-.89-1,.39.39,0,0,0-.14,0l-9.46,1.78a.9.9,0,0,0-.81,1v7.46a3,3,0,0,0-1.66-.51,3.07,3.07,0,0,0,0,6.14Zm9.9-3a1.68,1.68,0,1,1,1.68-1.68A1.68,1.68,0,0,1,120.87,1290.89Zm-9.9-1.78a1.68,1.68,0,1,1-1.68,1.68A1.68,1.68,0,0,1,111,1289.11Z" transform="translate(-6.75 -107.75)"/><polygon class="cls-52" points="118.57 1202.34 118.57 1202.39 117.25 1203.48 117.25 1208.32 118.57 1209.42 118.57 1215.45 119.9 1215.45 119.9 1202.34 118.57 1202.34"/><polygon class="cls-52" points="102.64 1206.59 101.86 1206.59 101.86 1202.34 100.54 1202.34 100.54 1206.59 99.76 1206.59 99.76 1202.34 98.44 1203.44 98.44 1207.41 98.44 1207.41 98.44 1207.91 100.58 1207.91 100.58 1215.45 101.91 1215.45 101.91 1207.91 103.96 1207.91 103.96 1207.25 103.96 1206.59 103.96 1203.44 102.64 1202.34 102.64 1206.59"/><path class="cls-52" d="M121.74,1311.14h-8.9v1.26h-1.26v8.9h1.26v1.26h8.9v-1.26H123v-8.9h-1.26v-1.26Zm0,9.18h-1v1h-6.94v-1h-1v-6.94h1v-1h6.94v1h1v6.94Z" transform="translate(-6.75 -107.75)"/><rect class="cls-52" x="108.23" y="1206.79" width="4.61" height="4.61"/><text class="cls-108" transform="translate(0 1184.03)"><tspan class="cls-113">I</tspan><tspan class="cls-114" x="3.94" y="0">r</tspan><tspan x="8.97" y="0">on and</tspan><tspan class="cls-115" x="55.17" y="0"> </tspan><tspan class="cls-116" x="57.96" y="0">W</tspan><tspan x="71.1" y="0">ine</tspan></text><path class="cls-52" d="M116.19,1529h-3.44l4-6a1.79,1.79,0,0,0,.33-.91c0-.54-.33-1-1.19-1h-4.76a1,1,0,1,0,0,2h3l-4,6a1.55,1.55,0,0,0-.22.78c0,.73.35,1.09,1,1.09h5.26a.93.93,0,0,0,1-1A.91.91,0,0,0,116.19,1529Z" transform="translate(-6.75 -107.75)"/><path class="cls-52" d="M123.67,1532.36h-2.05l2.39-3.59a1.07,1.07,0,0,0,.2-.54c0-.32-.2-.58-.71-.58h-2.84a.61.61,0,1,0,0,1.22h1.8l-2.39,3.6a.92.92,0,0,0-.13.47c0,.43.21.65.59.65h3.13a.55.55,0,0,0,.63-.63A.54.54,0,0,0,123.67,1532.36Z" transform="translate(-6.75 -107.75)"/><text class="cls-108" transform="translate(56.41 1400.87)">PB &amp; J</text><path class="cls-52" d="M115,1484.76a3.08,3.08,0,0,0,3.07-3.07h0V1472l8.51-1.6v7.13a3.06,3.06,0,1,0,1.39,2.55v-10.24a.89.89,0,0,0-.89-1,.39.39,0,0,0-.14,0l-9.46,1.78a.9.9,0,0,0-.81,1v7.46a3,3,0,0,0-1.66-.51,3.07,3.07,0,0,0,0,6.14Zm9.9-3a1.68,1.68,0,1,1,1.68-1.68A1.68,1.68,0,0,1,124.92,1481.79ZM115,1480a1.68,1.68,0,1,1-1.68,1.68A1.68,1.68,0,0,1,115,1480Z" transform="translate(-6.75 -107.75)"/><polygon class="cls-52" points="106.68 1392.36 105.91 1392.36 105.91 1388.11 104.58 1388.11 104.58 1392.36 103.81 1392.36 103.81 1388.11 102.48 1389.21 102.48 1393.18 102.48 1393.18 102.48 1393.68 104.63 1393.68 104.63 1401.22 105.95 1401.22 105.95 1393.68 108.01 1393.68 108.01 1393.02 108.01 1392.36 108.01 1389.21 106.68 1388.11 106.68 1392.36"/><path class="cls-52" d="M125.79,1496.91h-8.9v1.26h-1.26v8.9h1.26v1.26h8.9v-1.26H127v-8.9h-1.26v-1.26Zm0,9.18h-1v1h-6.94v-1h-1v-6.94h1v-1h6.94v1h1v6.94Z" transform="translate(-6.75 -107.75)"/><rect class="cls-52" x="112.28" y="1392.56" width="4.61" height="4.61"/><text class="cls-108" transform="translate(11.41 1375.7)"><tspan class="cls-117">T</tspan><tspan x="6.86" y="0">ame </tspan><tspan class="cls-118" x="39" y="0">I</tspan><tspan x="42.94" y="0">mpala</tspan></text><path class="cls-52" d="M119.95,1640.63h-3.44l4-6a1.79,1.79,0,0,0,.33-.91c0-.54-.33-1-1.19-1h-4.76a1,1,0,1,0,0,2h3l-4,6a1.55,1.55,0,0,0-.22.78c0,.73.35,1.09,1,1.09h5.26a.93.93,0,0,0,1-1A.91.91,0,0,0,119.95,1640.63Z" transform="translate(-6.75 -107.75)"/><path class="cls-52" d="M127.43,1644h-2.05l2.39-3.59a1.07,1.07,0,0,0,.2-.54c0-.32-.2-.58-.71-.58h-2.84a.61.61,0,1,0,0,1.22h1.8l-2.39,3.6a.92.92,0,0,0-.13.47c0,.43.21.65.59.65h3.13a.55.55,0,0,0,.63-.63A.54.54,0,0,0,127.43,1644Z" transform="translate(-6.75 -107.75)"/><path class="cls-52" d="M133.32,1649h-1.43l1.67-2.51a.75.75,0,0,0,.14-.38c0-.22-.14-.4-.5-.4h-2a.43.43,0,1,0,0,.85h1.26l-1.67,2.51a.64.64,0,0,0-.09.32c0,.3.14.45.42.45h2.19a.39.39,0,0,0,.44-.44A.38.38,0,0,0,133.32,1649Z" transform="translate(-6.75 -107.75)"/><text x="-6.75" y="-107.75"></text><path class="cls-52" d="M118.77,1586.62a3.08,3.08,0,0,0,3.07-3.07h0v-9.66l8.51-1.6v7.13a3.06,3.06,0,1,0,1.39,2.55v-10.24a.89.89,0,0,0-.89-1,.39.39,0,0,0-.14,0l-9.46,1.78a.9.9,0,0,0-.81,1V1581a3,3,0,0,0-1.66-.51,3.07,3.07,0,0,0,0,6.14Zm9.9-3a1.68,1.68,0,1,1,1.68-1.68A1.68,1.68,0,0,1,128.67,1583.65Zm-9.9-1.78a1.68,1.68,0,1,1-1.68,1.68A1.68,1.68,0,0,1,118.77,1581.87Z" transform="translate(-6.75 -107.75)"/><polygon class="cls-52" points="126.37 1498.71 126.37 1498.76 125.05 1499.85 125.05 1504.69 126.37 1505.79 126.37 1511.81 127.7 1511.81 127.7 1498.71 126.37 1498.71"/><polygon class="cls-52" points="110.44 1502.96 109.66 1502.96 109.66 1498.71 108.34 1498.71 108.34 1502.96 107.56 1502.96 107.56 1498.71 106.24 1499.81 106.24 1503.78 106.24 1503.78 106.24 1504.28 108.38 1504.28 108.38 1511.81 109.71 1511.81 109.71 1504.28 111.76 1504.28 111.76 1503.62 111.76 1502.96 111.76 1499.81 110.44 1498.71 110.44 1502.96"/><path class="cls-52" d="M129.54,1607.51h-8.9v1.26h-1.26v8.9h1.26v1.26h8.9v-1.26h1.26v-8.9h-1.26v-1.26Zm0,9.18h-1v1h-6.94v-1h-1v-6.94h1v-1h6.94v1h1v6.94Z" transform="translate(-6.75 -107.75)"/><rect class="cls-52" x="116.03" y="1503.16" width="4.61" height="4.61"/><text class="cls-108" transform="translate(11.24 1478.04)"><tspan class="cls-110">F</tspan><tspan x="7.3" y="0">innish </tspan><tspan class="cls-119" x="50.72" y="0">M</tspan><tspan x="63.55" y="0">etal</tspan></text><text class="cls-108" transform="translate(11.41 1509.22)">Baltic he<tspan class="cls-120" x="56.09" y="0">rr</tspan><tspan x="66.57" y="0">ing</tspan></text><text class="cls-108" transform="translate(51.28 1627.55)">Cheese</text><path class="cls-52" d="M118.77,1712.42a3.08,3.08,0,0,0,3.07-3.07h0v-9.66l8.51-1.6v7.13a3.06,3.06,0,1,0,1.39,2.55v-10.24a.89.89,0,0,0-.89-1,.39.39,0,0,0-.14,0l-9.46,1.78a.9.9,0,0,0-.81,1v7.46a3,3,0,0,0-1.66-.51,3.07,3.07,0,1,0,0,6.14Zm9.9-3a1.68,1.68,0,1,1,1.68-1.68A1.68,1.68,0,0,1,128.67,1709.45Zm-9.9-1.78a1.68,1.68,0,1,1-1.68,1.68A1.68,1.68,0,0,1,118.77,1707.67Z" transform="translate(-6.75 -107.75)"/><polygon class="cls-52" points="126.37 1615.76 126.37 1615.81 125.05 1616.91 125.05 1621.75 126.37 1622.84 126.37 1628.87 127.7 1628.87 127.7 1615.76 126.37 1615.76"/><polygon class="cls-52" points="110.44 1620.01 109.66 1620.01 109.66 1615.76 108.34 1615.76 108.34 1620.01 107.56 1620.01 107.56 1615.76 106.24 1616.86 106.24 1620.83 106.24 1620.83 106.24 1621.34 108.38 1621.34 108.38 1628.87 109.71 1628.87 109.71 1621.34 111.76 1621.34 111.76 1620.67 111.76 1620.01 111.76 1616.86 110.44 1615.76 110.44 1620.01"/><path class="cls-52" d="M129.54,1724.56h-8.9v1.26h-1.26v8.9h1.26V1736h8.9v-1.26h1.26v-8.9h-1.26v-1.26Zm0,9.18h-1v1h-6.94v-1h-1v-6.94h1v-1h6.94v1h1v6.94Z" transform="translate(-6.75 -107.75)"/><rect class="cls-52" x="116.03" y="1620.21" width="4.61" height="4.61"/><text class="cls-108" transform="translate(60.16 1603.35)"><tspan xml:space="preserve">  Blur</tspan></text><text class="cls-108" transform="translate(22.75 1718.98)">G<tspan class="cls-121" x="10.23" y="0">r</tspan><tspan x="15.33" y="0">anola Bar</tspan></text><path class="cls-52" d="M118.77,1801.29a3.08,3.08,0,0,0,3.07-3.07h0v-9.66l8.51-1.6v7.13a3.06,3.06,0,1,0,1.39,2.55V1786.4a.89.89,0,0,0-.89-1,.39.39,0,0,0-.14,0l-9.46,1.78a.9.9,0,0,0-.81,1v7.46a3,3,0,0,0-1.66-.51,3.07,3.07,0,0,0,0,6.14Zm9.9-3a1.68,1.68,0,1,1,1.68-1.68A1.68,1.68,0,0,1,128.67,1798.32Zm-9.9-1.78a1.68,1.68,0,1,1-1.68,1.68A1.68,1.68,0,0,1,118.77,1796.54Z" transform="translate(-6.75 -107.75)"/><polygon class="cls-52" points="126.37 1707.27 126.37 1707.32 125.05 1708.41 125.05 1713.25 126.37 1714.35 126.37 1720.38 127.7 1720.38 127.7 1707.27 126.37 1707.27"/><polygon class="cls-52" points="110.44 1711.52 109.66 1711.52 109.66 1707.27 108.34 1707.27 108.34 1711.52 107.56 1711.52 107.56 1707.27 106.24 1708.37 106.24 1712.34 106.24 1712.34 106.24 1712.84 108.38 1712.84 108.38 1720.38 109.71 1720.38 109.71 1712.84 111.76 1712.84 111.76 1712.18 111.76 1711.52 111.76 1708.37 110.44 1707.27 110.44 1711.52"/><path class="cls-52" d="M129.54,1816.07h-8.9v1.26h-1.26v8.9h1.26v1.26h8.9v-1.26h1.26v-8.9h-1.26v-1.26Zm0,9.18h-1v1h-6.94v-1h-1v-6.94h1v-1h6.94v1h1v6.94Z" transform="translate(-6.75 -107.75)"/><rect class="cls-52" x="116.03" y="1711.72" width="4.61" height="4.61"/><text class="cls-108" transform="translate(27.08 1690.91)"><tspan class="cls-109">T</tspan><tspan x="7.76" y="0">he Hollies</tspan></text><path class="cls-52" d="M119.95,2025.69h-3.44l4-6a1.79,1.79,0,0,0,.33-.91c0-.54-.33-1-1.19-1h-4.76a1,1,0,1,0,0,2h3l-4,6a1.55,1.55,0,0,0-.22.78c0,.73.35,1.09,1,1.09h5.26a.93.93,0,0,0,1-1A.91.91,0,0,0,119.95,2025.69Z" transform="translate(-6.75 -107.75)"/><path class="cls-52" d="M127.43,2029.08h-2.05l2.39-3.59a1.07,1.07,0,0,0,.2-.54c0-.32-.2-.58-.71-.58h-2.84a.61.61,0,1,0,0,1.22h1.8l-2.39,3.6a.92.92,0,0,0-.13.47c0,.43.21.65.59.65h3.13a.55.55,0,0,0,.63-.63A.54.54,0,0,0,127.43,2029.08Z" transform="translate(-6.75 -107.75)"/><path class="cls-52" d="M133.32,2034.07h-1.43l1.67-2.51a.75.75,0,0,0,.14-.38c0-.22-.14-.4-.5-.4h-2a.43.43,0,1,0,0,.85h1.26l-1.67,2.51a.64.64,0,0,0-.09.32c0,.3.14.45.42.45h2.19a.39.39,0,0,0,.44-.44A.38.38,0,0,0,133.32,2034.07Z" transform="translate(-6.75 -107.75)"/><text class="cls-108" transform="translate(38.95 1898.84)"><tspan class="cls-119">S</tspan><tspan class="cls-122" x="7.9" y="0">ea </tspan><tspan class="cls-123" x="26.83" y="0">F</tspan><tspan x="34.06" y="0">ood</tspan></text><path class="cls-52" d="M118.77,1981.48a3.08,3.08,0,0,0,3.07-3.07h0v-9.66l8.51-1.6v7.13a3.06,3.06,0,1,0,1.39,2.55v-10.24a.89.89,0,0,0-.89-1,.39.39,0,0,0-.14,0l-9.46,1.78a.9.9,0,0,0-.81,1v7.46a3,3,0,0,0-1.66-.51,3.07,3.07,0,0,0,0,6.14Zm9.9-3a1.68,1.68,0,1,1,1.68-1.68A1.68,1.68,0,0,1,128.67,1978.51Zm-9.9-1.78a1.68,1.68,0,1,1-1.68,1.68A1.68,1.68,0,0,1,118.77,1976.73Z" transform="translate(-6.75 -107.75)"/><polygon class="cls-52" points="126.37 1887.13 126.37 1887.18 125.05 1888.28 125.05 1893.12 126.37 1894.21 126.37 1900.24 127.7 1900.24 127.7 1887.13 126.37 1887.13"/><polygon class="cls-52" points="110.44 1891.38 109.66 1891.38 109.66 1887.13 108.34 1887.13 108.34 1891.38 107.56 1891.38 107.56 1887.13 106.24 1888.23 106.24 1892.2 106.24 1892.2 106.24 1892.7 108.38 1892.7 108.38 1900.24 109.71 1900.24 109.71 1892.7 111.76 1892.7 111.76 1892.04 111.76 1891.38 111.76 1888.23 110.44 1887.13 110.44 1891.38"/><path class="cls-52" d="M129.54,1995.93h-8.9v1.26h-1.26v8.9h1.26v1.26h8.9v-1.26h1.26v-8.9h-1.26v-1.26Zm0,9.18h-1v1h-6.94v-1h-1v-6.94h1v-1h6.94v1h1v6.94Z" transform="translate(-6.75 -107.75)"/><rect class="cls-52" x="116.03" y="1891.58" width="4.61" height="4.61"/><text class="cls-108" transform="translate(24.14 1872.85)"><tspan class="cls-109">T</tspan><tspan x="7.76" y="0">he </tspan><tspan class="cls-120" x="27.85" y="0">B</tspan><tspan class="cls-122" x="36.49" y="0">e</tspan><tspan class="cls-124" x="44.43" y="0">a</tspan><tspan x="52" y="0">tles</tspan></text><text class="cls-108" transform="translate(21.5 1014.93)">G<tspan class="cls-121" x="10.23" y="0">r</tspan><tspan x="15.33" y="0">anola Bar</tspan></text><path class="cls-52" d="M1375.26,1491.83a3,3,0,0,0,3-3h0v-9.52l8.38-1.58v7a3,3,0,1,0,1.37,2.52v-10.08a.88.88,0,0,0-.88-.94.38.38,0,0,0-.14,0l-9.32,1.76a.89.89,0,0,0-.8.94v7.35a2.91,2.91,0,0,0-1.64-.51,3,3,0,0,0,0,6Zm9.75-2.92a1.66,1.66,0,1,1,1.66-1.66A1.66,1.66,0,0,1,1385,1488.9Zm-9.75-1.76a1.66,1.66,0,1,1-1.66,1.66A1.66,1.66,0,0,1,1375.26,1487.15Z" transform="translate(-6.75 -107.75)"/><path class="cls-52" d="M1375.26,2029.27a3,3,0,0,0,3-3h0v-9.52l8.38-1.58v7a3,3,0,1,0,1.37,2.52v-10.08a.88.88,0,0,0-.88-.94.38.38,0,0,0-.14,0l-9.32,1.76a.89.89,0,0,0-.8.94v7.35a2.91,2.91,0,0,0-1.64-.51,3,3,0,0,0,0,6Zm9.75-2.92a1.66,1.66,0,1,1,1.66-1.66A1.66,1.66,0,0,1,1385,2026.35Zm-9.75-1.76a1.66,1.66,0,1,1-1.66,1.66A1.66,1.66,0,0,1,1375.26,2024.59Z" transform="translate(-6.75 -107.75)"/><path class="cls-10" d="M1431,2201" transform="translate(-6.75 -107.75)"/><path class="cls-11" d="M1431,2022.23" transform="translate(-6.75 -107.75)"/><path class="cls-11" d="M1431,683.21" transform="translate(-6.75 -107.75)"/><path class="cls-11" d="M1339.92,1958.49" transform="translate(-6.75 -107.75)"/><rect class="cls-12" x="1413.44" y="647.76" width="16" height="1339.34"/><text class="cls-55" transform="translate(1326.67 1082.37)">22 minu<tspan class="cls-57" x="54.59" y="0">t</tspan><tspan x="59.79" y="0">es</tspan></text><text class="cls-76" transform="translate(1540.46 982.13)"><tspan class="cls-125">L</tspan><tspan x="8.24" y="0">ong</tspan><tspan class="cls-126" x="38.18" y="0">w</tspan><tspan x="51.25" y="0">ood</tspan><tspan class="cls-127" x="0" y="21.6">M</tspan><tspan x="14.58" y="21.6">edical </tspan><tspan class="cls-128" x="0" y="43.2">C</tspan><tspan x="10.24" y="43.2">ompl</tspan><tspan class="cls-90" x="49.63" y="43.2">e</tspan><tspan x="58.59" y="43.2">x</tspan></text><text class="cls-76" transform="translate(1540.46 724.65)"><tspan class="cls-90">S</tspan><tspan class="cls-91" x="8.82" y="0">t</tspan><tspan x="14.67" y="0">op</tspan><tspan x="0" y="21.6">&amp;</tspan><tspan x="0" y="43.2">Shop</tspan></text><text class="cls-76" transform="translate(1540.46 1219.93)"><tspan class="cls-96">M</tspan><tspan x="14.53" y="0">useum</tspan><tspan x="0" y="21.6">of</tspan><tspan class="cls-95" x="0" y="43.2">F</tspan><tspan x="8.3" y="43.2">ine </tspan><tspan class="cls-90" x="35.33" y="43.2">A</tspan><tspan class="cls-129" x="46.3" y="43.2">r</tspan><tspan x="52.61" y="43.2">ts</tspan></text><text class="cls-76" transform="translate(1540.46 1711.92)"><tspan class="cls-130">W</tspan><tspan class="cls-131" x="14.63" y="0">e</tspan><tspan class="cls-132" x="23.65" y="0">n</tspan><tspan class="cls-133" x="33.57" y="0">t</tspan><tspan class="cls-78" x="39.69" y="0">w</tspan><tspan x="52.76" y="0">o</tspan><tspan class="cls-129" x="62.64" y="0">r</tspan><tspan x="68.96" y="0">th</tspan><tspan x="0" y="21.6">Uni</tspan><tspan class="cls-126" x="25.85" y="21.6">v</tspan><tspan class="cls-131" x="34.33" y="21.6">ersi</tspan><tspan class="cls-133" x="60.57" y="21.6">t</tspan><tspan class="cls-131" x="66.69" y="21.6">y</tspan></text><text class="cls-134" transform="translate(1345.43 2116.58)"><tspan class="cls-93">R</tspan><tspan class="cls-78" x="19.87" y="0">y</tspan><tspan x="36.47" y="0">der Hall</tspan></text><path class="cls-11" d="M1431,2116.39" transform="translate(-6.75 -107.75)"/><path class="cls-11" d="M1431,2022.23" transform="translate(-6.75 -107.75)"/><text class="cls-98" transform="translate(1323 1382.78)"><tspan class="cls-135">W</tspan><tspan x="13.15" y="0">il</tspan><tspan class="cls-136" x="20.59" y="0">c</tspan><tspan x="27.59" y="0">o</tspan></text><text x="-6.75" y="-107.75"></text><path class="cls-52" d="M1375.26,911.48a3,3,0,0,0,3-3h0v-9.52l8.38-1.58v7a3,3,0,1,0,1.37,2.52V896.81a.88.88,0,0,0-.88-.94.38.38,0,0,0-.14,0l-9.32,1.75a.89.89,0,0,0-.8.94v7.35a2.91,2.91,0,0,0-1.64-.51,3,3,0,0,0,0,6Zm9.75-2.93a1.66,1.66,0,1,1,1.66-1.66A1.66,1.66,0,0,1,1385,908.55Zm-9.75-1.75a1.66,1.66,0,1,1-1.66,1.66A1.66,1.66,0,0,1,1375.26,906.8Z" transform="translate(-6.75 -107.75)"/><text class="cls-98" transform="translate(1276.52 802.43)">Joni <tspan class="cls-137" x="30.41" y="0">M</tspan><tspan class="cls-138" x="43.34" y="0">i</tspan><tspan class="cls-136" x="47.04" y="0">t</tspan><tspan x="52.19" y="0">chell</tspan></text><text x="-6.75" y="-107.75"></text><text class="cls-98" transform="translate(1268.39 1920.23)"><tspan class="cls-139">T</tspan><tspan x="6.86" y="0">al</tspan><tspan class="cls-140" x="18.23" y="0">k</tspan><tspan x="25.93" y="0">ing Heads</tspan></text><text x="-6.75" y="-107.75"></text><path class="cls-75" d="M1527.85,1096.69h-7.38v-3.3a1.13,1.13,0,0,0-1.12-1.12h-8.25a1.13,1.13,0,0,0-1.12,1.13v3.3h-7.38a1.12,1.12,0,0,0-1.12,1.13v17.92a1.13,1.13,0,0,0,1.13,1.13h25.25a1.13,1.13,0,0,0,1.13-1.12v-17.92A1.12,1.12,0,0,0,1527.85,1096.69Zm-15.63-2.17h6v2.17h-6Zm14.5,20.09h-23v-15.67h23Z" transform="translate(-6.75 -107.75)"/><polygon class="cls-75" points="1509.6 994.61 1507.35 994.61 1507.35 997.9 1504.06 997.9 1504.06 1000.15 1507.35 1000.15 1507.35 1003.43 1509.6 1003.43 1509.6 1000.15 1512.88 1000.15 1512.88 997.9 1509.6 997.9 1509.6 994.61"/><path class="cls-75" d="M439.8,1153.85,429.33,1147v-5.17a4.24,4.24,0,0,0-8.48,0v5.13l-10.46,6.92a1.93,1.93,0,0,0-.86,1.63V1158a1.92,1.92,0,0,0,1.94,1.94,1.76,1.76,0,0,0,.62-.12l8.75-2.88V1161l-3.23,2.26a2,2,0,0,0-.82,1.59v2.65a2,2,0,0,0,.82,1.59,2,2,0,0,0,1.13.35,2,2,0,0,0,.66-.12l5.72-2.06,5.68,1.91a1.76,1.76,0,0,0,.62.12,1.94,1.94,0,0,0,1.13-.35,2,2,0,0,0,.82-1.59v-2.49a2,2,0,0,0-.82-1.59l-3.23-2.26v-4.08l8.75,2.88a1.61,1.61,0,0,0,.62.12,1.92,1.92,0,0,0,1.94-1.94v-2.49A1.93,1.93,0,0,0,439.8,1153.85Zm-1.09,4.12-11.32-3.73V1162l4,2.84v2.49l-6.34-2.14-6.34,2.3v-2.65l4-2.84v-7.78L411.48,1158v-2.49L422.8,1148v-6.22a2.3,2.3,0,0,1,2.3-2.3,2.32,2.32,0,0,1,2.3,2.3V1148l11.32,7.51Z" transform="translate(-6.75 -107.75)"/><path class="cls-75" d="M439.8,1360.4l-10.46-6.89v-5.17a4.24,4.24,0,0,0-8.48,0v5.13l-10.46,6.92a1.93,1.93,0,0,0-.86,1.63v2.49a1.92,1.92,0,0,0,1.94,1.94,1.76,1.76,0,0,0,.62-.12l8.75-2.88v4.08l-3.23,2.26a2,2,0,0,0-.82,1.59v2.65a2,2,0,0,0,.82,1.59,2,2,0,0,0,1.13.35,2,2,0,0,0,.66-.12l5.72-2.06,5.68,1.91a1.76,1.76,0,0,0,.62.12,1.94,1.94,0,0,0,1.13-.35,2,2,0,0,0,.82-1.59v-2.49a2,2,0,0,0-.82-1.59l-3.23-2.26v-4.08l8.75,2.88a1.61,1.61,0,0,0,.62.12,1.92,1.92,0,0,0,1.94-1.94V1362A1.93,1.93,0,0,0,439.8,1360.4Zm-1.09,4.12-11.32-3.73v7.78l4,2.84v2.49l-6.34-2.14-6.34,2.3v-2.65l4-2.84v-7.78l-11.32,3.73V1362l11.32-7.47v-6.22a2.3,2.3,0,0,1,2.3-2.3,2.32,2.32,0,0,1,2.3,2.3v6.18l11.32,7.51Z" transform="translate(-6.75 -107.75)"/><path class="cls-75" d="M439.8,1550.59l-10.46-6.89v-5.17a4.24,4.24,0,0,0-8.48,0v5.13l-10.46,6.92a1.93,1.93,0,0,0-.86,1.63v2.49a1.92,1.92,0,0,0,1.94,1.94,1.76,1.76,0,0,0,.62-.12l8.75-2.88v4.08l-3.23,2.26a2,2,0,0,0-.82,1.59v2.65a2,2,0,0,0,.82,1.59,2,2,0,0,0,1.13.35,2,2,0,0,0,.66-.12l5.72-2.06,5.68,1.91a1.76,1.76,0,0,0,.62.12,1.94,1.94,0,0,0,1.13-.35,2,2,0,0,0,.82-1.59v-2.49a2,2,0,0,0-.82-1.59l-3.23-2.26v-4.08l8.75,2.88a1.61,1.61,0,0,0,.62.12,1.92,1.92,0,0,0,1.94-1.94v-2.49A1.93,1.93,0,0,0,439.8,1550.59Zm-1.09,4.12L427.39,1551v7.78l4,2.84v2.49l-6.34-2.14-6.34,2.3v-2.65l4-2.84V1551l-11.32,3.73v-2.49l11.32-7.47v-6.22a2.3,2.3,0,0,1,2.3-2.3,2.32,2.32,0,0,1,2.3,2.3v6.18l11.32,7.51Z" transform="translate(-6.75 -107.75)"/><path class="cls-75" d="M439.8,1756.62l-10.46-6.89v-5.17a4.24,4.24,0,0,0-8.48,0v5.13l-10.46,6.92a1.93,1.93,0,0,0-.86,1.63v2.49a1.92,1.92,0,0,0,1.94,1.94,1.76,1.76,0,0,0,.62-.12l8.75-2.88v4.08l-3.23,2.26a2,2,0,0,0-.82,1.59v2.65a2,2,0,0,0,.82,1.59,2,2,0,0,0,1.13.35,2,2,0,0,0,.66-.12l5.72-2.06,5.68,1.91a1.76,1.76,0,0,0,.62.12,1.94,1.94,0,0,0,1.13-.35,2,2,0,0,0,.82-1.59v-2.49a2,2,0,0,0-.82-1.59l-3.23-2.26v-4.08l8.75,2.88a1.61,1.61,0,0,0,.62.12,1.92,1.92,0,0,0,1.94-1.94v-2.49A1.93,1.93,0,0,0,439.8,1756.62Zm-1.09,4.12L427.39,1757v7.78l4,2.84v2.49l-6.34-2.14-6.34,2.3v-2.65l4-2.84V1757l-11.32,3.73v-2.49l11.32-7.47v-6.22a2.3,2.3,0,0,1,2.3-2.3,2.32,2.32,0,0,1,2.3,2.3v6.18l11.32,7.51Z" transform="translate(-6.75 -107.75)"/><path class="cls-75" d="M1006.92,1190.12a.61.61,0,0,0,.61.61H1010a2.71,2.71,0,0,0,2.57,1.91h.3a2.71,2.71,0,0,0,2.59-1.91h2.44a.61.61,0,0,0,.61-.61h0a5.78,5.78,0,0,0-5.16-5.74,6.13,6.13,0,0,0-6.08-5.46H1006a6.12,6.12,0,0,0-6.11,6.09v21a2.69,2.69,0,0,0-2.08,2.62v7.21H995a.61.61,0,0,0,0,1.22h10.87a.61.61,0,0,0,0-1.22h-2.74v-7.2a2.69,2.69,0,0,0-2.08-2.62V1185a4.9,4.9,0,0,1,4.89-4.87h1.27a4.9,4.9,0,0,1,4.85,4.24A5.78,5.78,0,0,0,1006.92,1190.12Zm-5,18.56v7.2H999v-7.2a1.47,1.47,0,0,1,2.94,0Zm10.92-17.25h-.31a1.49,1.49,0,0,1-1.26-.69h2.81A1.49,1.49,0,0,1,1012.85,1191.43Zm-.15-5.86a4.57,4.57,0,0,1,4.52,4h-9a4.57,4.57,0,0,1,4.52-4Z" transform="translate(-6.75 -107.75)"/><text class="cls-134" transform="translate(161.6 2116.58)">No<tspan class="cls-129" x="43.45" y="0">r</tspan><tspan x="56.09" y="0">th </tspan><tspan class="cls-141" x="95.61" y="0">P</tspan><tspan x="113.87" y="0">ole</tspan></text><text class="cls-142" x="-6.75" y="-107.75"><tspan x="346.24" y="2026.54">71 sli</tspan><tspan class="cls-86" x="384.11" y="2026.54">c</tspan><tspan x="392.06" y="2026.54">es (20,235 Kcal)</tspan><tspan x="346.24" y="2048.14">8 d</tspan><tspan class="cls-143" x="369.44" y="2048.14">a</tspan><tspan class="cls-86" x="377.97" y="2048.14">y</tspan><tspan x="386.34" y="2048.14">s</tspan><tspan x="346.24" y="2069.74">8591.54 </tspan><tspan class="cls-94" x="409.18" y="2069.74">k</tspan><tspan x="417.93" y="2069.74">m</tspan></text><path d="M343.54,2131.27A14.65,14.65,0,0,0,331,2118.73a1.61,1.61,0,0,0-2,1.36,1.74,1.74,0,0,0,.3,1.1l-4.46,15.68a.36.36,0,0,0,.47.47l3.82-1.1a4.41,4.41,0,0,1-.47,1.32,2.07,2.07,0,0,0-.21,1.32,2.12,2.12,0,0,0,1.7,1.78,2.17,2.17,0,0,0,2.63-2.12,2.22,2.22,0,0,0-.17-.89,8.24,8.24,0,0,1-.64-2.25l1.49-.42c-.08.25-.13.51-.25.81a1.73,1.73,0,0,0,0,.81,1.68,1.68,0,0,0,1.32,1.32,1.66,1.66,0,0,0,1.83-2.29,6.1,6.1,0,0,1-.38-1.4l5.1-1.44a1.64,1.64,0,0,0,1.1.3A1.4,1.4,0,0,0,343.54,2131.27Zm-8.07,2.42a.42.42,0,0,0-.3.42,7.88,7.88,0,0,0,.47,1.91.87.87,0,0,1-1,1.19.91.91,0,0,1-.72-.68.7.7,0,0,1,0-.42c.17-.59.3-1.06.42-1.53a.36.36,0,0,0-.13-.38.41.41,0,0,0-.38-.08l-2.42.68a.41.41,0,0,0-.3.38,7.6,7.6,0,0,0,.72,2.85,1.31,1.31,0,0,1,.13.55,1.39,1.39,0,0,1-2.76.21,1.44,1.44,0,0,1,.13-.85,6.34,6.34,0,0,0,.64-2.21.48.48,0,0,0-.13-.34.35.35,0,0,0-.34-.08l-3.74,1.06,4.16-14.74a2.64,2.64,0,0,0,.42.13,11.46,11.46,0,0,1,10,10,.82.82,0,0,0,.13.42Zm6.63-1.27a.78.78,0,0,1-.85-.59.16.16,0,0,0,0-.13A12.18,12.18,0,0,0,330.54,2121a.16.16,0,0,1-.13,0,.78.78,0,0,1-.55-.85.82.82,0,0,1,1-.68,13.92,13.92,0,0,1,11.85,11.9A.78.78,0,0,1,342.1,2132.41Z" transform="translate(-6.75 -107.75)"/><path d="M337,2128.38a2,2,0,1,0,2,2A2,2,0,0,0,337,2128.38Zm0,3.27a1.23,1.23,0,1,1,1.23-1.23A1.23,1.23,0,0,1,337,2131.65Z" transform="translate(-6.75 -107.75)"/><path d="M328.93,2131.86a1.28,1.28,0,0,0-1.27,1.27,1.27,1.27,0,1,0,2.55,0A1.28,1.28,0,0,0,328.93,2131.86Zm0,1.78a.52.52,0,0,1-.51-.51.49.49,0,0,1,.51-.51.52.52,0,0,1,.51.51A.49.49,0,0,1,328.93,2133.65Z" transform="translate(-6.75 -107.75)"/><path d="M330.67,2125.53a1.49,1.49,0,1,0,1.49,1.49A1.51,1.51,0,0,0,330.67,2125.53Zm0,2.17a.68.68,0,1,1,.68-.68A.67.67,0,0,1,330.67,2127.7Z" transform="translate(-6.75 -107.75)"/><path d="M330.88,2124.77a.38.38,0,0,0,.38-.38.85.85,0,0,1,.85-.85.38.38,0,1,0,0-.76,1.66,1.66,0,0,0-1.66,1.66A.46.46,0,0,0,330.88,2124.77Z" transform="translate(-6.75 -107.75)"/><path d="M334.24,2125.4l.76-.38a.38.38,0,0,0-.34-.68l-.76.38a.37.37,0,0,0-.17.51A.33.33,0,0,0,334.24,2125.4Z" transform="translate(-6.75 -107.75)"/><path d="M330.2,2129.86l-.76.38a.38.38,0,0,0,.34.68l.76-.38a.37.37,0,0,0,.17-.51A.41.41,0,0,0,330.2,2129.86Z" transform="translate(-6.75 -107.75)"/><path d="M332.92,2131.39a.39.39,0,1,0-.59.51l.55.68a.39.39,0,0,0,.59-.51Z" transform="translate(-6.75 -107.75)"/><path d="M335.21,2128.59a.41.41,0,0,0-.21-.51l-.81-.3a.39.39,0,0,0-.3.72l.81.3A.37.37,0,0,0,335.21,2128.59Z" transform="translate(-6.75 -107.75)"/><path d="M332.9,2144.4a7.45,7.45,0,1,0,7.45,7.45A7.46,7.46,0,0,0,332.9,2144.4Zm0,14.07a6.62,6.62,0,1,1,6.62-6.62A6.62,6.62,0,0,1,332.9,2158.47Zm0-12.26a.42.42,0,0,0-.42.42v4.8h-3.69a.42.42,0,1,0,0,.84h4.1a.42.42,0,0,0,.42-.42v-5.22A.42.42,0,0,0,332.9,2146.22Z" transform="translate(-6.75 -107.75)"/><text class="cls-142" x="-6.75" y="-107.75"><tspan x="920.86" y="2027.52">5 sli</tspan><tspan class="cls-86" x="949.5" y="2027.52">c</tspan><tspan x="957.45" y="2027.52">es (1,425 Kcal)</tspan><tspan x="920.86" y="2049.12">8.5 hours</tspan><tspan x="920.86" y="2070.72">8591.54 </tspan><tspan class="cls-94" x="983.8" y="2070.72">k</tspan><tspan x="992.55" y="2070.72">m</tspan></text><path d="M917.07,2128.33a14.65,14.65,0,0,0-12.53-12.53,1.61,1.61,0,0,0-2,1.36,1.74,1.74,0,0,0,.3,1.1l-4.46,15.68a.36.36,0,0,0,.47.47l3.82-1.1a4.41,4.41,0,0,1-.47,1.32,2.07,2.07,0,0,0-.21,1.32,2.12,2.12,0,0,0,1.7,1.78,2.17,2.17,0,0,0,2.63-2.12,2.22,2.22,0,0,0-.17-.89,8.24,8.24,0,0,1-.64-2.25L907,2132c-.08.25-.13.51-.25.81a1.73,1.73,0,0,0,0,.81,1.68,1.68,0,0,0,1.32,1.32,1.66,1.66,0,0,0,1.83-2.29,6.1,6.1,0,0,1-.38-1.4l5.1-1.44a1.64,1.64,0,0,0,1.1.3A1.4,1.4,0,0,0,917.07,2128.33Zm-8.07,2.42a.42.42,0,0,0-.3.42,7.88,7.88,0,0,0,.47,1.91.87.87,0,0,1-1,1.19.91.91,0,0,1-.72-.68.7.7,0,0,1,0-.42c.17-.59.3-1.06.42-1.53a.36.36,0,0,0-.13-.38.41.41,0,0,0-.38-.08l-2.42.68a.41.41,0,0,0-.3.38,7.6,7.6,0,0,0,.72,2.85,1.31,1.31,0,0,1,.13.55,1.39,1.39,0,0,1-2.76.21,1.44,1.44,0,0,1,.13-.85,6.34,6.34,0,0,0,.64-2.21.48.48,0,0,0-.13-.34.35.35,0,0,0-.34-.08l-3.74,1.06,4.16-14.74a2.64,2.64,0,0,0,.42.13,11.46,11.46,0,0,1,10,10,.82.82,0,0,0,.13.42Zm6.63-1.27a.78.78,0,0,1-.85-.59.16.16,0,0,0,0-.13,12.18,12.18,0,0,0-10.66-10.66.16.16,0,0,1-.13,0,.78.78,0,0,1-.55-.85.82.82,0,0,1,1-.68,13.92,13.92,0,0,1,11.85,11.9A.78.78,0,0,1,915.62,2129.48Z" transform="translate(-6.75 -107.75)"/><path d="M910.57,2125.44a2,2,0,1,0,2,2A2,2,0,0,0,910.57,2125.44Zm0,3.27a1.23,1.23,0,1,1,1.23-1.23A1.23,1.23,0,0,1,910.57,2128.71Z" transform="translate(-6.75 -107.75)"/><path d="M902.45,2128.93a1.28,1.28,0,0,0-1.27,1.27,1.27,1.27,0,1,0,2.55,0A1.28,1.28,0,0,0,902.45,2128.93Zm0,1.78a.52.52,0,0,1-.51-.51.49.49,0,0,1,.51-.51.52.52,0,0,1,.51.51A.49.49,0,0,1,902.45,2130.71Z" transform="translate(-6.75 -107.75)"/><path d="M904.2,2122.6a1.49,1.49,0,1,0,1.49,1.49A1.51,1.51,0,0,0,904.2,2122.6Zm0,2.17a.68.68,0,1,1,.68-.68A.67.67,0,0,1,904.2,2124.76Z" transform="translate(-6.75 -107.75)"/><path d="M904.41,2121.83a.38.38,0,0,0,.38-.38.85.85,0,0,1,.85-.85.38.38,0,1,0,0-.76,1.66,1.66,0,0,0-1.66,1.66A.46.46,0,0,0,904.41,2121.83Z" transform="translate(-6.75 -107.75)"/><path d="M907.77,2122.47l.76-.38a.38.38,0,1,0-.34-.68l-.76.38a.37.37,0,0,0-.17.51A.33.33,0,0,0,907.77,2122.47Z" transform="translate(-6.75 -107.75)"/><path d="M903.73,2126.93l-.76.38a.38.38,0,0,0,.34.68l.76-.38a.37.37,0,0,0,.17-.51A.41.41,0,0,0,903.73,2126.93Z" transform="translate(-6.75 -107.75)"/><path d="M906.45,2128.46a.39.39,0,0,0-.59.51l.55.68a.39.39,0,0,0,.59-.51Z" transform="translate(-6.75 -107.75)"/><path d="M908.74,2125.65a.41.41,0,0,0-.21-.51l-.81-.3a.39.39,0,0,0-.3.72l.81.3A.37.37,0,0,0,908.74,2125.65Z" transform="translate(-6.75 -107.75)"/><path d="M906,2142a7.45,7.45,0,1,0,7.45,7.45A7.46,7.46,0,0,0,906,2142Zm0,14.07a6.62,6.62,0,1,1,6.62-6.62A6.62,6.62,0,0,1,906,2156Zm0-12.26a.42.42,0,0,0-.42.42v4.8h-3.69a.42.42,0,1,0,0,.84H906a.42.42,0,0,0,.42-.42v-5.22A.42.42,0,0,0,906,2143.78Z" transform="translate(-6.75 -107.75)"/><path d="M809,2159a4.3,4.3,0,0,0,7.49-1.61l.91-3.58v30.61a5,5,0,0,0,5,5h11.5a4.93,4.93,0,0,1,6.62.07h11.39a5,5,0,0,0,5-5v-11.64H862a1.65,1.65,0,0,0,1.65-2l-2.25-10.13h.75a4.14,4.14,0,0,0,4-5.05l-4.62-20.21A4.9,4.9,0,0,0,857,2127l-8.41,2.73H822.07a9.93,9.93,0,0,0-9.66,7.64l-4.19,18A4.28,4.28,0,0,0,809,2159Zm29.83,25.49h0v-11.63h5.72v13.28h-4.06A1.65,1.65,0,0,1,838.83,2184.5Zm14.73,0a1.65,1.65,0,0,1-1.65,1.65h-4.09v-13.31h5.72Zm9.26-27.41a.83.83,0,0,1-.65.31h-1.49l-2.9-13.5a1.65,1.65,0,1,0-3.25.63v.06l5.36,24.94H838.83v-29.89h10a1.65,1.65,0,0,0,.48-.07l9.2-2.8,4.48,19.61A.83.83,0,0,1,862.82,2157.09Zm-51.41-1,4.26-18a6.62,6.62,0,0,1,6.44-5.1H848.8a1.65,1.65,0,0,0,.51-.08l8.67-2.81a1.6,1.6,0,1,1,1,3l-10.38,3.16H837.18a1.65,1.65,0,0,0-1.65,1.65v46.43a1.65,1.65,0,0,1-1.65,1.65h-4.09v-22.63a1.65,1.65,0,1,0-3.31,0v22.63h-4.05a1.65,1.65,0,0,1-1.65-1.65V2141a1.68,1.68,0,1,0-3.26-.83l-4.14,16.44a1,1,0,0,1-1.93-.47Z" transform="translate(-6.75 -107.75)"/><path d="M837.18,2118.69a9.1,9.1,0,1,0,0,2.29,9.1,9.1,0,1,0,0-2.29Zm-9.06,6.91a5.79,5.79,0,1,1,5.79-5.79A5.79,5.79,0,0,1,828.12,2125.6Zm23.83-5.72a5.79,5.79,0,1,1-5.79-5.79,5.79,5.79,0,0,1,5.79,5.79h0Z" transform="translate(-6.75 -107.75)"/><text class="cls-142" x="-6.75" y="-107.75"><tspan x="1510.51" y="2026.45">1 sli</tspan><tspan class="cls-86" x="1539.15" y="2026.45">c</tspan><tspan x="1547.11" y="2026.45">e (285 Kcal)</tspan><tspan x="1510.51" y="2048.05">22 minu</tspan><tspan class="cls-86" x="1571.93" y="2048.05">t</tspan><tspan x="1577.78" y="2048.05">es</tspan><tspan x="1510.51" y="2069.65">1.77 </tspan><tspan class="cls-94" x="1545.76" y="2069.65">k</tspan><tspan x="1554.51" y="2069.65">m</tspan></text><path d="M1506,2129a14.65,14.65,0,0,0-12.53-12.53,1.61,1.61,0,0,0-2,1.36,1.74,1.74,0,0,0,.3,1.1l-4.46,15.68a.36.36,0,0,0,.47.47l3.82-1.1a4.41,4.41,0,0,1-.47,1.32,2.07,2.07,0,0,0-.21,1.32,2.12,2.12,0,0,0,1.7,1.78,2.17,2.17,0,0,0,2.63-2.12,2.22,2.22,0,0,0-.17-.89,8.24,8.24,0,0,1-.64-2.25l1.49-.42c-.08.25-.13.51-.25.81a1.73,1.73,0,0,0,0,.81,1.68,1.68,0,0,0,1.32,1.32,1.66,1.66,0,0,0,1.83-2.29,6.1,6.1,0,0,1-.38-1.4l5.1-1.44a1.64,1.64,0,0,0,1.1.3A1.4,1.4,0,0,0,1506,2129Zm-8.07,2.42a.42.42,0,0,0-.3.42,7.88,7.88,0,0,0,.47,1.91.87.87,0,0,1-1,1.19.91.91,0,0,1-.72-.68.7.7,0,0,1,0-.42c.17-.59.3-1.06.42-1.53a.36.36,0,0,0-.13-.38.41.41,0,0,0-.38-.08l-2.42.68a.41.41,0,0,0-.3.38,7.6,7.6,0,0,0,.72,2.85,1.31,1.31,0,0,1,.13.55,1.39,1.39,0,0,1-2.76.21,1.44,1.44,0,0,1,.13-.85,6.34,6.34,0,0,0,.64-2.21.48.48,0,0,0-.13-.34.35.35,0,0,0-.34-.08l-3.74,1.06,4.16-14.74a2.64,2.64,0,0,0,.42.13,11.46,11.46,0,0,1,10,10,.82.82,0,0,0,.13.42Zm6.63-1.27a.78.78,0,0,1-.85-.59.16.16,0,0,0,0-.13,12.18,12.18,0,0,0-10.66-10.66.16.16,0,0,1-.13,0,.78.78,0,0,1-.55-.85.82.82,0,0,1,1-.68,13.92,13.92,0,0,1,11.85,11.9A.78.78,0,0,1,1504.54,2130.14Z" transform="translate(-6.75 -107.75)"/><path d="M1499.49,2126.1a2,2,0,1,0,2,2A2,2,0,0,0,1499.49,2126.1Zm0,3.27a1.23,1.23,0,1,1,1.23-1.23A1.23,1.23,0,0,1,1499.49,2129.38Z" transform="translate(-6.75 -107.75)"/><path d="M1491.38,2129.59a1.28,1.28,0,0,0-1.27,1.27,1.27,1.27,0,1,0,2.55,0A1.28,1.28,0,0,0,1491.38,2129.59Zm0,1.78a.52.52,0,0,1-.51-.51.49.49,0,0,1,.51-.51.52.52,0,0,1,.51.51A.49.49,0,0,1,1491.38,2131.37Z" transform="translate(-6.75 -107.75)"/><path d="M1493.12,2123.26a1.49,1.49,0,1,0,1.49,1.49A1.51,1.51,0,0,0,1493.12,2123.26Zm0,2.17a.68.68,0,1,1,.68-.68A.67.67,0,0,1,1493.12,2125.43Z" transform="translate(-6.75 -107.75)"/><path d="M1493.33,2122.49a.38.38,0,0,0,.38-.38.85.85,0,0,1,.85-.85.38.38,0,0,0,0-.76,1.66,1.66,0,0,0-1.66,1.66A.46.46,0,0,0,1493.33,2122.49Z" transform="translate(-6.75 -107.75)"/><path d="M1496.69,2123.13l.76-.38a.38.38,0,1,0-.34-.68l-.76.38a.37.37,0,0,0-.17.51A.33.33,0,0,0,1496.69,2123.13Z" transform="translate(-6.75 -107.75)"/><path d="M1492.65,2127.59l-.76.38a.38.38,0,0,0,.34.68l.76-.38a.37.37,0,0,0,.17-.51A.41.41,0,0,0,1492.65,2127.59Z" transform="translate(-6.75 -107.75)"/><path d="M1495.37,2129.12a.39.39,0,1,0-.59.51l.55.68a.39.39,0,0,0,.59-.51Z" transform="translate(-6.75 -107.75)"/><path d="M1497.66,2126.32a.41.41,0,0,0-.21-.51l-.81-.3a.39.39,0,1,0-.3.72l.81.3A.37.37,0,0,0,1497.66,2126.32Z" transform="translate(-6.75 -107.75)"/><path d="M1495.35,2143.62a7.45,7.45,0,1,0,7.45,7.45A7.46,7.46,0,0,0,1495.35,2143.62Zm0,14.07a6.62,6.62,0,1,1,6.62-6.62A6.62,6.62,0,0,1,1495.35,2157.69Zm0-12.26a.42.42,0,0,0-.42.42v4.8h-3.69a.42.42,0,1,0,0,.84h4.1a.42.42,0,0,0,.42-.42v-5.22A.42.42,0,0,0,1495.35,2145.43Z" transform="translate(-6.75 -107.75)"/><path d="M1445.72,2121.32a1.94,1.94,0,0,0-1.89-1.89h-31.26a1.94,1.94,0,0,0-1.89,1.89v12.23a1.94,1.94,0,0,0,1.89,1.89H1444a1.94,1.94,0,0,0,1.89-1.89v-12.23Zm-19.41,10.34h-11.85v-8.45h11.85Zm15.63,0h-11.85v-8.45h11.85Zm3.78,10.08a1.94,1.94,0,0,0-1.89-1.89h-31.26a1.94,1.94,0,0,0-1.89,1.89V2154a1.94,1.94,0,0,0,1.89,1.89H1444a1.94,1.94,0,0,0,1.89-1.89v-12.23Zm-19.41,10.46h-11.85v-8.45h11.85Zm15.63,0h-11.85v-8.45h11.85Zm1.89,8.19h-31.26a1.94,1.94,0,0,0-1.89,1.89v12.23a1.94,1.94,0,0,0,1.89,1.89H1444a1.94,1.94,0,0,0,1.89-1.89v-12.23A2,2,0,0,0,1443.83,2160.4Zm-17.52,12.23h-11.85v-8.45h11.85Zm15.63,0h-11.85v-8.45h11.85Zm-36.81,6.81h-3.78V2112a1.94,1.94,0,0,1,1.89-1.89h50a1.94,1.94,0,0,1,1.89,1.89v67.44h-3.78v-65.55h-46.26Zm57.36,4.41a1.94,1.94,0,0,1-1.89,1.89H1395.8a1.89,1.89,0,0,1,0-3.78h64.79A1.94,1.94,0,0,1,1462.48,2183.85Z" transform="translate(-6.75 -107.75)"/><text class="cls-144" transform="translate(75.83 136.52)">No<tspan class="cls-145" x="205.15" y="0">r</tspan><tspan x="266.82" y="0">th</tspan><tspan class="cls-146" x="402.32" y="0"> </tspan><tspan class="cls-147" x="435.01" y="0">b</tspan><tspan x="522.98" y="0">y</tspan><tspan class="cls-148" x="605.45" y="0"> </tspan><tspan x="634.39" y="0">No</tspan><tspan class="cls-145" x="839.55" y="0">r</tspan><tspan x="901.22" y="0">theast</tspan></text><text class="cls-149" transform="translate(78.25 216.41)"><tspan class="cls-52">A</tspan><tspan class="cls-150" x="34.06" y="0"> </tspan><tspan class="cls-52" x="45.73" y="0">Th</tspan><tspan class="cls-151" x="106.08" y="0">r</tspan><tspan class="cls-52" x="125.66" y="0">ee</tspan><tspan class="cls-150" x="183.52" y="0" xml:space="preserve"> T</tspan><tspan class="cls-52" x="224.51" y="0">rip </tspan><tspan class="cls-151" x="300.9" y="0">J</tspan><tspan class="cls-52" x="324.29" y="0">ourn</tspan><tspan class="cls-152" x="432.4" y="0">e</tspan><tspan class="cls-52" x="460.99" y="0">y </tspan><tspan class="cls-153" x="503.13" y="0">b</tspan><tspan class="cls-52" x="532.45" y="0">y Dan Spector</tspan><tspan class="cls-154" x="866.16" y="0"> </tspan></text><path class="cls-11" d="M236.27,755.57c0-124.52,232.11-225.27,519-225.27" transform="translate(-6.75 -107.75)"/><path class="cls-11" d="M1428.2,755.51c0-124.52-232.11-225.27-519-225.27" transform="translate(-6.75 -107.75)"/><line class="cls-11" x1="827.25" y1="646.63" x2="827.25" y2="448.02"/><text class="cls-98" transform="translate(1271.2 584.55)"><tspan class="cls-135">P</tspan><tspan class="cls-155" x="8.17" y="0">r</tspan><tspan class="cls-156" x="13.2" y="0">o</tspan><tspan class="cls-157" x="21.89" y="0">t</tspan><tspan x="27.04" y="0">ein shake</tspan></text><polygon class="cls-52" points="1382.65 573.02 1382.65 573.07 1381.35 574.15 1381.35 578.91 1382.65 579.99 1382.65 585.93 1383.95 585.93 1383.95 573.02 1382.65 573.02"/><polygon class="cls-52" points="1366.95 577.21 1366.19 577.21 1366.19 573.02 1364.89 573.02 1364.89 577.21 1364.12 577.21 1364.12 573.02 1362.82 574.1 1362.82 578.01 1362.82 578.01 1362.82 578.51 1364.93 578.51 1364.93 585.93 1366.24 585.93 1366.24 578.51 1368.26 578.51 1368.26 577.86 1368.26 577.21 1368.26 574.1 1366.95 573.02 1366.95 577.21"/><path class="cls-52" d="M1385.87,681.81h-8.77V683h-1.24v8.77h1.24V693h8.77v-1.24h1.24V683h-1.24v-1.24Zm0,9h-1v1h-6.84v-1h-1V684h1v-1h6.84v1h1v6.84Z" transform="translate(-6.75 -107.75)"/><rect class="cls-52" x="1372.46" y="577.41" width="4.54" height="4.54"/><path d="M341.55,2176.22h-20.9v-8.63h20.9Zm-19.86-1h18.82v-6.56H321.69Z" transform="translate(-6.75 -107.75)"/><rect x="316.69" y="2060.36" width="1.04" height="4.82"/><rect x="319.52" y="2060.36" width="1.04" height="3.11"/><rect x="322.36" y="2060.36" width="1.04" height="4.82"/><rect x="325.19" y="2060.36" width="1.04" height="3.11"/><rect x="328.02" y="2060.36" width="1.04" height="4.82"/><rect x="330.85" y="2060.36" width="1.04" height="3.11"/><path d="M915.45,2177.22h-20.9v-8.63h20.9Zm-19.86-1h18.82v-6.56H895.59Z" transform="translate(-6.75 -107.75)"/><rect x="890.59" y="2061.36" width="1.04" height="4.82"/><rect x="893.42" y="2061.36" width="1.04" height="3.11"/><rect x="896.25" y="2061.36" width="1.04" height="4.82"/><rect x="899.08" y="2061.36" width="1.04" height="3.11"/><rect x="901.92" y="2061.36" width="1.04" height="4.82"/><rect x="904.75" y="2061.36" width="1.04" height="3.11"/><path d="M1505.05,2175.25h-20.89v-8.63h20.89Zm-19.86-1H1504v-6.55h-18.82Z" transform="translate(-6.75 -107.75)"/><rect x="1480.19" y="2059.39" width="1.04" height="4.82"/><rect x="1483.02" y="2059.39" width="1.04" height="3.11"/><rect x="1485.85" y="2059.39" width="1.04" height="4.82"/><rect x="1488.68" y="2059.39" width="1.04" height="3.11"/><rect x="1491.52" y="2059.39" width="1.04" height="4.82"/><rect x="1494.35" y="2059.39" width="1.04" height="3.11"/><path class="cls-158" d="M1515.22,850.93" transform="translate(-6.75 -107.75)"/><path class="cls-158" d="M1507.3,847.37a.46.46,0,0,0,.43-.69l-5.9-13.49a.47.47,0,0,1,.43-.7l10.33-.58a1,1,0,0,1,1,.64l4.53,12.53a1.1,1.1,0,0,0,1,.68h12.18a.57.57,0,0,1,.59.71l-2.37,12.47a.91.91,0,0,1-.85.71l-24.6.12a1.14,1.14,0,0,1-1-.67l-4.23-10.69a.48.48,0,0,1,.45-.7Z" transform="translate(-6.75 -107.75)"/><line class="cls-158" x1="1511.58" y1="738.01" x2="1500.62" y2="738.2"/><line class="cls-158" x1="1523.45" y1="745.29" x2="1493.68" y2="745.86"/><line class="cls-158" x1="1515.23" y1="738.11" x2="1513.72" y2="751.84"/><line class="cls-158" x1="1520.14" y1="737.92" x2="1518.58" y2="751.86"/><line class="cls-158" x1="1504.09" y1="737.92" x2="1506.51" y2="751.63"/><line class="cls-158" x1="1496.84" y1="739.53" x2="1500.71" y2="752.11"/><path class="cls-159" d="M1503.87,1340.31c-.4,0-.46-.19-.14-.42l10.67-7.73a1.08,1.08,0,0,1,1.17,0l10.86,7.64c.32.23.26.42-.13.42Z" transform="translate(-6.75 -107.75)"/><line class="cls-159" x1="1501.28" y1="1237.99" x2="1501.38" y2="1246.59"/><path class="cls-159" d="M1515.11,1346.31" transform="translate(-6.75 -107.75)"/><line class="cls-159" x1="1508.37" y1="1237.96" x2="1508.47" y2="1246.55"/><line class="cls-159" x1="1515.44" y1="1238.15" x2="1515.54" y2="1246.74"/><line class="cls-159" x1="1494.36" y1="1248.5" x2="1522.58" y2="1248.5"/><path class="cls-160" d="M244.14,852" transform="translate(-6.75 -107.75)"/><path class="cls-160" d="M228,852.05" transform="translate(-6.75 -107.75)"/><path class="cls-75" d="M1018.37,1791.14h-22a.63.63,0,0,1-.2,0,3,3,0,0,1-2-1.91c-.73-2.2,1.24-5.13,1.33-5.25,4-5.09,8.5-6.15,11.63-6.15,6.11,0,11.42,3.93,12.84,7.57.81,2.08.88,3.65.21,4.69a2.41,2.41,0,0,1-1.79,1.08Zm-21.84-1.25h21.81a1.16,1.16,0,0,0,.82-.53c.42-.67.3-1.93-.34-3.55-1.28-3.27-6.28-6.78-11.68-6.78-2.85,0-7,1-10.62,5.64-.45.67-1.6,2.79-1.15,4.13A1.76,1.76,0,0,0,996.53,1789.89Z" transform="translate(-6.75 -107.75)"/><path class="cls-75" d="M1017.45,1807.74H997.23c-1.69,0-3.06-1.92-3.06-4.28V1803a.62.62,0,0,1,.62-.62h25.09a.62.62,0,0,1,.62.62v.41C1020.51,1805.82,1019.13,1807.74,1017.45,1807.74Zm-22-4.06c.07,1.52.89,2.81,1.81,2.81h20.22c.92,0,1.74-1.29,1.81-2.81Z" transform="translate(-6.75 -107.75)"/><path class="cls-75" d="M1007.6,1796.86a5.84,5.84,0,0,1-3.45-1.25,4.89,4.89,0,0,0-2.79-1.16h-.07a1.7,1.7,0,0,0-1,.17,3.4,3.4,0,0,0-.4.35,4.59,4.59,0,0,1-.51.45c-1.62,1.17-4.12,1.93-6.86-1.12a.62.62,0,0,1,.93-.83c1.72,1.92,3.42,2.23,5.19.94a3.66,3.66,0,0,0,.37-.33,4.27,4.27,0,0,1,.56-.49,2.81,2.81,0,0,1,1.75-.39h.06a6.2,6.2,0,0,1,3.5,1.4,4.55,4.55,0,0,0,2.88,1,5.23,5.23,0,0,0,2.27-1.06,12.6,12.6,0,0,1,1.33-.8,2.81,2.81,0,0,1,3,.18l.67.51a7.94,7.94,0,0,0,1.43,1,2.47,2.47,0,0,0,2.63-.64c.17-.15.32-.3.47-.45a2.91,2.91,0,0,1,2.06-1.11.62.62,0,0,1,.64.6.62.62,0,0,1-.6.64c-.47,0-.72.25-1.22.75-.16.16-.33.33-.52.5a3.66,3.66,0,0,1-4,.84,8.8,8.8,0,0,1-1.67-1.12l-.63-.48a1.57,1.57,0,0,0-1.76-.07,11.61,11.61,0,0,0-1.19.72,6,6,0,0,1-2.9,1.26Z" transform="translate(-6.75 -107.75)"/><path class="cls-75" d="M1021.22,1800H993.45a.62.62,0,1,1,0-1.25h27.76a.62.62,0,1,1,0,1.25Z" transform="translate(-6.75 -107.75)"/><path class="cls-75" d="M1023.25,1638.84v-4.29a2.94,2.94,0,0,0-2.91-2.91H998.51a2.94,2.94,0,0,0-2.91,2.91v4.29a2.39,2.39,0,0,0-2.07,2.33v10.12a.81.81,0,0,0,.79.79h1.54v2a3.92,3.92,0,1,0,7.84,0v-2h11.44v2a3.92,3.92,0,1,0,7.84,0v-2h1.54a.81.81,0,0,0,.79-.79v-10.12A2.39,2.39,0,0,0,1023.25,1638.84Zm-24.73-5.61h21.87a1.31,1.31,0,0,1,1.32,1.32v4.24H997.19v-4.24A1.31,1.31,0,0,1,998.51,1633.23Zm1.27,23.2a2.35,2.35,0,0,1-2.33-2.33v-2h4.66v2A2.35,2.35,0,0,1,999.79,1656.42Zm19.28,0a2.35,2.35,0,0,1-2.33-2.33v-2h4.66v2A2.35,2.35,0,0,1,1019.06,1656.42Zm4.66-5.93h-28.6v-9.32a.81.81,0,0,1,.79-.79H1023a.81.81,0,0,1,.79.79v9.32Zm-23.46-9a3.87,3.87,0,1,0,3.87,3.87A3.89,3.89,0,0,0,1000.26,1641.54Zm0,6.09a2.28,2.28,0,1,1,0-4.55,2.28,2.28,0,0,1,0,4.55Zm18.32-6.09a3.87,3.87,0,1,0,3.87,3.87A3.89,3.89,0,0,0,1018.59,1641.54Zm0,6.09a2.28,2.28,0,0,1,0-4.55,2.26,2.26,0,0,1,2.28,2.28A2.33,2.33,0,0,1,1018.59,1647.63Z" transform="translate(-6.75 -107.75)"/><line class="cls-74" x1="1015.48" y1="1391.96" x2="1016.92" y2="1531.63"/><path class="cls-161" d="M1533.11,1826.31v-5.86a.31.31,0,0,0-.16-.29h0l-.23-.12-17.26-8.87-.65-.34a.32.32,0,0,0-.29,0l-.65.34L1496.6,1820l-.25.13a.32.32,0,0,0,0,.56l.25.13,4.4,2.26a.32.32,0,0,1,.18.28v8.88a.31.31,0,0,0,.13.26,25,25,0,0,0,13.41,4.26h0a23.89,23.89,0,0,0,13.42-4.26.32.32,0,0,0,.13-.25v-8.95a.3.3,0,0,1,.15-.28l4-2.09v5.35a1.22,1.22,0,0,0-.9,1.17v5.89H1534v-5.89A1.21,1.21,0,0,0,1533.11,1826.31Zm-5.48,5.65a.34.34,0,0,1-.13.26,23.33,23.33,0,0,1-12.72,3.94h0a25,25,0,0,1-12.81-4,.32.32,0,0,1-.14-.28V1824a.31.31,0,0,1,.45-.28l11.59,6,.65.34a.31.31,0,0,0,.29,0l.65-.34,11.7-6a.32.32,0,0,1,.47.28Zm3.74-11.24-3.11,1.6-.65.33-12.81,6.58a.32.32,0,0,1-.29,0l-12.7-6.53-.65-.33-3.22-1.65a.32.32,0,0,1,0-.56l16.57-8.51a.32.32,0,0,1,.29,0l16.57,8.52A.32.32,0,0,1,1531.37,1820.72Zm2,12h-1.12v-5.24a.56.56,0,0,1,.56-.56h0a.56.56,0,0,1,.56.56h0Z" transform="translate(-6.75 -107.75)"/><line x1="323.23" y1="1444.7" x2="355.45" y2="1444.7"/><line x1="322.87" y1="1550.87" x2="355.45" y2="1550.87"/><line x1="323.23" y1="1444.7" x2="355.45" y2="1444.7"/><line class="cls-162" x1="323.23" y1="1444.7" x2="326.23" y2="1444.7"/><line class="cls-163" x1="328.25" y1="1444.7" x2="351.44" y2="1444.7"/><line class="cls-162" x1="352.45" y1="1444.7" x2="355.45" y2="1444.7"/><line x1="323.23" y1="1550.87" x2="355.45" y2="1550.87"/><line class="cls-162" x1="323.23" y1="1550.87" x2="326.23" y2="1550.87"/><line class="cls-163" x1="328.25" y1="1550.87" x2="351.44" y2="1550.87"/><line class="cls-162" x1="352.45" y1="1550.87" x2="355.45" y2="1550.87"/><line x1="323.23" y1="1788.9" x2="355.45" y2="1788.9"/><line class="cls-162" x1="323.23" y1="1788.9" x2="326.23" y2="1788.9"/><line class="cls-163" x1="328.25" y1="1788.9" x2="351.44" y2="1788.9"/><line class="cls-162" x1="352.45" y1="1788.9" x2="355.45" y2="1788.9"/><path d="M363.37,1854.4" transform="translate(-6.75 -107.75)"/><path class="cls-74" d="M331.15,1854.4" transform="translate(-6.75 -107.75)"/><text class="cls-164" transform="translate(341.75 1451.53) rotate(90)">D<tspan class="cls-65" x="10.93" y="0">a</tspan><tspan x="18.9" y="0">y 2</tspan><tspan class="cls-165"><tspan x="0" y="19.2">	</tspan></tspan></text><text class="cls-164" transform="translate(340.5 1559.25) rotate(90)">D<tspan class="cls-65" x="10.93" y="0">a</tspan><tspan x="18.9" y="0">y 3</tspan><tspan class="cls-165"><tspan x="0" y="19.2">	</tspan></tspan></text><text class="cls-164" transform="translate(341.75 1801.68) rotate(90)">D<tspan class="cls-65" x="10.93" y="0">a</tspan><tspan class="cls-166" x="18.9" y="0">y</tspan><tspan x="26.7" y="0">s 4 - 8</tspan><tspan class="cls-165"><tspan x="0" y="19.2">	</tspan></tspan></text><text class="cls-76" transform="translate(449.69 1804.41)">50<tspan class="cls-167" x="18.47" y="0"> </tspan><tspan class="cls-168" x="21.46" y="0">Y</tspan><tspan x="29.83" y="0">ears of</tspan><tspan class="cls-169" x="79.49" y="0"> </tspan><tspan class="cls-170" x="82.65" y="0">V</tspan><tspan x="92.41" y="0">i</tspan><tspan class="cls-171" x="96.62" y="0">c</tspan><tspan class="cls-91" x="104.92" y="0">t</tspan><tspan class="cls-82" x="110.77" y="0">o</tspan><tspan class="cls-172" x="120.65" y="0">r</tspan><tspan x="126.99" y="0">y</tspan><tspan x="0" y="21.6">Ship</tspan></text><path class="cls-75" d="M442,1918.71a1,1,0,0,0-1.35,0,3,3,0,0,1-4.26-.2,12.09,12.09,0,0,0,5.77-4.9c.16-.3.12-1.42-.83-1.42H424.45v-6.6a1,1,0,0,0-1-1H417a1,1,0,0,0-1,1v6.6h-7.14c-1,0-1,1-.87,1.34l1.81,4.12a4.8,4.8,0,0,0-1.62,1.06,1,1,0,0,0,1.35,1.34,2.87,2.87,0,0,1,4,0,4.78,4.78,0,0,0,6.74,0,2.87,2.87,0,0,1,4,0,4.78,4.78,0,0,0,6.74,0,2.87,2.87,0,0,1,4,0,4.77,4.77,0,0,0,6.74,0A.94.94,0,0,0,442,1918.71Zm-24-12.16h4.59v5.65H418Zm11.86,12.16a2.87,2.87,0,0,1-4,0,4.78,4.78,0,0,0-6.74,0,2.87,2.87,0,0,1-4,0,4.73,4.73,0,0,0-3.19-1.38l-1.42-3.23h29a9.27,9.27,0,0,1-6.48,3.22h0A4.75,4.75,0,0,0,429.82,1918.71Z" transform="translate(-6.75 -107.75)"/><path class="cls-75" d="M420.25,1903.37a3.54,3.54,0,1,0-3.54-3.54A3.55,3.55,0,0,0,420.25,1903.37Zm0-5.18a1.64,1.64,0,1,1-1.64,1.64A1.64,1.64,0,0,1,420.25,1898.19Z" transform="translate(-6.75 -107.75)"/></svg>