<?xml version="1.0" encoding="utf-8"?>
<!-- Generator: Adobe Illustrator 21.1.0, SVG Export Plug-In . SVG Version: 6.00 Build 0)  -->
<svg version="1.1" id="Layer_1" xmlns="http://www.w3.org/2000/svg" xmlns:xlink="http://www.w3.org/1999/xlink" x="0px" y="0px"
	 viewBox="0 0 792 612" style="enable-background:new 0 0 792 612;" xml:space="preserve">
<style type="text/css">
	@import url('https://fonts.googleapis.com/css?family=Lato');
	.st0{fill:none;}
	.st1{fill:#010202;}
	.st2{font-family:'Lato', sans-serif;}
	.st3{font-size:15px;}
	.st4{fill:#EF7B7C;}
	.st5{fill:#9F9F9F;stroke:#FFFFFF;stroke-width:2;stroke-miterlimit:10;}
	.st6{fill:#7FCBDC;stroke:#FFFFFF;stroke-width:2;stroke-miterlimit:10;}
	.st7{fill:#5AA5AD;stroke:#FFFFFF;stroke-width:2;stroke-miterlimit:10;}
	.st8{fill:#3D7176;stroke:#FFFFFF;stroke-width:2;stroke-miterlimit:10;}
	.st9{fill:#213C3F;stroke:#FFFFFF;stroke-width:2;stroke-miterlimit:10;}
	.st10{fill:#878787;stroke:#FFFFFF;stroke-width:2;stroke-miterlimit:10;}
	.st11{fill:#E87E86;stroke:#FFFFFF;stroke-width:2;stroke-miterlimit:10;}
	.st12{fill:#BD676D;stroke:#FFFFFF;stroke-width:2;stroke-miterlimit:10;}
	.st13{fill:#935054;stroke:#FFFFFF;stroke-width:2;stroke-miterlimit:10;}
	.st14{fill:#683A3C;stroke:#FFFFFF;stroke-miterlimit:10;}
	.st15{fill:#FFFFFF;}
	.st16{font-size:13px;}
	.st17{font-size:18.2px;}
</style>
<rect x="164.4" y="520.2" class="st0" width="463.2" height="57.7"/>
<text transform="matrix(1 0 0 1 164.4077 531.2109)"><tspan x="0" y="0" class="st1 st2 st3">Colombia’s</tspan><tspan x="72.6" y="0" class="st4 st2 st3"> </tspan><tspan x="75.5" y="0" class="st1 st2 st3">exports are primarily commodity-based. Petroleum and </tspan><tspan x="0" y="18" class="st1 st2 st3">mining are the country’s two biggest industries. Colombia also has a </tspan><tspan x="0" y="36" class="st1 st2 st3">fast growing technology sector and a large shipbuilding operation. </tspan></text>
<g>
	<g>
		<g>
			<g>
				<path class="st5" d="M186.4,275.5V434C98.9,434,27.9,363,27.9,275.5s70.9-158.4,158.4-158.4l0,0V275.5z"/>
			</g>
		</g>
		<g>
			<g>
				<path class="st6" d="M186.4,275.5l76.8,138.5c-23.9,13.2-49.5,19.9-76.8,19.9V275.5z"/>
			</g>
		</g>
		<g>
			<g>
				<path class="st7" d="M186.4,275.5l137.2,79.2c-15.4,26.6-33.5,44.5-60.4,59.3L186.4,275.5z"/>
			</g>
		</g>
		<g>
			<g>
				<path class="st8" d="M186.4,275.5l147.9-56.8c17.6,45.9,13.9,93.4-10.7,136L186.4,275.5z"/>
			</g>
		</g>
		<g>
			<g>
				<path class="st9" d="M186.4,275.5V117.1c67.6,0,123.6,38.5,147.9,101.6L186.4,275.5z"/>
			</g>
		</g>
	</g>
	<g>
		<g>
		</g>
		<g>
		</g>
		<g>
		</g>
		<g>
		</g>
		<g>
		</g>
	</g>
</g>
<g>
	<g>
		<g>
			<g>
				<path class="st10" d="M605.9,276.6l-158.4,2.8c-1.5-87.5,68.1-159.6,155.6-161.1c0.3,0,2.4,0,2.8,0V276.6z"/>
			</g>
		</g>
		<g>
			<g>
				<path class="st11" d="M605.9,276.6l-151.5,46.3c-4.7-15.4-6.6-27.5-6.9-43.5L605.9,276.6z"/>
			</g>
		</g>
		<g>
			<g>
				<path class="st12" d="M605.9,276.6L484.5,378.4c-14.2-16.9-23.7-34.4-30.1-55.5L605.9,276.6z"/>
			</g>
		</g>
		<g>
			<g>
				<path class="st13" d="M605.9,276.6l22,156.9c-55.4,7.8-107.4-12.2-143.4-55L605.9,276.6z"/>
			</g>
		</g>
		<g>
			<g>
				<path class="st14" d="M605.9,276.6V118.2c87.5,0,158.4,70.9,158.4,158.4c0,80.5-56.7,145.7-136.4,156.9L605.9,276.6z"/>
			</g>
		</g>
	</g>
	<g>
		<g>
		</g>
		<g>
		</g>
		<g>
		</g>
		<g>
		</g>
		<g>
		</g>
	</g>
</g>
<g>
	<rect x="652.9" y="261.4" class="st0" width="57.5" height="51"/>
	<text transform="matrix(1 0 0 1 652.8662 270.957)"><tspan x="0" y="0" class="st15 st2 st16">Minerals</tspan><tspan x="0" y="15.6" class="st15 st2 st16">48.0%</tspan></text>
</g>
<rect x="470.6" y="325.3" class="st0" width="72" height="48.4"/>
<text transform="matrix(1 0 0 1 470.5811 334.8838)"><tspan x="0" y="0" class="st2 st16">Chemicals</tspan><tspan x="0" y="15.6" class="st2 st16">6.3%</tspan></text>
<rect x="505.3" y="212.7" class="st0" width="39.7" height="36.3"/>
<text transform="matrix(1 0 0 1 505.3008 222.249)"><tspan x="0" y="0" class="st2 st16">Other</tspan><tspan x="0" y="15.6" class="st2 st16">25.1%</tspan></text>
<rect x="259" y="273.1" class="st0" width="72.9" height="38.1"/>
<text transform="matrix(1 0 0 1 258.9614 282.7017)"><tspan x="0" y="0" class="st15 st2 st16">Chemicals</tspan><tspan x="0" y="15.6" class="st15 st2 st16">16.0%</tspan></text>
<rect x="295.4" y="397.4" class="st0" width="101.2" height="40.4"/>
<text transform="matrix(1 0 0 1 295.3984 406.9893)"><tspan x="0" y="0" class="st2 st16">Transportation</tspan><tspan x="0" y="15.6" class="st2 st16">10.0%</tspan></text>
<g>
	<rect x="536.1" y="364" class="st0" width="70.7" height="46.7"/>
	<text transform="matrix(1 0 0 1 536.0908 373.5713)"><tspan x="0" y="0" class="st15 st2 st16">Vegetable</tspan><tspan x="0" y="15.6" class="st15 st2 st16">Products</tspan><tspan x="0" y="31.2" class="st15 st2 st16">16.0%</tspan></text>
</g>
<rect x="191.5" y="386.1" class="st0" width="62.5" height="51.7"/>
<text transform="matrix(1 0 0 1 191.4971 395.6602)"><tspan x="0" y="0" class="st2 st16">Minerals</tspan><tspan x="0" y="15.6" class="st2 st16">8.9%</tspan></text>
<rect x="91.2" y="267.8" class="st0" width="66.2" height="56.1"/>
<text transform="matrix(1 0 0 1 91.1826 277.4165)"><tspan x="0" y="0" class="st2 st16">Other</tspan><tspan x="0" y="15.6" class="st2 st16">56.9%</tspan></text>
<rect x="207.7" y="190.5" class="st0" width="66.2" height="33.5"/>
<text transform="matrix(1 0 0 1 207.7236 200.0479)"><tspan x="0" y="0" class="st15 st2 st16">Machines</tspan><tspan x="0" y="15.6" class="st15 st2 st16">22.0%</tspan></text>
<text transform="matrix(1 0 0 1 396.5659 293.5693)"><tspan x="0" y="0" class="st2 st16">Precious  </tspan><tspan x="0" y="15.6" class="st2 st16">Metals</tspan><tspan x="0" y="31.2" class="st2 st16">4.6%</tspan></text>
<rect x="116.4" y="25.5" class="st0" width="142.5" height="16.3"/>
<text transform="matrix(1 0 0 1 116.4331 38.9331)" class="st2 st17">Principal Imports</text>
<rect x="545" y="25.5" class="st0" width="139.4" height="16.3"/>
<text transform="matrix(1 0 0 1 544.9697 38.9331)" class="st2 st17">Principal Exports</text>
</svg>
