<?xml version="1.0" encoding="utf-8"?>
<!-- Generator: Adobe Illustrator 21.1.0, SVG Export Plug-In . SVG Version: 6.00 Build 0)  -->
<svg version="1.1" id="Layer_1" xmlns="http://www.w3.org/2000/svg" xmlns:xlink="http://www.w3.org/1999/xlink" x="0px" y="0px"
	 viewBox="0 0 792 612" style="enable-background:new 0 0 792 612;" xml:space="preserve">
<style type="text/css">
	@import url('https://fonts.googleapis.com/css?family=Lato');
	.st0{fill:none;}
	.st1{font-family:'Lato', sans-serif;}
	.st2{font-size:13px;}
	.st3{font-size:10.4px;}
	.st4{font-size:18.2px;}
	.st5{fill:#9F9F9F;stroke:#FFFFFF;stroke-width:2;stroke-miterlimit:10;}
	.st6{fill:#90D3EE;stroke:#FFFFFF;stroke-width:2;stroke-miterlimit:10;}
	.st7{fill:#EF7B7C;stroke:#FFFFFF;stroke-width:2;stroke-miterlimit:10;}
	.st8{fill:#FFFFFF;}
</style>
<g>
	<rect x="289" y="177.6" class="st0" width="101.2" height="37.5"/>
	<text transform="matrix(1 0 0 1 288.9556 187.1709)"><tspan x="0" y="0" class="st1 st2">United States</tspan><tspan x="0" y="12.5" class="st1 st3">28.5%</tspan></text>
	<rect x="690.7" y="160.2" class="st0" width="101.2" height="37.5"/>
	<text transform="matrix(1 0 0 1 690.7235 169.7868)"><tspan x="0" y="0" class="st1 st2">United States</tspan><tspan x="0" y="12.5" class="st1 st3">26.3%</tspan></text>
	<rect x="751.2" y="415.7" class="st0" width="101.2" height="37.5"/>
	<text transform="matrix(1 0 0 1 751.2076 425.2429)"><tspan x="0" y="0" class="st1 st2">China</tspan><tspan x="0" y="12.5" class="st1 st3">10.5%</tspan></text>
	<rect x="709.6" y="467.4" class="st0" width="101.2" height="37.5"/>
	<text transform="matrix(1 0 0 1 709.6191 476.958)"><tspan x="0" y="0" class="st1 st2">Panama</tspan><tspan x="0" y="12.5" class="st1 st3">6.6%</tspan></text>
	<rect x="626.7" y="498" class="st0" width="101.2" height="37.5"/>
	<text transform="matrix(1 0 0 1 626.7031 507.54)"><tspan x="0" y="0" class="st1 st2">Spain</tspan><tspan x="0" y="12.5" class="st1 st3">5.8%</tspan></text>
	<rect x="284.5" y="468.7" class="st0" width="45" height="34.8"/>
	<text transform="matrix(1 0 0 1 284.5259 478.2852)"><tspan x="0" y="0" class="st1 st2">China</tspan><tspan x="0" y="12.5" class="st1 st3">18.4%</tspan></text>
	<rect x="155.8" y="500.4" class="st0" width="45" height="34.8"/>
	<text transform="matrix(1 0 0 1 155.8364 509.9385)"><tspan x="0" y="0" class="st1 st2">Mexico</tspan><tspan x="0" y="12.5" class="st1 st3">8.2%</tspan></text>
	<rect x="78.9" y="487.8" class="st0" width="55.7" height="34.8"/>
	<text transform="matrix(1 0 0 1 78.937 497.3525)"><tspan x="0" y="0" class="st1 st2">Germany</tspan><tspan x="0" y="12.5" class="st1 st3">4.0%</tspan></text>
	<rect x="30" y="172.9" class="st0" width="84" height="34.8"/>
	<text transform="matrix(1 0 0 1 29.992 182.5059)"><tspan x="0" y="0" class="st1 st2">Rest of World</tspan><tspan x="0" y="12.5" class="st1 st3">40.9%</tspan></text>
	<rect x="416.7" y="459.1" class="st0" width="84" height="34.8"/>
	<text transform="matrix(1 0 0 1 416.707 468.7002)"><tspan x="0" y="0" class="st1 st2">Rest of World</tspan><tspan x="0" y="12.5" class="st1 st3">50.8%</tspan></text>
	<rect x="123.6" y="87.7" class="st0" width="119.1" height="26.2"/>
	<text transform="matrix(1 0 0 1 123.5991 101.1289)" class="st1 st4">Import Origins</text>
	<rect x="527.9" y="87.7" class="st0" width="159.6" height="26.2"/>
	<text transform="matrix(1 0 0 1 527.8994 101.1289)" class="st1 st4">Export Destinations</text>
	<g>
		<g>
			<g>
				<g>
					<path class="st5" d="M608.5,332.5l8.5,162.2c-89.6,4.7-166-64.1-170.7-153.7S510.4,175,600,170.3c2.9-0.2,5.6-0.2,8.5-0.2
						V332.5z"/>
				</g>
			</g>
			<g>
				<g>
					<path class="st6" d="M608.5,332.5l66.1,148.4c-19,8.5-36.8,12.7-57.6,13.8L608.5,332.5z"/>
				</g>
			</g>
			<g>
				<g>
					<path class="st6" d="M608.5,332.5l120.7,108.7c-15.8,17.6-33,30.1-54.6,39.7L608.5,332.5z"/>
				</g>
			</g>
			<g>
				<g>
					<path class="st6" d="M608.5,332.5l162,11.3c-2.6,37.6-16.1,69.4-41.3,97.4L608.5,332.5z"/>
				</g>
			</g>
			<g>
				<g>
					<path class="st6" d="M608.5,332.5V170.1c89.7,0,162.4,72.7,162.4,162.4c0,4.7-0.1,6.7-0.4,11.3L608.5,332.5z"/>
				</g>
			</g>
		</g>
		<g>
			<g>
			</g>
			<g>
			</g>
			<g>
			</g>
			<g>
			</g>
			<g>
			</g>
		</g>
	</g>
	<g>
		<g>
			<g>
				<g>
					<path class="st5" d="M182.5,331.8L96.4,469.5C20.3,422-2.8,321.8,44.7,245.7c30.2-48.4,80.7-76.4,137.7-76.4V331.8z"/>
				</g>
			</g>
			<g>
				<g>
					<path class="st7" d="M182.5,331.8l-50.2,154.5c-13.6-4.4-23.7-9.1-35.9-16.7L182.5,331.8z"/>
				</g>
			</g>
			<g>
				<g>
					<path class="st7" d="M182.5,331.8l33.8,158.9c-28.8,6.1-56,4.7-84-4.4L182.5,331.8z"/>
				</g>
			</g>
			<g>
				<g>
					<path class="st7" d="M182.5,331.8l158.9,33.8c-13.7,64.6-60.5,111.4-125.1,125.1L182.5,331.8z"/>
				</g>
			</g>
			<g>
				<g>
					<path class="st7" d="M182.5,331.8V169.4c89.7,0,162.4,72.7,162.4,162.4c0,12.6-0.9,21.5-3.5,33.8L182.5,331.8z"/>
				</g>
			</g>
		</g>
		<g>
			<g>
			</g>
			<g>
			</g>
			<g>
			</g>
			<g>
			</g>
			<g>
			</g>
		</g>
	</g>
	<circle class="st8" cx="183.6" cy="331.6" r="117.5"/>
	<circle class="st8" cx="607.7" cy="332.5" r="117.5"/>
</g>
</svg>
