<?xml version="1.0" encoding="utf-8"?>
<!-- Generator: Adobe Illustrator 21.1.0, SVG Export Plug-In . SVG Version: 6.00 Build 0)  -->
<svg version="1.1" id="Layer_1" xmlns="http://www.w3.org/2000/svg" xmlns:xlink="http://www.w3.org/1999/xlink" x="0px" y="0px"
	 viewBox="0 0 792 612" style="enable-background:new 0 0 792 612;" xml:space="preserve">
<style type="text/css">
	@import url('https://fonts.googleapis.com/css?family=Lato');
	.st0{fill:none;}
	.st1{font-family:'Lato', sans-serif;}
	.st2{font-size:15.5581px;}
	.st3{font-size:11.1129px;}
	.st4{fill:#59818E;}
	.st5{font-size:13.3355px;}
	.st6{fill:#EF7B7C;}
	.st7{fill:#90D3EE;}
</style>
<rect x="458.3" y="22.8" class="st0" width="208.2" height="37.9"/>
<text transform="matrix(1 0 0 1 471.693 34.2539)" class="st1 st2">Total Energy Consumption</text>
<text transform="matrix(1 0 0 1 491.993 47.5539)" class="st1 st3">millions tons of oil equivalent</text>
<rect x="464.9" y="334.6" class="st0" width="195" height="30.8"/>
<text transform="matrix(1 0 0 1 479.091 346.0938)" class="st1 st2">Per Capita Consumption</text>
<text transform="matrix(1 0 0 1 522.891 359.3938)" class="st1 st3">kg oil equivalent</text>
<rect x="518.1" y="561.3" class="st0" width="136.9" height="33.9"/>
<text transform="matrix(1 0 0 1 547.0463 571.1523)" class="st4 st1 st5">United States</text>
<text transform="matrix(1 0 0 1 569.7463 587.1523)" class="st4 st1 st5">6,914</text>
<rect x="536.6" y="261.3" class="st0" width="136.9" height="29.2"/>
<text transform="matrix(1 0 0 1 565.4672 271.1304)" class="st4 st1 st5">United States</text>
<text transform="matrix(1 0 0 1 582.8672 287.1304)" class="st4 st1 st5">2,118.4</text>
<rect x="395" y="96" class="st0" width="128.3" height="29.2"/>
<text transform="matrix(1 0 0 1 431.2074 105.8589)" class="st6 st1 st5">Colombia</text>
<text transform="matrix(1 0 0 1 446.2074 121.8589)" class="st6 st1 st5">31.6</text>
<rect x="408.9" y="439.7" class="st0" width="100.5" height="28.2"/>
<text transform="matrix(1 0 0 1 431.2074 449.5205)" class="st6 st1 st5">Colombia</text>
<text transform="matrix(1 0 0 1 447.6074 465.5205)" class="st6 st1 st5">669</text>
<rect x="447.8" y="65.3" class="st6" width="22.9" height="22.9"/>
<rect x="509.5" y="65.3" class="st7" width="190.3" height="190.3"/>
<g>
	<path class="st6" d="M459.2,379.1c-7.7,0-13.9,6.2-13.9,13.9c0,2.5,0.7,4.9,1.9,6.9c3.4,6.2,4.3,9.6,4.9,13
		c0.5,2.8,1.1,3.5,3.2,3.5c0.9,0,2.4,0,3.9,0s3,0,3.9,0c2.1,0,2.8-0.7,3.2-3.5c0.6-3.3,1.5-6.8,4.9-13c1.1-2.1,1.9-4.4,1.9-6.9
		C473.1,385.3,466.9,379.1,459.2,379.1z"/>
	<path class="st6" d="M464.2,417.3h-9.9c-0.4,0-0.7,0.3-0.7,0.7v0.5c0,0.4,0.3,0.7,0.7,0.7h9.9c0.4,0,0.7-0.3,0.7-0.7V418
		C464.9,417.7,464.6,417.3,464.2,417.3z"/>
	<path class="st6" d="M464.2,420.3h-9.9c-0.4,0-0.7,0.3-0.7,0.7v0.5c0,0.4,0.3,0.7,0.7,0.7h9.9c0.4,0,0.7-0.3,0.7-0.7V421
		C464.9,420.6,464.6,420.3,464.2,420.3z"/>
	<path class="st6" d="M464.2,423.3h-9.9c-0.4,0-0.7,0.3-0.7,0.7v0.5c0,0.4,0.3,0.7,0.7,0.7h9.9c0.4,0,0.7-0.3,0.7-0.7V424
		C464.9,423.6,464.6,423.3,464.2,423.3z"/>
	<path class="st6" d="M455.5,426.3h7.5c0,1.5-2,2.5-3.7,2.5S455.5,427.8,455.5,426.3z"/>
</g>
<g>
	<path class="st7" d="M543.9,379.1c-7.2,0-13,5.8-13,13c0,2.4,0.7,4.6,1.7,6.5c3.2,5.7,4,9,4.6,12.1c0.4,2.6,1,3.2,3,3.2
		c0.8,0,2.2,0,3.7,0s2.8,0,3.7,0c2,0,2.6-0.6,3-3.2c0.5-3.1,1.4-6.3,4.6-12.1c1.1-1.9,1.7-4.1,1.7-6.5
		C556.8,384.9,551,379.1,543.9,379.1z"/>
	<path class="st7" d="M548.5,414.8h-9.3c-0.4,0-0.7,0.3-0.7,0.7v0.5c0,0.4,0.3,0.7,0.7,0.7h9.3c0.4,0,0.7-0.3,0.7-0.7v-0.5
		C549.2,415.1,548.9,414.8,548.5,414.8z"/>
	<path class="st7" d="M548.5,417.6h-9.3c-0.4,0-0.7,0.3-0.7,0.7v0.5c0,0.4,0.3,0.7,0.7,0.7h9.3c0.4,0,0.7-0.3,0.7-0.7v-0.5
		C549.2,417.9,548.9,417.6,548.5,417.6z"/>
	<path class="st7" d="M548.5,420.3h-9.3c-0.4,0-0.7,0.3-0.7,0.7v0.5c0,0.4,0.3,0.7,0.7,0.7h9.3c0.4,0,0.7-0.3,0.7-0.7V421
		C549.2,420.7,548.9,420.3,548.5,420.3z"/>
	<path class="st7" d="M540.4,423.1h7c0,1.4-1.9,2.3-3.5,2.3C542.2,425.4,540.4,424.5,540.4,423.1z"/>
</g>
<g>
	<path class="st7" d="M583.1,379.1c-7.2,0-13,5.8-13,13c0,2.4,0.7,4.6,1.7,6.5c3.2,5.7,4,9,4.6,12.1c0.4,2.6,1,3.2,3,3.2
		c0.8,0,2.2,0,3.7,0s2.8,0,3.7,0c2,0,2.6-0.6,3-3.2c0.5-3.1,1.4-6.3,4.6-12.1c1.1-1.9,1.7-4.1,1.7-6.5
		C596.1,384.9,590.3,379.1,583.1,379.1z"/>
	<path class="st7" d="M587.8,414.8h-9.3c-0.4,0-0.7,0.3-0.7,0.7v0.5c0,0.4,0.3,0.7,0.7,0.7h9.3c0.4,0,0.7-0.3,0.7-0.7v-0.5
		C588.5,415.1,588.1,414.8,587.8,414.8z"/>
	<path class="st7" d="M587.8,417.6h-9.3c-0.4,0-0.7,0.3-0.7,0.7v0.5c0,0.4,0.3,0.7,0.7,0.7h9.3c0.4,0,0.7-0.3,0.7-0.7v-0.5
		C588.5,417.9,588.1,417.6,587.8,417.6z"/>
	<path class="st7" d="M587.8,420.3h-9.3c-0.4,0-0.7,0.3-0.7,0.7v0.5c0,0.4,0.3,0.7,0.7,0.7h9.3c0.4,0,0.7-0.3,0.7-0.7V421
		C588.5,420.7,588.1,420.3,587.8,420.3z"/>
	<path class="st7" d="M579.6,423.1h7c0,1.4-1.9,2.3-3.5,2.3S579.6,424.5,579.6,423.1z"/>
</g>
<g>
	<path class="st7" d="M624.6,379.1c-7.2,0-13,5.8-13,13c0,2.4,0.7,4.6,1.7,6.5c3.2,5.7,4,9,4.6,12.1c0.4,2.6,1,3.2,3,3.2
		c0.8,0,2.2,0,3.7,0s2.8,0,3.7,0c2,0,2.6-0.6,3-3.2c0.5-3.1,1.4-6.3,4.6-12.1c1.1-1.9,1.7-4.1,1.7-6.5
		C637.6,384.9,631.8,379.1,624.6,379.1z"/>
	<path class="st7" d="M629.3,414.8H620c-0.4,0-0.7,0.3-0.7,0.7v0.5c0,0.4,0.3,0.7,0.7,0.7h9.3c0.4,0,0.7-0.3,0.7-0.7v-0.5
		C630,415.1,629.7,414.8,629.3,414.8z"/>
	<path class="st7" d="M629.3,417.6H620c-0.4,0-0.7,0.3-0.7,0.7v0.5c0,0.4,0.3,0.7,0.7,0.7h9.3c0.4,0,0.7-0.3,0.7-0.7v-0.5
		C630,417.9,629.7,417.6,629.3,417.6z"/>
	<path class="st7" d="M629.3,420.3H620c-0.4,0-0.7,0.3-0.7,0.7v0.5c0,0.4,0.3,0.7,0.7,0.7h9.3c0.4,0,0.7-0.3,0.7-0.7V421
		C630,420.7,629.7,420.3,629.3,420.3z"/>
	<path class="st7" d="M621.2,423.1h7c0,1.4-1.9,2.3-3.5,2.3S621.2,424.5,621.2,423.1z"/>
</g>
<g>
	<path class="st7" d="M667.4,379.1c-7.2,0-13,5.8-13,13c0,2.4,0.7,4.6,1.7,6.5c3.2,5.7,4,9,4.6,12.1c0.4,2.6,1,3.2,3,3.2
		c0.8,0,2.2,0,3.7,0s2.8,0,3.7,0c2,0,2.6-0.6,3-3.2c0.5-3.1,1.4-6.3,4.6-12.1c1.1-1.9,1.7-4.1,1.7-6.5
		C680.4,384.9,674.6,379.1,667.4,379.1z"/>
	<path class="st7" d="M672,414.8h-9.3c-0.4,0-0.7,0.3-0.7,0.7v0.5c0,0.4,0.3,0.7,0.7,0.7h9.3c0.4,0,0.7-0.3,0.7-0.7v-0.5
		C672.7,415.1,672.4,414.8,672,414.8z"/>
	<path class="st7" d="M672,417.6h-9.3c-0.4,0-0.7,0.3-0.7,0.7v0.5c0,0.4,0.3,0.7,0.7,0.7h9.3c0.4,0,0.7-0.3,0.7-0.7v-0.5
		C672.7,417.9,672.4,417.6,672,417.6z"/>
	<path class="st7" d="M672,420.3h-9.3c-0.4,0-0.7,0.3-0.7,0.7v0.5c0,0.4,0.3,0.7,0.7,0.7h9.3c0.4,0,0.7-0.3,0.7-0.7V421
		C672.7,420.7,672.4,420.3,672,420.3z"/>
	<path class="st7" d="M663.9,423.1h7c0,1.4-1.9,2.3-3.5,2.3S663.9,424.5,663.9,423.1z"/>
</g>
<g>
	<path class="st7" d="M654.4,452c0,2.4,0.7,4.6,1.7,6.5c3.2,5.7,4,9,4.6,12.1c0.4,2.6,1,3.2,2.9,3.2c0.3-11.4,0.4-22.7,0.4-34.3
		C658.5,441,654.4,446,654.4,452z"/>
	<path class="st7" d="M662.8,474.8c-0.4,0-0.7,0.3-0.7,0.7v0.5c0,0.4,0.3,0.7,0.7,0.7h0.8c0-0.6,0-1.2,0.1-1.9L662.8,474.8
		L662.8,474.8z"/>
	<path class="st7" d="M662.8,477.5c-0.4,0-0.7,0.3-0.7,0.7v0.5c0,0.4,0.3,0.7,0.7,0.7h0.7c0-0.6,0.1-1.2,0.1-1.9L662.8,477.5
		L662.8,477.5z"/>
	<path class="st7" d="M662.8,480.3c-0.4,0-0.7,0.3-0.7,0.7v0.5c0,0.4,0.3,0.7,0.7,0.7h0.6c0-0.6,0-1.2,0.1-1.9L662.8,480.3
		L662.8,480.3z"/>
	<line class="st0" x1="670.9" y1="483.1" x2="663.9" y2="483.1"/>
</g>
<g>
	<path class="st7" d="M543.9,439c-7.2,0-13,5.8-13,13c0,2.4,0.7,4.6,1.7,6.5c3.2,5.7,4,9,4.6,12.1c0.4,2.6,1,3.2,3,3.2
		c0.8,0,2.2,0,3.7,0s2.8,0,3.7,0c2,0,2.6-0.6,3-3.2c0.5-3.1,1.4-6.3,4.6-12.1c1.1-1.9,1.7-4.1,1.7-6.5
		C556.8,444.9,551,439,543.9,439z"/>
	<path class="st7" d="M548.5,474.8h-9.3c-0.4,0-0.7,0.3-0.7,0.7v0.5c0,0.4,0.3,0.7,0.7,0.7h9.3c0.4,0,0.7-0.3,0.7-0.7v-0.5
		C549.2,475.1,548.9,474.8,548.5,474.8z"/>
	<path class="st7" d="M548.5,477.5h-9.3c-0.4,0-0.7,0.3-0.7,0.7v0.5c0,0.4,0.3,0.7,0.7,0.7h9.3c0.4,0,0.7-0.3,0.7-0.7v-0.5
		C549.2,477.9,548.9,477.5,548.5,477.5z"/>
	<path class="st7" d="M548.5,480.3h-9.3c-0.4,0-0.7,0.3-0.7,0.7v0.5c0,0.4,0.3,0.7,0.7,0.7h9.3c0.4,0,0.7-0.3,0.7-0.7V481
		C549.2,480.6,548.9,480.3,548.5,480.3z"/>
	<path class="st7" d="M540.4,483.1h7c0,1.4-1.9,2.3-3.5,2.3C542.2,485.4,540.4,484.5,540.4,483.1z"/>
</g>
<g>
	<path class="st7" d="M583.1,439c-7.2,0-13,5.8-13,13c0,2.4,0.7,4.6,1.7,6.5c3.2,5.7,4,9,4.6,12.1c0.4,2.6,1,3.2,3,3.2
		c0.8,0,2.2,0,3.7,0s2.8,0,3.7,0c2,0,2.6-0.6,3-3.2c0.5-3.1,1.4-6.3,4.6-12.1c1.1-1.9,1.7-4.1,1.7-6.5
		C596.1,444.9,590.3,439,583.1,439z"/>
	<path class="st7" d="M587.8,474.8h-9.3c-0.4,0-0.7,0.3-0.7,0.7v0.5c0,0.4,0.3,0.7,0.7,0.7h9.3c0.4,0,0.7-0.3,0.7-0.7v-0.5
		C588.5,475.1,588.1,474.8,587.8,474.8z"/>
	<path class="st7" d="M587.8,477.5h-9.3c-0.4,0-0.7,0.3-0.7,0.7v0.5c0,0.4,0.3,0.7,0.7,0.7h9.3c0.4,0,0.7-0.3,0.7-0.7v-0.5
		C588.5,477.9,588.1,477.5,587.8,477.5z"/>
	<path class="st7" d="M587.8,480.3h-9.3c-0.4,0-0.7,0.3-0.7,0.7v0.5c0,0.4,0.3,0.7,0.7,0.7h9.3c0.4,0,0.7-0.3,0.7-0.7V481
		C588.5,480.6,588.1,480.3,587.8,480.3z"/>
	<path class="st7" d="M579.6,483.1h7c0,1.4-1.9,2.3-3.5,2.3S579.6,484.5,579.6,483.1z"/>
</g>
<g>
	<path class="st7" d="M624.6,439c-7.2,0-13,5.8-13,13c0,2.4,0.7,4.6,1.7,6.5c3.2,5.7,4,9,4.6,12.1c0.4,2.6,1,3.2,3,3.2
		c0.8,0,2.2,0,3.7,0s2.8,0,3.7,0c2,0,2.6-0.6,3-3.2c0.5-3.1,1.4-6.3,4.6-12.1c1.1-1.9,1.7-4.1,1.7-6.5
		C637.6,444.9,631.8,439,624.6,439z"/>
	<path class="st7" d="M629.3,474.8H620c-0.4,0-0.7,0.3-0.7,0.7v0.5c0,0.4,0.3,0.7,0.7,0.7h9.3c0.4,0,0.7-0.3,0.7-0.7v-0.5
		C630,475.1,629.7,474.8,629.3,474.8z"/>
	<path class="st7" d="M629.3,477.5H620c-0.4,0-0.7,0.3-0.7,0.7v0.5c0,0.4,0.3,0.7,0.7,0.7h9.3c0.4,0,0.7-0.3,0.7-0.7v-0.5
		C630,477.9,629.7,477.5,629.3,477.5z"/>
	<path class="st7" d="M629.3,480.3H620c-0.4,0-0.7,0.3-0.7,0.7v0.5c0,0.4,0.3,0.7,0.7,0.7h9.3c0.4,0,0.7-0.3,0.7-0.7V481
		C630,480.6,629.7,480.3,629.3,480.3z"/>
	<path class="st7" d="M621.2,483.1h7c0,1.4-1.9,2.3-3.5,2.3S621.2,484.5,621.2,483.1z"/>
</g>
<g>
	<path class="st7" d="M543.9,499.8c-7.2,0-13,5.8-13,13c0,2.4,0.7,4.6,1.7,6.5c3.2,5.7,4,9,4.6,12.1c0.4,2.6,1,3.2,3,3.2
		c0.8,0,2.2,0,3.7,0s2.8,0,3.7,0c2,0,2.6-0.6,3-3.2c0.5-3.1,1.4-6.3,4.6-12.1c1.1-1.9,1.7-4.1,1.7-6.5
		C556.8,505.6,551,499.8,543.9,499.8z"/>
	<path class="st7" d="M548.5,535.5h-9.3c-0.4,0-0.7,0.3-0.7,0.7v0.5c0,0.4,0.3,0.7,0.7,0.7h9.3c0.4,0,0.7-0.3,0.7-0.7v-0.5
		C549.2,535.9,548.9,535.5,548.5,535.5z"/>
	<path class="st7" d="M548.5,538.3h-9.3c-0.4,0-0.7,0.3-0.7,0.7v0.5c0,0.4,0.3,0.7,0.7,0.7h9.3c0.4,0,0.7-0.3,0.7-0.7V539
		C549.2,538.6,548.9,538.3,548.5,538.3z"/>
	<path class="st7" d="M548.5,541.1h-9.3c-0.4,0-0.7,0.3-0.7,0.7v0.5c0,0.4,0.3,0.7,0.7,0.7h9.3c0.4,0,0.7-0.3,0.7-0.7v-0.5
		C549.2,541.4,548.9,541.1,548.5,541.1z"/>
	<path class="st7" d="M540.4,543.9h7c0,1.4-1.9,2.3-3.5,2.3C542.2,546.2,540.4,545.3,540.4,543.9z"/>
</g>
<g>
	<path class="st7" d="M583.1,499.8c-7.2,0-13,5.8-13,13c0,2.4,0.7,4.6,1.7,6.5c3.2,5.7,4,9,4.6,12.1c0.4,2.6,1,3.2,3,3.2
		c0.8,0,2.2,0,3.7,0s2.8,0,3.7,0c2,0,2.6-0.6,3-3.2c0.5-3.1,1.4-6.3,4.6-12.1c1.1-1.9,1.7-4.1,1.7-6.5
		C596.1,505.6,590.3,499.8,583.1,499.8z"/>
	<path class="st7" d="M587.8,535.5h-9.3c-0.4,0-0.7,0.3-0.7,0.7v0.5c0,0.4,0.3,0.7,0.7,0.7h9.3c0.4,0,0.7-0.3,0.7-0.7v-0.5
		C588.5,535.9,588.1,535.5,587.8,535.5z"/>
	<path class="st7" d="M587.8,538.3h-9.3c-0.4,0-0.7,0.3-0.7,0.7v0.5c0,0.4,0.3,0.7,0.7,0.7h9.3c0.4,0,0.7-0.3,0.7-0.7V539
		C588.5,538.6,588.1,538.3,587.8,538.3z"/>
	<path class="st7" d="M587.8,541.1h-9.3c-0.4,0-0.7,0.3-0.7,0.7v0.5c0,0.4,0.3,0.7,0.7,0.7h9.3c0.4,0,0.7-0.3,0.7-0.7v-0.5
		C588.5,541.4,588.1,541.1,587.8,541.1z"/>
	<path class="st7" d="M579.6,543.9h7c0,1.4-1.9,2.3-3.5,2.3S579.6,545.3,579.6,543.9z"/>
</g>
<g>
	<path class="st7" d="M624.6,499.8c-7.2,0-13,5.8-13,13c0,2.4,0.7,4.6,1.7,6.5c3.2,5.7,4,9,4.6,12.1c0.4,2.6,1,3.2,3,3.2
		c0.8,0,2.2,0,3.7,0s2.8,0,3.7,0c2,0,2.6-0.6,3-3.2c0.5-3.1,1.4-6.3,4.6-12.1c1.1-1.9,1.7-4.1,1.7-6.5
		C637.6,505.6,631.8,499.8,624.6,499.8z"/>
	<path class="st7" d="M629.3,535.5H620c-0.4,0-0.7,0.3-0.7,0.7v0.5c0,0.4,0.3,0.7,0.7,0.7h9.3c0.4,0,0.7-0.3,0.7-0.7v-0.5
		C630,535.9,629.7,535.5,629.3,535.5z"/>
	<path class="st7" d="M629.3,538.3H620c-0.4,0-0.7,0.3-0.7,0.7v0.5c0,0.4,0.3,0.7,0.7,0.7h9.3c0.4,0,0.7-0.3,0.7-0.7V539
		C630,538.6,629.7,538.3,629.3,538.3z"/>
	<path class="st7" d="M629.3,541.1H620c-0.4,0-0.7,0.3-0.7,0.7v0.5c0,0.4,0.3,0.7,0.7,0.7h9.3c0.4,0,0.7-0.3,0.7-0.7v-0.5
		C630,541.4,629.7,541.1,629.3,541.1z"/>
	<path class="st7" d="M621.2,543.9h7c0,1.4-1.9,2.3-3.5,2.3S621.2,545.3,621.2,543.9z"/>
</g>
<rect x="69.3" y="255" class="st0" width="297.8" height="110.5"/>
<text transform="matrix(1 0 0 1 69.2753 265.6396)" class="st1 st2">The United States uses roughly 68 times more </text>
<text transform="matrix(1 0 0 1 69.2753 283.6396)" class="st1 st2">total energy than Colombia. One American’s </text>
<text transform="matrix(1 0 0 1 69.2753 301.6396)" class="st1 st2">electricity usage would be enough to power </text>
<text transform="matrix(1 0 0 1 69.2753 319.6396)" class="st1 st2">10.5 Colombians.  Colombia also pledged to </text>
<text transform="matrix(1 0 0 1 69.2753 337.6396)" class="st1 st2">the UN to cut its carbon emissions 20 percent </text>
<text transform="matrix(1 0 0 1 69.2753 355.6396)" class="st1 st2">by 2030.</text>
</svg>
