<?xml version="1.0" encoding="utf-8"?>
<!-- Generator: Adobe Illustrator 21.1.0, SVG Export Plug-In . SVG Version: 6.00 Build 0)  -->
<svg version="1.1" id="Layer_1" xmlns="http://www.w3.org/2000/svg" xmlns:xlink="http://www.w3.org/1999/xlink" x="0px" y="0px"
	 viewBox="0 0 792 612" style="enable-background:new 0 0 792 612;" xml:space="preserve">
<style type="text/css">
	@import url('https://fonts.googleapis.com/css?family=Lato');
	.st0{fill:none;stroke:#000000;stroke-width:0.5;stroke-miterlimit:10;}
	.st1{fill:none;}
	.st2{font-family:'Lato', sans-serif;}
	.st3{font-size:13.2px;}
	.st4{fill:#6C9DAD;}
	.st5{font-size:15px;}
	.st6{fill:#EF7B7C;}
</style>
<line class="st0" x1="0.8" y1="296.8" x2="793.2" y2="296.8"/>
<line class="st0" x1="119.6" y1="296.8" x2="119.6" y2="220.4"/>
<line class="st0" x1="418.9" y1="296.8" x2="418.9" y2="220.4"/>
<line class="st0" x1="685.8" y1="296.8" x2="685.8" y2="220.4"/>
<line class="st0" x1="608" y1="296.8" x2="608" y2="383.1"/>
<line class="st0" x1="266.9" y1="296.8" x2="266.9" y2="379.4"/>
<rect x="60.3" y="137.7" class="st1" width="155.6" height="79"/>
<text transform="matrix(1 0 0 1 60.3271 147.0273)" class="st2 st3">The assasination of the </text>
<text transform="matrix(1 0 0 1 60.3271 162.8273)" class="st2 st3">Liberal leader Jorge Gaitan </text>
<text transform="matrix(1 0 0 1 60.3271 178.7273)" class="st2 st3">led to a difficult period of </text>
<text transform="matrix(1 0 0 1 60.3271 194.5273)" class="st2 st3">violence, martial law and </text>
<text transform="matrix(1 0 0 1 60.3271 210.4273)" class="st2 st3">civil war.</text>
<rect x="201.6" y="384.9" class="st1" width="155.6" height="122.2"/>
<text transform="matrix(1 0 0 1 201.582 395.2275)" class="st2 st3">Liberals and Conservatives </text>
<text transform="matrix(1 0 0 1 201.582 411.0275)" class="st2 st3">agreed to form a National </text>
<text transform="matrix(1 0 0 1 201.582 426.9275)" class="st2 st3">Front coalition and took </text>
<text transform="matrix(1 0 0 1 201.582 442.7275)" class="st2 st3">turns at being in power, </text>
<text transform="matrix(1 0 0 1 201.582 458.6275)" class="st2 st3">fighting to stabilize the </text>
<text transform="matrix(1 0 0 1 201.582 474.4275)" class="st2 st3">country’s economy.</text>
<rect x="346" y="74.9" class="st1" width="160.8" height="154.2"/>
<text transform="matrix(1 0 0 1 345.9673 84.2485)" class="st2 st3">Over the next three decades, </text>
<text transform="matrix(1 0 0 1 345.9673 100.0485)" class="st2 st3">drug cartels and leftist gue</text>
<text transform="matrix(1 0 0 1 492.5673 100.0485)" class="st2 st3">  rilla</text>
<rect x="346" y="104.6" class="st1" width="174.9" height="13.7"/>
<text transform="matrix(1 0 0 1 345.9673 115.9485)" class="st2 st3">groups grew in power and </text>
<text transform="matrix(1 0 0 1 345.9673 131.7485)" class="st2 st3">and influence. Despite gran</text>
<text transform="matrix(1 0 0 1 501.2673 131.7485)" class="st2 st3">ting</text>
<text transform="matrix(1 0 0 1 345.9673 147.6485)" class="st2 st3">amnesty to the guerillas, </text>
<text transform="matrix(1 0 0 1 345.9673 163.4485)" class="st2 st3">the authorities were faced </text>
<text transform="matrix(1 0 0 1 345.9673 179.2485)" class="st2 st3">with an increase in violence </text>
<text transform="matrix(1 0 0 1 345.9673 195.1485)" class="st2 st3">linked to political tensions </text>
<text transform="matrix(1 0 0 1 345.9673 210.9485)" class="st2 st3">and drug trafficking.</text>
<rect x="619.6" y="99.3" class="st1" width="155.6" height="122.2"/>
<text transform="matrix(1 0 0 1 619.6094 114.6309)" class="st2 st3">Juan M. Santos was elelcted </text>
<text transform="matrix(1 0 0 1 619.6094 130.4309)" class="st2 st3">president in 2010, and </text>
<text transform="matrix(1 0 0 1 619.6094 146.3309)" class="st2 st3">began a peace process with </text>
<text transform="matrix(1 0 0 1 619.6094 162.1309)" class="st2 st3">the guerillas. In 2016, a </text>
<text transform="matrix(1 0 0 1 619.6094 178.0309)" class="st2 st3">peace agreement was </text>
<text transform="matrix(1 0 0 1 619.6094 193.8309)" class="st2 st3">ratified, and Santos received </text>
<text transform="matrix(1 0 0 1 619.6094 209.6309)" class="st2 st3">the Nobel Peace Prize.</text>
<rect x="245.8" y="273.7" class="st1" width="88.6" height="28.9"/>
<text transform="matrix(1 0 0 1 237.9005 286.2197)" class="st4 st2 st5">1958–70</text>
<rect x="563.7" y="273.7" class="st1" width="88.6" height="28.9"/>
<g>
	<text transform="matrix(1 0 0 1 569.4444 286.2197)" class="st4 st2 st5">1999–2004</text>
</g>
<rect x="83" y="302.7" class="st1" width="88.6" height="28.9"/>
<g>
	<text transform="matrix(1 0 0 1 90.9662 315.1543)" class="st4 st2 st5">1948–58</text>
</g>
<rect x="396.7" y="302.7" class="st1" width="88.6" height="28.9"/>
<g>
	<text transform="matrix(1 0 0 1 400.7 315.1543)" class="st4 st2 st5">1970</text>
</g>
<rect x="645.4" y="302.7" class="st1" width="88.6" height="28.9"/>
<g>
	<text transform="matrix(1 0 0 1 650.2674 315.1543)" class="st4 st2 st5">2010-2016</text>
</g>
<g>
	<path class="st6" d="M141.7,95.8h-33.5c-0.5,0-1,0.4-1,0.9v-0.1h-6.8v0.1l-11.7,4.5c-2.2,0.9-3.7,3.2-3.7,5.8c0,0.1,0,0.2,0,0.2
		c0.1,2.5,1.6,4.8,3.7,5.6l11.7,4.5l0,0h6.8l0,0c0,0.5,0.4,1,1,1h33.4l2.6-1.7h4.2v0.9c0,0.5,0.4,0.9,1,0.9h2.5c0.1,0,0.1,0,0.2,0
		h0.1c1.1-0.1,2-5.1,2-11.2s-0.9-11.1-1.9-11.1h-0.1c-0.1,0-0.1,0-0.2,0h-2.5c-0.5,0-1,0.4-1,0.9v0.9h-4.2L141.7,95.8z"/>
</g>
<rect x="537.3" y="388.4" class="st1" width="170.7" height="143.5"/>
<text transform="matrix(1 0 0 1 537.2663 398.1262)"><tspan x="0" y="0" class="st2 st3">Economic recession and a </tspan><tspan x="0" y="15.8" class="st2 st3">devastating earthquake in </tspan><tspan x="0" y="31.7" class="st2 st3">1999 further undermined </tspan><tspan x="0" y="47.5" class="st2 st3">Colombia’s ongoing internal </tspan><tspan x="0" y="63.4" class="st2 st3">problems. Some economic </tspan><tspan x="0" y="79.2" class="st2 st3">recovery and governmental </tspan><tspan x="0" y="95" class="st2 st3">reform followed, but tensions </tspan><tspan x="0" y="110.9" class="st2 st3">between the government and </tspan><tspan x="0" y="126.7" class="st2 st3">rebels continued.</tspan></text>
</svg>
