<?xml version="1.0" encoding="utf-8"?>
<!-- Generator: Adobe Illustrator 21.1.0, SVG Export Plug-In . SVG Version: 6.00 Build 0)  -->
<svg version="1.1" id="Layer_1" xmlns="http://www.w3.org/2000/svg" xmlns:xlink="http://www.w3.org/1999/xlink" x="0px" y="0px"
	 viewBox="0 0 792 612" style="enable-background:new 0 0 792 612;" xml:space="preserve">
<style type="text/css">
	@import url('https://fonts.googleapis.com/css?family=Lato');
	.st0{fill:none;}
	.st1{fill:#59818E;}
	.st2{font-family:'Lato', sans-serif;}
	.st3{font-size:13.5601px;}
	.st4{fill:#EF7B7C;}
	.st5{fill:#444444;}
	.st6{fill:none;stroke:#FFFFFF;stroke-width:2;stroke-miterlimit:10;}
	.st7{fill:#9F9F9F;}
	.st8{fill:#90D3EE;}
	.st9{fill:#9F9F9F;stroke:#FFFFFF;stroke-width:2;stroke-miterlimit:10;}
	.st10{fill:#010202;}
	.st11{font-size:18.0801px;}
</style>
<g>
	<rect x="503.2" y="211.8" class="st0" width="130.5" height="37.2"/>
	<g>
		<text transform="matrix(1 0 0 1 503.163 221.7618)" class="st1 st2 st3">Brazil</text>
	</g>
	<text transform="matrix(1 0 0 1 503.163 238.0618)" class="st1 st2 st3">29,817 km of railways</text>
	<rect x="655.4" y="400.6" class="st0" width="84.9" height="34.5"/>
	<g>
		<text transform="matrix(1 0 0 1 655.3505 410.5543)" class="st1 st2 st3">Brazil</text>
	</g>
	<text transform="matrix(1 0 0 1 655.3505 426.8543)" class="st1 st2 st3">4,093 airports</text>
	<rect x="80" y="225.8" class="st0" width="130.5" height="37.5"/>
	<text transform="matrix(1 0 0 1 80.0267 235.838)" class="st4 st2 st3">Colombia</text>
	<text transform="matrix(1 0 0 1 80.0267 252.138)" class="st4 st2 st3">1,672 km of railways</text>
	<g>
		<rect x="78.3" y="293.3" class="st0" width="130.5" height="42.9"/>
		<text transform="matrix(1 0 0 1 78.3456 303.2452)" class="st5 st2 st3">Venezuela</text>
		<text transform="matrix(1 0 0 1 78.3456 303.2452)" class="st6 st2 st3">Venezuela</text>
		<text transform="matrix(1 0 0 1 78.3456 319.5452)" class="st5 st2 st3">336 of railways</text>
		<text transform="matrix(1 0 0 1 78.3456 319.5452)" class="st6 st2 st3">336 of railways</text>
		<g>
			<rect x="78.3" y="293.3" class="st0" width="130.5" height="42.9"/>
			<text transform="matrix(1 0 0 1 78.3456 303.2452)" class="st7 st2 st3">Venezuela</text>
			<text transform="matrix(1 0 0 1 78.3456 319.5452)" class="st7 st2 st3">336 of railways</text>
		</g>
	</g>
	<rect x="252.3" y="472.5" class="st0" width="130.5" height="29.7"/>
	<text transform="matrix(1 0 0 1 252.3104 482.4927)" class="st4 st2 st3">Colombia</text>
	<text transform="matrix(1 0 0 1 252.3104 498.7927)" class="st4 st2 st3">836 airports</text>
	<g>
		<rect x="202.6" y="541" class="st0" width="130.5" height="37.8"/>
		<text transform="matrix(1 0 0 1 202.5897 551.0211)" class="st5 st2 st3">Venezuela</text>
		<text transform="matrix(1 0 0 1 202.5897 551.0211)" class="st6 st2 st3">Venezuela</text>
		<text transform="matrix(1 0 0 1 202.5897 567.3211)" class="st5 st2 st3">444 airports</text>
		<text transform="matrix(1 0 0 1 202.5897 567.3211)" class="st6 st2 st3">444 airports</text>
		<g>
			<rect x="202.6" y="541" class="st0" width="130.5" height="37.8"/>
			<text transform="matrix(1 0 0 1 202.5897 551.0211)" class="st7 st2 st3">Venezuela</text>
			<text transform="matrix(1 0 0 1 202.5897 567.3211)" class="st7 st2 st3">444 airports</text>
		</g>
	</g>
	<g>
		<title>publictransp_icons</title>
		<path class="st4" d="M59.6,221.1c-0.9,0-1.7,0.8-1.7,1.7v2.5h-8.1v-2.5c0-0.9-0.8-1.7-1.7-1.7h-4.9c-0.9,0-1.7,0.8-1.7,1.7v2.5
			h-8.3v-2.5c0-0.9-0.8-1.7-1.7-1.7h-4.9c-0.9,0-1.7,0.8-1.7,1.7v2.5h-4v9.6h4v20.3h-4v9.6h4v2.5c0,0.9,0.8,1.7,1.7,1.7h4.9
			c0.9,0,1.7-0.8,1.7-1.7v-2.5h8.3v2.5c0,0.9,0.8,1.7,1.7,1.7h4.9c0.9,0,1.7-0.8,1.7-1.7v-2.5h8.1v2.5c0,0.9,0.8,1.7,1.7,1.7h2.6
			c0-16.1,0-31.7,0-48L59.6,221.1L59.6,221.1z M41.5,255.3h-8.3V235h8.3V255.3z M57.9,255.3h-8.1V235h8.1V255.3z"/>
	</g>
	<g>
		<g>
			<title>publictransp_icons</title>
			<path class="st8" d="M33.3,152.8c0-0.9-0.8-1.7-1.7-1.7l0,0h-4.9c-0.9,0-1.7,0.8-1.7,1.7l0,0v2.5h-4v9.6h4v20.3h-4v9.6h4v2.5
				c0,0.9,0.8,1.7,1.7,1.7l0,0h4.9c0.9,0,1.7-0.8,1.7-1.7l0,0v-2.5h8.3v2.5c0,0.9,0.8,1.7,1.7,1.7l0,0h4.9c0.9,0,1.7-0.8,1.7-1.7
				v-2.5H58v2.5c0,0.9,0.8,1.7,1.7,1.7h4.9c0.9,0,1.7-0.8,1.7-1.7v-2.5h8.3v2.5c0,0.9,0.8,1.7,1.7,1.7h4.9c0.9,0,1.7-0.8,1.7-1.7
				l0,0v-2.5h8.3v2.5c0,0.9,0.8,1.7,1.7,1.7h4.9c0.9,0,1.7-0.8,1.7-1.7l0,0v-2.5h4.1v-9.6h-4.1v-20.3h4.1v-9.6h-4.1v-2.5
				c0-0.9-0.8-1.7-1.7-1.7l0,0h-4.9c-0.9,0-1.7,0.8-1.7,1.7l0,0v2.5h-8.3v-2.5c0-0.9-0.8-1.7-1.7-1.7l0,0h-4.9
				c-0.9,0-1.7,0.8-1.7,1.7l0,0v2.5h-8.3v-2.5c0-0.9-0.8-1.7-1.7-1.7h-4.9c-0.9,0-1.7,0.8-1.7,1.7l0,0v2.5h-8.1v-2.5
				c0-0.9-0.8-1.7-1.7-1.7l0,0h-4.9c-0.9,0-1.7,0.8-1.7,1.7l0,0v2.5h-8.3C33.3,155.3,33.3,152.8,33.3,152.8z M91.1,164.9v20.3h-8.3
				v-20.3H91.1z M74.5,164.9v20.3h-8.3v-20.3H74.5z M57.9,164.9v20.3h-8.1v-20.3H57.9z M41.5,164.9v20.3h-8.3v-20.3H41.5z"/>
		</g>
		<g>
			<title>publictransp_icons</title>
			<path class="st8" d="M115.7,152.8c0-0.9-0.8-1.7-1.7-1.7l0,0h-4.9c-0.9,0-1.7,0.8-1.7,1.7l0,0v2.5h-4v9.6h4v20.3h-4v9.6h4v2.5
				c0,0.9,0.8,1.7,1.7,1.7l0,0h4.9c0.9,0,1.7-0.8,1.7-1.7l0,0v-2.5h8.3v2.5c0,0.9,0.8,1.7,1.7,1.7l0,0h4.9c0.9,0,1.7-0.8,1.7-1.7
				v-2.5h8.1v2.5c0,0.9,0.8,1.7,1.7,1.7h4.9c0.9,0,1.7-0.8,1.7-1.7v-2.5h8.3v2.5c0,0.9,0.8,1.7,1.7,1.7h4.9c0.9,0,1.7-0.8,1.7-1.7
				l0,0v-2.5h8.3v2.5c0,0.9,0.8,1.7,1.7,1.7h4.9c0.9,0,1.7-0.8,1.7-1.7l0,0v-2.5h4.1v-9.6h-4.1v-20.3h4.1v-9.6h-4.1v-2.5
				c0-0.9-0.8-1.7-1.7-1.7l0,0h-4.9c-0.9,0-1.7,0.8-1.7,1.7l0,0v2.5h-8.3v-2.5c0-0.9-0.8-1.7-1.7-1.7l0,0h-4.9
				c-0.9,0-1.7,0.8-1.7,1.7l0,0v2.5h-8.3v-2.5c0-0.9-0.8-1.7-1.7-1.7h-4.9c-0.9,0-1.7,0.8-1.7,1.7l0,0v2.5h-8.1v-2.5
				c0-0.9-0.8-1.7-1.7-1.7l0,0h-4.9c-0.9,0-1.7,0.8-1.7,1.7l0,0v2.5h-8.3C115.7,155.3,115.7,152.8,115.7,152.8z M173.6,164.9v20.3
				h-8.3v-20.3H173.6z M157,164.9v20.3h-8.3v-20.3H157z M140.4,164.9v20.3h-8.1v-20.3H140.4z M124,164.9v20.3h-8.3v-20.3H124z"/>
		</g>
		<g>
			<title>publictransp_icons</title>
			<path class="st8" d="M198.2,152.8c0-0.9-0.8-1.7-1.7-1.7l0,0h-4.9c-0.9,0-1.7,0.8-1.7,1.7l0,0v2.5h-4v9.6h4v20.3h-4v9.6h4v2.5
				c0,0.9,0.8,1.7,1.7,1.7l0,0h4.9c0.9,0,1.7-0.8,1.7-1.7l0,0v-2.5h8.3v2.5c0,0.9,0.8,1.7,1.7,1.7l0,0h4.9c0.9,0,1.7-0.8,1.7-1.7
				v-2.5h8.1v2.5c0,0.9,0.8,1.7,1.7,1.7h4.9c0.9,0,1.7-0.8,1.7-1.7v-2.5h8.3v2.5c0,0.9,0.8,1.7,1.7,1.7h4.9c0.9,0,1.7-0.8,1.7-1.7
				l0,0v-2.5h8.3v2.5c0,0.9,0.8,1.7,1.7,1.7h4.9c0.9,0,1.7-0.8,1.7-1.7l0,0v-2.5h4.1v-9.6h-4.1v-20.3h4.1v-9.6h-4.1v-2.5
				c0-0.9-0.8-1.7-1.7-1.7l0,0h-4.9c-0.9,0-1.7,0.8-1.7,1.7l0,0v2.5h-8.3v-2.5c0-0.9-0.8-1.7-1.7-1.7l0,0h-4.9
				c-0.9,0-1.7,0.8-1.7,1.7l0,0v2.5h-8.3v-2.5c0-0.9-0.8-1.7-1.7-1.7h-4.9c-0.9,0-1.7,0.8-1.7,1.7l0,0v2.5h-8.1v-2.5
				c0-0.9-0.8-1.7-1.7-1.7l0,0h-4.9c-0.9,0-1.7,0.8-1.7,1.7l0,0v2.5h-8.3V152.8z M256.1,164.9v20.3h-8.3v-20.3H256.1z M239.5,164.9
				v20.3h-8.3v-20.3H239.5z M222.9,164.9v20.3h-8.1v-20.3H222.9z M206.5,164.9v20.3h-8.3v-20.3H206.5z"/>
		</g>
		<g>
			<title>publictransp_icons</title>
			<path class="st8" d="M280.7,152.8c0-0.9-0.8-1.7-1.7-1.7l0,0h-4.9c-0.9,0-1.7,0.8-1.7,1.7l0,0v2.5h-4v9.6h4v20.3h-4v9.6h4v2.5
				c0,0.9,0.8,1.7,1.7,1.7l0,0h4.9c0.9,0,1.7-0.8,1.7-1.7l0,0v-2.5h8.3v2.5c0,0.9,0.8,1.7,1.7,1.7l0,0h4.9c0.9,0,1.7-0.8,1.7-1.7
				v-2.5h8.1v2.5c0,0.9,0.8,1.7,1.7,1.7h4.9c0.9,0,1.7-0.8,1.7-1.7v-2.5h8.3v2.5c0,0.9,0.8,1.7,1.7,1.7h4.9c0.9,0,1.7-0.8,1.7-1.7
				l0,0v-2.5h8.3v2.5c0,0.9,0.8,1.7,1.7,1.7h4.9c0.9,0,1.7-0.8,1.7-1.7l0,0v-2.5h4.1v-9.6h-4.1v-20.3h4.1v-9.6h-4.1v-2.5
				c0-0.9-0.8-1.7-1.7-1.7l0,0h-4.9c-0.9,0-1.7,0.8-1.7,1.7l0,0v2.5h-8.3v-2.5c0-0.9-0.8-1.7-1.7-1.7l0,0h-4.9
				c-0.9,0-1.7,0.8-1.7,1.7l0,0v2.5h-8.3v-2.5c0-0.9-0.8-1.7-1.7-1.7h-4.9c-0.9,0-1.7,0.8-1.7,1.7l0,0v2.5h-8.1v-2.5
				c0-0.9-0.8-1.7-1.7-1.7l0,0h-4.9c-0.9,0-1.7,0.8-1.7,1.7l0,0v2.5h-8.3V152.8z M338.6,164.9v20.3h-8.3v-20.3H338.6z M322,164.9
				v20.3h-8.3v-20.3H322z M305.4,164.9v20.3h-8.1v-20.3H305.4z M289,164.9v20.3h-8.3v-20.3H289z"/>
		</g>
		<g>
			<title>publictransp_icons</title>
			<path class="st8" d="M363,152.8c0-0.9-0.8-1.7-1.7-1.7l0,0h-4.9c-0.9,0-1.7,0.8-1.7,1.7l0,0v2.5h-4v9.6h4v20.3h-4v9.6h4v2.5
				c0,0.9,0.8,1.7,1.7,1.7l0,0h4.9c0.9,0,1.7-0.8,1.7-1.7l0,0v-2.5h8.3v2.5c0,0.9,0.8,1.7,1.7,1.7l0,0h4.9c0.9,0,1.7-0.8,1.7-1.7
				v-2.5h8.1v2.5c0,0.9,0.8,1.7,1.7,1.7h4.9c0.9,0,1.7-0.8,1.7-1.7v-2.5h8.3v2.5c0,0.9,0.8,1.7,1.7,1.7h4.9c0.9,0,1.7-0.8,1.7-1.7
				l0,0v-2.5h8.3v2.5c0,0.9,0.8,1.7,1.7,1.7h4.9c0.9,0,1.7-0.8,1.7-1.7l0,0v-2.5h4.1v-9.6h-4.1v-20.3h4.1v-9.6h-4.1v-2.5
				c0-0.9-0.8-1.7-1.7-1.7l0,0h-4.9c-0.9,0-1.7,0.8-1.7,1.7l0,0v2.5h-8.3v-2.5c0-0.9-0.8-1.7-1.7-1.7l0,0H406
				c-0.9,0-1.7,0.8-1.7,1.7l0,0v2.5H396v-2.5c0-0.9-0.8-1.7-1.7-1.7h-4.9c-0.9,0-1.7,0.8-1.7,1.7l0,0v2.5h-8.1v-2.5
				c0-0.9-0.8-1.7-1.7-1.7l0,0H373c-0.9,0-1.7,0.8-1.7,1.7l0,0v2.5H363V152.8z M420.8,164.9v20.3h-8.3v-20.3H420.8z M404.2,164.9
				v20.3H396v-20.3H404.2z M387.7,164.9v20.3h-8.1v-20.3H387.7z M371.3,164.9v20.3H363v-20.3H371.3z"/>
		</g>
		<g>
			<title>publictransp_icons</title>
			<path class="st8" d="M445.5,152.8c0-0.9-0.8-1.7-1.7-1.7l0,0h-4.9c-0.9,0-1.7,0.8-1.7,1.7l0,0v2.5h-4v9.6h4v20.3h-4v9.6h4v2.5
				c0,0.9,0.8,1.7,1.7,1.7l0,0h4.9c0.9,0,1.7-0.8,1.7-1.7l0,0v-2.5h8.3v2.5c0,0.9,0.8,1.7,1.7,1.7l0,0h4.9c0.9,0,1.7-0.8,1.7-1.7
				v-2.5h8.1v2.5c0,0.9,0.8,1.7,1.7,1.7h4.9c0.9,0,1.7-0.8,1.7-1.7v-2.5h8.3v2.5c0,0.9,0.8,1.7,1.7,1.7h4.9c0.9,0,1.7-0.8,1.7-1.7
				l0,0v-2.5h8.3v2.5c0,0.9,0.8,1.7,1.7,1.7h4.9c0.9,0,1.7-0.8,1.7-1.7l0,0v-2.5h4.1v-9.6h-4.1v-20.3h4.1v-9.6h-4.1v-2.5
				c0-0.9-0.8-1.7-1.7-1.7l0,0h-5c-0.9,0-1.7,0.8-1.7,1.7l0,0v2.5H495v-2.5c0-0.9-0.8-1.7-1.7-1.7l0,0h-4.9c-0.9,0-1.7,0.8-1.7,1.7
				l0,0v2.5h-8.3v-2.5c0-0.9-0.8-1.7-1.7-1.7h-4.9c-0.9,0-1.7,0.8-1.7,1.7l0,0v2.5H462v-2.5c0-0.9-0.8-1.7-1.7-1.7l0,0h-4.9
				c-0.9,0-1.7,0.8-1.7,1.7l0,0v2.5h-8.3v-2.5H445.5z M503.3,164.9v20.3H495v-20.3H503.3z M486.7,164.9v20.3h-8.3v-20.3H486.7z
				 M470.2,164.9v20.3h-8.1v-20.3H470.2z M453.8,164.9v20.3h-8.3v-20.3H453.8z"/>
		</g>
		<g>
			<title>publictransp_icons</title>
			<path class="st8" d="M528,152.8c0-0.9-0.8-1.7-1.7-1.7l0,0h-4.9c-0.9,0-1.7,0.8-1.7,1.7l0,0v2.5h-4v9.6h4v20.3h-4v9.6h4v2.5
				c0,0.9,0.8,1.7,1.7,1.7l0,0h4.9c0.9,0,1.7-0.8,1.7-1.7l0,0v-2.5h8.3v2.5c0,0.9,0.8,1.7,1.7,1.7l0,0h4.9c0.9,0,1.7-0.8,1.7-1.7
				v-2.5h8.1v2.5c0,0.9,0.8,1.7,1.7,1.7h4.9c0.9,0,1.7-0.8,1.7-1.7v-2.5h8.3v2.5c0,0.9,0.8,1.7,1.7,1.7h4.9c0.9,0,1.7-0.8,1.7-1.7
				l0,0v-2.5h8.3v2.5c0,0.9,0.8,1.7,1.7,1.7h4.9c0.9,0,1.7-0.8,1.7-1.7l0,0v-2.5h4.1v-9.6h-4.1v-20.3h4.1v-9.6h-4.1v-2.5
				c0-0.9-0.8-1.7-1.7-1.7l0,0h-4.9c-0.9,0-1.7,0.8-1.7,1.7l0,0v2.5h-8.3v-2.5c0-0.9-0.8-1.7-1.7-1.7l0,0H571
				c-0.9,0-1.7,0.8-1.7,1.7l0,0v2.5H561v-2.5c0-0.9-0.8-1.7-1.7-1.7h-4.9c-0.9,0-1.7,0.8-1.7,1.7l0,0v2.5h-8.1v-2.5
				c0-0.9-0.8-1.7-1.7-1.7l0,0H538c-0.9,0-1.7,0.8-1.7,1.7l0,0v2.5H528V152.8z M585.8,164.9v20.3h-8.3v-20.3H585.8z M569.2,164.9
				v20.3h-8.3v-20.3H569.2z M552.6,164.9v20.3h-8.1v-20.3H552.6z M536.3,164.9v20.3H528v-20.3H536.3z"/>
		</g>
		<g>
			<title>publictransp_icons</title>
			<path class="st8" d="M610.5,152.8c0-0.9-0.8-1.7-1.7-1.7l0,0h-4.9c-0.9,0-1.7,0.8-1.7,1.7l0,0v2.5h-4v9.6h4v20.3h-4v9.6h4v2.5
				c0,0.9,0.8,1.7,1.7,1.7l0,0h4.9c0.9,0,1.7-0.8,1.7-1.7l0,0v-2.5h8.3v2.5c0,0.9,0.8,1.7,1.7,1.7l0,0h4.9c0.9,0,1.7-0.8,1.7-1.7
				v-2.5h8.1v2.5c0,0.9,0.8,1.7,1.7,1.7h4.9c0.9,0,1.7-0.8,1.7-1.7v-2.5h8.3v2.5c0,0.9,0.8,1.7,1.7,1.7h4.9c0.9,0,1.7-0.8,1.7-1.7
				l0,0v-2.5h8.3v2.5c0,0.9,0.8,1.7,1.7,1.7h4.9c0.9,0,1.7-0.8,1.7-1.7l0,0v-2.5h4.1v-9.6h-4.1v-20.3h4.1v-9.6h-4.1v-2.5
				c0-0.9-0.8-1.7-1.7-1.7l0,0h-5c-0.9,0-1.7,0.8-1.7,1.7l0,0v2.5H660v-2.5c0-0.9-0.8-1.7-1.7-1.7l0,0h-4.9c-0.9,0-1.7,0.8-1.7,1.7
				l0,0v2.5h-8.3v-2.5c0-0.9-0.8-1.7-1.7-1.7h-4.9c-0.9,0-1.7,0.8-1.7,1.7l0,0v2.5H627v-2.5c0-0.9-0.8-1.7-1.7-1.7l0,0h-4.9
				c-0.9,0-1.7,0.8-1.7,1.7l0,0v2.5h-8.3v-2.5H610.5z M668.3,164.9v20.3H660v-20.3H668.3z M651.7,164.9v20.3h-8.3v-20.3H651.7z
				 M635.1,164.9v20.3H627v-20.3H635.1z M618.8,164.9v20.3h-8.3v-20.3H618.8z"/>
		</g>
		<g>
			<title>publictransp_icons</title>
			<path class="st8" d="M693,152.8c0-0.9-0.8-1.7-1.7-1.7l0,0h-4.9c-0.9,0-1.7,0.8-1.7,1.7l0,0v2.5h-4v9.6h4v20.3h-4v9.6h4v2.5
				c0,0.9,0.8,1.7,1.7,1.7l0,0h4.9c0.9,0,1.7-0.8,1.7-1.7l0,0v-2.5h8.3v2.5c0,0.9,0.8,1.7,1.7,1.7l0,0h4.9c0.9,0,1.7-0.8,1.7-1.7
				v-2.5h8.1v2.5c0,0.9,0.8,1.7,1.7,1.7h4.9c0.9,0,1.7-0.8,1.7-1.7v-2.5h8.3v2.5c0,0.9,0.8,1.7,1.7,1.7h4.9c0.9,0,1.7-0.8,1.7-1.7
				l0,0v-2.5h8.3v2.5c0,0.9,0.8,1.7,1.7,1.7h4.9c0.9,0,1.7-0.8,1.7-1.7l0,0v-2.5h4.1v-9.6h-4.1v-20.3h4.1v-9.6h-4.1v-2.5
				c0-0.9-0.8-1.7-1.7-1.7l0,0h-4.9c-0.9,0-1.7,0.8-1.7,1.7l0,0v2.5h-8.3v-2.5c0-0.9-0.8-1.7-1.7-1.7l0,0H736
				c-0.9,0-1.7,0.8-1.7,1.7l0,0v2.5H726v-2.5c0-0.9-0.8-1.7-1.7-1.7h-4.9c-0.9,0-1.7,0.8-1.7,1.7l0,0v2.5h-8.1v-2.5
				c0-0.9-0.8-1.7-1.7-1.7l0,0H703c-0.9,0-1.7,0.8-1.7,1.7l0,0v2.5H693V152.8z M750.8,164.9v20.3h-8.3v-20.3H750.8z M734.2,164.9
				v20.3h-8.3v-20.3H734.2z M717.6,164.9v20.3h-8.1v-20.3H717.6z M701.2,164.9v20.3H693v-20.3H701.2z"/>
		</g>
	</g>
	<g>
		<title>publictransp_icons</title>
		<path class="st9" d="M26.7,291.1c-0.9,0-1.7,0.8-1.7,1.7v2.5h-4v9.6h4v20.3h-4v9.6h4v2.5c0,0.9,0.8,1.7,1.7,1.7h2.7
			c0-15.8,0-32.2,0-48L26.7,291.1L26.7,291.1z"/>
	</g>
	<g>
		<g>
			<path class="st8" d="M135.4,435.9h101.3v-40.7H135.4V435.9z M228.2,413.7v3.7h-11v-3.7H228.2z M203.7,413.7v3.7h-11v-3.7H203.7z
				 M179.3,413.7v3.7h-11v-3.7H179.3z M154.9,413.7v3.7h-11v-3.7H154.9z"/>
		</g>
		<g>
			<path class="st8" d="M236.7,435.9H338v-40.7H236.7V435.9z M329.5,413.7v3.7h-11v-3.7H329.5z M305.1,413.7v3.7h-11v-3.7H305.1z
				 M280.7,413.7v3.7h-11v-3.7H280.7z M256.2,413.7v3.7h-11v-3.7H256.2z"/>
		</g>
		<g>
			<path class="st8" d="M338,435.9h101.3v-40.7H338V435.9z M430.8,413.7v3.7h-11v-3.7H430.8z M406.4,413.7v3.7h-11v-3.7H406.4z
				 M382,413.7v3.7h-11v-3.7H382z M357.6,413.7v3.7h-11v-3.7H357.6z"/>
		</g>
		<g>
			<path class="st8" d="M439.4,435.9h101.3v-40.7H439.4V435.9z M532.1,413.7v3.7h-11v-3.7H532.1z M507.7,413.7v3.7h-11v-3.7H507.7z
				 M483.3,413.7v3.7h-11v-3.7H483.3z M458.9,413.7v3.7h-11v-3.7H458.9z"/>
		</g>
		<g>
			<path class="st8" d="M540.7,435.9H642v-40.7H540.7V435.9z M633.5,413.7v3.7h-11v-3.7H633.5z M609,413.7v3.7h-11v-3.7H609z
				 M584.6,413.7v3.7h-11v-3.7H584.6z M560.2,413.7v3.7h-11v-3.7H560.2z"/>
		</g>
	</g>
	<g>
		<path class="st9" d="M189,534.6h-53.6v40.7H189c0-13.1,0-27,0-40C189,535,189,534.8,189,534.6z M154.9,556.7h-11V553h11V556.7z
			 M179.3,556.7h-11V553h11V556.7z"/>
	</g>
	<g>
		<path class="st4" d="M135.4,505.6h101.3v-40.7H135.4V505.6z M228.2,483.4v3.7h-11v-3.7H228.2z M203.7,483.4v3.7h-11v-3.7H203.7z
			 M179.3,483.4v3.7h-11v-3.7H179.3z M154.9,483.4v3.7h-11v-3.7H154.9z"/>
	</g>
	<g>
		<path class="st10" d="M633.6,375.8l-11.3,0.5l-12-12.8c-0.4-0.4-0.9-0.6-1.4-0.6H605c-1.2,0-2.1,1.2-1.9,2.4l2.9,11.8l-11.1,0.5
			l-6.4-8c-0.2-0.2-0.5-0.4-0.7-0.4H585c-0.6,0-1.1,0.6-1,1.2l3.7,15.3c0.2,0.9,1,1.5,1.9,1.5H639c2.9,0,4.9-3.1,3.7-5.7
			C641.2,378,637.6,375.7,633.6,375.8z"/>
	</g>
	<g>
		<path class="st10" d="M591,108.8h19.1c0.6,0,1.1,0.5,1.1,1.1v7h3.6v-2.3c0-0.6,0.5-1.1,1.1-1.1h5.5c0.6,0,1.1,0.5,1.1,1.1v2.3h8.9
			v-6.5c0-0.1-0.1-0.2-0.2-0.2c-0.8,0-1.5-0.6-1.5-1.5c0-0.8,0.6-1.5,1.5-1.5h0.6h4.9h0.6c0.8,0,1.5,0.6,1.5,1.5s-0.6,1.5-1.5,1.5
			c-0.1,0-0.2,0.1-0.2,0.2v6.6c4.7,0.7,8.4,4.9,8.4,9.9l0,0c0,2.7-1.1,5.2-3,7l1.9,1.9c0.4,0.4,0.1,0.9-0.4,0.9h-5.7
			c-0.8-0.6-1.9-1.1-3-1.1s-2.2,0.5-3,1.1c-0.4,0.4-0.6,0.7-0.9,1.2c-0.2-0.5-0.6-0.8-0.9-1.2c-0.8-0.6-1.9-1.1-3-1.1
			s-2.2,0.5-3,1.1c-0.4,0.4-0.6,0.7-0.9,1.2c-0.2-0.5-0.6-0.8-0.9-1.2c-0.8-0.6-1.9-1.1-3-1.1s-2.2,0.5-3,1.1h-2.1
			c-0.6-3.1-3.2-5.6-6.6-5.6c-3.1,0-5.6,1.9-6.4,4.7c-0.8-2.7-3.3-4.7-6.4-4.7c-2.3,0-4.3,1.2-5.6,3v-24.4
			C589.9,109.2,590.4,108.7,591,108.8z M632.1,140.1c0,1.9,1.5,3.3,3.3,3.3c1.9,0,3.3-1.5,3.3-3.3c0-1.9-1.5-3.3-3.3-3.3
			S632.1,138.3,632.1,140.1z M624.3,140.1c0,1.9,1.5,3.3,3.3,3.3c1.9,0,3.3-1.5,3.3-3.3c0-1.9-1.5-3.3-3.3-3.3
			S624.3,138.3,624.3,140.1z M616.5,140.1c0,1.9,1.5,3.3,3.3,3.3c1.9,0,3.3-1.5,3.3-3.3c0-1.9-1.5-3.3-3.3-3.3
			S616.5,138.3,616.5,140.1z M602.7,137.9c0,3.1,2.5,5.6,5.6,5.6s5.6-2.5,5.6-5.6s-2.5-5.6-5.6-5.6
			C605.2,132.3,602.7,134.8,602.7,137.9z M589.9,137.9c0,3.1,2.5,5.6,5.6,5.6s5.6-2.5,5.6-5.6s-2.5-5.6-5.6-5.6
			C592.4,132.3,589.9,134.8,589.9,137.9z M635.4,102.3c0-1.2-0.7-2.3-1.8-2.8c0.5-0.7,0.7-1.6,0.7-2.5c0-2.5-2-4.5-4.5-4.5
			c0-2.5-2-4.5-4.5-4.5c-1.8,0-3.2,0.9-4.1,2.5c-0.7-1.5-2.2-2.4-4-2.4c-2.5,0-4.5,2-4.5,4.5c0,1.7,0.8,3.1,2.1,3.9
			c-0.1,0.2-0.1,0.4-0.1,0.6c0,2.3,1.8,4.3,4,4.5c0.4,2.1,2.3,3.8,4.5,3.8c1.4,0,2.7-0.6,3.5-1.6c0.5,0.2,0.9,0.3,1.5,0.3
			s1-0.1,1.5-0.3c0.6,0.9,1.5,1.6,2.7,1.6C634.1,105.4,635.5,104,635.4,102.3z"/>
	</g>
	<rect x="377.5" y="45.6" class="st0" width="76.8" height="17.5"/>
	<text transform="matrix(1 0 0 1 377.5204 58.9366)" class="st2 st11">Railways</text>
	<rect x="377.5" y="339.2" class="st0" width="76.8" height="17.5"/>
	<text transform="matrix(1 0 0 1 377.5204 352.4752)" class="st2 st11">Airports</text>
</g>
</svg>
