<?xml version="1.0" encoding="utf-8"?>
<!-- Generator: Adobe Illustrator 21.1.0, SVG Export Plug-In . SVG Version: 6.00 Build 0)  -->
<svg version="1.1" id="Layer_1" xmlns="http://www.w3.org/2000/svg" xmlns:xlink="http://www.w3.org/1999/xlink" x="0px" y="0px"
	 viewBox="0 0 792 612" style="enable-background:new 0 0 792 612;" xml:space="preserve">
<style type="text/css">
	@import url('https://fonts.googleapis.com/css?family=Lato:300,400');
	.st0{fill:none;}
	.st1{font-family:'Lato', sans-serif;}
	.st2{font-size:15px;}
	.st3{fill:#59818E;}
	.st4{font-size:13.304px;}
	.st5{fill:#EF7B7C;}
	.st6{font-size:10.5px;}
	.st7{fill:#90D3EE;}
	.st8{font-size:17.5px;}
	.st9{font-size:12.5px;}
	.st10{opacity:0.5;fill:#EF7B7C;}
	.st11{opacity:0.5;fill:#90D3EE;}
	.st12{font-size:14px;}
	.st13{font-size:10.3435px;}
	.st14{font-size:10px;}
	.st15{fill:#010202;}
	.st16{fill:#DFDFDF;}
	.st17{fill:#9F9F9F;stroke:#FFFFFF;stroke-width:2;stroke-miterlimit:10;}
	.st18{font-family:'Lato';}
</style>
<rect x="451.5" y="152.3" class="st0" width="310.4" height="129.1"/>
<text transform="matrix(1 0 0 1 451.4797 163.3804)"><tspan x="0" y="0" class="st1 st2">Colombia is comprised of 48.65 million people. </tspan><tspan x="0" y="18" class="st1 st2">It has the second largest population in Latin </tspan><tspan x="0" y="36" class="st1 st2">America. Although it is heavily urbanized, it still </tspan><tspan x="0" y="54" class="st1 st2">has a relatively low population density, when </tspan><tspan x="0" y="72" class="st1 st2">compared to a small, heavily populated country </tspan><tspan x="0" y="90" class="st1 st2">like Bangladesh.</tspan></text>
<rect x="597.3" y="530.4" class="st0" width="69.7" height="15.3"/>
<text transform="matrix(1 0 0 1 597.2773 540.226)" class="st3 st1 st4">Bangladesh</text>
<rect x="461.8" y="530.4" class="st0" width="72" height="15.3"/>
<text transform="matrix(1 0 0 1 461.8096 540.2262)" class="st5 st1 st4">Colombia</text>
<g>
	<g>
		<line class="st0" x1="32.3" y1="293.7" x2="427.1" y2="293.7"/>
		<g>
			<g>
				<line class="st0" x1="32.3" y1="293.7" x2="32.3" y2="288.4"/>
				<line class="st0" x1="98.1" y1="293.7" x2="98.1" y2="288.4"/>
				<line class="st0" x1="163.9" y1="293.7" x2="163.9" y2="288.4"/>
				<line class="st0" x1="229.7" y1="293.7" x2="229.7" y2="288.4"/>
				<line class="st0" x1="295.5" y1="293.7" x2="295.5" y2="288.4"/>
				<line class="st0" x1="361.3" y1="293.7" x2="361.3" y2="288.4"/>
				<line class="st0" x1="427.1" y1="293.7" x2="427.1" y2="288.4"/>
			</g>
			<g>
			</g>
		</g>
	</g>
	<g>
		<g>
			<text transform="matrix(1 0 0 1 20.0137 300.6699)" class="st0 st1 st6">0</text>
			<text transform="matrix(1 0 0 1 13.9238 258.335)" class="st0 st1 st6">50</text>
			<text transform="matrix(1 0 0 1 7.834 216)" class="st0 st1 st6">100</text>
			<text transform="matrix(1 0 0 1 7.834 173.665)" class="st0 st1 st6">150</text>
			<text transform="matrix(1 0 0 1 7.834 131.3291)" class="st0 st1 st6">200</text>
			<text transform="matrix(1 0 0 1 7.834 88.9941)" class="st0 st1 st6">250</text>
		</g>
		<line class="st0" x1="32.3" y1="293.7" x2="32.3" y2="82.1"/>
		<g>
			<g>
				<line class="st0" x1="32.3" y1="293.7" x2="42.1" y2="293.7"/>
				<line class="st0" x1="32.3" y1="251.4" x2="42.1" y2="251.4"/>
				<line class="st0" x1="32.3" y1="209.1" x2="42.1" y2="209.1"/>
				<line class="st0" x1="32.3" y1="166.7" x2="42.1" y2="166.7"/>
				<line class="st0" x1="32.3" y1="124.4" x2="42.1" y2="124.4"/>
				<line class="st0" x1="32.3" y1="82.1" x2="42.1" y2="82.1"/>
			</g>
			<g>
			</g>
		</g>
	</g>
	<g>
		<g>
			<g>
				<rect x="41.5" y="117.9" class="st7" width="47.4" height="175.8"/>
				<rect x="107.3" y="252.5" class="st5" width="47.4" height="41.2"/>
				<rect x="173.1" y="266.8" class="st7" width="47.4" height="26.9"/>
				<rect x="238.9" y="267" class="st7" width="47.4" height="26.7"/>
				<rect x="304.7" y="279.9" class="st7" width="47.4" height="13.9"/>
				<rect x="370.5" y="290.3" class="st7" width="47.4" height="3.4"/>
			</g>
		</g>
	</g>
	<g>
		<g>
		</g>
	</g>
	<g>
		<text transform="matrix(1 0 0 1 375.104 310.918)" class="st3 st1 st6">Ecuador</text>
		<text transform="matrix(1 0 0 1 310.0684 310.918)"><tspan x="0" y="0" class="st3 st1 st6">P</tspan><tspan x="6.2" y="0" class="st3 st1 st6">anama</tspan></text>
		<text transform="matrix(1 0 0 1 238.7749 310.918)"><tspan x="0" y="0" class="st3 st1 st6">V</tspan><tspan x="6.5" y="0" class="st3 st1 st6">enezuela</tspan></text>
		<text transform="matrix(1 0 0 1 185.8511 310.918)"><tspan x="0" y="0" class="st3 st1 st6">P</tspan><tspan x="6.3" y="0" class="st3 st1 st6">eru</tspan></text>
		<text transform="matrix(1 0 0 1 108.939 310.918)" class="st5 st1 st6">Colombia</text>
		<text transform="matrix(1 0 0 1 51.9829 310.918)"><tspan x="0" y="0" class="st3 st1 st6">B</tspan><tspan x="6.8" y="0" class="st3 st1 st6">r</tspan><tspan x="10.8" y="0" class="st3 st1 st6">azil</tspan></text>
	</g>
</g>
<rect x="102.2" y="52.7" class="st0" width="243.7" height="14.8"/>
<text transform="matrix(1 0 0 1 102.1904 65.5747)" class="st1 st8">Nearby Country Population</text>
<rect x="176.6" y="72.3" class="st0" width="57.7" height="17.5"/>
<text transform="matrix(1 0 0 1 176.584 81.4868)" class="st1 st9">Millions</text>
<rect x="436.9" y="413.1" class="st10" width="112.5" height="112.5"/>
<rect x="572.8" y="413.1" class="st11" width="112.5" height="112.5"/>
<rect x="533.8" y="364.2" class="st0" width="60.8" height="19"/>
<text transform="matrix(1 0 0 1 533.7793 377.1242)" class="st1 st8">Density</text>
<rect x="105.5" y="385.2" class="st0" width="34.9" height="13.4"/>
<text transform="matrix(1 0 0 1 105.4512 395.4905)" class="st1 st12">Rural</text>
<rect x="445.8" y="401" class="st0" width="94.7" height="10.2"/>
<text transform="matrix(1 0 0 1 445.8047 408.6212)" class="st1 st13">44 people per sq km</text>
<rect x="108.7" y="399.6" class="st0" width="30.4" height="10.2"/>
<text transform="matrix(1 0 0 1 108.688 406.9504)" class="st1 st14">23.6%</text>
<rect x="274.5" y="464.2" class="st0" width="42.5" height="13.4"/>
<text transform="matrix(1 0 0 1 274.4707 474.5094)" class="st1 st12">Urban</text>
<rect x="277.7" y="478.6" class="st0" width="30.4" height="10.2"/>
<text transform="matrix(1 0 0 1 277.707 485.9688)" class="st1 st14">76.4%</text>
<rect x="577.2" y="401" class="st0" width="106.1" height="10.2"/>
<text transform="matrix(1 0 0 1 577.1885 408.6212)" class="st1 st13">1,252 people per sq km  </text>
<g>
	<circle class="st15" cx="451.2" cy="421.9" r="2.8"/>
	<circle class="st15" cx="460.2" cy="421.9" r="2.8"/>

		<ellipse transform="matrix(0.7071 -0.7071 0.7071 0.7071 -160.8515 455.4223)" class="st15" cx="469.3" cy="421.9" rx="2.8" ry="2.8"/>

		<ellipse transform="matrix(0.7071 -0.7071 0.7071 0.7071 -158.16 461.9201)" class="st15" cx="478.5" cy="421.9" rx="2.8" ry="2.8"/>
</g>
<g>
	<circle class="st15" cx="589.9" cy="424.6" r="2.8"/>
	<circle class="st15" cx="598.8" cy="424.6" r="2.8"/>

		<ellipse transform="matrix(0.7071 -0.7071 0.7071 0.7071 -122.1773 554.2941)" class="st15" cx="608" cy="424.6" rx="2.8" ry="2.8"/>

		<ellipse transform="matrix(0.7071 -0.7071 0.7071 0.7071 -119.4858 560.7919)" class="st15" cx="617.2" cy="424.6" rx="2.8" ry="2.8"/>

		<ellipse transform="matrix(0.7071 -0.7071 0.7071 0.7071 -116.7603 567.3718)" class="st15" cx="626.5" cy="424.6" rx="2.8" ry="2.8"/>
	<circle class="st15" cx="589.9" cy="514" r="2.8"/>
	<circle class="st15" cx="598.8" cy="514" r="2.8"/>
	<ellipse transform="matrix(0.7071 -0.7071 0.7071 0.7071 -185.3589 580.4648)" class="st15" cx="608" cy="514" rx="2.8" ry="2.8"/>

		<ellipse transform="matrix(0.7071 -0.7071 0.7071 0.7071 -182.6674 586.9626)" class="st15" cx="617.2" cy="514" rx="2.8" ry="2.8"/>

		<ellipse transform="matrix(0.7071 -0.7071 0.7071 0.7071 -179.9419 593.5425)" class="st15" cx="626.5" cy="514" rx="2.8" ry="2.8"/>
	<circle class="st15" cx="634.9" cy="424.6" r="2.8"/>
	<circle class="st15" cx="643" cy="424.6" r="2.8"/>
	<circle class="st15" cx="651.1" cy="424.6" r="2.8"/>
	<circle class="st15" cx="659.5" cy="424.6" r="2.8"/>
	<circle class="st15" cx="668.2" cy="424.6" r="2.8"/>
	<circle class="st15" cx="589.9" cy="433.8" r="2.8"/>
	<circle class="st15" cx="598.8" cy="433.8" r="2.8"/>

		<ellipse transform="matrix(0.7071 -0.7071 0.7071 0.7071 -128.6747 556.9854)" class="st15" cx="608" cy="433.8" rx="2.8" ry="2.8"/>

		<ellipse transform="matrix(0.7071 -0.7071 0.7071 0.7071 -125.9832 563.4832)" class="st15" cx="617.2" cy="433.8" rx="2.8" ry="2.8"/>

		<ellipse transform="matrix(0.7071 -0.7071 0.7071 0.7071 -123.2578 570.0631)" class="st15" cx="626.5" cy="433.8" rx="2.8" ry="2.8"/>
	<circle class="st15" cx="634.9" cy="433.8" r="2.8"/>
	<circle class="st15" cx="643" cy="433.8" r="2.8"/>
	<circle class="st15" cx="651.1" cy="433.8" r="2.8"/>
	<circle class="st15" cx="659.5" cy="433.8" r="2.8"/>
	<circle class="st15" cx="668.2" cy="433.8" r="2.8"/>
	<circle class="st15" cx="589.9" cy="443" r="2.8"/>
	<circle class="st15" cx="598.8" cy="443" r="2.8"/>
	<ellipse transform="matrix(0.7071 -0.7071 0.7071 0.7071 -135.1721 559.6768)" class="st15" cx="608" cy="443" rx="2.8" ry="2.8"/>

		<ellipse transform="matrix(0.7071 -0.7071 0.7071 0.7071 -132.4807 566.1746)" class="st15" cx="617.2" cy="443" rx="2.8" ry="2.8"/>

		<ellipse transform="matrix(0.7071 -0.7071 0.7071 0.7071 -129.7552 572.7545)" class="st15" cx="626.5" cy="443" rx="2.8" ry="2.8"/>
	<circle class="st15" cx="634.9" cy="443" r="2.8"/>
	<circle class="st15" cx="643" cy="443" r="2.8"/>
	<circle class="st15" cx="651.1" cy="443" r="2.8"/>
	<circle class="st15" cx="659.5" cy="443" r="2.8"/>
	<circle class="st15" cx="668.2" cy="443" r="2.8"/>
	<circle class="st15" cx="589.9" cy="452.2" r="2.8"/>
	<circle class="st15" cx="598.8" cy="452.2" r="2.8"/>

		<ellipse transform="matrix(0.7071 -0.7071 0.7071 0.7071 -141.6696 562.3681)" class="st15" cx="608" cy="452.2" rx="2.8" ry="2.8"/>

		<ellipse transform="matrix(0.7071 -0.7071 0.7071 0.7071 -138.9781 568.8659)" class="st15" cx="617.2" cy="452.2" rx="2.8" ry="2.8"/>

		<ellipse transform="matrix(0.7071 -0.7071 0.7071 0.7071 -136.2526 575.4458)" class="st15" cx="626.5" cy="452.2" rx="2.8" ry="2.8"/>
	<circle class="st15" cx="634.9" cy="452.2" r="2.8"/>
	<circle class="st15" cx="643" cy="452.2" r="2.8"/>
	<circle class="st15" cx="651.1" cy="452.2" r="2.8"/>
	<circle class="st15" cx="659.5" cy="452.2" r="2.8"/>
	<circle class="st15" cx="668.2" cy="452.2" r="2.8"/>
	<circle class="st15" cx="589.9" cy="460.4" r="2.8"/>
	<circle class="st15" cx="598.8" cy="460.4" r="2.8"/>

		<ellipse transform="matrix(0.7071 -0.7071 0.7071 0.7071 -147.4573 564.7654)" class="st15" cx="608" cy="460.4" rx="2.8" ry="2.8"/>

		<ellipse transform="matrix(0.7071 -0.7071 0.7071 0.7071 -144.7658 571.2632)" class="st15" cx="617.2" cy="460.4" rx="2.8" ry="2.8"/>

		<ellipse transform="matrix(0.7071 -0.7071 0.7071 0.7071 -142.0403 577.8431)" class="st15" cx="626.5" cy="460.4" rx="2.8" ry="2.8"/>
	<circle class="st15" cx="634.9" cy="460.4" r="2.8"/>
	<circle class="st15" cx="643" cy="460.4" r="2.8"/>
	<circle class="st15" cx="651.1" cy="460.4" r="2.8"/>
	<circle class="st15" cx="659.5" cy="460.4" r="2.8"/>
	<circle class="st15" cx="668.2" cy="460.4" r="2.8"/>
	<circle class="st15" cx="589.9" cy="470" r="2.8"/>
	<circle class="st15" cx="598.8" cy="470" r="2.8"/>
	<ellipse transform="matrix(0.7071 -0.7071 0.7071 0.7071 -154.2882 567.5949)" class="st15" cx="608" cy="470" rx="2.8" ry="2.8"/>

		<ellipse transform="matrix(0.7071 -0.7071 0.7071 0.7071 -151.5967 574.0927)" class="st15" cx="617.2" cy="470" rx="2.8" ry="2.8"/>

		<ellipse transform="matrix(0.7071 -0.7071 0.7071 0.7071 -148.8713 580.6726)" class="st15" cx="626.5" cy="470" rx="2.8" ry="2.8"/>
	<circle class="st15" cx="634.9" cy="470" r="2.8"/>
	<circle class="st15" cx="643" cy="470" r="2.8"/>
	<circle class="st15" cx="651.1" cy="470" r="2.8"/>
	<circle class="st15" cx="659.5" cy="470" r="2.8"/>
	<circle class="st15" cx="668.2" cy="470" r="2.8"/>
	<circle class="st15" cx="589.9" cy="479.2" r="2.8"/>
	<circle class="st15" cx="598.8" cy="479.2" r="2.8"/>

		<ellipse transform="matrix(0.7071 -0.7071 0.7071 0.7071 -160.7856 570.2862)" class="st15" cx="608" cy="479.2" rx="2.8" ry="2.8"/>

		<ellipse transform="matrix(0.7071 -0.7071 0.7071 0.7071 -158.0942 576.784)" class="st15" cx="617.2" cy="479.2" rx="2.8" ry="2.8"/>

		<ellipse transform="matrix(0.7071 -0.7071 0.7071 0.7071 -155.3687 583.3639)" class="st15" cx="626.5" cy="479.2" rx="2.8" ry="2.8"/>
	<circle class="st15" cx="634.9" cy="479.2" r="2.8"/>
	<circle class="st15" cx="643" cy="479.2" r="2.8"/>
	<circle class="st15" cx="651.1" cy="479.2" r="2.8"/>
	<circle class="st15" cx="659.5" cy="479.2" r="2.8"/>
	<circle class="st15" cx="668.2" cy="479.2" r="2.8"/>
	<circle class="st15" cx="589.9" cy="488.4" r="2.8"/>
	<circle class="st15" cx="598.8" cy="488.4" r="2.8"/>

		<ellipse transform="matrix(0.7071 -0.7071 0.7071 0.7071 -167.2831 572.9775)" class="st15" cx="608" cy="488.4" rx="2.8" ry="2.8"/>

		<ellipse transform="matrix(0.7071 -0.7071 0.7071 0.7071 -164.5916 579.4753)" class="st15" cx="617.2" cy="488.4" rx="2.8" ry="2.8"/>

		<ellipse transform="matrix(0.7071 -0.7071 0.7071 0.7071 -161.8661 586.0552)" class="st15" cx="626.5" cy="488.4" rx="2.8" ry="2.8"/>
	<circle class="st15" cx="634.9" cy="488.4" r="2.8"/>
	<circle class="st15" cx="643" cy="488.4" r="2.8"/>
	<circle class="st15" cx="651.1" cy="488.4" r="2.8"/>
	<circle class="st15" cx="659.5" cy="488.4" r="2.8"/>
	<circle class="st15" cx="668.2" cy="488.4" r="2.8"/>
	<circle class="st15" cx="589.9" cy="497.6" r="2.8"/>
	<circle class="st15" cx="598.8" cy="497.6" r="2.8"/>

		<ellipse transform="matrix(0.7071 -0.7071 0.7071 0.7071 -173.7805 575.6688)" class="st15" cx="608" cy="497.6" rx="2.8" ry="2.8"/>

		<ellipse transform="matrix(0.7071 -0.7071 0.7071 0.7071 -171.089 582.1666)" class="st15" cx="617.2" cy="497.6" rx="2.8" ry="2.8"/>

		<ellipse transform="matrix(0.7071 -0.7071 0.7071 0.7071 -168.3635 588.7466)" class="st15" cx="626.5" cy="497.6" rx="2.8" ry="2.8"/>
	<circle class="st15" cx="634.9" cy="497.6" r="2.8"/>
	<circle class="st15" cx="643" cy="497.6" r="2.8"/>
	<circle class="st15" cx="651.1" cy="497.6" r="2.8"/>
	<circle class="st15" cx="659.5" cy="497.6" r="2.8"/>
	<circle class="st15" cx="668.2" cy="497.6" r="2.8"/>
	<circle class="st15" cx="589.9" cy="505.8" r="2.8"/>
	<circle class="st15" cx="598.8" cy="505.8" r="2.8"/>

		<ellipse transform="matrix(0.7071 -0.7071 0.7071 0.7071 -179.5682 578.0662)" class="st15" cx="608" cy="505.8" rx="2.8" ry="2.8"/>

		<ellipse transform="matrix(0.7071 -0.7071 0.7071 0.7071 -176.8767 584.564)" class="st15" cx="617.2" cy="505.8" rx="2.8" ry="2.8"/>

		<ellipse transform="matrix(0.7071 -0.7071 0.7071 0.7071 -174.1512 591.1439)" class="st15" cx="626.5" cy="505.8" rx="2.8" ry="2.8"/>
	<circle class="st15" cx="634.9" cy="505.8" r="2.8"/>
	<circle class="st15" cx="643" cy="505.8" r="2.8"/>
	<circle class="st15" cx="651.1" cy="505.8" r="2.8"/>
	<circle class="st15" cx="659.5" cy="505.8" r="2.8"/>
	<circle class="st15" cx="668.2" cy="505.8" r="2.8"/>
</g>
<g>
	<g>
		<g>
			<g>
				<path class="st16" d="M194.6,465.8l-72.9-6.4c3.3-38,34.8-66.8,72.9-66.8V465.8z"/>
			</g>
		</g>
		<g>
			<g>
				<path class="st17" d="M194.6,465.8v-73.2c40.4,0,73.2,32.8,73.2,73.2S235,539,194.6,539s-73.2-32.8-73.2-73.2
					c0-2.3,0.1-4.1,0.3-6.4L194.6,465.8z"/>
			</g>
		</g>
	</g>
	<g>
		<g>
		</g>
		<g>
		</g>
	</g>
</g>
<rect x="49.3" y="103.3" class="st0" width="32.9" height="10.3"/>
<text transform="matrix(1 0 0 1 49.3247 110.7085)" class="st3 st18 st14">207.65</text>
<rect x="118.2" y="240.1" class="st0" width="32.9" height="10.3"/>
<text transform="matrix(1 0 0 1 118.2422 247.5551)" class="st5 st18 st14">48.65</text>
<rect x="183.6" y="252.5" class="st0" width="32.9" height="10.3"/>
<text transform="matrix(1 0 0 1 183.584 259.9026)" class="st3 st18 st14">31.77</text>
<rect x="249.4" y="252.5" class="st0" width="32.9" height="10.3"/>
<text transform="matrix(1 0 0 1 249.4019 259.9026)" class="st3 st18 st14">31.57</text>
<rect x="313.2" y="266" class="st0" width="32.9" height="10.3"/>
<text transform="matrix(1 0 0 1 313.1909 273.424)" class="st3 st18 st14">16.39</text>
<rect x="382.8" y="276.2" class="st0" width="20.9" height="10.3"/>
<text transform="matrix(1 0 0 1 382.8086 283.6501)" class="st3 st18 st14">4.03</text>
</svg>
