<?xml version="1.0" encoding="utf-8"?>
<!-- Generator: Adobe Illustrator 21.1.0, SVG Export Plug-In . SVG Version: 6.00 Build 0)  -->
<svg version="1.1" id="Layer_1" xmlns="http://www.w3.org/2000/svg" xmlns:xlink="http://www.w3.org/1999/xlink" x="0px" y="0px"
	 viewBox="0 0 792 612" style="enable-background:new 0 0 792 612;" xml:space="preserve">
<style type="text/css">
	@import url('https://fonts.googleapis.com/css?family=Lato:300,400');
	.st0{fill:none;}
	.st1{font-family:'Lato', sans-serif;}
	.st2{font-size:15px;}
	.st3{fill:#FFFFFF;}
	.st4{fill:none;stroke:#BFBEBF;stroke-linejoin:round;stroke-miterlimit:10;stroke-dasharray:4,3;}
	.st5{font-size:11.0704px;}
	.st6{fill:#020203;}
	.st7{font-size:9.857px;}
	.st8{font-size:14px;}
	.st9{font-size:12px;}
	.st10{clip-path:url(#SVGID_34_);fill:#90D3EE;}
	.st11{clip-path:url(#SVGID_34_);fill:#90D3EE;stroke:#020203;stroke-width:0.5;stroke-miterlimit:10;}
	.st12{clip-path:url(#SVGID_34_);fill:#F4E600;}
	.st13{clip-path:url(#SVGID_34_);fill:none;stroke:#020203;stroke-width:0.5;stroke-linejoin:round;stroke-miterlimit:10;}
	.st14{fill:#EF7B7C;stroke:#020203;stroke-width:0.5;stroke-miterlimit:10;}
	.st15{fill:none;stroke:#020203;stroke-linejoin:round;stroke-miterlimit:10;}
	.st16{font-size:13.7998px;}
	.st17{font-size:15.4px;}
	.st18{font-size:11px;}
	.st19{font-size:11.583px;}
	.st20{fill:#EF7B7C;stroke:#EF7B7C;stroke-width:2;stroke-linecap:round;stroke-miterlimit:10;}
	.st21{fill-rule:evenodd;clip-rule:evenodd;fill:#90D3EE;}
	.st22{fill:#90D3EE;}
	.st23{fill:#010202;}
	.st24{font-size:13.068px;}
	.st25{fill:#59818E;}
	.st26{font-size:10.692px;}
</style>
<rect x="527.9" y="61.9" class="st0" width="254.1" height="151.4"/>
<text transform="matrix(1 0 0 1 527.9113 72.9844)"><tspan x="0" y="0" class="st1 st2">Colombia, like most Latin American </tspan><tspan x="0" y="18" class="st1 st2">countries, skews young. It experienced </tspan><tspan x="0" y="36" class="st1 st2">rapid population growth in the past 50 </tspan><tspan x="0" y="54" class="st1 st2">years, even as violent conflict caused </tspan><tspan x="0" y="72" class="st1 st2">millions to emigrate. Recently, </tspan><tspan x="0" y="90" class="st1 st2">increased living standards in urban </tspan><tspan x="0" y="108" class="st1 st2">areas have lead to further growth.</tspan></text>
<path class="st3" d="M376.6,27.1c-0.2,0-0.4,0.1-0.6,0.1C376.2,27.2,376.4,27.1,376.6,27.1z"/>
<path class="st4" d="M513.5,23.8"/>
<g>
	<defs>
		<line id="SVGID_1_" x1="295.3" y1="52.6" x2="295.3" y2="36.8"/>
	</defs>
	<clipPath id="SVGID_2_">
		<use xlink:href="#SVGID_1_"  style="overflow:visible;"/>
	</clipPath>
</g>
<g>
	<defs>
		<line id="SVGID_3_" x1="295.3" y1="52.6" x2="295.3" y2="36.8"/>
	</defs>
	<clipPath id="SVGID_4_">
		<use xlink:href="#SVGID_3_"  style="overflow:visible;"/>
	</clipPath>
</g>
<g>
	<defs>
		<line id="SVGID_5_" x1="295.3" y1="52.6" x2="295.3" y2="36.8"/>
	</defs>
	<clipPath id="SVGID_6_">
		<use xlink:href="#SVGID_5_"  style="overflow:visible;"/>
	</clipPath>
</g>
<g>
	<defs>
		<line id="SVGID_7_" x1="350.5" y1="23.8" x2="350.5" y2="8"/>
	</defs>
	<clipPath id="SVGID_8_">
		<use xlink:href="#SVGID_7_"  style="overflow:visible;"/>
	</clipPath>
</g>
<g>
	<defs>
		<line id="SVGID_9_" x1="328.3" y1="38.2" x2="328.3" y2="22.4"/>
	</defs>
	<clipPath id="SVGID_10_">
		<use xlink:href="#SVGID_9_"  style="overflow:visible;"/>
	</clipPath>
</g>
<g>
	<defs>
		<line id="SVGID_11_" x1="328.3" y1="38.2" x2="328.3" y2="22.4"/>
	</defs>
	<clipPath id="SVGID_12_">
		<use xlink:href="#SVGID_11_"  style="overflow:visible;"/>
	</clipPath>
</g>
<g>
	<defs>
		<line id="SVGID_13_" x1="328.3" y1="38.2" x2="328.3" y2="22.4"/>
	</defs>
	<clipPath id="SVGID_14_">
		<use xlink:href="#SVGID_13_"  style="overflow:visible;"/>
	</clipPath>
</g>
<g>
	<defs>
		<line id="SVGID_15_" x1="328.3" y1="38.2" x2="328.3" y2="22.4"/>
	</defs>
	<clipPath id="SVGID_16_">
		<use xlink:href="#SVGID_15_"  style="overflow:visible;"/>
	</clipPath>
</g>
<g>
	<defs>
		<line id="SVGID_17_" x1="328.3" y1="23.8" x2="328.3" y2="8"/>
	</defs>
	<clipPath id="SVGID_18_">
		<use xlink:href="#SVGID_17_"  style="overflow:visible;"/>
	</clipPath>
</g>
<g>
	<defs>
		<line id="SVGID_19_" x1="328.3" y1="23.8" x2="328.3" y2="8"/>
	</defs>
	<clipPath id="SVGID_20_">
		<use xlink:href="#SVGID_19_"  style="overflow:visible;"/>
	</clipPath>
</g>
<g>
	<defs>
		<line id="SVGID_21_" x1="328.3" y1="23.8" x2="328.3" y2="8"/>
	</defs>
	<clipPath id="SVGID_22_">
		<use xlink:href="#SVGID_21_"  style="overflow:visible;"/>
	</clipPath>
</g>
<g>
	<defs>
		<line id="SVGID_23_" x1="328.3" y1="23.8" x2="328.3" y2="8"/>
	</defs>
	<clipPath id="SVGID_24_">
		<use xlink:href="#SVGID_23_"  style="overflow:visible;"/>
	</clipPath>
</g>
<g>
	<defs>
		<line id="SVGID_25_" x1="71.9" y1="127.2" x2="71.9" y2="116.3"/>
	</defs>
	<clipPath id="SVGID_26_">
		<use xlink:href="#SVGID_25_"  style="overflow:visible;"/>
	</clipPath>
</g>
<g>
	<defs>
		<line id="SVGID_27_" x1="71.9" y1="127.2" x2="71.9" y2="116.3"/>
	</defs>
	<clipPath id="SVGID_28_">
		<use xlink:href="#SVGID_27_"  style="overflow:visible;"/>
	</clipPath>
</g>
<g>
	<defs>
		<line id="SVGID_29_" x1="71.9" y1="127.2" x2="71.9" y2="116.3"/>
	</defs>
	<clipPath id="SVGID_30_">
		<use xlink:href="#SVGID_29_"  style="overflow:visible;"/>
	</clipPath>
</g>
<g>
	<defs>
		<line id="SVGID_31_" x1="71.9" y1="127.2" x2="71.9" y2="116.3"/>
	</defs>
	<clipPath id="SVGID_32_">
		<use xlink:href="#SVGID_31_"  style="overflow:visible;"/>
	</clipPath>
</g>
<g>
	<rect x="389.4" y="18.7" class="st0" width="28" height="11.5"/>
	<text transform="matrix(1 0 0 1 389.4465 26.8154)" class="st1 st5">Age</text>
	<text transform="matrix(1 0 0 1 397.2424 46.3647)" class="st6 st1 st7">80+</text>
	<g>
		<rect x="153.9" y="104.2" class="st0" width="93.3" height="36.4"/>
		<text transform="matrix(1 0 0 1 153.918 114.5681)"><tspan x="0" y="0" class="st1 st8">Population </tspan><tspan x="0" y="16.8" class="st1 st8">Demographics</tspan></text>
		<rect x="319.2" y="308.2" class="st0" width="184.6" height="17.3"/>
		<text transform="matrix(1 0 0 1 319.2287 317.0573)" class="st1 st9">Percent of Population</text>
		<polyline class="st0" points="92,308.8 634,324.6 633.9,-107.3 		"/>
		<polyline class="st0" points="92,308.8 634,324.6 633.9,-107.3 		"/>
		<path class="st4" d="M618.7,282 M619.1,23.4 M569.5,282 M569.5,23.4 M520.2,282 M517.7,23.8 M470.9,282 M470.9,23.8 M421.7,282
			 M421.7,23.8 M372.4,282 M372.4,23.8 M323.2,282 M319.7,23.8 M273.9,282 M271.2,23.8 M224.6,282 M224.6,23.8 M175.4,282
			 M175.4,23.8"/>
		<polyline class="st0" points="92,308.8 634,324.6 633.9,-107.3 		"/>
		<g>
			<defs>
				<polyline id="SVGID_33_" points="618.9,25.8 125.5,25.8 125.7,281.6 619.1,281.6 				"/>
			</defs>
			<clipPath id="SVGID_34_">
				<use xlink:href="#SVGID_33_"  style="overflow:visible;"/>
			</clipPath>
			<polygon class="st10" points="272.3,195.2 272.3,209.3 372.4,209.3 372.4,195.2 284.8,195.2 			"/>
			<polygon class="st10" points="255.1,224.1 255.1,238.2 256.7,238.2 372.4,238.2 372.4,224.1 259,224.1 			"/>
			<polygon class="st10" points="259,209.3 259,224.1 372.4,224.1 372.4,209.3 272.3,209.3 			"/>
			<polygon class="st11" points="257.5,267.1 257.5,282 372.4,282 372.4,267.1 258.3,267.1 			"/>
			<polygon class="st10" points="284.8,181.1 284.8,195.2 372.4,195.2 372.4,181.1 294.2,181.1 			"/>
			<rect x="258.3" y="253" class="st11" width="114.2" height="14.1"/>
			<polygon class="st10" points="256.7,253 258.3,253 372.4,253 372.4,238.2 256.7,238.2 			"/>
			<polygon class="st10" points="294.2,166.2 294.2,181.1 372.4,181.1 372.4,166.2 300.5,166.2 			"/>
			<polygon class="st11" points="343.5,80.2 343.5,94.3 372.4,94.3 372.4,80.2 352.1,80.2 			"/>
			<polygon class="st12" points="352.1,65.4 352.1,80.2 372.4,80.2 372.4,65.4 357.6,65.4 			"/>
			<polygon class="st10" points="333.3,94.3 333.3,109.2 372.4,109.2 372.4,94.3 343.5,94.3 			"/>
			<polygon class="st12" points="357.6,51.3 357.6,65.4 372.4,65.4 372.4,51.3 358.3,51.3 			"/>
			<rect x="358.3" y="36.4" class="st11" width="14.1" height="14.9"/>
			<polygon class="st11" points="309.1,123.2 309.1,137.3 372.4,137.3 372.4,123.2 321.6,123.2 			"/>
			<polygon class="st10" points="301.3,137.3 301.3,152.2 372.4,152.2 372.4,137.3 309.1,137.3 			"/>
			<polygon class="st10" points="300.5,152.2 300.5,166.2 372.4,166.2 372.4,152.2 301.3,152.2 			"/>
			<polygon class="st11" points="321.6,109.2 321.6,123.2 372.4,123.2 372.4,109.2 333.3,109.2 			"/>
			<polygon class="st13" points="272.3,195.2 272.3,209.3 372.4,209.3 372.4,195.2 284.8,195.2 			"/>
			<polygon class="st13" points="300.5,152.2 300.5,166.2 372.4,166.2 372.4,152.2 301.3,152.2 			"/>
			<polygon class="st13" points="259,209.3 259,224.1 372.4,224.1 372.4,209.3 272.3,209.3 			"/>
			<polygon class="st13" points="294.2,166.2 294.2,181.1 372.4,181.1 372.4,166.2 300.5,166.2 			"/>
			<polygon class="st13" points="255.1,224.1 255.1,238.2 256.7,238.2 372.4,238.2 372.4,224.1 259,224.1 			"/>
			<rect x="258.3" y="253" class="st13" width="114.2" height="14.1"/>
			<polygon class="st13" points="257.5,267.1 257.5,282 372.4,282 372.4,267.1 258.3,267.1 			"/>
			<polygon class="st13" points="256.7,253 258.3,253 372.4,253 372.4,238.2 256.7,238.2 			"/>
			<polygon class="st13" points="284.8,181.1 284.8,195.2 372.4,195.2 372.4,181.1 294.2,181.1 			"/>
			<polygon class="st13" points="343.5,80.2 343.5,94.3 372.4,94.3 372.4,80.2 352.1,80.2 			"/>
			<polygon class="st11" points="352.1,65.4 352.1,80.2 372.4,80.2 372.4,65.4 357.6,65.4 			"/>
			<polygon class="st11" points="357.6,51.3 357.6,65.4 372.4,65.4 372.4,51.3 358.3,51.3 			"/>
			<polygon class="st13" points="301.3,137.3 301.3,152.2 372.4,152.2 372.4,137.3 309.1,137.3 			"/>
			<rect x="358.3" y="36.4" class="st13" width="14.1" height="14.9"/>
			<polygon class="st13" points="309.1,123.2 309.1,137.3 372.4,137.3 372.4,123.2 321.6,123.2 			"/>
			<polygon class="st13" points="321.6,109.2 321.6,123.2 372.4,123.2 372.4,109.2 333.3,109.2 			"/>
			<polygon class="st11" points="333.3,94.3 333.3,109.2 372.4,109.2 372.4,94.3 343.5,94.3 			"/>
		</g>
		<path class="st0" d="M392,51.3h-19.5V36.4H392V51.3z M392,65.4h-19.5V51.3H392V65.4z M397.4,80.2h-25V65.4h25V80.2z M406,94.3
			h-33.6V80.2H406V94.3z M416.2,109.2h-43.8V94.3h43.8V109.2z M428.7,123.2h-56.3v-14.1h56.3V123.2z M442,137.3h-69.6v-14.1H442
			V137.3z M450.6,152.2h-78.2v-14.9h78.2V152.2z M450.6,166.2h-78.2v-14.1h78.2V166.2z M455.3,181.1h-82.9v-14.9h82.9V181.1z
			 M463.9,195.2h-91.5v-14.1h91.5V195.2z M471.7,209.3h-99.3v-14.1h99.3V209.3z M480.3,224.1H372.4v-14.9h107.9V224.1z M484.2,238.2
			H372.4v-14.1h111.8V238.2z M483.4,253h-111v-14.9h111V253z M481.9,267.1H372.4V253h109.5V267.1z M482.7,282H372.4v-14.9h110.2V282
			z"/>
		<g>
			<rect x="372.4" y="51.3" class="st14" width="19.5" height="14.1"/>
			<polygon class="st14" points="397.4,65.4 392,65.4 372.4,65.4 372.4,80.2 397.4,80.2 			"/>
			<polygon class="st14" points="406,80.2 397.4,80.2 372.4,80.2 372.4,94.3 406,94.3 			"/>
			<rect x="372.4" y="36.4" class="st14" width="19.5" height="14.9"/>
			<rect x="372.4" y="253" class="st14" width="109.5" height="14.1"/>
			<polygon class="st14" points="372.4,253 481.9,253 483.4,253 483.4,238.2 372.4,238.2 			"/>
			<polygon class="st14" points="372.4,282 482.7,282 482.7,267.1 481.9,267.1 372.4,267.1 			"/>
			<polygon class="st14" points="416.2,94.3 406,94.3 372.4,94.3 372.4,109.2 416.2,109.2 			"/>
			<polygon class="st14" points="480.3,209.3 471.7,209.3 372.4,209.3 372.4,224.1 480.3,224.1 			"/>
			<polygon class="st14" points="471.7,195.2 463.9,195.2 372.4,195.2 372.4,209.3 471.7,209.3 			"/>
			<polygon class="st14" points="428.7,109.2 416.2,109.2 372.4,109.2 372.4,123.2 428.7,123.2 			"/>
			<polygon class="st14" points="372.4,224.1 372.4,238.2 483.4,238.2 484.2,238.2 484.2,224.1 480.3,224.1 			"/>
			<polygon class="st14" points="463.9,181.1 455.3,181.1 372.4,181.1 372.4,195.2 463.9,195.2 			"/>
			<polygon class="st14" points="450.6,137.3 442,137.3 372.4,137.3 372.4,152.2 450.6,152.2 			"/>
			<polygon class="st14" points="455.3,166.2 450.6,166.2 372.4,166.2 372.4,181.1 455.3,181.1 			"/>
			<polygon class="st14" points="442,123.2 428.7,123.2 372.4,123.2 372.4,137.3 442,137.3 			"/>
			<rect x="372.4" y="152.2" class="st14" width="78.2" height="14.1"/>
		</g>
		<line class="st15" x1="126.1" y1="282" x2="618.7" y2="282"/>
		<polyline class="st0" points="92,308.8 634,324.6 633.9,-107.3 		"/>
		<path class="st15" d="M618.7,282v2.3 M569.5,282v2.3 M520.2,282v2.3 M470.9,282v2.3 M421.7,282v2.3 M372.4,282v2.3 M323.2,282v2.3
			 M273.9,282v2.3 M224.6,282v2.3 M175.4,282v2.3 M126.1,282v2.3"/>
		<polyline class="st0" points="92,308.8 634,324.6 633.9,-107.3 		"/>
		<polyline class="st0" points="92,308.8 634,324.6 633.9,-107.3 		"/>
		<polyline class="st0" points="92,308.8 634,324.6 633.9,-107.3 		"/>
		<text transform="matrix(1 0 0 1 485.7326 249.3979)" class="st6 st1 st7">10-14</text>
		<text transform="matrix(1 0 0 1 485.7326 264.4224)" class="st6 st1 st7">5-9</text>
		<text transform="matrix(1 0 0 1 487.0353 279.6069)" class="st6 st1 st7">0-4</text>
		<text transform="matrix(1 0 0 1 484.2307 220.2573)" class="st6 st1 st7">20-24</text>
		<text transform="matrix(1 0 0 1 487.0353 235.3188)" class="st6 st1 st7">15-19</text>
		<path class="st4" d="M376.8,282"/>
		<text transform="matrix(1 0 0 1 475.259 205.6245)" class="st6 st1 st7">25-29</text>
		<text transform="matrix(1 0 0 1 468.3361 191.647)" class="st6 st1 st7">30-34</text>
		<text transform="matrix(1 0 0 1 459.8967 176.6294)" class="st6 st1 st7">35-39</text>
		<text transform="matrix(1 0 0 1 454.8586 162.4028)" class="st6 st1 st7">40-44</text>
		<text transform="matrix(1 0 0 1 454.8586 147.6851)" class="st6 st1 st7">45-49</text>
		<text transform="matrix(1 0 0 1 446.6076 133.4604)" class="st6 st1 st7">50-54</text>
		<text transform="matrix(1 0 0 1 434.0861 119.9712)" class="st6 st1 st7">55-59</text>
		<text transform="matrix(1 0 0 1 421.4709 105.4995)" class="st6 st1 st7">60-64</text>
		<text transform="matrix(1 0 0 1 411.5822 91.2749)" class="st6 st1 st7">65-69</text>
		<text transform="matrix(1 0 0 1 403.4641 75.5767)" class="st6 st1 st7">70-74</text>
		<text transform="matrix(1 0 0 1 397.2424 61.106)" class="st6 st1 st7">75-79</text>
		<polyline class="st0" points="92,300.8 626.1,300.8 633.9,-6.5 		"/>
		<g>
			<text transform="matrix(1 0 0 1 320.3615 298.1719)" class="st6 st1 st16">2</text>
		</g>
		<g>
			<text transform="matrix(1 0 0 1 271.6203 298.1719)" class="st6 st1 st16">4</text>
		</g>
		<g>
			<text transform="matrix(1 0 0 1 222.4494 298.1719)" class="st6 st1 st16">6</text>
		</g>
		<g>
			<text transform="matrix(1 0 0 1 173.2805 298.1719)" class="st6 st1 st16">8</text>
		</g>
		<g>
			<text transform="matrix(1 0 0 1 369.6857 298.1719)" class="st6 st1 st16">0</text>
		</g>
		<g>
			<text transform="matrix(1 0 0 1 419.0119 298.1719)" class="st6 st1 st16">2</text>
		</g>
		<g>
			<text transform="matrix(1 0 0 1 468.3361 298.1719)" class="st6 st1 st16">4</text>
		</g>
		<g>
			<text transform="matrix(1 0 0 1 517.6603 298.1719)" class="st6 st1 st16">6</text>
		</g>
		<g>
			<text transform="matrix(1 0 0 1 566.9885 298.1719)" class="st6 st1 st16">8</text>
		</g>
		<g>
			<text transform="matrix(1 0 0 1 613.968 298.1719)" class="st6 st1 st16">10</text>
		</g>
		<g>
			<defs>
				<line id="SVGID_35_" x1="159.2" y1="268.6" x2="159.2" y2="252.8"/>
			</defs>
			<clipPath id="SVGID_36_">
				<use xlink:href="#SVGID_35_"  style="overflow:visible;"/>
			</clipPath>
		</g>
		<g>
			<defs>
				<line id="SVGID_37_" x1="159.2" y1="268.6" x2="159.2" y2="252.8"/>
			</defs>
			<clipPath id="SVGID_38_">
				<use xlink:href="#SVGID_37_"  style="overflow:visible;"/>
			</clipPath>
		</g>
		<g>
			<defs>
				<line id="SVGID_39_" x1="159.2" y1="268.6" x2="159.2" y2="252.8"/>
			</defs>
			<clipPath id="SVGID_40_">
				<use xlink:href="#SVGID_39_"  style="overflow:visible;"/>
			</clipPath>
		</g>
		<g>
			<defs>
				<line id="SVGID_41_" x1="159.2" y1="268.6" x2="159.2" y2="252.8"/>
			</defs>
			<clipPath id="SVGID_42_">
				<use xlink:href="#SVGID_41_"  style="overflow:visible;"/>
			</clipPath>
		</g>
		<g>
			<defs>
				<line id="SVGID_43_" x1="182.8" y1="252.8" x2="182.8" y2="238.4"/>
			</defs>
			<clipPath id="SVGID_44_">
				<use xlink:href="#SVGID_43_"  style="overflow:visible;"/>
			</clipPath>
		</g>
		<g>
			<defs>
				<line id="SVGID_45_" x1="182.8" y1="252.8" x2="182.8" y2="238.4"/>
			</defs>
			<clipPath id="SVGID_46_">
				<use xlink:href="#SVGID_45_"  style="overflow:visible;"/>
			</clipPath>
		</g>
		<g>
			<defs>
				<line id="SVGID_47_" x1="182.8" y1="252.8" x2="182.8" y2="238.4"/>
			</defs>
			<clipPath id="SVGID_48_">
				<use xlink:href="#SVGID_47_"  style="overflow:visible;"/>
			</clipPath>
		</g>
		<g>
			<defs>
				<line id="SVGID_49_" x1="191.6" y1="239.8" x2="191.6" y2="224"/>
			</defs>
			<clipPath id="SVGID_50_">
				<use xlink:href="#SVGID_49_"  style="overflow:visible;"/>
			</clipPath>
		</g>
		<g>
			<defs>
				<line id="SVGID_51_" x1="191.6" y1="239.8" x2="191.6" y2="224"/>
			</defs>
			<clipPath id="SVGID_52_">
				<use xlink:href="#SVGID_51_"  style="overflow:visible;"/>
			</clipPath>
		</g>
		<g>
			<defs>
				<line id="SVGID_53_" x1="191.6" y1="239.8" x2="191.6" y2="224"/>
			</defs>
			<clipPath id="SVGID_54_">
				<use xlink:href="#SVGID_53_"  style="overflow:visible;"/>
			</clipPath>
		</g>
		<g>
			<defs>
				<line id="SVGID_55_" x1="191.6" y1="239.8" x2="191.6" y2="224"/>
			</defs>
			<clipPath id="SVGID_56_">
				<use xlink:href="#SVGID_55_"  style="overflow:visible;"/>
			</clipPath>
		</g>
		<g>
			<defs>
				<line id="SVGID_57_" x1="191.6" y1="225.4" x2="191.6" y2="209.6"/>
			</defs>
			<clipPath id="SVGID_58_">
				<use xlink:href="#SVGID_57_"  style="overflow:visible;"/>
			</clipPath>
		</g>
		<g>
			<defs>
				<line id="SVGID_59_" x1="191.6" y1="225.4" x2="191.6" y2="209.6"/>
			</defs>
			<clipPath id="SVGID_60_">
				<use xlink:href="#SVGID_59_"  style="overflow:visible;"/>
			</clipPath>
		</g>
		<g>
			<defs>
				<line id="SVGID_61_" x1="191.6" y1="225.4" x2="191.6" y2="209.6"/>
			</defs>
			<clipPath id="SVGID_62_">
				<use xlink:href="#SVGID_61_"  style="overflow:visible;"/>
			</clipPath>
		</g>
		<g>
			<defs>
				<line id="SVGID_63_" x1="191.6" y1="225.4" x2="191.6" y2="209.6"/>
			</defs>
			<clipPath id="SVGID_64_">
				<use xlink:href="#SVGID_63_"  style="overflow:visible;"/>
			</clipPath>
		</g>
		<g>
			<defs>
				<line id="SVGID_65_" x1="191.6" y1="211" x2="191.6" y2="195.2"/>
			</defs>
			<clipPath id="SVGID_66_">
				<use xlink:href="#SVGID_65_"  style="overflow:visible;"/>
			</clipPath>
		</g>
		<g>
			<defs>
				<line id="SVGID_67_" x1="191.6" y1="211" x2="191.6" y2="195.2"/>
			</defs>
			<clipPath id="SVGID_68_">
				<use xlink:href="#SVGID_67_"  style="overflow:visible;"/>
			</clipPath>
		</g>
		<g>
			<defs>
				<line id="SVGID_69_" x1="191.6" y1="211" x2="191.6" y2="195.2"/>
			</defs>
			<clipPath id="SVGID_70_">
				<use xlink:href="#SVGID_69_"  style="overflow:visible;"/>
			</clipPath>
		</g>
		<g>
			<defs>
				<line id="SVGID_71_" x1="191.6" y1="211" x2="191.6" y2="195.2"/>
			</defs>
			<clipPath id="SVGID_72_">
				<use xlink:href="#SVGID_71_"  style="overflow:visible;"/>
			</clipPath>
		</g>
		<g>
			<defs>
				<line id="SVGID_73_" x1="191.6" y1="196.6" x2="191.6" y2="180.8"/>
			</defs>
			<clipPath id="SVGID_74_">
				<use xlink:href="#SVGID_73_"  style="overflow:visible;"/>
			</clipPath>
		</g>
		<g>
			<defs>
				<line id="SVGID_75_" x1="191.6" y1="196.6" x2="191.6" y2="180.8"/>
			</defs>
			<clipPath id="SVGID_76_">
				<use xlink:href="#SVGID_75_"  style="overflow:visible;"/>
			</clipPath>
		</g>
		<g>
			<defs>
				<line id="SVGID_77_" x1="191.6" y1="196.6" x2="191.6" y2="180.8"/>
			</defs>
			<clipPath id="SVGID_78_">
				<use xlink:href="#SVGID_77_"  style="overflow:visible;"/>
			</clipPath>
		</g>
		<g>
			<defs>
				<line id="SVGID_79_" x1="191.6" y1="196.6" x2="191.6" y2="180.8"/>
			</defs>
			<clipPath id="SVGID_80_">
				<use xlink:href="#SVGID_79_"  style="overflow:visible;"/>
			</clipPath>
		</g>
		<g>
			<defs>
				<line id="SVGID_81_" x1="191.6" y1="182.2" x2="191.6" y2="166.4"/>
			</defs>
			<clipPath id="SVGID_82_">
				<use xlink:href="#SVGID_81_"  style="overflow:visible;"/>
			</clipPath>
		</g>
		<g>
			<defs>
				<line id="SVGID_83_" x1="191.6" y1="182.2" x2="191.6" y2="166.4"/>
			</defs>
			<clipPath id="SVGID_84_">
				<use xlink:href="#SVGID_83_"  style="overflow:visible;"/>
			</clipPath>
		</g>
		<g>
			<defs>
				<line id="SVGID_85_" x1="191.6" y1="182.2" x2="191.6" y2="166.4"/>
			</defs>
			<clipPath id="SVGID_86_">
				<use xlink:href="#SVGID_85_"  style="overflow:visible;"/>
			</clipPath>
		</g>
		<g>
			<defs>
				<line id="SVGID_87_" x1="191.6" y1="182.2" x2="191.6" y2="166.4"/>
			</defs>
			<clipPath id="SVGID_88_">
				<use xlink:href="#SVGID_87_"  style="overflow:visible;"/>
			</clipPath>
		</g>
		<g>
			<defs>
				<line id="SVGID_89_" x1="191.6" y1="167.8" x2="191.6" y2="152"/>
			</defs>
			<clipPath id="SVGID_90_">
				<use xlink:href="#SVGID_89_"  style="overflow:visible;"/>
			</clipPath>
		</g>
		<g>
			<defs>
				<line id="SVGID_91_" x1="191.6" y1="167.8" x2="191.6" y2="152"/>
			</defs>
			<clipPath id="SVGID_92_">
				<use xlink:href="#SVGID_91_"  style="overflow:visible;"/>
			</clipPath>
		</g>
		<g>
			<defs>
				<line id="SVGID_93_" x1="191.6" y1="167.8" x2="191.6" y2="152"/>
			</defs>
			<clipPath id="SVGID_94_">
				<use xlink:href="#SVGID_93_"  style="overflow:visible;"/>
			</clipPath>
		</g>
		<g>
			<defs>
				<line id="SVGID_95_" x1="191.6" y1="167.8" x2="191.6" y2="152"/>
			</defs>
			<clipPath id="SVGID_96_">
				<use xlink:href="#SVGID_95_"  style="overflow:visible;"/>
			</clipPath>
		</g>
		<g>
			<defs>
				<line id="SVGID_97_" x1="191.6" y1="153.4" x2="191.6" y2="137.6"/>
			</defs>
			<clipPath id="SVGID_98_">
				<use xlink:href="#SVGID_97_"  style="overflow:visible;"/>
			</clipPath>
		</g>
		<g>
			<defs>
				<line id="SVGID_99_" x1="191.6" y1="153.4" x2="191.6" y2="137.6"/>
			</defs>
			<clipPath id="SVGID_100_">
				<use xlink:href="#SVGID_99_"  style="overflow:visible;"/>
			</clipPath>
		</g>
		<g>
			<defs>
				<line id="SVGID_101_" x1="191.6" y1="153.4" x2="191.6" y2="137.6"/>
			</defs>
			<clipPath id="SVGID_102_">
				<use xlink:href="#SVGID_101_"  style="overflow:visible;"/>
			</clipPath>
		</g>
		<g>
			<defs>
				<line id="SVGID_103_" x1="191.6" y1="153.4" x2="191.6" y2="137.6"/>
			</defs>
			<clipPath id="SVGID_104_">
				<use xlink:href="#SVGID_103_"  style="overflow:visible;"/>
			</clipPath>
		</g>
		<g>
			<defs>
				<line id="SVGID_105_" x1="236.2" y1="119.8" x2="236.2" y2="104"/>
			</defs>
			<clipPath id="SVGID_106_">
				<use xlink:href="#SVGID_105_"  style="overflow:visible;"/>
			</clipPath>
		</g>
		<g>
			<defs>
				<line id="SVGID_107_" x1="236.2" y1="119.8" x2="236.2" y2="104"/>
			</defs>
			<clipPath id="SVGID_108_">
				<use xlink:href="#SVGID_107_"  style="overflow:visible;"/>
			</clipPath>
		</g>
		<g>
			<defs>
				<line id="SVGID_109_" x1="236.2" y1="119.8" x2="236.2" y2="104"/>
			</defs>
			<clipPath id="SVGID_110_">
				<use xlink:href="#SVGID_109_"  style="overflow:visible;"/>
			</clipPath>
		</g>
		<g>
			<defs>
				<line id="SVGID_111_" x1="236.2" y1="119.8" x2="236.2" y2="104"/>
			</defs>
			<clipPath id="SVGID_112_">
				<use xlink:href="#SVGID_111_"  style="overflow:visible;"/>
			</clipPath>
		</g>
		<g>
			<defs>
				<line id="SVGID_113_" x1="236.2" y1="105.4" x2="236.2" y2="89.6"/>
			</defs>
			<clipPath id="SVGID_114_">
				<use xlink:href="#SVGID_113_"  style="overflow:visible;"/>
			</clipPath>
		</g>
		<g>
			<defs>
				<line id="SVGID_115_" x1="236.2" y1="105.4" x2="236.2" y2="89.6"/>
			</defs>
			<clipPath id="SVGID_116_">
				<use xlink:href="#SVGID_115_"  style="overflow:visible;"/>
			</clipPath>
		</g>
		<g>
			<defs>
				<line id="SVGID_117_" x1="236.2" y1="105.4" x2="236.2" y2="89.6"/>
			</defs>
			<clipPath id="SVGID_118_">
				<use xlink:href="#SVGID_117_"  style="overflow:visible;"/>
			</clipPath>
		</g>
		<g>
			<defs>
				<line id="SVGID_119_" x1="236.2" y1="105.4" x2="236.2" y2="89.6"/>
			</defs>
			<clipPath id="SVGID_120_">
				<use xlink:href="#SVGID_119_"  style="overflow:visible;"/>
			</clipPath>
		</g>
		<g>
			<defs>
				<line id="SVGID_121_" x1="191.6" y1="110.2" x2="191.6" y2="94.4"/>
			</defs>
			<clipPath id="SVGID_122_">
				<use xlink:href="#SVGID_121_"  style="overflow:visible;"/>
			</clipPath>
		</g>
		<g>
			<defs>
				<line id="SVGID_123_" x1="191.6" y1="110.2" x2="191.6" y2="94.4"/>
			</defs>
			<clipPath id="SVGID_124_">
				<use xlink:href="#SVGID_123_"  style="overflow:visible;"/>
			</clipPath>
		</g>
		<g>
			<defs>
				<line id="SVGID_125_" x1="191.6" y1="110.2" x2="191.6" y2="94.4"/>
			</defs>
			<clipPath id="SVGID_126_">
				<use xlink:href="#SVGID_125_"  style="overflow:visible;"/>
			</clipPath>
		</g>
		<g>
			<defs>
				<line id="SVGID_127_" x1="191.6" y1="110.2" x2="191.6" y2="94.4"/>
			</defs>
			<clipPath id="SVGID_128_">
				<use xlink:href="#SVGID_127_"  style="overflow:visible;"/>
			</clipPath>
		</g>
		<g>
			<defs>
				<line id="SVGID_129_" x1="191.6" y1="95.8" x2="191.6" y2="80"/>
			</defs>
			<clipPath id="SVGID_130_">
				<use xlink:href="#SVGID_129_"  style="overflow:visible;"/>
			</clipPath>
		</g>
		<g>
			<defs>
				<line id="SVGID_131_" x1="191.6" y1="95.8" x2="191.6" y2="80"/>
			</defs>
			<clipPath id="SVGID_132_">
				<use xlink:href="#SVGID_131_"  style="overflow:visible;"/>
			</clipPath>
		</g>
		<g>
			<defs>
				<line id="SVGID_133_" x1="191.6" y1="95.8" x2="191.6" y2="80"/>
			</defs>
			<clipPath id="SVGID_134_">
				<use xlink:href="#SVGID_133_"  style="overflow:visible;"/>
			</clipPath>
		</g>
		<g>
			<defs>
				<line id="SVGID_135_" x1="191.6" y1="95.8" x2="191.6" y2="80"/>
			</defs>
			<clipPath id="SVGID_136_">
				<use xlink:href="#SVGID_135_"  style="overflow:visible;"/>
			</clipPath>
		</g>
		<g>
			<defs>
				<line id="SVGID_137_" x1="191.6" y1="81.4" x2="191.6" y2="65.6"/>
			</defs>
			<clipPath id="SVGID_138_">
				<use xlink:href="#SVGID_137_"  style="overflow:visible;"/>
			</clipPath>
		</g>
		<g>
			<defs>
				<line id="SVGID_139_" x1="191.6" y1="81.4" x2="191.6" y2="65.6"/>
			</defs>
			<clipPath id="SVGID_140_">
				<use xlink:href="#SVGID_139_"  style="overflow:visible;"/>
			</clipPath>
		</g>
		<g>
			<defs>
				<line id="SVGID_141_" x1="191.6" y1="81.4" x2="191.6" y2="65.6"/>
			</defs>
			<clipPath id="SVGID_142_">
				<use xlink:href="#SVGID_141_"  style="overflow:visible;"/>
			</clipPath>
		</g>
		<g>
			<defs>
				<line id="SVGID_143_" x1="191.6" y1="81.4" x2="191.6" y2="65.6"/>
			</defs>
			<clipPath id="SVGID_144_">
				<use xlink:href="#SVGID_143_"  style="overflow:visible;"/>
			</clipPath>
		</g>
		<g>
			<defs>
				<line id="SVGID_145_" x1="191.6" y1="67" x2="191.6" y2="51.2"/>
			</defs>
			<clipPath id="SVGID_146_">
				<use xlink:href="#SVGID_145_"  style="overflow:visible;"/>
			</clipPath>
		</g>
		<g>
			<defs>
				<line id="SVGID_147_" x1="191.6" y1="67" x2="191.6" y2="51.2"/>
			</defs>
			<clipPath id="SVGID_148_">
				<use xlink:href="#SVGID_147_"  style="overflow:visible;"/>
			</clipPath>
		</g>
		<g>
			<defs>
				<line id="SVGID_149_" x1="191.6" y1="67" x2="191.6" y2="51.2"/>
			</defs>
			<clipPath id="SVGID_150_">
				<use xlink:href="#SVGID_149_"  style="overflow:visible;"/>
			</clipPath>
		</g>
		<g>
			<defs>
				<line id="SVGID_151_" x1="191.6" y1="67" x2="191.6" y2="51.2"/>
			</defs>
			<clipPath id="SVGID_152_">
				<use xlink:href="#SVGID_151_"  style="overflow:visible;"/>
			</clipPath>
		</g>
		<rect x="302.8" y="270.5" class="st0" width="25.5" height="11.5"/>
		<text transform="matrix(1 0 0 1 302.7521 278.6353)" class="st1 st5">Male</text>
		<rect x="407" y="270.5" class="st0" width="39.6" height="11.5"/>
		<text transform="matrix(1 0 0 1 407.0139 278.6353)" class="st1 st5">Female</text>
	</g>
</g>
<rect x="217.3" y="397.4" class="st0" width="112.8" height="14.1"/>
<text transform="matrix(1 0 0 1 217.3193 408.7627)" class="st1 st17">Total Population</text>
<rect x="249.2" y="412.1" class="st0" width="49" height="12.9"/>
<text transform="matrix(1 0 0 1 249.209 420.1953)" class="st1 st18">Millions</text>
<g>
	<g>
		<line class="st0" x1="181.4" y1="567.9" x2="592.7" y2="567.9"/>
		<g>
			<g>
				<line class="st0" x1="181.4" y1="567.9" x2="181.4" y2="562"/>
				<line class="st0" x1="237.2" y1="567.9" x2="237.2" y2="562"/>
				<line class="st0" x1="293" y1="567.9" x2="293" y2="562"/>
				<line class="st0" x1="348.8" y1="567.9" x2="348.8" y2="562"/>
				<line class="st0" x1="404.6" y1="567.9" x2="404.6" y2="562"/>
				<line class="st0" x1="460.4" y1="567.9" x2="460.4" y2="562"/>
				<line class="st0" x1="516.2" y1="567.9" x2="516.2" y2="562"/>
			</g>
			<g>
			</g>
		</g>
	</g>
	<g>
		<g>
			<text transform="matrix(1 0 0 1 189.1562 574.7705)" class="st0 st1 st19">0</text>
			<text transform="matrix(1 0 0 1 182.438 535.3721)" class="st0 st1 st19">10</text>
			<text transform="matrix(1 0 0 1 182.438 495.9727)" class="st0 st1 st19">20</text>
			<text transform="matrix(1 0 0 1 182.438 456.5762)" class="st0 st1 st19">30</text>
			<text transform="matrix(1 0 0 1 182.438 417.1777)" class="st0 st1 st19">40</text>
			<text transform="matrix(1 0 0 1 182.438 377.7793)" class="st0 st1 st19">50</text>
			<text transform="matrix(1 0 0 1 182.438 338.3818)" class="st0 st1 st19">60</text>
		</g>
		<line class="st0" x1="183.1" y1="567.9" x2="203.8" y2="331.5"/>
		<g>
			<g>
				<line class="st0" x1="181.4" y1="528.5" x2="191.1" y2="528.5"/>
				<line class="st0" x1="181.4" y1="489.1" x2="191.1" y2="489.1"/>
				<line class="st0" x1="181.4" y1="449.7" x2="191.1" y2="449.7"/>
				<line class="st0" x1="181.4" y1="410.3" x2="191.1" y2="410.3"/>
				<line class="st0" x1="181.4" y1="370.9" x2="191.1" y2="370.9"/>
			</g>
			<g>
			</g>
		</g>
	</g>
	<g>
		<g>
			<g>
				<line class="st20" x1="265.1" y1="543.9" x2="209.3" y2="552.6"/>
				<line class="st20" x1="320.9" y1="532.1" x2="265.1" y2="543.9"/>
				<line class="st20" x1="376.7" y1="503" x2="320.9" y2="532.1"/>
				<line class="st20" x1="432.5" y1="458.6" x2="376.7" y2="503"/>
				<line class="st20" x1="488.3" y1="408.7" x2="432.5" y2="458.6"/>
				<line class="st20" x1="544.1" y1="370" x2="488.3" y2="408.7"/>
			</g>
		</g>
	</g>
	<g>
		<g>
			<g>
				<rect x="206.6" y="549.9" class="st21" width="5.3" height="5.3"/>
				<rect x="262.4" y="541.2" class="st21" width="5.3" height="5.3"/>
				<rect x="318.2" y="529.4" class="st21" width="5.3" height="5.3"/>
				<rect x="374" y="500.3" class="st21" width="5.3" height="5.3"/>
				<rect x="429.8" y="455.9" class="st21" width="5.3" height="5.3"/>
				<rect x="485.7" y="406.1" class="st21" width="5.3" height="5.3"/>
				<rect x="541.5" y="367.4" class="st22" width="5.3" height="5.3"/>
			</g>
		</g>
	</g>
	<g>
		<g>
		</g>
	</g>
	<g>
		<text transform="matrix(1 0 0 1 528.9932 585.332)" class="st23 st1 st24">2020</text>
		<text transform="matrix(1 0 0 1 473.1787 585.332)" class="st23 st1 st24">2000</text>
		<text transform="matrix(1 0 0 1 417.3633 585.332)" class="st23 st1 st24">1980</text>
		<text transform="matrix(1 0 0 1 361.5493 585.332)" class="st23 st1 st24">1960</text>
		<text transform="matrix(1 0 0 1 305.7339 585.332)" class="st23 st1 st24">1940</text>
		<text transform="matrix(1 0 0 1 249.9185 585.332)" class="st23 st1 st24">1920</text>
		<text transform="matrix(1 0 0 1 194.1021 585.332)" class="st23 st1 st24">1900</text>
	</g>
</g>
<g>
	<rect x="196.7" y="537.2" class="st0" width="26.1" height="10.4"/>
	<text transform="matrix(1 0 0 1 196.6797 545.084)" class="st25 st1 st26">3.89</text>
</g>
<g>
	<rect x="253.3" y="529.4" class="st0" width="40.8" height="20.7"/>
	<text transform="matrix(1 0 0 1 253.3301 537.3037)" class="st25 st1 st26">6.09</text>
</g>
<rect x="308.1" y="517" class="st0" width="24.8" height="10.4"/>
<text transform="matrix(1 0 0 1 308.0781 524.8389)" class="st25 st1 st26">9.09</text>
<rect x="351.3" y="487.7" class="st0" width="29.7" height="10.4"/>
<text transform="matrix(1 0 0 1 351.2646 495.6016)" class="st25 st1 st26">16.48</text>
<rect x="406" y="444.2" class="st0" width="30" height="10.4"/>
<text transform="matrix(1 0 0 1 405.9932 452.0586)" class="st25 st1 st26">27.74</text>
<rect x="462.7" y="394.1" class="st0" width="30" height="10.4"/>
<text transform="matrix(1 0 0 1 462.6689 401.9629)" class="st25 st1 st26">40.40</text>
<rect x="518.9" y="353.7" class="st0" width="29.8" height="13.3"/>
<text transform="matrix(1 0 0 1 518.9414 361.5723)" class="st25 st1 st26">50.22</text>
</svg>
